<svg width="24" height="24" viewBox="0 0 24 24" fill="none" xmlns="http://www.w3.org/2000/svg">
<g opacity="0.8" clip-path="url(#clip0_37_171)">
<path d="M11.2966 1.64783C8.58617 1.80341 6.04442 2.85664 4.01562 4.66475L7.15325 7.80237C8.33403 6.81936 9.76775 6.22531 11.2966 6.08562V1.64783Z" fill="#323232"/>
<path d="M6.15932 8.79638L3.02174 5.65881C1.21209 7.68704 0.157539 10.229 0.000976562 12.94H4.43896C4.57959 11.4109 5.1749 9.97707 6.15932 8.79638Z" fill="#323232"/>
<path d="M19.5612 12.94H23.9992C23.8426 10.229 22.7881 7.68704 20.9784 5.65881L17.8408 8.79638C18.8252 9.97702 19.4206 11.4109 19.5612 12.94Z" fill="#323232"/>
<path d="M19.5605 14.3464C19.462 15.4293 19.1529 16.3326 18.7874 17.0572C19.144 17.607 19.4412 18.0718 19.6376 18.3804C20.1725 19.221 20.0541 20.2999 19.3496 21.0044C19.1786 21.1755 18.9832 21.3133 18.7715 21.4151L19.5022 22.1459C19.6397 22.2834 19.82 22.3522 20.0003 22.3522C20.1805 22.3522 20.3608 22.2834 20.4983 22.1459C22.6041 20.0403 23.832 17.2927 24 14.3464H19.5605Z" fill="#323232"/>
<path d="M4.43953 14.3464H0C0.168047 17.2927 1.39594 20.0403 3.5017 22.146C3.63923 22.2835 3.81947 22.3523 3.9997 22.3523C4.17994 22.3523 4.36022 22.2834 4.49775 22.146L6.63113 20.0124C6.90614 19.7374 6.90614 19.2914 6.63113 19.0163C6.07439 18.4596 4.67203 16.9009 4.43953 14.3464Z" fill="#323232"/>
<path d="M19.9841 4.66475C17.9553 2.85659 15.4135 1.80341 12.7031 1.64783V6.08562C14.2319 6.22531 15.6657 6.81936 16.8465 7.80237L19.9841 4.66475Z" fill="#323232"/>
<path d="M13.5626 12.0927C12.7011 11.2313 11.2995 11.2313 10.4381 12.0927C9.57664 12.9541 9.57664 14.3558 10.4381 15.2172C11.5263 16.3055 16.8745 19.7203 17.4808 20.1061C17.7588 20.283 18.1224 20.2431 18.3555 20.0101C18.5885 19.7771 18.6284 19.4135 18.4515 19.1354C18.0657 18.5292 14.6508 13.1809 13.5626 12.0927Z" fill="#323232"/>
</g>
<defs>
<clipPath id="clip0_37_171">
<rect width="24" height="24" fill="white"/>
</clipPath>
</defs>
</svg>
