<svg width="24" height="24" viewBox="0 0 24 24" fill="none" xmlns="http://www.w3.org/2000/svg">
<path d="M12 0C5.38312 0 0 5.38312 0 12C0 18.6169 5.38312 24 12 24C18.6169 24 24 18.6169 24 12C24 5.38312 18.6169 0 12 0ZM12 22.2524C6.34688 22.2524 1.74759 17.6531 1.74759 12C1.74759 6.34688 6.34688 1.74759 12 1.74759C17.6531 1.74759 22.2524 6.34688 22.2524 12C22.2524 17.6531 17.6531 22.2524 12 22.2524Z" fill="#FE454A"/>
<path d="M19.042 3.75008L3.72144 19.0707L4.95693 20.3062L20.2775 4.98557L19.042 3.75008Z" fill="#FE454A"/>
</svg>
