<svg width="78" height="76" viewBox="0 0 78 76" fill="none" xmlns="http://www.w3.org/2000/svg">
<g clip-path="url(#clip0_174_132)" filter="url(#filter0_d_174_132)">
<g filter="url(#filter1_d_174_132)">
<path d="M62.6384 25.7402H15.3611L14.6921 31.3778V51.2688C14.6921 53.6634 16.6334 55.6048 19.0282 55.6048H29.5305V55.6033C29.5305 51.1288 33.1578 47.5015 37.6323 47.5015H40.7436C45.219 47.5015 48.8469 51.1295 48.8469 55.6048H58.9717C61.3663 55.6048 63.3077 53.6635 63.3077 51.2688V31.3778L62.6384 25.7402Z" fill="#00DEDE"/>
<path d="M21.9874 10.3108C22.0176 10.3099 26.7552 10.3092 32.6853 10.3091H44.6917C50.9095 10.3093 55.9811 10.3081 56.0124 10.3091C58.796 10.3981 61.0727 12.5681 61.4015 15.3336L62.2951 22.849L60.4552 7.34172C60.196 5.15887 58.3465 3.5166 56.1489 3.5166H21.8505C19.6529 3.5166 17.8034 5.15887 17.5441 7.34172L15.3628 25.7248L16.5983 15.3336C16.9273 12.5679 19.2038 10.3998 21.9874 10.3108V10.3108Z" fill="#868EAF"/>
<path d="M62.6396 25.7405L62.2959 22.8496L62.6389 25.7405H62.6396Z" fill="#F9F5F3"/>
<path d="M15.3616 25.7398L15.3633 25.7246L15.3616 25.7398Z" fill="#F9F5F3"/>
<path d="M44.1587 48.2541C43.1216 47.7709 41.9656 47.5008 40.7456 47.5008H37.6312C36.5736 47.5008 35.5623 47.7041 34.637 48.0739L37.6312 38.1563C38.1963 36.2306 40.934 36.2607 41.4553 38.1987L44.1587 48.2541Z" fill="#9AFFFF"/>
<path d="M63.3076 51.2695V59.1877C63.3076 61.4996 61.4338 63.372 59.1219 63.372C56.81 63.372 54.9363 61.4996 54.9363 59.1877V55.6053H58.9718C61.367 55.6053 63.3076 53.6633 63.3076 51.2695Z" fill="#868EAF"/>
<path d="M23.0625 55.6053V59.1877C23.0625 61.4996 21.1888 63.372 18.8783 63.372C16.5664 63.372 14.6926 61.4996 14.6926 59.1877V51.2695C14.6926 53.6633 16.6333 55.6053 19.0284 55.6053H23.0625Z" fill="#868EAF"/>
<path d="M14.6922 31.3721H7.07918C6.13363 31.3721 5.36719 30.6056 5.36719 29.6601V24.8936C5.36719 23.9481 6.13363 23.1816 7.07918 23.1816H9.45412C10.23 23.1816 10.9378 23.6252 11.2762 24.3234L14.6922 31.3721Z" fill="#9AFFFF"/>
<path d="M63.3079 31.3721H70.9208C71.8663 31.3721 72.6328 30.6056 72.6328 29.6601V24.8936C72.6328 23.9481 71.8663 23.1816 70.9208 23.1816H68.5458C67.7699 23.1816 67.0622 23.6252 66.7238 24.3234L63.3079 31.3721Z" fill="#9AFFFF"/>
<path d="M32.686 10.309C26.7559 10.3092 22.0183 10.3098 21.9881 10.3107C19.2045 10.3997 16.9278 12.5678 16.599 15.3335L15.3616 25.74H62.6396L61.4022 15.3335C61.0733 12.568 58.7967 10.398 56.0131 10.309C55.9818 10.308 50.9102 10.3092 44.6924 10.309H32.686Z" fill="#F9F5F3"/>
<path d="M48.8465 58.1336H29.5295V55.6038C29.5295 51.1292 33.1568 47.502 37.6314 47.502H40.7447C45.2192 47.502 48.8465 51.1292 48.8465 55.6038V58.1336Z" fill="#9AFFFF"/>
<path d="M44.4727 58.1328V61.1997C44.4727 64.117 42.1077 66.4835 39.1889 66.4835C36.2701 66.4835 33.9038 64.117 33.9038 61.1997V58.1328H44.4727Z" fill="#868EAF"/>
<path d="M52.6103 39.0229C54.7155 39.0229 56.422 37.3163 56.422 35.2111C56.422 33.106 54.7155 31.3994 52.6103 31.3994C50.5051 31.3994 48.7986 33.106 48.7986 35.2111C48.7986 37.3163 50.5051 39.0229 52.6103 39.0229Z" fill="#FFCE62"/>
<path d="M26.6367 39.0229C28.7418 39.0229 30.4484 37.3163 30.4484 35.2111C30.4484 33.106 28.7418 31.3994 26.6367 31.3994C24.5315 31.3994 22.825 33.106 22.825 35.2111C22.825 37.3163 24.5315 39.0229 26.6367 39.0229Z" fill="#FFCE62"/>
<path d="M70.9208 21.8145H68.5459C67.2548 21.8145 66.0566 22.5652 65.4935 23.7271L64.1141 26.5733L61.813 7.18066C61.4725 4.31244 59.0375 2.14941 56.149 2.14941H21.8507C18.9622 2.14941 16.5271 4.3123 16.1867 7.18066L13.8856 26.5727L12.5065 23.7271C11.9434 22.5652 10.7453 21.8145 9.45426 21.8145H7.07918C5.38141 21.8145 4 23.1958 4 24.8937V29.66C4 31.3579 5.38141 32.7391 7.07918 32.7391H13.3249L13.3253 59.1871C13.3253 62.2482 15.8163 64.7384 18.8781 64.7384C21.9393 64.7384 24.4296 62.2481 24.4296 59.1871V56.9717H28.1624V58.1327C28.1624 58.8877 28.7745 59.4999 29.5296 59.4999H32.5361V61.1992C32.5361 64.8665 35.5204 67.8502 39.1885 67.8502C42.8559 67.8502 45.8394 64.8665 45.8394 61.1992V59.4999H48.8465C49.6016 59.4999 50.2137 58.8877 50.2137 58.1327V56.9717H53.5686V59.1871C53.5686 62.2482 56.0596 64.7384 59.1214 64.7384C62.1834 64.7384 64.6743 62.2481 64.6743 59.1871L64.6744 32.7391H70.9205C72.6185 32.7391 73.9997 31.3577 73.9997 29.66V24.8937C74 23.1958 72.6186 21.8145 70.9208 21.8145V21.8145ZM61.4618 52.8818C60.9179 53.7185 59.9705 54.2375 58.9715 54.2375H50.1156C49.6936 51.3355 47.8847 48.7387 45.3227 47.3177L42.7755 37.8438C42.3808 36.3765 41.0949 35.3792 39.5757 35.362C39.5623 35.3618 39.5493 35.3618 39.5359 35.3618C38.0333 35.3618 36.7437 36.326 36.3225 37.7615L33.5091 47.0803C30.7165 48.4392 28.7082 51.1605 28.2618 54.2376H19.0281C17.3946 54.2376 16.0724 52.879 16.0593 51.2599V31.4585L16.5755 27.1074H61.4238L61.9402 31.4586V51.2651C61.9403 51.8378 61.7742 52.4018 61.4618 52.8818V52.8818ZM36.6353 46.1854L38.943 38.5415C39.0581 38.1494 39.3671 38.094 39.5447 38.0961C39.7197 38.0981 40.0289 38.1602 40.1348 38.5539L42.2026 46.2448C41.7218 46.1705 41.2318 46.1337 40.7455 46.1337H37.6312C37.2995 46.1339 36.9652 46.1514 36.6353 46.1854V46.1854ZM21.8507 4.88393H56.149C57.6528 4.88393 58.9205 6.00994 59.0978 7.50305L59.3872 9.94197C58.3994 9.34164 57.2602 8.98125 56.0537 8.94256C56.0174 8.94133 44.6923 8.94187 44.6923 8.94187C43.9373 8.94187 43.3251 9.5541 43.3251 10.3091C43.3251 11.064 43.9372 11.6762 44.6923 11.6762C44.6923 11.6762 55.8068 11.6757 55.9869 11.6761C58.0515 11.751 59.7941 13.3897 60.0444 15.4951L61.0998 24.373H16.9005L17.9563 15.4951C18.2066 13.3903 19.9502 11.7521 22.0141 11.678C22.3189 11.6772 26.4689 11.6765 32.6858 11.6762C33.4409 11.6762 34.053 11.064 34.053 10.3091C34.053 9.55396 33.4407 8.94187 32.6858 8.94187C22.0117 8.94242 21.9766 8.94352 21.9442 8.94447C20.7386 8.98303 19.6002 9.34342 18.6126 9.94361L18.9022 7.50305C19.0793 6.00994 20.3469 4.88393 21.8507 4.88393V4.88393ZM7.07918 30.0049C6.889 30.0049 6.73438 29.8501 6.73438 29.6601V24.8937C6.73438 24.7035 6.889 24.5489 7.07918 24.5489H9.45412C9.70445 24.5489 9.9366 24.6943 10.0458 24.9196L12.5103 30.0049H7.07918ZM21.6954 59.1872C21.6954 60.7405 20.4317 62.0042 18.8783 62.0042C17.3242 62.0042 16.0598 60.7405 16.0598 59.1872V56.1368C16.9477 56.6809 17.9873 56.9719 19.0284 56.9719H21.6954V59.1872ZM43.1051 61.1993C43.1051 63.3589 41.3481 65.1159 39.1887 65.1159C37.0282 65.1159 35.2706 63.3588 35.2706 61.1993V59.5001H43.1051V61.1993ZM47.4794 56.7657H30.8968V55.6164C30.9311 51.947 33.9346 48.8687 37.6321 48.8687H40.7434C44.4027 48.8687 47.4794 51.9365 47.4794 55.6032V56.7657ZM61.9402 59.1872C61.9402 60.7405 60.6758 62.0042 59.1217 62.0042C57.5676 62.0042 56.3033 60.7405 56.3033 59.1872V56.972H58.9716C60.0148 56.972 61.0496 56.679 61.9402 56.1369V59.1872ZM71.2656 29.66C71.2656 29.8501 71.111 30.0048 70.9208 30.0048H65.4897L67.954 24.9195C68.0633 24.6943 68.2955 24.5487 68.5457 24.5487H70.9207C71.1109 24.5487 71.2655 24.7035 71.2655 24.8935V29.66H71.2656Z" fill="#39374D"/>
<path d="M52.6103 30.0322C49.7547 30.0322 47.4314 32.3555 47.4314 35.2113C47.4314 38.0669 49.7547 40.3902 52.6103 40.3902C55.4659 40.3902 57.7892 38.0669 57.7892 35.2113C57.7893 32.3555 55.4661 30.0322 52.6103 30.0322ZM52.6103 37.6558C51.2624 37.6558 50.1658 36.5592 50.1658 35.2113C50.1658 33.8634 51.2624 32.7666 52.6103 32.7666C53.9582 32.7666 55.0548 33.8632 55.0548 35.2113C55.0548 36.5593 53.9583 37.6558 52.6103 37.6558Z" fill="#39374D"/>
<path d="M26.6367 30.0322C23.781 30.0322 21.4578 32.3555 21.4578 35.2113C21.4578 38.0669 23.781 40.3902 26.6367 40.3902C29.4923 40.3902 31.8156 38.0669 31.8156 35.2113C31.8156 32.3555 29.4923 30.0322 26.6367 30.0322ZM26.6367 37.6558C25.2888 37.6558 24.1921 36.5592 24.1921 35.2113C24.1921 33.8634 25.2888 32.7666 26.6367 32.7666C27.9846 32.7666 29.0812 33.8632 29.0812 35.2113C29.0812 36.5593 27.9846 37.6558 26.6367 37.6558Z" fill="#39374D"/>
<path d="M37.6301 10.8317C38.0968 11.9528 39.7263 11.9225 40.1664 10.8005C40.6325 9.61231 39.2768 8.48794 38.1896 9.13626C37.6161 9.47847 37.3734 10.2159 37.6301 10.8317Z" fill="#39374D"/>
</g>
</g>
<defs>
<filter id="filter0_d_174_132" x="0" y="0" width="78" height="78" filterUnits="userSpaceOnUse" color-interpolation-filters="sRGB">
<feFlood flood-opacity="0" result="BackgroundImageFix"/>
<feColorMatrix in="SourceAlpha" type="matrix" values="0 0 0 0 0 0 0 0 0 0 0 0 0 0 0 0 0 0 127 0" result="hardAlpha"/>
<feOffset dy="4"/>
<feGaussianBlur stdDeviation="2"/>
<feComposite in2="hardAlpha" operator="out"/>
<feColorMatrix type="matrix" values="0 0 0 0 0 0 0 0 0 0 0 0 0 0 0 0 0 0 0.25 0"/>
<feBlend mode="normal" in2="BackgroundImageFix" result="effect1_dropShadow_174_132"/>
<feBlend mode="normal" in="SourceGraphic" in2="effect1_dropShadow_174_132" result="shape"/>
</filter>
<filter id="filter1_d_174_132" x="0" y="2.14941" width="77.9998" height="73.7012" filterUnits="userSpaceOnUse" color-interpolation-filters="sRGB">
<feFlood flood-opacity="0" result="BackgroundImageFix"/>
<feColorMatrix in="SourceAlpha" type="matrix" values="0 0 0 0 0 0 0 0 0 0 0 0 0 0 0 0 0 0 127 0" result="hardAlpha"/>
<feOffset dy="4"/>
<feGaussianBlur stdDeviation="2"/>
<feComposite in2="hardAlpha" operator="out"/>
<feColorMatrix type="matrix" values="0 0 0 0 0 0 0 0 0 0 0 0 0 0 0 0 0 0 0.25 0"/>
<feBlend mode="normal" in2="BackgroundImageFix" result="effect1_dropShadow_174_132"/>
<feBlend mode="normal" in="SourceGraphic" in2="effect1_dropShadow_174_132" result="shape"/>
</filter>
<clipPath id="clip0_174_132">
<rect width="70" height="70" fill="white" transform="translate(4)"/>
</clipPath>
</defs>
</svg>
