<svg width="44" height="44" viewBox="0 0 44 44" fill="none" xmlns="http://www.w3.org/2000/svg">
<g clip-path="url(#clip0_37_49)">
<path d="M16.1559 20.4286L0.6875 44H4.57771L16.9155 20.4286H16.1559Z" fill="#55F198"/>
<path d="M43.3471 44L27.8788 20.4286H27.1191L39.4569 44H43.3471Z" fill="#55F198"/>
<path d="M22.8025 20.4286V21.2143H21.2311V20.4286H18.6894L6.35352 44H21.2311V40.8572H22.8025V44H37.6823L25.3465 20.4286H22.8025ZM22.8025 38.5H21.2311V34.5714H22.8025V38.5ZM22.8025 32.2143H21.2311V29.0714H22.8025V32.2143ZM22.8025 27.5H21.2311V25.1429H22.8025V27.5ZM22.8025 23.5714H21.2311V22H22.8025V23.5714Z" fill="#24ED7B"/>
<path d="M22.0176 15.2539C23.9723 12.7913 27.5176 7.84218 27.5176 5.5C27.5176 2.46226 25.0553 0 22.0176 0C18.9802 0 16.5176 2.46226 16.5176 5.5C16.5176 7.84448 20.0621 12.792 22.0176 15.2539ZM22.0176 1.57143C23.7532 1.57143 25.1604 2.97866 25.1604 4.71429C25.1604 6.44992 23.7532 7.85714 22.0176 7.85714C20.2819 7.85714 18.8747 6.44992 18.8747 4.71429C18.8747 2.97866 20.2819 1.57143 22.0176 1.57143Z" fill="#24ED7B"/>
</g>
<defs>
<clipPath id="clip0_37_49">
<rect width="44" height="44" fill="white"/>
</clipPath>
</defs>
</svg>
