<svg width="24" height="24" viewBox="0 0 24 24" fill="none" xmlns="http://www.w3.org/2000/svg">
<g opacity="0.8">
<path d="M8.81229 11.1429L0.375 24H2.49693L9.22663 11.1429H8.81229Z" fill="#323232"/>
<path d="M23.6436 24L15.2063 11.1429H14.792L21.5217 24H23.6436Z" fill="#323232"/>
<path d="M12.438 11.1429V11.5715H11.5808V11.1429H10.1945L3.46582 24H11.5808V22.2857H12.438V24H20.5543L13.8256 11.1429H12.438ZM12.438 21H11.5808V18.8572H12.438V21ZM12.438 17.5715H11.5808V15.8572H12.438V17.5715ZM12.438 15H11.5808V13.7143H12.438V15ZM12.438 12.8572H11.5808V12H12.438V12.8572Z" fill="#323232"/>
<path d="M12.0098 8.32031C13.076 6.97705 15.0098 4.27755 15.0098 3C15.0098 1.34305 13.6667 0 12.0098 0C10.353 0 9.00977 1.34305 9.00977 3C9.00977 4.27881 10.9431 6.97747 12.0098 8.32031ZM12.0098 0.857143C12.9565 0.857143 13.7241 1.62472 13.7241 2.57143C13.7241 3.51814 12.9565 4.28571 12.0098 4.28571C11.0631 4.28571 10.2955 3.51814 10.2955 2.57143C10.2955 1.62472 11.0631 0.857143 12.0098 0.857143Z" fill="#323232"/>
</g>
</svg>
