<svg width="24" height="24" viewBox="0 0 24 24" fill="none" xmlns="http://www.w3.org/2000/svg">
<g clip-path="url(#clip0_81_226)">
<path d="M19.714 12.0001C19.2406 12.0001 18.8569 12.3838 18.8569 12.8572V21.4285C18.8569 21.9019 18.4731 22.2856 17.9997 22.2856H2.57139C2.098 22.2856 1.71425 21.9019 1.71425 21.4285V4.28587C1.71425 3.81247 2.098 3.42872 2.57139 3.42872H12.857C13.3304 3.42872 13.7141 3.04497 13.7141 2.57158C13.7141 2.09818 13.3304 1.71448 12.857 1.71448H2.57139C1.15125 1.71448 0 2.86573 0 4.28587V21.4285C0 22.8486 1.15125 23.9999 2.57139 23.9999H17.9998C19.4199 23.9999 20.5712 22.8486 20.5712 21.4285V12.8572C20.5712 12.3838 20.1874 12.0001 19.714 12.0001Z" fill="#A7A7A7"/>
<path d="M23.0393 0.961417C22.4239 0.345889 21.5891 0.000157256 20.7187 0.000257701C19.8478 -0.00225343 19.0122 0.344081 18.3985 0.961969L7.10829 12.2512C7.01462 12.3456 6.94396 12.4603 6.90172 12.5863L5.18747 17.7291C5.03786 18.1783 5.28069 18.6636 5.72983 18.8132C5.81696 18.8422 5.90822 18.857 6.00003 18.8571C6.09203 18.857 6.18349 18.8422 6.27088 18.8134L11.4137 17.0992C11.54 17.057 11.6547 16.986 11.7488 16.8918L23.039 5.60163C24.3204 4.32035 24.3205 2.24285 23.0393 0.961417ZM21.827 4.39046L10.6842 15.5332L7.35513 16.6449L8.4634 13.32L19.6104 2.17736C20.2232 1.56574 21.2159 1.56675 21.8275 2.17956C22.1196 2.47231 22.2843 2.86862 22.2855 3.2822C22.2866 3.69799 22.1215 4.09696 21.827 4.39046Z" fill="#A7A7A7"/>
</g>
<defs>
<clipPath id="clip0_81_226">
<rect width="24" height="24" fill="white"/>
</clipPath>
</defs>
</svg>
