<svg width="24" height="25" viewBox="0 0 24 25" fill="none" xmlns="http://www.w3.org/2000/svg">
<path d="M4.96875 25H19.0312C20.1944 25 21.1406 24.0144 21.1406 22.8027V7.32422H16.2188C15.0556 7.32422 14.1094 6.33857 14.1094 5.12695V0H4.96875C3.80559 0 2.85938 0.985645 2.85938 2.19727V22.8027C2.85938 24.0144 3.80559 25 4.96875 25ZM7.78125 10.3027H16.2188C16.6074 10.3027 16.9219 10.6303 16.9219 11.0352C16.9219 11.44 16.6074 11.7676 16.2188 11.7676H7.78125C7.39261 11.7676 7.07812 11.44 7.07812 11.0352C7.07812 10.6303 7.39261 10.3027 7.78125 10.3027ZM7.78125 13.2324H16.2188C16.6074 13.2324 16.9219 13.56 16.9219 13.9648C16.9219 14.3697 16.6074 14.6973 16.2188 14.6973H7.78125C7.39261 14.6973 7.07812 14.3697 7.07812 13.9648C7.07812 13.56 7.39261 13.2324 7.78125 13.2324ZM7.78125 16.1621H16.2188C16.6074 16.1621 16.9219 16.4897 16.9219 16.8945C16.9219 17.2994 16.6074 17.627 16.2188 17.627H7.78125C7.39261 17.627 7.07812 17.2994 7.07812 16.8945C7.07812 16.4897 7.39261 16.1621 7.78125 16.1621ZM7.78125 19.0918H13.4062C13.7949 19.0918 14.1094 19.4194 14.1094 19.8242C14.1094 20.2291 13.7949 20.5566 13.4062 20.5566H7.78125C7.39261 20.5566 7.07812 20.2291 7.07812 19.8242C7.07812 19.4194 7.39261 19.0918 7.78125 19.0918Z" fill="#323232"/>
<path d="M16.2187 5.85894H20.7286L15.5156 0.428711V5.12651C15.5156 5.53062 15.8308 5.85894 16.2187 5.85894Z" fill="#323232"/>
</svg>
