<svg width="14" height="14" viewBox="0 0 14 14" fill="none" xmlns="http://www.w3.org/2000/svg">
<path d="M7 0C10.8598 0 14 3.14024 14 7.00004C14 10.8598 10.8598 14 7 14C3.1402 14 0 10.8598 0 7.00004C0 3.14024 3.1402 0 7 0ZM7 12.7273C10.1581 12.7273 12.7273 10.1581 12.7273 7.00004C12.7273 3.84202 10.1581 1.27273 7 1.27273C3.84194 1.27273 1.27273 3.84202 1.27273 7.00004C1.27273 10.1581 3.84198 12.7273 7 12.7273Z" fill="#C4C4C4"/>
<path d="M7.00007 2.96973C7.46784 2.96973 7.84839 3.35053 7.84839 3.81859C7.84839 4.28624 7.46784 4.6667 7.00007 4.6667C6.53231 4.6667 6.15176 4.28624 6.15176 3.81859C6.15176 3.35053 6.53231 2.96973 7.00007 2.96973Z" fill="#C4C4C4"/>
<path d="M6.99987 5.93945C7.35131 5.93945 7.63623 6.22437 7.63623 6.57582V10.394C7.63623 10.7454 7.35131 11.0304 6.99987 11.0304C6.64842 11.0304 6.3635 10.7454 6.3635 10.394V6.57582C6.3635 6.22437 6.64842 5.93945 6.99987 5.93945Z" fill="#C4C4C4"/>
</svg>
