<svg width="10" height="13" viewBox="0 0 10 13" fill="none" xmlns="http://www.w3.org/2000/svg">
<path fill-rule="evenodd" clip-rule="evenodd" d="M5 12.2222C5 12.2222 10 8.88889 10 5C10 3.67392 9.47322 2.40215 8.53553 1.46447C7.59785 0.526784 6.32608 0 5 0C3.67392 0 2.40215 0.526784 1.46447 1.46447C0.526784 2.40215 0 3.67392 0 5C0 8.88889 5 12.2222 5 12.2222ZM6.66646 5.00028C6.66646 5.92076 5.92027 6.66695 4.9998 6.66695C4.07932 6.66695 3.33313 5.92076 3.33313 5.00028C3.33313 4.07981 4.07932 3.33362 4.9998 3.33362C5.92027 3.33362 6.66646 4.07981 6.66646 5.00028Z" fill="#00DEDE"/>
</svg>
