<svg width="44" height="44" viewBox="0 0 44 44" fill="none" xmlns="http://www.w3.org/2000/svg">
<g clip-path="url(#clip0_37_37)">
<path d="M20.7117 3.02112C15.7426 3.30634 11.0827 5.23727 7.36328 8.55214L13.1156 14.3045C15.2804 12.5023 17.9088 11.4132 20.7117 11.1571V3.02112Z" fill="#24ED7B"/>
<path d="M11.2903 16.1268L5.53807 10.3746C2.22037 14.0931 0.287031 18.7533 0 23.7235H8.1363C8.39412 20.9202 9.48552 18.2914 11.2903 16.1268Z" fill="#24ED7B"/>
<path d="M35.863 23.7235H43.9993C43.7123 18.7533 41.779 14.0931 38.4612 10.3746L32.709 16.1268C34.5138 18.2913 35.6052 20.9202 35.863 23.7235Z" fill="#24ED7B"/>
<path d="M35.8606 26.3018C35.6799 28.2872 35.1133 29.9432 34.4432 31.2715C35.0969 32.2797 35.6419 33.1316 36.002 33.6975C36.9826 35.2385 36.7655 37.2166 35.474 38.5081C35.1604 38.8217 34.8022 39.0744 34.4141 39.2611L35.7537 40.6009C36.0059 40.853 36.3364 40.9791 36.6668 40.9791C36.9973 40.9791 37.3278 40.853 37.5798 40.6009C41.4405 36.7407 43.6916 31.7034 43.9997 26.3018H35.8606Z" fill="#24ED7B"/>
<path d="M8.13914 26.3018H0C0.308086 31.7034 2.55922 36.7407 6.41979 40.601C6.67193 40.8531 7.00236 40.9792 7.33279 40.9792C7.66322 40.9792 7.99373 40.853 8.24588 40.601L12.1571 36.6895C12.6613 36.1853 12.6613 35.3676 12.1571 34.8634C11.1364 33.8427 8.56539 30.9851 8.13914 26.3018Z" fill="#55F198"/>
<path d="M36.6375 8.55214C32.918 5.23719 28.2581 3.30634 23.2891 3.02112V11.1571C26.0918 11.4132 28.7204 12.5023 30.8852 14.3045L36.6375 8.55214Z" fill="#24ED7B"/>
<path d="M24.8639 22.17C23.2846 20.5908 20.7149 20.5908 19.1356 22.17C17.5564 23.7493 17.5564 26.319 19.1356 27.8983C21.1308 29.8934 30.9358 36.1539 32.0473 36.8612C32.557 37.1856 33.2236 37.1124 33.6509 36.6852C34.0781 36.258 34.1513 35.5914 33.8269 35.0816C33.1196 33.9702 26.859 24.1651 24.8639 22.17Z" fill="#24ED7B"/>
</g>
<defs>
<clipPath id="clip0_37_37">
<rect width="44" height="44" fill="white"/>
</clipPath>
</defs>
</svg>
