<svg width="24" height="24" viewBox="0 0 24 24" fill="none" xmlns="http://www.w3.org/2000/svg">
<path d="M17.9925 8.05494C17.623 7.66541 17.0072 7.64825 16.617 8.01861L10.4056 13.9093L7.44287 10.8675C7.06763 10.4825 6.4524 10.4741 6.06709 10.8493C5.6821 11.2243 5.67399 11.8401 6.0489 12.2251L9.68134 15.9546C9.8717 16.1501 10.1247 16.2487 10.3783 16.2487C10.619 16.2487 10.8596 16.1598 11.0481 15.9818L17.9562 9.43044C18.346 9.06069 18.3625 8.4448 17.9925 8.05494Z" fill="#77D452"/>
<path d="M12 0C5.38312 0 0 5.38312 0 12C0 18.6169 5.38312 24 12 24C18.6169 24 24 18.6169 24 12C24 5.38312 18.6169 0 12 0ZM12 22.0541C6.45633 22.0541 1.94592 17.544 1.94592 12C1.94592 6.45633 6.45628 1.94592 12 1.94592C17.544 1.94592 22.0541 6.45628 22.0541 12C22.0541 17.544 17.544 22.0541 12 22.0541Z" fill="#77D452"/>
</svg>
