<svg width="24" height="24" viewBox="0 0 24 24" fill="none" xmlns="http://www.w3.org/2000/svg">
<g opacity="0.8">
<path opacity="0.8" d="M12 23C18.0751 23 23 18.0751 23 12C23 5.92487 18.0751 1 12 1C5.92487 1 1 5.92487 1 12C1 18.0751 5.92487 23 12 23Z" fill="#323232"/>
<path opacity="0.8" d="M7.78525 7.85425H11.3485C12.2917 7.85425 13.0949 8.46301 13.3872 9.30812H7.78525V10.7144H13.3872C13.0949 11.5594 12.2918 12.1682 11.3485 12.1682H7.78525V13.709L13.316 19.2397L14.3104 18.2454L9.63949 13.5745H11.3485C13.0726 13.5745 14.5143 12.3435 14.8417 10.7144H16.2157V9.30812H14.8415C14.7333 8.77014 14.5042 8.27542 14.1829 7.85425H16.2156V6.448H7.78516V7.85425H7.78525Z" fill="white"/>
<path opacity="0.8" d="M20.4853 3.51469C18.2188 1.24823 15.2053 0 12 0C8.79469 0 5.78123 1.24823 3.51469 3.51469C1.24823 5.78123 0 8.79469 0 12C0 15.2053 1.24823 18.2188 3.51469 20.4853C5.78123 22.7518 8.79469 24 12 24C15.2053 24 18.2188 22.7518 20.4853 20.4853C22.7518 18.2188 24 15.2053 24 12C24 8.79469 22.7518 5.78123 20.4853 3.51469ZM19.4909 19.4909C17.49 21.4918 14.8297 22.5938 12 22.5938C9.1703 22.5938 6.51 21.4918 4.50909 19.4909C2.50819 17.49 1.40625 14.8297 1.40625 12C1.40625 9.1703 2.50819 6.51 4.50909 4.50909C6.51 2.50819 9.1703 1.40625 12 1.40625C14.8297 1.40625 17.49 2.50819 19.4909 4.50909C21.4918 6.51 22.5938 9.1703 22.5938 12C22.5938 14.8297 21.4918 17.49 19.4909 19.4909Z" fill="#323232"/>
</g>
</svg>
