<svg width="32" height="32" viewBox="0 0 32 32" fill="none" xmlns="http://www.w3.org/2000/svg">
<path d="M24.2392 20.3228L17.3984 22.6031C17.0692 22.7128 16.8471 23.0209 16.8471 23.3679C16.8471 23.7149 17.0692 24.023 17.3984 24.1327L20.4364 25.1454L21.449 28.1834C21.5588 28.5126 21.8668 28.7347 22.2138 28.7347C22.5608 28.7347 22.8689 28.5126 22.9787 28.1834L25.259 21.3426C25.3556 21.0529 25.2801 20.7335 25.0642 20.5176C24.8483 20.3017 24.5288 20.2262 24.2392 20.3228V20.3228ZM22.2138 25.3791L21.8386 24.2532C21.7583 24.0124 21.5694 23.8235 21.3287 23.7433L20.2027 23.368L23.2195 22.3624L22.2138 25.3791ZM21.6438 15.876C21.0918 15.876 20.5525 15.9319 20.0314 16.0381V8.62017C20.0314 8.17493 19.6704 7.81396 19.2252 7.81396H3.04741C2.60217 7.81396 2.24121 8.17493 2.24121 8.62017V24.7442C2.24121 25.1894 2.60217 25.5504 3.04741 25.5504H13.7439C14.493 29.2258 17.7504 32 21.6438 32C26.1189 32 29.7596 28.3834 29.7596 23.938C29.7596 19.4926 26.1189 15.876 21.6438 15.876ZM10.357 9.42637H11.9694V11.0388H10.357V9.42637ZM13.5818 23.938H3.85361V9.42637H8.74457V11.845C8.74457 12.2902 9.10553 12.6512 9.55077 12.6512H12.7756C13.2208 12.6512 13.5818 12.2902 13.5818 11.845V9.42637H18.419V16.5499C15.5743 17.7964 13.5818 20.6386 13.5818 23.938ZM21.6438 30.3876C18.0875 30.3876 15.1942 27.4943 15.1942 23.938C15.1942 20.3817 18.0875 17.4884 21.6438 17.4884C25.2298 17.4884 28.1472 20.3817 28.1472 23.938C28.1472 27.4943 25.2298 30.3876 21.6438 30.3876ZM7.93837 20.7132H6.27222C5.82698 20.7132 5.46602 21.0742 5.46602 21.5194C5.46602 21.9646 5.82698 22.3256 6.27222 22.3256H7.93837C8.38361 22.3256 8.74457 21.9646 8.74457 21.5194C8.74457 21.0742 8.38361 20.7132 7.93837 20.7132Z" fill="#00DEDE"/>
<path d="M10.8284 6.86409C10.9655 7.00122 11.1452 7.06977 11.3249 7.06977C11.5047 7.06977 11.6844 7.00122 11.8215 6.86409L14.6307 4.05491C14.8316 3.85405 14.8916 3.55197 14.783 3.28955C14.6742 3.02712 14.4182 2.856 14.1341 2.856H13.4318V0.702295C13.4318 0.314441 13.1174 0 12.7295 0H9.92035C9.5325 0 9.21806 0.314441 9.21806 0.702295V2.856H8.51576C8.23171 2.856 7.97561 3.02712 7.86694 3.28955C7.75827 3.55197 7.81834 3.85405 8.01919 4.05491L10.8284 6.86409ZM10.6226 3.55829V1.40459H12.0272V3.55829C12.0272 3.85944 12.2168 4.11634 12.4831 4.21616L11.3249 5.37429L10.1668 4.21616C10.4331 4.11634 10.6226 3.85944 10.6226 3.55829Z" fill="#00DEDE"/>
</svg>
