<svg width="44" height="44" viewBox="0 0 44 44" fill="none" xmlns="http://www.w3.org/2000/svg">
<path d="M22 0C9.86871 0 0 9.86871 0 22C0 34.1313 9.86871 44 22 44C34.1313 44 44 34.1313 44 22C44 9.86871 34.1313 0 22 0ZM32.4629 33.3793C32.1054 33.7368 31.6361 33.9168 31.1668 33.9168C30.6975 33.9168 30.2278 33.7368 29.8707 33.3793L20.7039 24.2129C20.3591 23.8701 20.1668 23.4042 20.1668 22.9168V11C20.1668 9.98621 20.9879 9.16678 22 9.16678C23.0121 9.16678 23.8332 9.98621 23.8332 11V22.1578L32.4629 30.7871C33.1796 31.5042 33.1796 32.6626 32.4629 33.3793V33.3793Z" fill="#24ED7B"/>
</svg>
