<svg width="697" height="485" viewBox="0 0 697 485" fill="none" xmlns="http://www.w3.org/2000/svg">
<g clip-path="url(#clip0_4_9039)">
<path d="M501.568 287.718L507.051 284.54C507.572 284.23 508.086 283.899 508.615 283.589C496.855 281.69 486.138 276.077 478.238 267.679C470.339 259.281 465.73 248.602 465.175 237.409C464.773 229.711 466.322 222.033 469.697 215.008C472.839 208.434 477.479 202.588 483.289 197.882C489.099 193.175 495.937 189.723 503.322 187.768L503.051 208.032L514.905 185.976C514.954 185.969 515.003 185.969 515.052 185.976C521.921 185.675 528.787 186.647 535.256 188.837C541.725 191.028 547.672 194.393 552.756 198.742C557.84 203.09 561.962 208.337 564.887 214.181C567.812 220.025 569.482 226.354 569.802 232.804C569.846 233.742 569.802 234.665 569.802 235.561C573.927 231.143 577.671 226.408 580.152 221.218C585.173 210.707 585.29 198.803 584.872 184.335C584.079 155.662 582.765 126.775 581.047 97.9707C568.67 96.6799 557.189 91.2869 548.666 82.7605C540.143 74.2342 535.137 63.1333 534.547 51.4523C534.474 49.9429 534.496 48.4609 534.547 46.9859C534.547 46.6206 534.547 46.2484 534.606 45.8831C534.709 44.4563 534.848 43.0433 535.083 41.651C535.083 41.4167 535.171 41.1961 535.215 40.9618C535.431 39.7808 535.688 38.6137 535.986 37.4603C536.103 37.033 536.214 36.5987 536.338 36.1714C536.705 34.9169 537.072 33.6831 537.579 32.4631C537.733 32.0565 537.917 31.6636 538.078 31.2638C538.452 30.3678 538.856 29.4855 539.282 28.6102C539.509 28.1484 539.73 27.6934 539.972 27.2316C540.03 27.1145 540.082 26.9973 540.148 26.8801C545.674 16.6297 554.851 8.5218 566.084 3.96588C577.316 -0.59005 589.893 -1.30597 601.629 1.94257L601.277 28.3138L613.021 6.53306C622.654 11.7109 630.272 19.6455 634.762 29.1777C639.252 38.7099 640.379 49.3405 637.978 59.5167H638.036C637.956 59.8682 637.838 60.206 637.75 60.5506C637.589 61.1985 637.412 61.8395 637.222 62.4806C636.972 63.3008 636.693 64.1072 636.407 64.9137C636.187 65.5133 635.974 66.1268 635.732 66.7195C635.379 67.588 634.998 68.4358 634.572 69.2836C634.337 69.7798 634.124 70.283 633.838 70.7724C633.167 72.0406 632.433 73.2813 631.636 74.4944C631.364 74.9149 631.056 75.3146 630.77 75.7351C630.212 76.5484 629.647 77.3549 629.037 78.1406C628.663 78.6231 628.259 79.0849 627.863 79.5605C627.29 80.2498 626.703 80.939 626.094 81.5663C625.661 82.0281 625.22 82.483 624.765 82.9448C624.127 83.5789 623.466 84.1923 622.783 84.7989C622.336 85.2056 621.881 85.6122 621.411 85.9982C620.64 86.6392 619.833 87.2527 619.018 87.8523C618.607 88.1556 618.211 88.4727 617.785 88.7622C616.547 89.626 615.267 90.4371 613.946 91.1953C613.696 91.3331 613.432 91.4503 613.212 91.5881C612.111 92.2016 611.01 92.7737 609.828 93.3113C609.336 93.5387 608.823 93.7386 608.316 93.9523C607.369 94.3521 606.415 94.7381 605.439 95.0896C604.873 95.2895 604.294 95.4756 603.714 95.6617C602.752 95.9718 601.776 96.2544 600.778 96.5095C600.19 96.6611 599.611 96.8127 599.016 96.9437C597.944 97.185 596.851 97.3848 595.75 97.5572C595.676 97.5572 595.61 97.5572 595.537 97.5985C596.261 109.748 596.905 121.904 597.467 134.067C600.589 128.049 604.988 122.693 610.393 118.328C615.799 113.963 622.097 110.681 628.901 108.683C635.706 106.686 642.873 106.015 649.964 106.712C657.054 107.408 663.918 109.458 670.135 112.735L660.879 136.549L679.919 119.379C690.112 128.152 696.183 140.362 696.802 153.332C697.044 157.883 696.597 162.444 695.473 166.876C693.081 176.469 687.674 185.166 679.954 191.837C672.234 198.509 662.557 202.848 652.179 204.292C641.8 205.736 631.199 204.217 621.75 199.933C612.302 195.65 604.443 188.798 599.192 180.269C599.192 181.503 599.288 182.743 599.324 183.977C599.669 196.742 600.102 212.623 593.327 226.808C588.74 236.423 581.348 244.232 574.045 251.228C569.296 255.784 564.37 260.189 559.32 264.455C554.355 270.716 547.874 275.777 540.412 279.219C532.118 285.221 523.53 290.84 514.648 296.079L509.253 299.346C504.269 302.248 499.16 305.225 494.147 308.306C495.028 308.224 495.901 308.134 496.797 308.099C507.894 307.611 518.869 310.448 528.137 316.201C537.404 321.953 544.484 330.323 548.354 340.102L515.632 365.115L551.599 357.278C551.589 365.594 549.334 373.771 545.046 381.046C540.758 388.321 534.576 394.456 527.078 398.88C519.58 403.303 511.01 405.869 502.169 406.338C493.328 406.807 484.505 405.165 476.523 401.564C477.331 402.515 478.146 403.459 478.953 404.403C480.56 406.285 482.161 408.153 483.724 410.007C505.011 435.324 510.941 459.365 500.394 477.693L487.578 471.186C497.854 453.348 482.44 430.52 472.288 418.485C470.754 416.665 469.183 414.832 467.598 412.971C453.996 397.118 438.582 379.114 438.971 357.051C439.522 323.828 473.94 303.792 501.568 287.718Z" fill="#F2F2F2"/>
<path d="M334.344 485C518.998 485 668.689 478.519 668.689 470.525C668.689 462.531 518.998 456.051 334.344 456.051C149.691 456.051 0 462.531 0 470.525C0 478.519 149.691 485 334.344 485Z" fill="#3F3D56"/>
<path d="M604.456 465.129C606.658 461.331 604.162 456.678 601.314 453.287C598.466 449.896 594.994 446.395 595.068 442.059C595.17 435.856 602.18 432.196 607.788 428.908C611.941 426.466 615.772 423.571 619.202 420.285C620.642 419.021 621.832 417.527 622.718 415.874C623.87 413.448 623.841 410.691 623.768 408.03C623.523 399.18 623.058 390.339 622.373 381.507" stroke="#3F3D56" stroke-width="4" stroke-miterlimit="10"/>
<path d="M633.023 381.039C632.941 379.419 632.428 377.845 631.53 376.46C630.633 375.075 629.379 373.924 627.885 373.112L625.58 377.399L625.646 372.216C624.07 371.773 622.403 371.691 620.786 371.978C619.169 372.266 617.649 372.914 616.355 373.867C615.06 374.821 614.028 376.053 613.346 377.459C612.663 378.865 612.351 380.405 612.434 381.948C612.563 384.508 613.768 386.914 615.786 388.638C616.786 389.492 617.954 390.153 619.225 390.583C620.496 391.012 621.845 391.203 623.195 391.143C624.544 391.083 625.868 390.775 627.091 390.235C628.313 389.694 629.41 388.933 630.319 387.995C631.229 387.057 631.932 385.96 632.39 384.766C632.847 383.572 633.05 382.306 632.987 381.039H633.023Z" fill="#57B793"/>
<path d="M614.651 446.519C613.573 448.486 611.806 450.046 609.649 450.936C607.491 451.826 605.073 451.993 602.8 451.409C600.527 450.824 598.537 449.524 597.164 447.725C595.79 445.927 595.117 443.74 595.256 441.531C595.396 439.322 596.34 437.225 597.93 435.591C599.52 433.958 601.66 432.887 603.99 432.559C606.321 432.231 608.701 432.665 610.731 433.788C612.762 434.912 614.319 436.656 615.143 438.73L608.713 443.644L615.789 442.1C615.79 443.637 615.4 445.152 614.651 446.519Z" fill="#57B793"/>
<path d="M609.564 427.708C608.212 427.769 606.861 427.579 605.588 427.149C604.315 426.718 603.145 426.056 602.145 425.2C601.145 424.343 600.335 423.31 599.762 422.159C599.188 421.008 598.862 419.762 598.803 418.493C598.721 416.979 599.026 415.469 599.691 414.088C600.308 412.795 601.219 411.645 602.361 410.719C603.502 409.792 604.846 409.112 606.297 408.726L606.246 412.717L608.58 408.374C611.311 408.255 613.98 409.158 616 410.886C618.021 412.615 619.228 415.026 619.356 417.59C619.483 420.154 618.521 422.66 616.68 424.558C614.84 426.455 612.272 427.588 609.542 427.708H609.564Z" fill="#57B793"/>
<path d="M634.572 412.055C631.846 412.176 629.182 411.275 627.164 409.55C625.146 407.826 623.94 405.42 623.811 402.86C623.683 400.301 624.642 397.799 626.478 395.904C628.315 394.009 630.878 392.876 633.603 392.756C635.529 392.667 637.443 393.092 639.123 393.983L637.302 398.67L641.046 395.292C643.055 397.016 644.253 399.418 644.378 401.971C644.425 402.865 644.336 403.761 644.114 404.632C643.6 406.676 642.391 408.506 640.669 409.846C638.946 411.186 636.806 411.961 634.572 412.055Z" fill="#57B793"/>
<path opacity="0.1" d="M631.636 383.589C629.258 383.837 626.946 384.533 624.56 384.671C622.174 384.809 619.554 384.271 618.042 382.527C617.227 381.59 616.823 380.404 616.133 379.384C615.483 378.431 614.594 377.643 613.542 377.089C612.921 378.309 612.579 379.638 612.54 380.99C612.501 382.342 612.764 383.687 613.314 384.937C613.864 386.187 614.688 387.314 615.731 388.246C616.775 389.178 618.016 389.894 619.373 390.346C620.73 390.799 622.174 390.979 623.61 390.874C625.045 390.769 626.442 390.382 627.708 389.737C628.975 389.093 630.082 388.206 630.96 387.134C631.838 386.061 632.466 384.828 632.803 383.513C632.407 383.527 632.018 383.554 631.636 383.589Z" fill="black"/>
<path opacity="0.1" d="M634.572 412.055C632.796 412.14 631.026 411.79 629.437 411.04C627.847 410.29 626.492 409.165 625.505 407.775C624.517 406.386 623.93 404.78 623.802 403.113C623.674 401.447 624.009 399.778 624.773 398.27C625.591 398.788 626.294 399.451 626.843 400.221C627.577 401.261 628.018 402.461 628.884 403.419C630.484 405.19 633.229 405.769 635.717 405.659C638.206 405.549 640.599 404.894 643.058 404.68C643.395 404.68 643.748 404.625 644.093 404.618C643.583 406.661 642.377 408.493 640.66 409.835C638.942 411.177 636.805 411.956 634.572 412.055Z" fill="black"/>
<path opacity="0.1" d="M609.564 427.708C608.212 427.769 606.861 427.579 605.588 427.149C604.315 426.718 603.145 426.056 602.145 425.2C601.145 424.343 600.335 423.31 599.762 422.159C599.188 421.008 598.862 419.762 598.803 418.493C598.721 416.979 599.026 415.469 599.691 414.088C600.546 414.613 601.292 415.279 601.893 416.053C602.693 417.114 603.193 418.334 604.095 419.313C605.835 421.133 608.756 421.774 611.392 421.712C614.027 421.65 616.397 421.071 618.937 420.891C618.31 422.795 617.074 424.47 615.397 425.69C613.72 426.91 611.683 427.614 609.564 427.708Z" fill="black"/>
<path opacity="0.1" d="M614.651 446.518C614.097 447.676 613.305 448.721 612.321 449.592C611.337 450.462 610.18 451.143 608.916 451.594C607.652 452.044 606.306 452.257 604.954 452.22C603.603 452.182 602.272 451.895 601.039 451.374C599.805 450.854 598.693 450.11 597.766 449.186C596.839 448.262 596.114 447.176 595.634 445.989C595.154 444.802 594.927 443.538 594.967 442.268C595.008 440.999 595.313 439.75 595.868 438.592C596.713 439.12 597.475 439.758 598.128 440.487C599.105 441.611 599.751 442.879 600.888 443.934C602.995 445.87 606.393 446.691 609.418 446.746C611.165 446.767 612.913 446.691 614.651 446.518Z" fill="black"/>
<path d="M588.924 460.752C588.924 460.752 597.049 460.518 599.501 458.877C601.953 457.237 611.979 455.279 612.618 457.912C613.256 460.545 624.839 471.008 615.657 471.049C606.474 471.091 594.326 469.671 591.882 468.292C589.438 466.914 588.924 460.752 588.924 460.752Z" fill="#656380"/>
<path opacity="0.2" d="M615.818 470.133C606.643 470.202 594.488 468.754 592.043 467.376C590.186 466.314 589.438 462.489 589.195 460.724H588.924C588.924 460.724 589.438 466.879 591.86 468.306C594.282 469.733 606.452 471.118 615.635 471.063C618.284 471.063 619.202 470.153 619.151 468.844C618.806 469.623 617.793 470.119 615.818 470.133Z" fill="black"/>
<path d="M142.7 443.865C137.371 434.601 143.434 423.256 150.363 414.998C157.292 406.741 165.777 398.153 165.594 387.628C165.329 372.505 148.242 363.579 134.589 355.563C124.458 349.614 115.112 342.56 106.748 334.548C103.393 331.329 100.141 327.896 98.189 323.788C95.3704 317.874 95.4438 311.154 95.6273 304.675C96.2145 283.078 97.3498 261.523 99.0331 240.008" stroke="#3F3D56" stroke-width="4" stroke-miterlimit="10"/>
<path d="M73.0716 238.83C73.2726 234.884 74.5259 231.049 76.7165 227.677C78.9071 224.305 81.9647 221.504 85.6086 219.53L91.2312 229.973L91.0623 217.331C96.1703 215.918 101.624 216.066 106.637 217.753C111.65 219.44 115.962 222.58 118.951 226.718C121.94 230.857 123.45 235.78 123.265 240.778C123.079 245.775 121.207 250.588 117.919 254.521C114.631 258.454 110.096 261.304 104.97 262.66C99.8447 264.015 94.3928 263.806 89.402 262.062C84.4112 260.318 80.1398 257.13 77.2045 252.958C74.2692 248.785 72.8219 243.845 73.0716 238.85V238.83Z" fill="#57B793"/>
<path d="M117.861 398.435C120.386 403.056 124.465 406.765 129.466 408.985C134.466 411.205 140.107 411.812 145.513 410.712C150.919 409.611 155.786 406.866 159.359 402.901C162.931 398.936 165.01 393.974 165.271 388.786C165.446 385.524 164.888 382.265 163.634 379.219C161.8 374.751 158.562 370.914 154.349 368.216C150.137 365.518 145.15 364.088 140.052 364.116C134.953 364.144 129.984 365.628 125.805 368.371C121.626 371.114 118.436 374.987 116.657 379.474L132.343 391.453L115.086 387.683C115.079 391.424 116.03 395.112 117.861 398.435Z" fill="#57B793"/>
<path d="M130.259 352.654C136.417 352.919 142.464 351.048 147.247 347.397C152.031 343.746 155.219 338.571 156.202 332.856C157.186 327.142 155.898 321.287 152.582 316.407C149.267 311.527 144.156 307.962 138.223 306.391L138.355 316.103L132.703 305.536H132.637C125.982 305.245 119.477 307.448 114.551 311.66C109.626 315.873 106.685 321.75 106.374 327.999C106.064 334.249 108.409 340.358 112.896 344.983C117.382 349.608 123.641 352.37 130.296 352.661L130.259 352.654Z" fill="#57B793"/>
<path d="M69.2913 314.559C73.1795 314.737 77.0585 314.063 80.6222 312.592C84.1859 311.121 87.3367 308.892 89.8258 306.082C92.315 303.271 94.0744 299.956 94.9652 296.397C95.8559 292.839 95.8537 289.135 94.9587 285.577C94.0636 282.02 92.3003 278.706 89.8078 275.898C87.3152 273.09 84.1618 270.865 80.5964 269.397C77.0309 267.93 73.1511 267.261 69.2631 267.443C65.3751 267.625 61.5853 268.653 58.1929 270.446L62.597 281.867L53.5026 273.617C51.0714 275.694 49.1004 278.201 47.7023 280.995C46.3043 283.788 45.5066 286.814 45.355 289.897C45.2384 292.079 45.4534 294.265 45.9936 296.39C47.242 301.387 50.1926 305.864 54.3973 309.143C58.602 312.423 63.8313 314.324 69.2913 314.559Z" fill="#57B793"/>
<path opacity="0.1" d="M76.4481 245.116C82.2469 245.715 87.8841 247.404 93.6975 247.742C99.5109 248.08 105.904 246.777 109.582 242.531C111.563 240.243 112.554 237.348 114.228 234.853C115.814 232.528 117.987 230.607 120.555 229.263C122.154 232.252 123.058 235.526 123.206 238.868C123.355 242.209 122.745 245.543 121.416 248.646C120.088 251.75 118.072 254.553 115.502 256.869C112.932 259.185 109.867 260.961 106.51 262.079C103.153 263.198 99.5812 263.633 96.0314 263.356C92.4817 263.08 89.0352 262.097 85.9207 260.474C82.8063 258.851 80.0951 256.624 77.9671 253.942C75.8391 251.259 74.343 248.183 73.5781 244.916C74.5544 244.957 75.5086 245.019 76.4481 245.116Z" fill="black"/>
<path opacity="0.1" d="M69.2908 314.559C73.6188 314.746 77.9249 313.88 81.7912 312.044C85.6575 310.208 88.9526 307.464 91.3568 304.079C93.7609 300.695 95.1925 296.784 95.5124 292.727C95.8324 288.669 95.03 284.603 93.183 280.923C91.1889 282.182 89.4739 283.792 88.133 285.665C86.342 288.201 85.263 291.131 83.1564 293.461C79.244 297.775 72.5645 299.188 66.5015 298.933C60.4385 298.678 54.5884 297.052 48.5548 296.535C47.718 296.466 46.8666 296.411 46.0225 296.39C47.2695 301.382 50.2157 305.857 54.4145 309.136C58.6134 312.414 63.836 314.318 69.2908 314.559Z" fill="black"/>
<path opacity="0.1" d="M130.258 352.654C134.544 352.843 138.81 351.998 142.649 350.199C146.488 348.4 149.772 345.707 152.188 342.378C154.604 339.048 156.071 335.193 156.449 331.179C156.827 327.166 156.104 323.129 154.349 319.453C152.28 320.743 150.482 322.378 149.042 324.277C147.089 326.862 145.871 329.84 143.588 332.225C139.353 336.657 132.233 338.221 125.81 338.076C119.593 337.952 113.603 336.519 107.423 336.071C108.953 340.703 111.966 344.781 116.052 347.748C120.138 350.716 125.098 352.429 130.258 352.654Z" fill="black"/>
<path opacity="0.1" d="M117.861 398.435C120.386 403.056 124.466 406.765 129.467 408.985C134.467 411.205 140.108 411.812 145.514 410.712C150.919 409.611 155.787 406.866 159.359 402.901C162.932 398.936 165.011 393.974 165.271 388.786C165.447 385.524 164.889 382.265 163.635 379.219C161.568 380.493 159.713 382.047 158.129 383.83C155.744 386.587 154.166 389.661 151.406 392.211C146.268 396.94 137.981 398.897 130.604 399.104C126.346 399.118 122.091 398.895 117.861 398.435Z" fill="black"/>
<path d="M316.522 457.636L219.632 476.246L217.43 476.04L132.284 467.975V366.654L236.515 350.111L312.118 358.382L312.14 358.83L312.148 359.051L316.522 457.636Z" fill="#00DEDE"/>
<path opacity="0.1" d="M316.523 457.636L219.633 476.247L217.431 476.04V372.168L312.141 358.831L316.523 457.636Z" fill="black"/>
<path opacity="0.05" d="M312.148 359.051L312.118 359.072L217.43 372.168L132.284 366.654L236.514 350.111L312.118 358.382L312.14 358.83L312.148 359.051Z" fill="black"/>
<path d="M422.955 461.772L326.065 480.382L323.863 480.175L238.717 472.111V370.789L342.947 354.247L418.551 362.518L418.573 362.966L418.58 363.186L422.955 461.772Z" fill="#3F3D56"/>
<path opacity="0.1" d="M422.954 461.772L326.064 480.382L323.862 480.175V376.303L418.572 362.966L422.954 461.772Z" fill="black"/>
<path opacity="0.05" d="M418.58 363.186L418.551 363.207L323.863 376.303L238.717 370.789L342.947 354.247L418.551 362.518L418.573 362.966L418.58 363.186Z" fill="black"/>
<path d="M356.159 362.518L259.269 381.128L257.067 380.921L171.921 372.857V271.535L276.151 254.993L351.755 263.264L351.777 263.712L351.784 263.932L356.159 362.518Z" fill="#3F3D56"/>
<path opacity="0.1" d="M356.16 362.518L259.269 381.128L257.067 380.921V277.049L351.777 263.712L356.16 362.518Z" fill="black"/>
<path opacity="0.05" d="M351.784 263.932L351.755 263.953L257.067 277.049L171.921 271.535L276.151 254.993L351.755 263.264L351.777 263.712L351.784 263.932Z" fill="black"/>
<path d="M411.211 366.764L360.644 376.482L359.492 376.372L315.055 372.161V319.281L369.453 310.644L408.913 314.966L408.928 315.2V315.31L411.211 366.764Z" fill="#3F3D56"/>
<path opacity="0.1" d="M411.211 366.764L360.645 376.483L359.492 376.372V322.162L408.928 315.2L411.211 366.764Z" fill="black"/>
<path opacity="0.05" d="M408.928 315.31L408.913 315.324L359.492 322.162L315.055 319.281L369.453 310.644L408.913 314.966L408.928 315.2V315.31Z" fill="black"/>
<path d="M275.418 264.064L224.851 273.775L223.699 273.672L179.262 269.461V216.58L233.66 207.944L273.12 212.266L273.135 212.5V212.61L275.418 264.064Z" fill="#3F3D56"/>
<path opacity="0.1" d="M275.418 264.064L224.852 273.776L223.699 273.672V219.462L273.135 212.5L275.418 264.064Z" fill="black"/>
<path opacity="0.05" d="M273.135 212.61L273.12 212.624L223.699 219.461L179.262 216.58L233.66 207.944L273.12 212.266L273.135 212.5V212.61Z" fill="black"/>
<path d="M364.233 261.996L313.667 271.707L312.514 271.604L268.077 267.393V214.512L322.475 205.876L361.936 210.198L361.95 210.432V210.542L364.233 261.996Z" fill="#00DEDE"/>
<path opacity="0.1" d="M364.233 261.996L313.667 271.708L312.515 271.604V217.394L361.951 210.432L364.233 261.996Z" fill="black"/>
<path opacity="0.05" d="M361.951 210.542L361.936 210.556L312.515 217.394L268.077 214.512L322.475 205.876L361.936 210.198L361.951 210.432V210.542Z" fill="black"/>
<path d="M390.658 208.923L340.092 218.634L338.939 218.531L294.502 214.319V161.439L348.9 152.803L388.361 157.124L388.375 157.359V157.469L390.658 208.923Z" fill="#3F3D56"/>
<path opacity="0.1" d="M390.658 208.923L340.092 218.634L338.939 218.531V164.32L388.375 157.359L390.658 208.923Z" fill="black"/>
<path opacity="0.05" d="M388.375 157.469L388.361 157.483L338.939 164.32L294.502 161.439L348.9 152.803L388.361 157.124L388.375 157.359V157.469Z" fill="black"/>
<path d="M425.098 100.818C424.562 105.299 420.922 108.91 419.571 113.225C417.545 119.739 421.039 126.735 425.854 131.835C429.735 135.888 434.433 139.177 439.677 141.513C444.921 143.848 450.607 145.184 456.404 145.441C458.107 145.579 459.823 145.403 461.454 144.924C462.907 144.369 464.216 143.528 465.293 142.457C468.904 139.045 470.85 134.324 471.62 129.561C472.391 124.798 472.097 119.952 471.796 115.148C471.796 114.154 471.602 113.168 471.224 112.24C470.732 111.356 470.056 110.576 469.235 109.944C466.631 107.698 463.762 105.739 460.683 104.106C459.362 103.417 457.946 102.728 457.101 101.535C456.522 100.586 456.146 99.5392 455.993 98.4543L455.046 93.9327C454.879 92.629 454.405 91.3765 453.659 90.2658C451.993 88.1567 448.8 87.8672 446.003 87.7638L435.727 87.3847C432.534 87.2675 428.335 86.406 425.216 86.9987C422.28 87.5432 423.271 90.066 423.799 92.3543C424.564 95.122 424.999 97.9607 425.098 100.818Z" fill="#FFC0C6"/>
<path opacity="0.1" d="M425.098 100.818C424.562 105.299 420.922 108.91 419.571 113.225C417.545 119.739 421.039 126.735 425.854 131.835C429.735 135.888 434.433 139.177 439.677 141.513C444.921 143.848 450.607 145.184 456.404 145.441C458.107 145.579 459.823 145.403 461.454 144.924C462.907 144.369 464.216 143.528 465.293 142.457C468.904 139.045 470.85 134.324 471.62 129.561C472.391 124.798 472.097 119.952 471.796 115.148C471.796 114.154 471.602 113.168 471.224 112.24C470.732 111.356 470.056 110.576 469.235 109.944C466.631 107.698 463.762 105.739 460.683 104.106C459.362 103.417 457.946 102.728 457.101 101.535C456.522 100.586 456.146 99.5392 455.993 98.4543L455.046 93.9327C454.879 92.629 454.405 91.3765 453.659 90.2658C451.993 88.1567 448.8 87.8672 446.003 87.7638L435.727 87.3847C432.534 87.2675 428.335 86.406 425.216 86.9987C422.28 87.5432 423.271 90.066 423.799 92.3543C424.564 95.122 424.999 97.9607 425.098 100.818Z" fill="black"/>
<path d="M490.36 302.607L486 347.492C484.862 359.265 483.702 371.085 481.471 382.706C480.737 386.711 479.797 390.695 478.726 394.644C475.746 405.611 471.422 416.329 470.028 427.571C469.984 427.894 469.947 428.26 469.91 428.556C469.624 431.038 469.374 433.546 468.442 435.862C467.708 437.579 466.673 439.143 465.917 440.839C464.449 444.23 464.214 447.98 464.031 451.653C458.74 448.849 452.945 446.98 446.936 446.139C443.999 445.733 440.807 445.45 438.861 443.382C436.659 441.135 436.916 437.696 437.283 434.677C438.438 425.303 439.588 415.933 440.733 406.569C441.115 402.539 441.851 398.546 442.935 394.631C443.332 393.328 443.809 392.046 444.293 390.764C444.961 388.999 445.636 387.235 446.143 385.422C446.845 382.51 447.331 379.555 447.596 376.579C448.778 367.15 450.202 357.741 451.45 348.319L451.516 347.823C453.388 333.541 454.812 319.191 454.401 304.806C454.342 302.676 454.246 300.546 454.1 298.41C453.894 295.315 453.593 293.674 456.302 291.737C459.318 289.601 463.289 288.105 466.739 286.706C468.596 285.948 489.046 279.124 489.494 280.627C490.443 283.818 490.937 287.114 490.962 290.428C491.003 294.495 490.802 298.561 490.36 302.607Z" fill="#605D82"/>
<path opacity="0.1" d="M481.471 382.706C480.737 386.711 479.798 390.695 478.726 394.644C475.746 405.611 471.422 416.329 470.028 427.571C469.984 427.895 469.947 428.26 469.91 428.556C460.794 416.329 453.116 403.178 444.22 390.819C444.888 389.055 445.563 387.29 446.069 385.477C446.799 382.548 447.309 379.575 447.596 376.579C448.778 367.15 450.202 357.741 451.45 348.319L451.516 347.823C452.031 349.822 452.769 351.765 453.718 353.619C459.693 365.02 473.889 370.782 480.833 381.693C481.062 382.033 481.275 382.371 481.471 382.706Z" fill="black"/>
<path d="M407.497 282.474C407.798 291.613 409.354 300.677 410.91 309.707L414.118 328.317C415.872 338.518 417.707 348.919 422.845 358.052C426.691 364.889 432.226 370.72 437.239 376.848C449.556 391.915 458.812 408.988 470.49 424.497C473.888 429.004 478.74 433.884 484.532 432.94C488.334 432.327 491.094 429.349 494.074 427.061C497.597 424.359 501.84 422.38 504.614 418.989C507.389 415.598 507.932 409.974 504.174 407.561C502.889 406.741 501.326 406.431 499.873 405.907C494.052 403.839 490.279 398.491 487.886 393.087C485.493 387.683 484.033 381.886 480.84 376.862C473.896 365.951 459.693 360.188 453.718 348.781C450.371 342.398 450.048 334.996 449.798 327.917L449.145 309.782C449.071 307.797 449.02 305.736 449.879 303.924C452.162 299.099 459.061 298.644 464.655 298.031C470.998 297.335 477.142 295.515 482.763 292.668C485.985 291.034 489.127 288.953 490.837 285.92C492.408 283.163 492.621 279.917 492.804 276.787L494.742 243.916C494.911 241.09 495.057 238.161 494.008 235.514C491.343 228.856 482.388 226.678 474.821 226.995C460.742 227.588 447.75 233.274 434.45 237.12C431.154 238.072 427.844 238.926 424.445 239.567C421.509 240.126 417.839 239.898 415.02 240.794C409.97 242.393 410.095 252.773 409.383 257.074C407.914 265.467 407.283 273.971 407.497 282.474Z" fill="#605D82"/>
<path d="M482.624 434.332C483.864 435.511 484.268 437.234 484.591 438.861C486.385 447.888 487.318 457.048 487.38 466.231C487.3 467.088 487.48 467.949 487.901 468.713C488.253 469.166 488.727 469.522 489.274 469.747C492.863 471.353 497.025 469.113 500.02 466.652C505.562 462.096 510.252 455.975 510.568 449.062C510.648 447.284 510.436 445.485 510.766 443.727C511.25 441.122 512.872 438.854 514.296 436.579C516.733 432.702 518.702 428.583 520.169 424.297C520.712 422.684 521.079 420.657 519.728 419.534C519.255 419.181 518.714 418.916 518.135 418.755L501.914 413.103C500.504 412.614 497.01 421.043 496.46 421.967C495.102 424.221 493.751 425.496 491.028 426.02C488.305 426.544 484.943 425.785 482.345 427.088C477.941 429.287 480.135 431.982 482.624 434.332Z" fill="#535070"/>
<path d="M457.607 439.536C457.307 438.973 456.887 438.474 456.374 438.068C455.625 437.62 454.771 437.348 453.886 437.275C450.803 436.779 447.148 436.455 445.012 438.612C443.015 440.632 443.36 443.92 441.694 446.194C441.165 446.884 440.446 447.504 439.991 448.262C439.425 449.423 439.173 450.696 439.257 451.97C439.169 455.479 439.081 459.001 439.345 462.502C439.558 465.439 440.079 468.52 442.039 470.822C445.181 474.516 450.847 475.047 455.868 475.281L459.942 475.481C461.062 475.604 462.197 475.506 463.274 475.192C463.942 474.903 464.54 474.492 465.035 473.981C465.529 473.471 465.909 472.872 466.151 472.221C468.273 467.272 464.918 461.944 462.848 456.981C460.463 451.267 460.888 444.933 457.607 439.536Z" fill="#535070"/>
<path d="M423.924 75.5573C423.871 75.0555 423.95 74.5494 424.151 74.0822C424.746 73.0966 426.302 73.393 427.476 73.6411C432.196 74.7577 437.173 73.7445 442.039 74.0064C446.906 74.2683 452.381 76.5498 453.358 81.03C456.888 78.6837 459.931 75.7495 462.335 72.3728C463.685 70.4774 464.86 68.3062 464.676 66.0316C464.412 62.7507 461.483 60.297 458.804 58.2154L450.73 52.012C449.666 51.0959 448.439 50.3632 447.104 49.8477C445.239 49.2481 443.199 49.5376 441.232 49.5376C435.36 49.5376 429.062 47.0218 423.828 49.5376C421.626 50.5921 419.989 52.4049 418.404 54.1694L411.188 62.1924C410.642 62.7039 410.243 63.3371 410.029 64.0328C409.823 65.0115 410.359 65.9765 410.55 66.9621C410.887 68.7542 410.065 70.6704 410.697 72.3935C411.746 75.2471 415.446 75.6538 417.706 77.2942C418.543 77.9007 419.864 79.9754 420.87 79.9479C422.639 79.9134 423.872 76.8806 423.924 75.5573Z" fill="#3F3D56"/>
<path d="M436.167 99.2195C448.937 99.2195 459.289 89.4988 459.289 77.5077C459.289 65.5166 448.937 55.7959 436.167 55.7959C423.398 55.7959 413.046 65.5166 413.046 77.5077C413.046 89.4988 423.398 99.2195 436.167 99.2195Z" fill="#FFC0C6"/>
<path d="M441.584 125.019C440.801 122.914 439.326 121.098 437.372 119.832C435.418 118.566 433.087 117.915 430.713 117.974C430.033 118.096 429.328 118.012 428.702 117.733C428.347 117.479 428.063 117.148 427.873 116.768C426.471 114.392 425.342 111.883 424.504 109.283C424.137 108.132 423.63 106.774 422.39 106.477C421.391 106.236 420.371 106.843 419.703 107.58C419.111 108.372 418.469 109.129 417.78 109.848C414.844 112.288 409.706 110.062 406.63 112.302C406.124 112.667 405.706 113.136 405.162 113.473C404.634 113.776 404.063 114.008 403.467 114.163C397.497 115.986 391.644 118.134 385.938 120.593C387.994 132.201 390.093 144.028 394.908 154.884C397.198 160.054 399.789 165.12 401.624 170.448C405.691 182.255 405.867 194.889 405.918 207.303C405.918 215.794 405.918 224.465 402.982 232.502C402.322 234.322 401.514 236.128 401.331 238.016C401.147 239.905 401.749 242.042 403.401 243.172C404.357 243.764 405.453 244.126 406.594 244.227C411.666 244.916 416.775 243.661 421.766 242.572C435.147 239.664 448.8 237.996 462.416 236.369L485.244 233.612C486.881 233.504 488.484 233.114 489.971 232.461C494.147 230.317 494.544 224.417 491.945 220.668C490.705 218.869 488.95 217.394 487.901 215.491C486.851 213.589 486.77 210.915 488.569 209.598C492.239 206.91 491.138 201.927 491.314 197.57C491.803 185.384 491.737 173.207 491.116 161.039C490.929 158.516 490.885 155.985 490.984 153.458C491.24 149.17 492.371 144.973 493.501 140.803L500.438 115.162C498.625 112.474 495.153 110.765 491.872 109.993C488.591 109.221 485.163 108.993 481.926 108.049C475.32 106.119 469.389 101.225 462.467 101.68C461.942 101.689 461.426 101.807 460.955 102.025C459.399 102.859 459.641 104.968 459.546 106.65C459.325 110.379 456.404 113.487 453.189 115.672C449.974 117.857 446.289 119.442 443.331 121.931C442.818 122.294 442.395 122.759 442.093 123.293C441.791 123.826 441.618 124.415 441.584 125.019Z" fill="#3F3D56"/>
<path d="M349.972 149.343C348.441 150.278 346.813 151.065 345.113 151.693C343.498 152.293 341.773 152.768 340.452 153.816C339.798 154.349 339.249 154.986 338.83 155.698C338.047 157.001 337.652 158.478 337.684 159.973C337.717 161.469 338.176 162.929 339.015 164.202C339.853 165.474 341.039 166.512 342.45 167.206C343.861 167.901 345.445 168.228 347.036 168.153C349.157 168.049 351.161 167.243 353.106 166.45L369.416 159.785C372.176 158.661 375.156 157.352 376.463 154.802C376.612 154.563 376.669 154.283 376.624 154.009C376.498 153.709 376.257 153.463 375.949 153.32C372.273 151.074 369.059 148.226 366.458 144.911C365.79 144.056 364.99 142.043 364.021 141.526C360.571 139.727 352.739 147.661 349.972 149.343Z" fill="#FFC0C6"/>
<path d="M524.316 143.932L530.327 150.384C531.619 151.762 532.911 153.141 534.085 154.629C536.975 158.367 539.293 162.467 540.97 166.809C542.277 170.028 543.363 173.46 542.908 176.879C542.603 178.632 542.099 180.349 541.403 182C540.302 185.175 538.935 188.264 537.315 191.236C535.962 193.492 534.434 195.651 532.742 197.695C528.086 203.488 522.991 208.959 517.497 214.065C515.441 215.974 514.56 219.069 513.687 221.647C512.035 226.409 508.109 230.125 504.314 233.64C503.093 234.851 501.743 235.942 500.284 236.893C498.099 238.217 495.543 238.898 492.944 238.851C491.809 238.857 490.686 238.638 489.648 238.21C487.05 237.052 485.728 234.233 485.457 231.544C485.217 229.102 485.652 226.642 486.719 224.404C490.169 217.228 499.029 214.12 505.29 208.881C508.96 205.814 511.771 201.954 514.546 198.143C516.425 195.76 517.995 193.176 519.222 190.444C520.616 186.935 520.073 182.786 521.299 179.229C521.813 177.72 522.767 176.362 523.288 174.866C523.809 173.371 523.985 171.599 523.009 170.31C522.278 169.486 521.343 168.843 520.286 168.435C516.285 166.533 511.808 164.079 511.045 159.923C510.739 157.621 511.379 155.297 512.836 153.423C514.284 151.574 515.979 149.906 517.878 148.461C519.618 146.986 522.561 145.352 524.316 143.932Z" fill="#FFC0C6"/>
<path d="M346.111 158.344C345.054 156.332 343.725 154.278 341.582 153.278C340.539 152.856 339.415 152.638 338.279 152.638C337.143 152.638 336.019 152.856 334.976 153.278C332.899 154.121 330.953 155.225 329.192 156.559L324.01 160.15C322.835 160.874 321.796 161.775 320.934 162.818C320.112 164.082 319.568 165.488 319.334 166.953C318.6 170.31 318.005 173.763 318.519 177.161C319.341 182.675 322.865 187.445 326.74 191.636C329.162 194.241 332.157 196.874 335.842 196.991C337.435 197.04 339.204 196.447 339.864 195.089C340.095 194.549 340.217 193.975 340.224 193.393C340.62 187.273 338.286 181.297 335.57 175.721C334.836 174.204 334.044 172.633 334.102 170.972C334.08 170.69 334.157 170.408 334.323 170.172C334.556 169.943 334.868 169.799 335.203 169.765C338.925 169.076 345.34 171.792 347.946 167.911C349.634 165.347 347.315 160.626 346.111 158.344Z" fill="#FFC0C6"/>
<path d="M422.706 68.7262C422.66 68.224 422.74 67.7187 422.941 67.2512C423.535 66.2586 425.091 66.5619 426.266 66.81C430.985 67.9267 435.962 66.9134 440.829 67.1754C445.695 67.4373 451.164 69.7187 452.147 74.1989C455.674 71.8489 458.716 68.9153 461.124 65.5418C462.475 63.6394 463.649 61.4683 463.466 59.1937C463.201 55.9128 460.265 53.459 457.594 51.3843L449.519 45.181C448.458 44.2649 447.233 43.5322 445.901 43.0167C444.029 42.417 441.996 42.7065 440.029 42.7065C434.156 42.7065 427.859 40.1907 422.625 42.7065C420.423 43.7611 418.786 45.5739 417.201 47.3384L409.978 55.3614C409.435 55.874 409.039 56.507 408.825 57.2017C408.62 58.1805 409.156 59.1454 409.347 60.1311C409.684 61.9232 408.862 63.8393 409.493 65.5556C410.543 68.416 414.243 68.8227 416.503 70.4631C417.34 71.0697 418.661 73.1444 419.667 73.1168C421.407 73.0823 422.64 70.0496 422.706 68.7262Z" fill="#3F3D56"/>
<path d="M373.6 128.224C372.668 128.792 371.848 129.508 371.178 130.34C370.333 131.546 370.157 133.097 369.431 134.337C367.874 137.053 364.226 138.025 361.958 140.251C361.591 140.556 361.334 140.961 361.224 141.409C361.21 142.015 361.426 142.607 361.833 143.077L372.8 159.261C376.47 159.564 379.949 157.414 383.604 157.703C384.962 157.807 386.364 158.248 387.671 157.869C388.605 157.478 389.481 156.975 390.277 156.373C392.479 155.077 395.356 154.926 397.184 153.223C399.011 151.521 399.165 149.019 399.143 146.696C399.176 144.68 398.957 142.667 398.49 140.699C396.875 134.496 391.818 129.712 388.647 124.212C387.098 121.531 386.262 119.966 382.995 121.807C379.729 123.647 376.69 126.101 373.6 128.224Z" fill="#3F3D56"/>
<path d="M506.757 120.042C508.818 121.299 510.677 122.826 512.277 124.578C513.943 126.597 514.89 129.079 516.498 131.146C518.105 133.214 520.168 134.703 521.93 136.55C524.609 139.349 526.422 142.754 528.198 146.138C523.85 151.451 519.111 156.471 514.017 161.164C513.449 161.791 512.699 162.251 511.859 162.487C511.289 162.545 510.713 162.468 510.183 162.265C509.652 162.062 509.184 161.738 508.82 161.322C508.027 160.55 507.469 159.585 506.713 158.779C504.932 157.054 502.558 155.977 500.012 155.739C497.487 155.508 494.946 155.474 492.415 155.636C491.859 155.698 491.296 155.609 490.793 155.381C490.418 155.139 490.115 154.812 489.912 154.43C486.976 149.687 487.893 143.732 488.943 138.315L491.343 125.908C491.693 123.539 492.367 121.223 493.347 119.015C494.257 117.189 496.283 114.087 498.793 114.638C501.304 115.19 504.636 118.609 506.757 120.042Z" fill="#3F3D56"/>
<path d="M297.438 210.99L246.872 220.702L245.72 220.599L201.282 216.387V163.507L255.68 154.871L295.141 159.192L295.156 159.427V159.537L297.438 210.99Z" fill="#00DEDE"/>
<path opacity="0.1" d="M297.439 210.991L246.872 220.702L245.72 220.599V166.388L295.156 159.427L297.439 210.991Z" fill="black"/>
<path opacity="0.05" d="M295.156 159.537L295.141 159.551L245.72 166.388L201.282 163.507L255.68 154.871L295.141 159.192L295.156 159.427V159.537Z" fill="black"/>
<path d="M323.863 158.606L273.297 168.325L272.144 168.214L227.707 164.003V111.123L282.105 102.486L321.566 106.808L321.58 107.042V107.153L323.863 158.606Z" fill="#3F3D56"/>
<path opacity="0.1" d="M323.862 158.606L273.296 168.325L272.144 168.215V114.004L321.58 107.042L323.862 158.606Z" fill="black"/>
<path opacity="0.05" d="M321.58 107.153L321.566 107.166L272.144 114.004L227.707 111.123L282.105 102.486L321.566 106.808L321.58 107.042V107.153Z" fill="black"/>
</g>
<defs>
<clipPath id="clip0_4_9039">
<rect width="697" height="485" fill="white"/>
</clipPath>
</defs>
</svg>
