<svg width="516" height="337" viewBox="0 0 516 337" fill="none" xmlns="http://www.w3.org/2000/svg">
<g clip-path="url(#clip0_4_9105)">
<path d="M419.937 33.87C423.234 23.1916 420.099 10.738 409.448 3.71411C409.239 15.6694 403.713 27.1808 393.845 36.2118C390.024 39.6837 385.319 43.2293 385.133 47.8381C385.018 50.7058 386.781 53.4602 389.21 55.584C391.639 57.7079 394.704 59.2973 397.732 60.8625L398.177 61.4856C407.924 53.6776 416.64 44.5485 419.937 33.87Z" fill="#F0F0F0"/>
<path d="M409.234 3.87031C413.319 12.373 413.926 21.6817 410.97 30.4741C410.376 32.3759 409.408 34.1915 408.102 35.8539C406.764 37.4407 404.915 38.714 402.747 39.5414C400.746 40.3452 398.582 40.9833 396.861 42.1594C395.992 42.7718 395.295 43.5233 394.817 44.3645C394.339 45.2057 394.09 46.1176 394.087 47.0405C394.004 49.3399 394.966 51.5259 396.001 53.6376C397.15 55.9822 398.389 58.4032 398.124 60.9703C398.092 61.2813 398.701 61.3028 398.734 60.9922C399.196 56.5259 395.376 52.7533 394.77 48.4213C394.487 46.3999 394.97 44.2985 396.852 42.8247C398.498 41.536 400.729 40.8764 402.764 40.0765C404.894 39.2939 406.749 38.1091 408.169 36.6258C409.577 35.0215 410.632 33.2386 411.287 31.3534C412.847 27.1279 413.561 22.7339 413.403 18.3323C413.257 13.308 412.029 8.34059 409.774 3.64491C409.634 3.35432 409.095 3.58162 409.234 3.8703V3.87031Z" fill="white"/>
<path d="M412.132 27.6873C414.057 27.8809 416.006 27.5249 417.631 26.6827C419.256 25.8406 420.451 24.5671 421.003 23.0899C421.113 22.7907 420.533 22.6404 420.422 22.9401C419.912 24.3164 418.798 25.5025 417.283 26.2843C415.768 27.0661 413.951 27.392 412.16 27.2032C411.77 27.1626 411.745 27.6469 412.132 27.6873V27.6873Z" fill="white"/>
<path d="M403.83 39.2398C401.372 36.7677 400.177 33.6507 400.485 30.5103C400.516 30.1992 399.906 30.1776 399.875 30.4884C399.563 33.7568 400.814 36.9985 403.379 39.5666C403.624 39.8113 404.073 39.4832 403.83 39.2398V39.2398Z" fill="white"/>
<path d="M412.522 13.5766C411.758 13.6249 410.99 13.5217 410.288 13.2762C409.586 13.0308 408.972 12.6507 408.501 12.1702C408.26 11.9232 407.811 12.2516 408.05 12.497C408.574 13.0259 409.253 13.445 410.028 13.7176C410.802 13.9902 411.649 14.108 412.495 14.0607C412.575 14.0615 412.652 14.0381 412.711 13.9952C412.771 13.9523 412.807 13.8931 412.813 13.8296C412.816 13.7655 412.788 13.703 412.733 13.6556C412.679 13.6082 412.603 13.5798 412.522 13.5766V13.5766Z" fill="white"/>
<path d="M363.386 10.627C363.53 10.7846 363.675 10.9422 363.818 11.1037C365.751 13.2307 367.462 15.4789 368.936 17.8261C369.054 18.0061 369.169 18.1899 369.28 18.3723C372.755 24.0571 374.871 30.2049 375.519 36.503C375.775 39.0094 375.789 41.5275 375.563 44.0357C375.251 47.4995 374.566 51.2354 375.68 54.4832C375.791 54.8231 375.929 55.1572 376.093 55.4835L397.185 61.8681C397.242 61.8635 397.298 61.8628 397.355 61.8582L398.183 62.1437C398.206 62.015 398.226 61.8811 398.249 61.7524C398.263 61.6778 398.272 61.6018 398.286 61.5272C398.294 61.477 398.301 61.4267 398.312 61.3817C398.314 61.365 398.317 61.3483 398.317 61.3354C398.328 61.2904 398.332 61.2478 398.34 61.2066C398.457 60.4585 398.567 59.7084 398.671 58.9564C398.673 58.9526 398.673 58.9526 398.67 58.9473C399.53 53.2229 399.532 47.4378 398.675 41.7131C398.647 41.5425 398.62 41.3682 398.582 41.1947C398.139 38.6412 397.433 36.1208 396.473 33.6585C395.941 32.3116 395.325 30.9869 394.624 29.6895C392.808 26.3401 390.338 23.2384 387.308 20.4983C381.265 15.0365 373.09 11.1702 364.075 10.6605C363.844 10.6476 363.618 10.636 363.386 10.627Z" fill="#F0F0F0"/>
<path d="M363.331 10.854C373.039 15.6898 380.581 22.8318 384.887 31.2656C385.855 33.0681 386.458 34.9805 386.676 36.9323C386.81 38.839 386.3 40.7396 385.196 42.4365C384.208 44.0352 382.963 45.5795 382.481 47.3412C382.252 48.2458 382.265 49.1788 382.521 50.079C382.777 50.9793 383.27 51.8263 383.967 52.5647C385.644 54.4403 388.07 55.7256 390.497 56.9171C393.192 58.24 396.017 59.5802 397.752 61.7568C397.962 62.0205 398.465 61.7462 398.255 61.4829C395.238 57.6959 389.327 56.51 385.559 53.3407C383.801 51.8619 382.593 49.9533 382.979 47.8768C383.315 46.0609 384.597 44.4675 385.616 42.8557C386.722 41.2128 387.306 39.3797 387.315 37.5165C387.223 35.5622 386.713 33.6345 385.807 31.8161C383.849 27.6963 381.088 23.8466 377.624 20.408C373.698 16.4662 368.952 13.0866 363.591 10.4157C363.259 10.2505 363.001 10.6898 363.331 10.854V10.854Z" fill="white"/>
<path d="M383.702 28.4851C385.386 27.7193 386.672 26.5032 387.331 25.0539C387.99 23.6046 387.979 22.0165 387.299 20.5732C387.161 20.2815 386.583 20.439 386.722 20.7311C387.358 22.0742 387.368 23.5535 386.751 24.9021C386.134 26.2507 384.931 27.3797 383.357 28.0854C383.016 28.239 383.363 28.6379 383.702 28.4851Z" fill="white"/>
<path d="M385.832 41.6785C381.996 40.8798 378.679 38.9621 376.543 36.3077C376.332 36.0445 375.829 36.3188 376.04 36.5816C378.269 39.3406 381.725 41.3307 385.72 42.1548C386.101 42.2332 386.211 41.7564 385.832 41.6785V41.6785Z" fill="white"/>
<path d="M373.315 17.0322C372.741 17.4363 372.05 17.7209 371.303 17.8604C370.557 18 369.779 17.9901 369.038 17.8317C368.659 17.7496 368.549 18.2265 368.926 18.3081C369.745 18.4801 370.605 18.4901 371.43 18.3374C372.255 18.1847 373.021 17.8738 373.66 17.4319C373.724 17.3943 373.769 17.3385 373.783 17.2759C373.798 17.2134 373.782 17.1487 373.739 17.0951C373.693 17.0423 373.623 17.0061 373.543 16.9944C373.464 16.9826 373.382 16.9962 373.315 17.0322V17.0322Z" fill="white"/>
<path d="M335.497 251.838C264.781 251.838 207.25 206.152 207.25 149.997C207.25 93.8418 264.781 48.156 335.497 48.156C342.973 48.1553 350.435 48.6687 357.8 49.6907C357.892 49.7033 357.979 49.7301 358.058 49.7697C358.137 49.8093 358.205 49.8608 358.259 49.9213C358.312 49.9818 358.35 50.0502 358.371 50.1224C358.391 50.1946 358.393 50.2693 358.377 50.3422C358.361 50.4151 358.327 50.4847 358.277 50.5472C358.227 50.6096 358.162 50.6636 358.085 50.706C358.009 50.7484 357.923 50.7785 357.832 50.7944C357.741 50.8104 357.647 50.8119 357.555 50.799C350.271 49.7885 342.891 49.2807 335.497 49.2813C265.563 49.2813 208.667 94.4621 208.667 149.997C208.667 205.532 265.563 250.713 335.497 250.713C405.431 250.713 462.327 205.532 462.327 149.997C462.358 124.896 450.555 100.695 429.241 82.1581C429.116 82.0476 429.05 81.9023 429.06 81.7538C429.069 81.6053 429.151 81.4657 429.29 81.3655C429.428 81.2653 429.611 81.2127 429.798 81.2191C429.985 81.2256 430.161 81.2905 430.288 81.3998C451.84 100.144 463.775 124.615 463.744 149.997C463.744 206.152 406.212 251.838 335.497 251.838Z" fill="#E4E4E4"/>
<path d="M392.044 83.0839C406.057 83.0839 417.417 74.0627 417.417 62.9345C417.417 51.8063 406.057 42.7852 392.044 42.7852C378.03 42.7852 366.67 51.8063 366.67 62.9345C366.67 74.0627 378.03 83.0839 392.044 83.0839Z" fill="#00DEDE"/>
<path d="M388.582 73.4213C388.144 73.4213 387.712 73.3403 387.32 73.1846C386.928 73.029 386.587 72.803 386.325 72.5246L379.402 65.1951C379.18 64.9596 379.018 64.6916 378.926 64.4065C378.834 64.1214 378.814 63.8247 378.866 63.5333C378.919 63.2419 379.043 62.9616 379.232 62.7084C379.421 62.4551 379.67 62.2339 379.967 62.0573C380.263 61.8807 380.601 61.7522 380.96 61.6791C381.319 61.6061 381.693 61.5899 382.06 61.6316C382.426 61.6732 382.779 61.7718 383.098 61.9218C383.417 62.0718 383.696 62.2701 383.918 62.5056L388.447 67.3004L400.079 53.4454C400.495 52.9528 401.14 52.6114 401.873 52.496C402.606 52.3805 403.367 52.5005 403.988 52.8296C404.61 53.1587 405.042 53.67 405.189 54.2515C405.337 54.8331 405.188 55.4374 404.776 55.932L390.931 72.4232C390.681 72.7214 390.344 72.9676 389.949 73.1412C389.554 73.3147 389.112 73.4105 388.661 73.4206C388.635 73.4209 388.609 73.4213 388.582 73.4213Z" fill="white"/>
<path d="M332.197 134.193L293.068 47.7512L294.061 47.468L286.864 31.569L285.872 31.8526L273.858 5.31229C273.409 4.32104 272.719 3.40967 271.827 2.63022C270.935 1.85077 269.858 1.21851 268.658 0.76953C267.458 0.320551 266.159 0.0636465 264.834 0.0134923C263.509 -0.0366619 262.184 0.120914 260.936 0.47722L190.2 20.6684C188.952 21.0246 187.804 21.5727 186.822 22.2812C185.841 22.9897 185.045 23.8447 184.479 24.7976C183.914 25.7505 183.59 26.7824 183.527 27.8346C183.464 28.8867 183.662 29.9385 184.111 30.9297L192.488 49.4352L190.92 49.9146L196.267 60.9411L197.522 60.5572L198.632 63.01L197.297 63.4184L202.644 74.4449L203.667 74.1321L242.45 159.81C242.896 160.803 243.585 161.715 244.477 162.496C245.369 163.277 246.446 163.91 247.647 164.359C248.847 164.808 250.148 165.065 251.473 165.114C252.799 165.163 254.124 165.004 255.372 164.646L326.108 144.455C328.627 143.733 330.683 142.247 331.824 140.323C332.966 138.4 333.1 136.195 332.197 134.193Z" fill="#3F3D56"/>
<path d="M251.652 161.796C250.656 161.795 249.684 161.549 248.87 161.094C248.056 160.638 247.438 159.995 247.1 159.251L188.146 29.0099C187.711 28.0506 187.775 26.9937 188.322 26.0716C188.869 25.1495 189.855 24.4378 191.063 24.0929L206.113 19.7969L206.091 20.215C206.052 20.9409 206.239 21.6632 206.635 22.3182C207.031 22.9733 207.623 23.541 208.36 23.9714C209.097 24.4017 209.956 24.6816 210.862 24.7862C211.767 24.8908 212.691 24.817 213.552 24.5712L246.953 15.0371C247.759 14.7438 248.467 14.3038 249.02 13.7529C249.572 13.202 249.954 12.5555 250.133 11.8659C250.311 11.1877 250.284 10.4858 250.054 9.81741C249.825 9.14905 249.4 8.53319 248.814 8.02009L248.462 7.70881L264.008 3.27101C265.216 2.92763 266.547 2.97872 267.707 3.41309C268.868 3.84745 269.765 4.62964 270.2 5.58812L326.448 129.849C327.596 132.394 327.425 135.197 325.974 137.643C324.522 140.089 321.909 141.978 318.706 142.896L253.292 161.568C252.766 161.719 252.211 161.796 251.652 161.796V161.796Z" fill="white"/>
<path d="M245.89 69.4192C256.455 69.4192 265.02 62.6176 265.02 54.2274C265.02 45.8372 256.455 39.0356 245.89 39.0356C235.324 39.0356 226.759 45.8372 226.759 54.2274C226.759 62.6176 235.324 69.4192 245.89 69.4192Z" fill="#00DEDE"/>
<path d="M293.294 76.3199L227.044 95.2308C226.837 95.2903 226.617 95.3168 226.397 95.3088C226.178 95.3008 225.962 95.2584 225.763 95.1841C225.563 95.1098 225.385 95.005 225.237 94.8757C225.088 94.7465 224.974 94.5953 224.899 94.4308C224.825 94.2664 224.792 94.0919 224.803 93.9173C224.813 93.7428 224.867 93.5716 224.961 93.4136C225.055 93.2556 225.188 93.1138 225.351 92.9965C225.514 92.8792 225.704 92.7885 225.912 92.7298L292.162 73.8189C292.58 73.7007 293.039 73.7188 293.44 73.8692C293.84 74.0196 294.149 74.2899 294.299 74.621C294.449 74.9521 294.427 75.3169 294.239 75.6354C294.051 75.9539 293.711 76.2 293.294 76.3199V76.3199Z" fill="#E6E6E6"/>
<path d="M273.62 88.3102L251.829 94.5305C251.622 94.5899 251.402 94.6164 251.182 94.6083C250.962 94.6003 250.747 94.5578 250.548 94.4835C250.348 94.4092 250.17 94.3044 250.022 94.1752C249.874 94.0459 249.759 93.8948 249.685 93.7304C249.61 93.5659 249.577 93.3915 249.588 93.2169C249.598 93.0424 249.652 92.8712 249.746 92.7132C249.84 92.5552 249.973 92.4135 250.136 92.2962C250.299 92.1788 250.489 92.0882 250.696 92.0294L272.488 85.8091C272.906 85.6898 273.366 85.7072 273.767 85.8575C274.169 86.0077 274.479 86.2784 274.629 86.6101C274.779 86.9418 274.757 87.3072 274.568 87.6261C274.379 87.9449 274.038 88.191 273.62 88.3102V88.3102Z" fill="#E6E6E6"/>
<path d="M278.804 99.7607L257.012 105.981C256.805 106.04 256.586 106.066 256.366 106.058C256.147 106.049 255.931 106.007 255.733 105.933C255.534 105.858 255.355 105.753 255.208 105.624C255.06 105.495 254.945 105.344 254.871 105.18C254.797 105.016 254.764 104.841 254.774 104.667C254.785 104.493 254.838 104.322 254.932 104.164C255.026 104.006 255.158 103.864 255.32 103.747C255.483 103.63 255.673 103.539 255.88 103.48L277.672 97.2595C278.089 97.1403 278.549 97.1577 278.951 97.3079C279.352 97.4581 279.662 97.7289 279.812 98.0605C279.963 98.3922 279.941 98.7577 279.751 99.0765C279.562 99.3953 279.221 99.6414 278.804 99.7606V99.7607Z" fill="#E6E6E6"/>
<path d="M281.459 105.626L259.667 111.846C259.46 111.905 259.241 111.932 259.021 111.924C258.801 111.916 258.585 111.874 258.386 111.799C258.187 111.725 258.008 111.62 257.86 111.491C257.712 111.362 257.597 111.211 257.522 111.046C257.448 110.882 257.415 110.707 257.426 110.532C257.436 110.358 257.49 110.187 257.584 110.029C257.678 109.871 257.811 109.729 257.974 109.611C258.137 109.494 258.328 109.404 258.535 109.345L280.327 103.125C280.534 103.065 280.754 103.039 280.973 103.047C281.193 103.055 281.409 103.097 281.608 103.171C281.807 103.246 281.986 103.35 282.134 103.48C282.282 103.609 282.397 103.76 282.471 103.925C282.546 104.089 282.579 104.263 282.568 104.438C282.557 104.613 282.504 104.784 282.41 104.942C282.316 105.1 282.183 105.242 282.02 105.359C281.857 105.476 281.666 105.567 281.459 105.626L281.459 105.626Z" fill="#E6E6E6"/>
<path d="M288.398 90.4666L242.163 103.664C241.956 103.724 241.736 103.75 241.517 103.742C241.297 103.734 241.081 103.692 240.882 103.617C240.683 103.543 240.504 103.438 240.356 103.309C240.208 103.18 240.093 103.029 240.019 102.864C239.944 102.7 239.911 102.525 239.922 102.351C239.932 102.176 239.986 102.005 240.08 101.847C240.174 101.689 240.307 101.547 240.47 101.43C240.633 101.312 240.824 101.222 241.031 101.163L287.266 87.9656C287.472 87.9061 287.692 87.8796 287.912 87.8876C288.132 87.8957 288.348 87.938 288.547 88.0123C288.746 88.0867 288.925 88.1914 289.073 88.3207C289.221 88.4499 289.335 88.6011 289.41 88.7656C289.484 88.93 289.517 89.1045 289.507 89.2791C289.496 89.4537 289.442 89.6249 289.348 89.7829C289.254 89.9409 289.122 90.0826 288.959 90.1999C288.796 90.3173 288.605 90.4079 288.398 90.4666V90.4666Z" fill="#E6E6E6"/>
<path d="M279.085 119.863L271.172 122.121C270.462 122.324 269.68 122.294 268.998 122.038C268.316 121.783 267.789 121.323 267.534 120.759C267.279 120.195 267.316 119.574 267.637 119.032C267.958 118.49 268.538 118.072 269.247 117.869L277.16 115.61C277.87 115.408 278.652 115.438 279.334 115.693C280.017 115.949 280.543 116.409 280.798 116.973C281.054 117.536 281.016 118.157 280.695 118.699C280.374 119.241 279.795 119.66 279.085 119.863V119.863Z" fill="#00DEDE"/>
<path d="M216.731 20.2183C217.339 20.2183 217.832 19.8271 217.832 19.3445C217.832 18.8619 217.339 18.4707 216.731 18.4707C216.124 18.4707 215.631 18.8619 215.631 19.3445C215.631 19.8271 216.124 20.2183 216.731 20.2183Z" fill="white"/>
<path d="M90.1861 68.4888C102.519 56.9609 122.529 49.6958 140.977 53.4624C124.362 63.2853 112.657 77.4587 107.934 93.4748C106.141 99.6568 104.957 106.681 98.6368 110.561C94.704 112.975 89.4159 113.635 84.476 113.197C79.5358 112.759 74.8339 111.327 70.1952 109.908L68.9619 110.017C72.0643 95.0926 77.8534 80.0168 90.1861 68.4888Z" fill="#F0F0F0"/>
<path d="M140.93 53.7777C125.701 57.0164 112.143 63.9835 102.183 73.6894C99.9923 75.7486 98.224 78.0692 96.9431 80.5657C95.7944 83.0296 95.4975 85.6929 96.0833 88.2788C96.5685 90.6985 97.4177 93.1291 97.1537 95.6004C96.995 96.8638 96.5017 98.0863 95.7062 99.1877C94.9108 100.289 93.8311 101.245 92.538 101.991C89.377 103.919 85.5324 104.829 81.7338 105.616C77.5161 106.489 73.1179 107.344 69.7282 109.648C69.3175 109.927 68.7958 109.405 69.2059 109.126C75.1034 105.116 83.4792 105.456 90.0492 102.5C93.1149 101.121 95.6757 98.9993 96.2273 96.1449C96.7096 93.6489 95.8366 91.1419 95.3187 88.6952C94.7006 86.1793 94.8678 83.5814 95.8055 81.1286C96.9221 78.5884 98.575 76.2175 100.693 74.1177C105.367 69.3297 110.96 65.1552 117.267 61.7469C124.438 57.8254 132.401 54.9069 140.811 53.1177C141.332 53.0071 141.448 53.6678 140.931 53.7777H140.93Z" fill="white"/>
<path d="M105.159 70.4143C103.335 68.8662 102.264 66.8538 102.136 64.7363C102.008 62.6189 102.832 60.5343 104.461 58.8548C104.792 58.5159 105.471 58.9086 105.14 59.2479C103.619 60.8096 102.852 62.7515 102.976 64.723C103.1 66.6946 104.107 68.566 105.816 69.9995C106.187 70.3114 105.528 70.7243 105.159 70.4143H105.159Z" fill="white"/>
<path d="M95.6342 87.0776C101.086 87.2605 106.425 85.8048 110.586 83.0008C110.998 82.7227 111.519 83.245 111.108 83.5228C106.771 86.4343 101.212 87.9402 95.5386 87.74C94.9979 87.7206 95.0964 87.0584 95.6342 87.0776V87.0776Z" fill="white"/>
<path d="M124.653 58.6927C125.202 59.4084 125.965 60.0048 126.876 60.4282C127.786 60.8516 128.815 61.0888 129.869 61.1185C130.41 61.1324 130.311 61.7946 129.774 61.7808C128.609 61.7437 127.474 61.4806 126.466 61.0146C125.459 60.5486 124.611 59.8938 123.996 59.1074C123.93 59.0371 123.9 58.9496 123.913 58.8626C123.926 58.7756 123.979 58.6957 124.063 58.6391C124.151 58.5845 124.262 58.5595 124.372 58.5696C124.483 58.5796 124.584 58.6238 124.653 58.6927V58.6927Z" fill="white"/>
<path d="M168.409 99.8132C168.071 99.8121 167.733 99.811 167.391 99.8145C162.847 99.8188 158.311 100.116 153.828 100.704C153.48 100.745 153.129 100.791 152.784 100.84C142.001 102.347 131.665 105.43 122.301 109.934C118.576 111.728 115.029 113.746 111.69 115.968C107.08 119.037 102.388 122.656 96.9298 124.288C96.3628 124.463 95.7827 124.61 95.1927 124.729L69.2244 111.203C69.1848 111.149 69.141 111.099 69.1011 111.045L68.0332 110.543C68.1953 110.418 68.3668 110.292 68.529 110.168C68.6226 110.096 68.7221 110.027 68.8157 109.954C68.88 109.907 68.9446 109.86 68.9992 109.814C69.0205 109.799 69.0421 109.783 69.0596 109.772C69.1142 109.726 69.171 109.689 69.2217 109.648C70.178 108.941 71.1421 108.239 72.1142 107.541C72.1181 107.536 72.1181 107.536 72.1277 107.534C79.5515 102.23 87.5982 97.3702 96.3178 93.6353C96.5802 93.523 96.8462 93.4058 97.1204 93.2997C101.063 91.6335 105.17 90.2259 109.401 89.091C111.72 88.4755 114.077 87.9536 116.463 87.5274C122.63 86.4355 128.974 86.1206 135.265 86.5944C147.804 87.5404 159.823 91.6604 167.806 99.2301C168.01 99.4239 168.209 99.6147 168.409 99.8132Z" fill="#F0F0F0"/>
<path d="M168.135 100.045C153.519 95.349 137.412 94.4298 122.101 97.4176C118.79 98.0144 115.619 99.0218 112.703 100.403C109.918 101.821 107.662 103.805 106.169 106.15C104.722 108.314 103.557 110.661 101.472 112.508C100.388 113.441 99.0671 114.181 97.5969 114.68C96.1267 115.179 94.5403 115.426 92.9416 115.404C88.9565 115.431 85.1964 114.32 81.567 113.132C77.5372 111.813 73.3779 110.392 68.924 110.612C68.3843 110.638 68.3639 109.972 68.9027 109.945C76.6517 109.563 83.0815 113.839 90.5687 114.62C94.0623 114.984 97.7153 114.515 100.32 112.5C102.597 110.737 103.801 108.318 105.243 106.117C106.657 103.813 108.76 101.818 111.368 100.308C114.186 98.8139 117.303 97.7112 120.586 97.0473C127.948 95.4591 135.579 94.7999 143.199 95.094C151.898 95.3914 160.468 96.8682 168.54 99.4606C169.04 99.6212 168.631 100.204 168.135 100.045L168.135 100.045Z" fill="white"/>
<path d="M126.96 96.225C126.677 94.117 127.347 91.9979 128.851 90.2462C130.354 88.4944 132.593 87.224 135.167 86.6619C135.688 86.5496 135.932 87.1876 135.41 87.3001C133.012 87.82 130.927 89.0035 129.531 90.637C128.136 92.2706 127.521 94.2465 127.799 96.2082C127.859 96.6345 127.019 96.6489 126.96 96.225V96.225Z" fill="white"/>
<path d="M106.72 104.976C110.935 107.729 116.301 109.119 121.749 108.869C122.289 108.844 122.31 109.511 121.771 109.536C116.101 109.787 110.52 108.332 106.142 105.459C105.725 105.185 106.306 104.704 106.72 104.976H106.72Z" fill="white"/>
<path d="M151.411 96.1867C151.307 97.0204 151.464 97.8617 151.87 98.6351C152.276 99.4084 152.918 100.09 153.737 100.617C154.158 100.887 153.577 101.369 153.159 101.101C152.257 100.514 151.549 99.7611 151.099 98.9075C150.648 98.0538 150.467 97.1255 150.572 96.2036C150.573 96.116 150.615 96.0319 150.691 95.9685C150.767 95.905 150.871 95.8669 150.981 95.8619C151.092 95.8601 151.2 95.8932 151.28 95.954C151.361 96.0148 151.408 96.0984 151.411 96.1867V96.1867Z" fill="white"/>
<path d="M460.306 290.058C473.753 292.676 489.436 290.187 498.281 281.728C483.226 281.563 468.73 277.174 457.357 269.339C452.985 266.304 448.52 262.567 442.716 262.42C439.105 262.329 435.637 263.729 432.962 265.658C430.288 267.587 428.286 270.02 426.315 272.425L425.53 272.778C435.363 280.519 446.859 287.44 460.306 290.058Z" fill="#F0F0F0"/>
<path d="M498.085 281.558C487.377 284.802 475.655 285.285 464.583 282.937C462.188 282.465 459.902 281.697 457.808 280.66C455.81 279.597 454.207 278.129 453.165 276.408C452.153 274.818 451.349 273.099 449.868 271.733C449.097 271.043 448.15 270.49 447.091 270.11C446.032 269.73 444.883 269.533 443.721 269.53C440.826 269.464 438.073 270.228 435.414 271.05C432.461 271.962 429.412 272.947 426.18 272.736C425.788 272.71 425.761 273.195 426.152 273.22C431.776 273.587 436.527 270.554 441.983 270.073C444.528 269.848 447.174 270.231 449.03 271.726C450.653 273.033 451.484 274.805 452.491 276.421C453.477 278.112 454.968 279.585 456.836 280.713C458.857 281.831 461.102 282.669 463.476 283.189C468.797 284.428 474.33 284.995 479.873 284.869C486.2 284.753 492.455 283.778 498.369 281.988C498.735 281.877 498.448 281.448 498.085 281.558H498.085Z" fill="white"/>
<path d="M468.092 283.86C467.848 285.388 468.297 286.936 469.357 288.226C470.418 289.517 472.021 290.466 473.882 290.904C474.258 290.991 474.448 290.531 474.07 290.443C472.337 290.037 470.843 289.153 469.859 287.95C468.875 286.747 468.464 285.304 468.702 283.882C468.753 283.572 468.143 283.552 468.092 283.86V283.86Z" fill="white"/>
<path d="M453.545 277.267C456.658 275.315 460.583 274.367 464.538 274.611C464.929 274.635 464.957 274.151 464.565 274.127C460.449 273.879 456.367 274.872 453.133 276.909C452.825 277.104 453.238 277.46 453.545 277.267H453.545Z" fill="white"/>
<path d="M485.862 284.169C485.801 283.562 485.931 282.953 486.24 282.395C486.549 281.838 487.028 281.35 487.633 280.976C487.944 280.785 487.53 280.429 487.221 280.618C486.555 281.034 486.027 281.573 485.684 282.189C485.341 282.804 485.193 283.476 485.252 284.147C485.251 284.211 485.281 284.273 485.335 284.32C485.389 284.367 485.463 284.396 485.543 284.4C485.624 284.403 485.703 284.38 485.762 284.337C485.822 284.294 485.858 284.233 485.862 284.169V284.169Z" fill="white"/>
<path d="M489.576 245.15C489.378 245.265 489.179 245.38 488.976 245.493C486.297 247.028 483.466 248.387 480.511 249.557C480.284 249.651 480.052 249.743 479.823 249.831C472.664 252.59 464.922 254.27 456.991 254.785C453.835 254.988 450.664 255 447.505 254.82C443.143 254.572 438.439 254.028 434.349 254.913C433.921 255.001 433.5 255.111 433.089 255.24L425.049 271.99C425.055 272.036 425.056 272.08 425.062 272.125L424.702 272.782C424.864 272.801 425.033 272.817 425.195 272.835C425.289 272.846 425.385 272.853 425.479 272.864C425.542 272.87 425.605 272.876 425.662 272.885C425.683 272.887 425.704 272.889 425.72 272.889C425.777 272.898 425.83 272.901 425.882 272.908C426.824 273 427.769 273.088 428.716 273.17C428.721 273.172 428.721 273.172 428.727 273.169C435.936 273.852 443.221 273.853 450.43 273.173C450.645 273.151 450.864 273.13 451.083 273.099C454.298 272.747 457.472 272.187 460.573 271.424C462.269 271.002 463.937 270.513 465.571 269.957C469.789 268.514 473.695 266.553 477.146 264.146C484.024 259.348 488.892 252.856 489.534 245.697C489.55 245.514 489.565 245.335 489.576 245.15Z" fill="#F0F0F0"/>
<path d="M489.291 245.107C483.201 252.816 474.207 258.806 463.587 262.225C461.317 262.993 458.909 263.472 456.451 263.645C454.05 263.752 451.656 263.346 449.519 262.47C447.506 261.685 445.561 260.697 443.343 260.314C442.204 260.132 441.029 260.143 439.895 260.346C438.761 260.549 437.695 260.941 436.765 261.494C434.403 262.826 432.784 264.752 431.284 266.68C429.618 268.82 427.931 271.063 425.19 272.441C424.857 272.607 425.203 273.007 425.535 272.84C430.303 270.444 431.797 265.751 435.788 262.759C437.65 261.362 440.053 260.403 442.668 260.709C444.955 260.977 446.962 261.994 448.991 262.803C451.06 263.682 453.369 264.145 455.715 264.152C458.176 264.08 460.603 263.675 462.893 262.955C468.081 261.4 472.929 259.208 477.259 256.457C482.223 253.339 486.479 249.571 489.843 245.314C490.051 245.05 489.497 244.845 489.291 245.107H489.291Z" fill="white"/>
<path d="M467.088 261.284C468.052 262.621 469.584 263.642 471.409 264.165C473.234 264.689 475.234 264.68 477.051 264.14C477.419 264.03 477.22 263.572 476.853 263.682C475.161 264.187 473.298 264.195 471.6 263.705C469.902 263.215 468.48 262.259 467.591 261.01C467.398 260.738 466.896 261.014 467.088 261.284Z" fill="white"/>
<path d="M450.474 262.975C451.48 259.928 453.895 257.294 457.237 255.599C457.569 255.431 457.223 255.031 456.892 255.199C453.418 256.969 450.912 259.714 449.874 262.886C449.776 263.189 450.376 263.276 450.474 262.975Z" fill="white"/>
<path d="M481.51 253.035C481.002 252.58 480.643 252.031 480.467 251.438C480.292 250.845 480.304 250.227 480.504 249.639C480.607 249.338 480.007 249.251 479.904 249.55C479.687 250.201 479.675 250.883 479.867 251.539C480.059 252.194 480.451 252.802 481.007 253.309C481.055 253.361 481.125 253.396 481.204 253.407C481.282 253.419 481.364 253.406 481.431 253.372C481.498 253.336 481.543 253.28 481.558 253.217C481.573 253.154 481.556 253.088 481.51 253.035V253.035Z" fill="white"/>
<path d="M514.189 187.422L493.684 214.824L494.463 215.15L487.52 225.604L486.074 224.996L481.511 231.09L482.645 231.608L475.205 241.837L473.915 241.246L407.007 330.664C405.253 333.004 402.401 334.695 399.077 335.367C395.753 336.039 392.23 335.637 389.28 334.248L264.894 275.557C261.947 274.164 259.817 271.899 258.971 269.259C258.124 266.62 258.632 263.822 260.381 261.479L367.563 118.238C369.317 115.898 372.17 114.206 375.493 113.534C378.817 112.862 382.34 113.265 385.291 114.653L509.676 173.344C512.622 174.738 514.751 177.003 515.597 179.642C516.443 182.281 515.937 185.079 514.189 187.422V187.422Z" fill="#3F3D56"/>
<path d="M393.713 328.719L268.889 269.822C267.981 269.392 267.325 268.694 267.064 267.88C266.803 267.067 266.959 266.204 267.498 265.482L375.391 121.288C375.932 120.566 376.811 120.045 377.836 119.838C378.86 119.631 379.946 119.755 380.856 120.183L505.679 179.08C506.587 179.51 507.244 180.208 507.505 181.021C507.765 181.835 507.609 182.697 507.07 183.42L399.177 327.614C398.636 328.335 397.757 328.856 396.733 329.064C395.708 329.271 394.622 329.147 393.713 328.719Z" fill="white"/>
<path d="M444.987 147.352C445.595 147.352 446.087 146.961 446.087 146.479C446.087 145.996 445.595 145.605 444.987 145.605C444.379 145.605 443.887 145.996 443.887 146.479C443.887 146.961 444.379 147.352 444.987 147.352Z" fill="white"/>
<path d="M438.177 250.644L333.98 201.48C333.654 201.327 333.368 201.125 333.14 200.884C332.912 200.643 332.746 200.369 332.652 200.077C332.558 199.786 332.537 199.482 332.591 199.184C332.645 198.886 332.772 198.599 332.966 198.34C333.16 198.081 333.416 197.855 333.72 197.675C334.024 197.495 334.369 197.364 334.737 197.291C335.105 197.217 335.487 197.201 335.863 197.245C336.238 197.289 336.598 197.392 336.924 197.546L441.12 246.711C441.447 246.864 441.732 247.066 441.96 247.307C442.188 247.548 442.354 247.822 442.449 248.113C442.543 248.405 442.564 248.709 442.51 249.007C442.456 249.305 442.328 249.592 442.135 249.851C441.941 250.11 441.685 250.336 441.381 250.516C441.077 250.696 440.731 250.827 440.363 250.9C439.996 250.974 439.613 250.989 439.238 250.945C438.863 250.902 438.502 250.799 438.177 250.644H438.177Z" fill="#E6E6E6"/>
<path d="M396.572 243.026L362.299 226.855C361.973 226.701 361.689 226.499 361.462 226.258C361.236 226.017 361.071 225.744 360.978 225.452C360.884 225.161 360.864 224.858 360.918 224.561C360.972 224.263 361.1 223.977 361.293 223.719C361.486 223.461 361.742 223.235 362.045 223.055C362.348 222.875 362.693 222.745 363.059 222.67C363.426 222.596 363.807 222.58 364.182 222.623C364.556 222.666 364.917 222.768 365.242 222.921L399.515 239.093C399.84 239.246 400.124 239.449 400.351 239.69C400.577 239.93 400.742 240.204 400.835 240.495C400.929 240.786 400.949 241.089 400.895 241.386C400.841 241.684 400.713 241.97 400.52 242.228C400.327 242.486 400.071 242.712 399.768 242.892C399.465 243.072 399.121 243.203 398.754 243.277C398.387 243.351 398.006 243.367 397.632 243.324C397.257 243.281 396.897 243.18 396.572 243.026V243.026Z" fill="#E6E6E6"/>
<path d="M383.097 261.035L348.824 244.864C348.167 244.554 347.692 244.049 347.504 243.461C347.316 242.873 347.429 242.25 347.819 241.729C348.21 241.207 348.845 240.83 349.585 240.68C350.325 240.53 351.11 240.62 351.767 240.93L386.04 257.102C386.366 257.255 386.65 257.458 386.876 257.699C387.103 257.939 387.267 258.213 387.361 258.504C387.454 258.795 387.474 259.098 387.42 259.396C387.366 259.693 387.239 259.979 387.045 260.237C386.852 260.496 386.597 260.721 386.294 260.901C385.991 261.081 385.646 261.212 385.279 261.286C384.913 261.36 384.531 261.376 384.157 261.333C383.782 261.29 383.422 261.189 383.097 261.035V261.035Z" fill="#E6E6E6"/>
<path d="M376.195 270.259L341.922 254.088C341.596 253.935 341.311 253.732 341.083 253.491C340.856 253.251 340.691 252.977 340.597 252.685C340.503 252.394 340.482 252.09 340.536 251.793C340.59 251.495 340.717 251.208 340.911 250.95C341.105 250.691 341.361 250.465 341.664 250.285C341.968 250.105 342.313 249.974 342.68 249.901C343.048 249.827 343.43 249.811 343.805 249.855C344.18 249.898 344.54 250 344.865 250.154L379.138 266.326C379.465 266.479 379.751 266.681 379.979 266.922C380.207 267.163 380.373 267.437 380.467 267.729C380.562 268.02 380.582 268.324 380.528 268.622C380.475 268.92 380.347 269.207 380.153 269.466C379.96 269.725 379.703 269.951 379.399 270.131C379.095 270.311 378.75 270.442 378.382 270.516C378.014 270.589 377.632 270.605 377.256 270.561C376.881 270.517 376.52 270.414 376.195 270.259V270.259Z" fill="#E6E6E6"/>
<path d="M409.15 260.974L336.435 226.663C335.781 226.352 335.309 225.848 335.123 225.261C334.936 224.675 335.05 224.053 335.439 223.533C335.829 223.012 336.462 222.636 337.2 222.485C337.938 222.335 338.721 222.423 339.378 222.73L412.094 257.04C412.421 257.193 412.706 257.396 412.934 257.637C413.162 257.877 413.328 258.151 413.423 258.443C413.517 258.735 413.538 259.038 413.484 259.337C413.43 259.635 413.303 259.922 413.109 260.18C412.915 260.439 412.659 260.665 412.355 260.846C412.051 261.026 411.705 261.156 411.337 261.23C410.969 261.304 410.587 261.319 410.212 261.275C409.836 261.231 409.476 261.129 409.15 260.974V260.974Z" fill="#E6E6E6"/>
<path d="M395.29 304.823L382.846 298.951C381.73 298.424 380.924 297.566 380.605 296.567C380.285 295.567 380.478 294.508 381.141 293.622C381.805 292.735 382.884 292.094 384.142 291.84C385.4 291.585 386.734 291.737 387.851 292.262L400.295 298.134C401.412 298.661 402.22 299.519 402.54 300.519C402.861 301.519 402.668 302.579 402.004 303.466C401.341 304.353 400.26 304.994 399.001 305.249C397.742 305.503 396.407 305.35 395.29 304.823Z" fill="#00DEDE"/>
<path d="M418.509 209.486C432.596 209.486 444.016 200.417 444.016 189.23C444.016 178.043 432.596 168.974 418.509 168.974C404.421 168.974 393.001 178.043 393.001 189.23C393.001 200.417 404.421 209.486 418.509 209.486Z" fill="#00DEDE"/>
<path d="M0.300781 271.542H345.491V112.845C345.489 111.656 344.893 110.516 343.835 109.676C342.776 108.835 341.34 108.362 339.843 108.361H5.9486C4.45125 108.362 3.01571 108.835 1.95691 109.676C0.898104 110.516 0.30251 111.656 0.300781 112.845V271.542Z" fill="#CACACA"/>
<path d="M334.826 114.563H10.9658V260.568H334.826V114.563Z" fill="white"/>
<path d="M4.64364e-10 267.248V286.831C-1.11653e-05 287.643 0.201344 288.447 0.59257 289.197C0.983797 289.947 1.55723 290.628 2.28014 291.202C3.00304 291.776 3.86126 292.232 4.80578 292.542C5.7503 292.853 6.76263 293.013 7.78498 293.013H135.192V331.661H133.499C133.367 331.661 133.235 331.682 133.112 331.722C132.99 331.763 132.878 331.822 132.784 331.896C132.69 331.971 132.616 332.06 132.565 332.157C132.514 332.254 132.488 332.359 132.488 332.464V335.152C132.488 335.258 132.514 335.362 132.565 335.46C132.616 335.557 132.69 335.646 132.784 335.72C132.878 335.795 132.99 335.854 133.112 335.894C133.235 335.935 133.367 335.956 133.499 335.956H212.592C212.725 335.956 212.856 335.935 212.979 335.894C213.102 335.854 213.213 335.795 213.307 335.72C213.401 335.646 213.475 335.557 213.526 335.46C213.577 335.362 213.603 335.258 213.603 335.152V332.464C213.603 332.359 213.577 332.254 213.526 332.157C213.475 332.06 213.401 331.971 213.307 331.896C213.213 331.822 213.102 331.763 212.979 331.722C212.856 331.682 212.725 331.661 212.592 331.661H210.899V293.013H338.306C339.329 293.013 340.341 292.853 341.286 292.542C342.23 292.232 343.088 291.776 343.811 291.202C344.534 290.628 345.108 289.947 345.499 289.197C345.89 288.447 346.091 287.643 346.091 286.831V267.248L4.64364e-10 267.248Z" fill="#3F3D56"/>
<path d="M287.962 163.393H134.595C133.628 163.393 132.701 163.088 132.017 162.545C131.333 162.002 130.949 161.266 130.949 160.498C130.949 159.73 131.333 158.994 132.017 158.451C132.701 157.908 133.628 157.603 134.595 157.603H287.962C288.929 157.603 289.856 157.908 290.54 158.451C291.224 158.994 291.608 159.73 291.608 160.498C291.608 161.266 291.224 162.002 290.54 162.545C289.856 163.088 288.929 163.393 287.962 163.393V163.393Z" fill="#E6E6E6"/>
<path d="M236.502 176.461H186.055C185.088 176.461 184.161 176.156 183.477 175.613C182.793 175.07 182.409 174.333 182.409 173.566C182.409 172.798 182.793 172.061 183.477 171.519C184.161 170.976 185.088 170.671 186.055 170.671H236.502C237.469 170.671 238.396 170.976 239.08 171.519C239.763 172.061 240.147 172.798 240.147 173.566C240.147 174.333 239.763 175.07 239.08 175.613C238.396 176.156 237.469 176.461 236.502 176.461V176.461Z" fill="#E6E6E6"/>
<path d="M236.502 202.969H186.055C185.088 202.969 184.161 202.664 183.477 202.121C182.793 201.578 182.409 200.841 182.409 200.073C182.409 199.306 182.793 198.569 183.477 198.026C184.161 197.483 185.088 197.178 186.055 197.178H236.502C237.469 197.178 238.396 197.483 239.08 198.026C239.763 198.569 240.147 199.306 240.147 200.073C240.147 200.841 239.763 201.578 239.08 202.121C238.396 202.664 237.469 202.969 236.502 202.969Z" fill="#E6E6E6"/>
<path d="M236.502 216.545H186.056C185.577 216.545 185.103 216.47 184.661 216.325C184.218 216.179 183.816 215.966 183.478 215.697C183.139 215.428 182.871 215.109 182.688 214.758C182.504 214.407 182.41 214.03 182.41 213.65C182.41 213.27 182.504 212.894 182.688 212.542C182.871 212.191 183.139 211.872 183.478 211.603C183.816 211.334 184.218 211.121 184.661 210.976C185.103 210.83 185.577 210.755 186.056 210.755H236.502C236.981 210.755 237.455 210.83 237.898 210.976C238.34 211.121 238.742 211.334 239.08 211.603C239.419 211.872 239.687 212.191 239.87 212.542C240.054 212.894 240.148 213.27 240.148 213.65C240.148 214.03 240.054 214.407 239.87 214.758C239.687 215.109 239.419 215.428 239.08 215.697C238.742 215.966 238.34 216.179 237.898 216.325C237.455 216.47 236.981 216.545 236.502 216.545V216.545Z" fill="#E6E6E6"/>
<path d="M264.794 189.529H157.763C156.796 189.529 155.869 189.224 155.185 188.681C154.501 188.138 154.117 187.401 154.117 186.634C154.117 185.866 154.501 185.13 155.185 184.587C155.869 184.044 156.796 183.739 157.763 183.739H264.794C265.761 183.739 266.688 184.044 267.372 184.587C268.055 185.13 268.439 185.866 268.439 186.634C268.439 187.401 268.055 188.138 267.372 188.681C266.688 189.224 265.761 189.529 264.794 189.529V189.529Z" fill="#E6E6E6"/>
<path d="M285.409 244.343H267.092C265.448 244.343 263.871 243.825 262.708 242.901C261.546 241.978 260.893 240.726 260.893 239.421C260.893 238.115 261.546 236.863 262.708 235.94C263.871 235.016 265.448 234.498 267.092 234.498H285.409C287.053 234.498 288.63 235.016 289.792 235.94C290.955 236.863 291.608 238.115 291.608 239.421C291.608 240.726 290.955 241.978 289.792 242.901C288.63 243.825 287.053 244.343 285.409 244.343V244.343Z" fill="#00DEDE"/>
<path d="M86.368 208.615C103.977 208.615 118.253 197.279 118.253 183.295C118.253 169.311 103.977 157.975 86.368 157.975C68.7586 157.975 54.4834 169.311 54.4834 183.295C54.4834 197.279 68.7586 208.615 86.368 208.615Z" fill="#00DEDE"/>
<path d="M459.482 337H0.844144C0.620817 336.999 0.406862 336.928 0.249174 336.803C0.0914855 336.677 0.00292969 336.507 0.00292969 336.33C0.00292969 336.152 0.0914855 335.982 0.249174 335.857C0.406862 335.731 0.620817 335.66 0.844144 335.66H459.482C459.705 335.66 459.919 335.731 460.077 335.857C460.234 335.982 460.323 336.152 460.323 336.33C460.323 336.507 460.234 336.677 460.077 336.803C459.919 336.928 459.705 336.999 459.482 337V337Z" fill="#CACACA"/>
<path d="M172.746 111.462C173.409 111.462 173.947 111.035 173.947 110.507C173.947 109.98 173.409 109.553 172.746 109.553C172.082 109.553 171.544 109.98 171.544 110.507C171.544 111.035 172.082 111.462 172.746 111.462Z" fill="white"/>
</g>
<defs>
<clipPath id="clip0_4_9105">
<rect width="516" height="337" fill="white"/>
</clipPath>
</defs>
</svg>
