<svg width="344" height="201" viewBox="0 0 344 201" fill="none" xmlns="http://www.w3.org/2000/svg">
<path d="M294.195 126.172H288.877V131.706H294.195V126.172Z" fill="#009C8A"/>
<path d="M7.18704 151.063H4.20544C3.22608 151.061 2.28739 150.697 1.59488 150.05C0.902375 149.403 0.512538 148.525 0.510742 147.61V139.519C0.510742 139.065 0.606287 138.616 0.791965 138.197C0.977643 137.779 1.24981 137.398 1.59289 137.077C1.93598 136.757 2.34326 136.502 2.79153 136.329C3.2398 136.155 3.72024 136.066 4.20544 136.066H7.18704V151.063Z" fill="#EDEEEF"/>
<path d="M202.071 77.153C199.884 86.0824 200.149 95.3608 200.428 104.519C200.382 105.33 200.555 106.14 200.93 106.873C201.131 107.233 201.466 107.511 201.871 107.657C202.276 107.803 202.724 107.807 203.131 107.666C203.355 108.403 203.579 109.139 203.81 109.875C204.62 110.445 205.553 110.843 206.544 111.042C207.535 111.242 208.56 111.238 209.549 111.03C211.521 110.602 213.416 109.907 215.173 108.967L226.861 103.414C227.691 103.119 228.388 102.568 228.838 101.853C229.184 101.098 228.655 99.9873 227.778 100.063C230.57 98.8323 230.869 95.2973 230.767 92.4478C230.665 89.5982 230.57 86.6599 230.468 83.7723C230.305 79.1775 230.142 74.5382 228.926 70.0831C228.023 66.7956 226.597 63.102 228.417 60.189C228.987 59.2688 229.87 58.4438 229.979 57.3903C230.142 55.7656 228.478 54.5598 227.004 53.6903L221.238 50.2505C220.95 50.0307 220.583 49.9218 220.212 49.9459C219.798 50.0221 219.533 50.4156 219.343 50.771C218.13 53.0805 216.386 55.111 214.236 56.7175C212.08 58.4965 210.179 60.5271 208.578 62.7593C205.617 66.8083 202.689 72.2218 202.071 77.153Z" fill="#00B39F"/>
<path d="M207.254 74.665C207.152 79.7421 209.04 85.181 213.367 88.259C216.301 90.3279 220.063 91.1529 223.738 91.2037C227.412 91.2545 231.046 90.5691 234.645 89.9344C234.829 89.5283 235.019 89.1221 235.202 88.7096L237.919 89.3442L238.761 88.1828C238.974 88.596 239.343 88.921 239.797 89.0956C240.25 89.2701 240.757 89.2818 241.22 89.1284C241.274 86.7551 241.776 84.4092 242.7 82.1982C235.97 81.5635 229.117 80.9289 222.821 78.6632C221.822 78.3078 220.702 77.908 219.71 78.2824C220.085 74.0965 219.872 69.8828 219.078 65.7483C218.698 63.7809 218.121 61.731 216.606 60.3284C209.468 53.7091 207.322 71.3331 207.254 74.665Z" fill="#00B39F"/>
<path d="M219.16 63.1018C218.931 62.1427 218.556 61.2193 218.046 60.3601C217.482 59.4843 216.362 58.7101 215.363 59.1226C214.148 59.624 214.283 61.255 214.623 62.4545C215.61 65.9577 216.597 69.4609 217.584 72.9641C218.263 75.4456 218.99 78.0413 218.359 80.5798L220.09 80.2625C220.185 80.8591 220.287 81.4556 220.389 82.0522C225.018 82.8761 229.723 83.2652 234.435 83.2136C234.17 81.6143 231.983 81.1637 230.258 80.9479C228.17 80.7238 226.118 80.2679 224.145 79.5898C221.734 78.714 221.992 78.3205 221.707 75.8454C221.21 71.5426 220.358 67.2821 219.16 63.1018Z" fill="#00DEDE"/>
<path d="M225.627 59.8145C226.593 59.091 227.466 58.2647 228.228 57.3521L225.64 54.6168C225.523 54.4672 225.369 54.3455 225.192 54.2614C225.014 54.2119 224.824 54.2107 224.645 54.2579C224.466 54.3051 224.305 54.3987 224.18 54.5279C223.858 54.8707 223.654 55.2959 223.593 55.7485C223.533 56.2011 223.619 56.6602 223.841 57.0665C224.307 57.8781 224.947 58.5911 225.722 59.1608" fill="#00DEDE"/>
<path d="M225.45 101.929C224.621 102.614 223.412 102.608 222.271 102.564C221.728 102.58 221.188 102.468 220.702 102.24C220.472 102.118 220.296 101.922 220.208 101.689C220.119 101.456 220.124 101.201 220.22 100.971C220.385 100.787 220.594 100.644 220.831 100.552C221.067 100.461 221.324 100.423 221.579 100.444C222.321 100.453 223.06 100.359 223.772 100.165C224.127 100.062 224.45 99.8787 224.709 99.6304C224.969 99.3821 225.158 99.0771 225.26 98.743C225.411 98.6847 225.573 98.6562 225.737 98.6591C225.9 98.6621 226.061 98.6966 226.209 98.7603C226.358 98.824 226.491 98.9157 226.6 99.0295C226.709 99.1434 226.791 99.277 226.842 99.4221C226.924 99.7234 226.922 100.039 226.835 100.34C226.748 100.64 226.58 100.914 226.346 101.136C225.876 101.573 225.326 101.93 224.723 102.189" fill="#00DEDE"/>
<path d="M269.725 84.2293L252.291 87.1994C251.691 87.3013 251.073 87.1768 250.571 86.8532C250.069 86.5296 249.726 86.0333 249.615 85.4732L249.574 85.2574C249.465 84.6978 249.599 84.1206 249.945 83.6529C250.292 83.1852 250.823 82.8652 251.422 82.7633L268.863 79.7932L269.725 84.2293Z" fill="#323232"/>
<path d="M246.999 87.7133C247.67 87.6948 248.336 87.5989 248.982 87.4277C251.394 86.6598 252.521 83.8865 254.891 82.9853C255.033 82.9219 255.189 82.8914 255.346 82.8964C255.57 82.9345 255.773 83.0418 255.924 83.2011C256.337 83.6059 256.792 83.9716 257.282 84.2926C257.528 84.4498 257.816 84.5417 258.114 84.5585C258.411 84.5752 258.708 84.5163 258.973 84.3878C259.096 84.3141 259.198 84.2146 259.272 84.0972C259.345 83.9799 259.389 83.848 259.398 83.7121C259.407 83.5763 259.382 83.4404 259.325 83.3152C259.268 83.1901 259.18 83.0792 259.068 82.9916C259.136 83.1109 259.229 83.2159 259.342 83.3004C259.454 83.3848 259.584 83.4467 259.724 83.4825C259.863 83.5182 260.009 83.527 260.152 83.5082C260.295 83.4895 260.432 83.4436 260.555 83.3734C260.679 83.3032 260.785 83.2102 260.869 83.1C260.952 82.9899 261.011 82.8649 261.041 82.7329C261.071 82.6008 261.071 82.4645 261.043 82.3322C261.014 82.1999 260.957 82.0744 260.875 81.9635C261.018 82.1398 261.217 82.2698 261.443 82.3351C261.67 82.4005 261.912 82.3981 262.137 82.3281C262.362 82.2581 262.557 82.124 262.696 81.9449C262.835 81.7657 262.911 81.5502 262.912 81.3289C262.912 80.6942 262.308 80.1929 261.799 79.755C261.051 79.1203 260.406 78.3651 259.632 77.7432C258.889 77.0909 257.931 76.6927 256.915 76.6135C256.104 76.6515 255.311 76.8551 254.592 77.2101C252.932 77.9108 251.341 78.7476 249.838 79.7106C248.686 80.5224 247.486 81.2745 246.245 81.9635C244.992 82.6509 243.544 82.9632 242.096 82.8583C241.213 82.7568 240.404 87.2437 240.859 87.8212C241.315 88.3987 242.822 87.9545 243.467 87.9101L246.999 87.7133Z" fill="#FF9B6B"/>
<path d="M248.092 40.718C248.772 41.651 250.239 41.9238 250.809 42.9266C249.952 43.2846 249.188 43.8096 248.566 44.4663C247.944 45.123 247.479 45.8963 247.203 46.7344C246.564 48.7399 246.985 51.1325 245.546 52.7318C244.255 54.1661 241.946 54.3501 239.976 54.001C238.007 53.652 236.125 52.8587 234.122 52.7318C232.871 52.6737 231.622 52.881 230.47 53.3382C229.317 53.7955 228.29 54.4907 227.466 55.3719C227.085 55.7844 226.63 56.2857 226.053 56.2159C225.664 56.1204 225.325 55.8945 225.102 55.5813L222.046 52.0971C223.346 50.6153 224.001 48.7299 223.88 46.8169C223.778 45.3509 223.201 43.9356 223.031 42.476C222.352 37.1386 227.106 32.1567 232.594 30.64C236.906 29.4532 244.241 29.5357 248.147 31.9537C252.052 34.3716 245.967 37.8304 248.092 40.718Z" fill="#FF9B6B"/>
<path d="M244.133 35.1455C244.432 35.7802 243.454 36.3006 242.775 36.3323C241.342 36.3894 239.936 35.9262 238.503 35.8817C237.07 35.8373 235.413 36.3894 235.005 37.6777C234.733 38.5345 235.1 39.4421 235.263 40.3242C235.426 41.2064 235.263 42.317 234.38 42.6787C233.545 41.7775 233.742 40.2417 232.743 39.5055C231.894 38.8709 230.638 39.1565 229.667 39.6071C228.825 39.9389 228.13 40.5302 227.697 41.2825C226.835 43.0976 228.689 45.2236 228.077 47.1275C227.835 47.7521 227.453 48.3212 226.957 48.7966C226.43 49.4494 225.761 49.9901 224.994 50.3832C224.609 50.5755 224.174 50.6621 223.739 50.6329C223.304 50.6037 222.887 50.4599 222.535 50.2182C221.415 49.3234 221.917 47.6416 221.578 46.3025C221.238 44.9634 219.859 43.8338 219.506 42.4185C219.36 41.624 219.388 40.8101 219.588 40.0259C219.886 37.9815 220.54 35.9964 221.523 34.1491C223.376 31.2017 226.349 29.015 229.85 28.0249C233.328 27.0587 236.99 26.8118 240.581 27.3014C242.159 27.4177 243.7 27.8072 245.125 28.4501C246.755 29.2624 248.283 30.6777 250.117 30.4429C249.641 30.8847 249.069 31.2247 248.439 31.4393C249.316 31.7699 250.113 32.2619 250.782 32.8862C250.665 33.077 250.5 33.2384 250.301 33.3567C250.102 33.4749 249.876 33.5465 249.641 33.5653C250.171 34.3205 249.913 35.6025 248.813 35.7675C248.032 35.8817 247.122 35.1329 246.32 35.0504C246.517 35.1392 246.748 35.374 246.952 35.4819C246.436 35.6469 244.439 35.7992 244.133 35.1455Z" fill="black"/>
<path d="M231.929 43.961C231.929 44.0498 231.807 44.1069 231.719 44.0625C231.642 44.0059 231.591 43.9243 231.576 43.834C231.43 43.5183 231.392 43.168 231.468 42.8313C231.521 42.6706 231.64 42.5362 231.799 42.4577C231.959 42.3792 232.145 42.3629 232.317 42.4125C232.432 42.1261 232.444 41.8123 232.351 41.5189C232.258 41.2255 232.065 40.9686 231.801 40.7874C231.537 40.6062 231.217 40.5106 230.889 40.5153C230.562 40.52 230.245 40.6246 229.987 40.8132C229.595 41.1393 229.318 41.5685 229.192 42.0444C229.036 42.4155 228.996 42.8205 229.077 43.2121C229.188 43.5282 229.371 43.8182 229.613 44.0625L230.381 44.9637C230.632 45.2493 230.938 45.5983 231.332 45.5602C231.53 45.5379 231.715 45.4526 231.855 45.3187C231.994 45.1848 232.081 45.0102 232.099 44.8241C232.124 44.4498 232.044 44.0759 231.868 43.7388" fill="#D09271"/>
<path d="M246.938 41.9807C247.54 41.6009 248.25 41.3996 248.976 41.4031C250.042 41.5174 250.741 42.6026 250.735 43.6053C250.643 44.6085 250.291 45.5756 249.709 46.4231C248.853 47.9336 247.991 49.4504 247.108 50.9481C246.596 51.9999 245.826 52.9241 244.86 53.6453C244.2 54.0157 243.462 54.2492 242.697 54.3302C241.932 54.4113 241.157 54.3379 240.425 54.115C238.975 53.6667 237.603 53.0255 236.35 52.211C236.35 51.4368 237.158 50.9418 237.708 50.3388C238.74 49.2028 238.883 47.5655 238.645 46.0931C238.272 43.783 239.739 44.278 241.715 43.8338C243.529 43.414 245.283 42.7918 246.938 41.9807Z" fill="#C2EAE8"/>
<path d="M233.62 41.6822C235.541 42.8789 237.544 43.9558 239.617 44.9062C239.943 45.0585 240.208 44.5825 239.882 44.4302C237.81 43.481 235.807 42.4062 233.885 41.2126C233.579 41.0222 233.321 41.4982 233.62 41.6822Z" fill="#C2EAE8"/>
<path d="M227.847 46.7405C231.017 48.5429 234.143 50.4215 237.227 52.3762C237.532 52.5666 237.79 52.0906 237.491 51.9002C234.417 49.9497 231.29 48.0733 228.112 46.2709C227.799 46.0932 227.535 46.5628 227.847 46.7405Z" fill="#C2EAE8"/>
<path d="M240.254 47.4959C240.194 46.9663 240.288 46.4313 240.526 45.9473C240.955 45.4867 241.54 45.1775 242.183 45.0715C243.292 44.7399 244.35 44.2725 245.328 43.6817C245.488 43.5592 245.68 43.4782 245.885 43.4469C246.353 43.4025 246.713 43.8974 246.7 44.3353C246.642 44.7794 246.497 45.2097 246.272 45.6046L246.238 45.8395C246.238 45.9283 246.367 45.9791 246.441 46.0362C246.62 46.1932 246.73 46.4055 246.753 46.6333C246.775 46.8612 246.708 47.0889 246.564 47.2737C246.411 47.455 246.22 47.605 246.003 47.7142C245.786 47.8234 245.546 47.8895 245.3 47.9084C244.981 47.9464 244.621 47.9718 244.451 48.2384C244.398 48.3721 244.382 48.5161 244.404 48.6572C244.405 49.3465 244.165 50.0173 243.721 50.568C243.278 51.1188 242.654 51.5196 241.945 51.7099C242.061 51.9892 242.121 52.286 242.122 52.5856C242.134 52.6968 242.1 52.8081 242.027 52.8966C241.884 53.0236 241.653 52.9474 241.477 52.8966C240.383 52.408 238.841 52.1858 239.14 50.8912C239.398 49.6727 240.308 48.8349 240.254 47.4959Z" fill="#ADCECC"/>
<path d="M231.705 52.6432L231.746 52.8907L231.576 53.0431C231.248 53.2189 230.902 53.3635 230.544 53.4746C229.567 51.1619 228.87 48.7543 228.465 46.2968C228.401 46.0401 228.401 45.7729 228.465 45.5162C228.628 45.0847 229.688 44.45 230.123 44.8054C230.387 45.0276 230.197 47.0711 230.238 47.4646C230.445 49.25 230.94 50.9959 231.705 52.6432Z" fill="#790E0E"/>
<path d="M242.389 38.738C243.398 38.2071 244.538 37.9315 245.697 37.9384C246.253 37.9384 246.844 37.7416 246.824 37.126L246.77 37.0752C246.398 37.0828 246.028 37.1189 245.663 37.1831C245.193 37.1767 244.725 37.215 244.264 37.2973C243.412 37.4336 242.65 37.8725 242.138 38.5222C242.043 38.6809 242.246 38.8142 242.389 38.738Z" fill="black"/>
<path d="M242.763 40.3055C243.478 39.9538 244.26 39.7381 245.065 39.6709C245.479 39.5947 245.962 39.5122 246.159 39.1378C246.167 39.1192 246.169 39.0989 246.166 39.079C246.163 39.0591 246.153 39.0406 246.139 39.0254C246.125 39.0102 246.107 38.999 246.086 38.9931C246.065 38.9872 246.044 38.9867 246.023 38.9918C245.751 39.068 245.534 39.233 245.269 39.3218C245.004 39.4107 244.664 39.4678 244.372 39.5503C243.788 39.7031 243.239 39.9524 242.749 40.2865L242.763 40.3055Z" fill="#523424"/>
<path d="M244.649 39.6135C244.602 39.8483 244.466 40.4449 244.88 40.4957C245.295 40.5465 245.302 39.9118 245.234 39.6643L245.071 39.5247H245.023L244.846 39.6072L244.799 39.8103L244.853 39.9499V40.1403L244.901 40.0451V39.9245C244.901 39.823 244.84 39.7214 244.819 39.6198L244.649 39.6135Z" fill="#523424"/>
<path d="M243.766 40.5468C244.073 40.6889 244.417 40.7461 244.758 40.7118C245.016 40.6801 245.437 40.6103 245.511 40.3691L245.457 40.2866C245.238 40.3344 245.024 40.4024 244.819 40.4897C244.492 40.5631 244.149 40.5364 243.841 40.4135C243.746 40.3818 243.651 40.5087 243.766 40.5468Z" fill="#523424"/>
<path d="M244.501 41.0939C244.654 41.1089 244.809 41.0752 244.939 40.9981L244.891 40.864C244.754 40.864 244.624 40.9087 244.488 40.9151C244.462 40.9168 244.439 40.9278 244.422 40.9458C244.405 40.9638 244.397 40.9872 244.399 41.0109C244.4 41.0346 244.412 41.0567 244.432 41.0722C244.451 41.0878 244.476 41.0956 244.501 41.0939Z" fill="#523424"/>
<path fill-rule="evenodd" clip-rule="evenodd" d="M306.375 166.281C306.375 165.026 306.773 163.799 307.52 162.755C308.266 161.712 309.327 160.898 310.568 160.418C311.809 159.938 313.174 159.812 314.492 160.057C315.809 160.302 317.019 160.906 317.969 161.794C318.919 162.681 319.566 163.812 319.828 165.043C320.09 166.274 319.956 167.55 319.442 168.71C318.928 169.87 318.057 170.861 316.94 171.558C315.823 172.255 314.51 172.628 313.167 172.628C311.366 172.628 309.638 171.959 308.364 170.769C307.091 169.579 306.375 167.964 306.375 166.281Z" fill="#9EC2C2"/>
<path fill-rule="evenodd" clip-rule="evenodd" d="M313.152 138.23C319.089 138.229 324.894 139.873 329.832 142.955C334.769 146.036 338.618 150.417 340.891 155.542C343.164 160.668 343.76 166.308 342.602 171.75C341.445 177.192 338.586 182.191 334.388 186.114C330.19 190.038 324.841 192.71 319.017 193.793C313.194 194.876 307.158 194.321 301.672 192.198C296.186 190.075 291.497 186.48 288.198 181.867C284.899 177.253 283.139 171.83 283.139 166.282C283.139 158.843 286.301 151.709 291.929 146.449C297.557 141.188 305.191 138.232 313.152 138.23ZM313.152 147.185C309.11 147.185 305.158 148.305 301.798 150.404C298.437 152.502 295.818 155.484 294.271 158.974C292.724 162.463 292.319 166.303 293.108 170.007C293.896 173.711 295.843 177.114 298.701 179.785C301.559 182.455 305.2 184.274 309.165 185.011C313.129 185.748 317.238 185.37 320.972 183.924C324.707 182.479 327.898 180.031 330.144 176.891C332.39 173.751 333.588 170.058 333.588 166.282C333.583 161.22 331.427 156.368 327.595 152.791C323.763 149.214 318.568 147.204 313.152 147.204" fill="#323232"/>
<path fill-rule="evenodd" clip-rule="evenodd" d="M313.151 147.204C317.194 147.203 321.145 148.322 324.507 150.419C327.869 152.517 330.489 155.499 332.037 158.988C333.585 162.477 333.991 166.317 333.203 170.022C332.415 173.727 330.469 177.13 327.611 179.801C324.754 182.473 321.112 184.292 317.148 185.029C313.183 185.767 309.074 185.389 305.339 183.944C301.604 182.499 298.412 180.051 296.166 176.91C293.92 173.77 292.722 170.078 292.722 166.3C292.722 161.237 294.874 156.381 298.705 152.8C302.536 149.218 307.732 147.206 313.151 147.204ZM313.151 154.395C310.631 154.395 308.168 155.093 306.073 156.401C303.977 157.709 302.344 159.569 301.38 161.744C300.416 163.92 300.163 166.314 300.655 168.623C301.146 170.933 302.36 173.054 304.142 174.719C305.924 176.384 308.194 177.518 310.666 177.977C313.137 178.437 315.699 178.201 318.027 177.3C320.356 176.399 322.345 174.873 323.745 172.915C325.146 170.957 325.893 168.655 325.893 166.3C325.894 164.737 325.565 163.188 324.925 161.743C324.285 160.298 323.346 158.986 322.163 157.88C320.98 156.774 319.575 155.897 318.028 155.299C316.482 154.701 314.825 154.394 313.151 154.395Z" fill="#9EC2C2"/>
<path d="M313.152 181.024C310.03 181.024 306.978 180.159 304.382 178.538C301.786 176.917 299.763 174.613 298.569 171.918C297.374 169.222 297.062 166.257 297.672 163.395C298.281 160.534 299.785 157.906 301.993 155.844C304.201 153.781 307.015 152.377 310.077 151.809C313.139 151.24 316.313 151.533 319.197 152.651C322.081 153.768 324.546 155.659 326.279 158.086C328.013 160.512 328.937 163.364 328.936 166.281C328.936 168.218 328.528 170.136 327.735 171.925C326.941 173.714 325.778 175.339 324.313 176.708C322.847 178.077 321.107 179.163 319.192 179.904C317.277 180.644 315.224 181.025 313.152 181.024ZM313.152 148.969C309.487 148.967 305.904 149.982 302.857 151.883C299.809 153.785 297.433 156.488 296.029 159.652C294.626 162.815 294.258 166.296 294.972 169.655C295.687 173.014 297.451 176.099 300.042 178.521C302.632 180.943 305.934 182.593 309.528 183.261C313.122 183.93 316.848 183.587 320.234 182.277C323.62 180.967 326.514 178.748 328.55 175.901C330.586 173.053 331.673 169.706 331.673 166.281C331.674 164.008 331.196 161.757 330.265 159.657C329.335 157.556 327.971 155.647 326.251 154.04C324.531 152.432 322.489 151.157 320.241 150.286C317.994 149.416 315.585 148.969 313.152 148.969Z" fill="#769191"/>
<path fill-rule="evenodd" clip-rule="evenodd" d="M310.436 161.655C310.799 161.467 311.184 161.317 311.584 161.211L312.331 152.129H313.981L314.728 161.211C315.127 161.319 315.512 161.468 315.876 161.655L323.279 155.728L323.863 156.273L324.447 156.819L318.104 163.737C318.304 164.077 318.464 164.436 318.579 164.809L328.298 165.507V167.05L318.579 167.748C318.461 168.12 318.301 168.479 318.104 168.82L324.474 175.763L323.89 176.315L323.306 176.855L315.903 170.927C315.539 171.115 315.154 171.264 314.755 171.371L314.008 180.46H312.358L311.57 171.321C311.17 171.214 310.785 171.065 310.422 170.876L303.012 176.804L302.428 176.265L301.844 175.712L308.194 168.795C307.994 168.455 307.834 168.095 307.719 167.722L297.993 167.024V165.482L307.719 164.784C307.834 164.411 307.994 164.051 308.194 163.711L301.844 156.794L302.428 156.248L303.012 155.702L310.436 161.655Z" fill="#9EC2C2"/>
<path d="M237.865 125.937C238.411 126.411 238.822 127.004 239.061 127.663C239.19 128.301 239.131 128.959 238.891 129.567C238.035 132.271 236.174 134.721 235.977 137.532C236.003 138.38 235.964 139.228 235.862 140.071C235.611 140.993 235.193 141.869 234.626 142.66L232.588 145.884C232.096 146.515 231.815 147.268 231.78 148.048C231.875 149.514 233.573 150.345 235.06 150.809C235.923 151.075 237.003 151.278 237.634 150.669C237.873 150.401 238.045 150.087 238.137 149.749C240.718 142.599 243.296 135.446 245.873 128.292C246.552 126.508 247.163 124.541 246.45 122.777C245.669 120.828 243.502 119.749 241.506 118.836L235.943 116.297C234.32 115.554 232.113 114.901 230.924 116.17C229.26 117.947 230.87 119.4 232.221 120.346C234.293 121.818 236.099 124.135 237.865 125.937Z" fill="#0E4B5E"/>
<path d="M200.639 112.026L195.994 80.3577C195.856 79.4173 195.358 78.5553 194.593 77.9311C193.827 77.3069 192.846 76.9628 191.83 76.9624H189.358C188.712 76.9622 188.073 77.0914 187.484 77.3414C186.896 77.5913 186.372 77.9562 185.947 78.4115C185.522 78.8667 185.207 79.4017 185.022 79.9805C184.837 80.5593 184.787 81.1683 184.875 81.7666L191.165 124.63H234.537C234.847 124.63 235.154 124.573 235.44 124.462C235.727 124.351 235.987 124.188 236.206 123.983C236.425 123.778 236.598 123.534 236.716 123.266C236.834 122.998 236.895 122.711 236.894 122.422V117.008C236.894 116.539 236.694 116.088 236.339 115.756C235.983 115.424 235.501 115.238 234.999 115.238H204.585C203.623 115.238 202.693 114.913 201.968 114.323C201.243 113.733 200.771 112.917 200.639 112.026Z" fill="#323232"/>
<path d="M230.232 157.092C229.758 157.946 229.387 158.847 229.125 159.777C228.994 160.244 228.965 160.73 229.038 161.207C229.112 161.685 229.287 162.143 229.553 162.557C230.653 164.067 232.949 164.112 234.925 163.991L237.805 163.82C239.034 163.743 240.46 163.559 241.079 162.55C241.622 161.662 241.248 160.551 240.929 159.567C240.219 157.344 239.873 155.033 239.904 152.713C239.971 152.027 239.892 151.334 239.673 150.676C239.452 150.241 239.128 149.858 238.726 149.556C238.323 149.255 237.853 149.043 237.35 148.937C235.115 148.372 233.411 148.423 232.799 150.435C232.133 152.714 231.274 154.94 230.232 157.092Z" fill="#150A0B"/>
<path d="M234.056 157.739C233.377 159.256 232.752 160.849 232.942 162.474C232.952 162.832 233.096 163.176 233.349 163.445C233.6 163.637 233.899 163.766 234.219 163.819C239.656 165.177 245.348 165.394 250.886 164.454C251.694 164.366 252.467 164.098 253.141 163.673C253.468 163.45 253.71 163.135 253.832 162.774C253.954 162.414 253.95 162.026 253.82 161.668C253.419 160.811 252.244 160.608 251.253 160.506C249.463 160.407 247.713 159.975 246.104 159.237C244.542 158.418 243.272 156.927 243.259 155.258C243.259 153.989 243.85 152.453 242.824 151.621C242.289 151.274 241.647 151.1 240.997 151.126C238.851 150.993 237.73 150.561 236.433 152.034C235.319 153.29 234.708 156.159 234.056 157.739Z" fill="#281416"/>
<path d="M204.782 113.905C207.649 115.441 211.031 115.809 214.291 116.184L225.314 117.377C230.374 117.922 236.004 118.76 239.095 122.543C239.353 122.975 239.763 123.311 240.256 123.495C240.83 123.524 241.402 123.41 241.913 123.165C242.47 123.012 243.272 123.165 243.312 123.704C243.015 123.96 242.782 124.275 242.63 124.624C242.477 124.974 242.409 125.351 242.429 125.728L243.679 125.532C243.924 126.471 243.272 127.379 242.715 128.191C240.961 130.736 239.885 133.637 239.577 136.651C239.373 138.783 239.523 141.093 238.334 142.896C237.791 143.721 236.976 144.393 236.459 145.212C235.953 145.966 235.65 146.824 235.576 147.712C235.346 150.657 238.252 153.538 241.397 153.291C244.542 153.043 246.79 150.175 248.345 147.522C253.099 139.418 256.59 130.577 257.718 121.388C257.999 119.871 257.934 118.316 257.528 116.825C256.407 113.524 252.617 111.798 249.167 110.523C243.317 108.356 237.383 106.414 231.366 104.697C229.745 104.175 228.065 103.83 226.36 103.668C224.835 103.625 223.309 103.719 221.803 103.948L204.375 106.08C201.658 106.416 199.505 106.01 200.463 109.095C201.207 111.147 202.749 112.864 204.782 113.905Z" fill="#225E79"/>
<path d="M243.949 113.385C245.681 114.019 247.461 114.654 248.812 115.853C252.052 118.709 251.774 123.621 250.388 127.581C249.003 131.542 246.727 135.362 246.761 139.525C247.44 140.071 248.364 139.252 248.799 138.523C251.813 133.155 253.751 127.318 254.517 121.298C254.721 119.718 254.816 118.005 253.913 116.653C253.118 115.472 251.74 114.838 250.442 114.203C243.705 111.138 235.168 106.816 227.663 106.061C227.445 109.196 241.138 112.375 243.949 113.385Z" fill="#316D83"/>
<path d="M138.127 84.4066C136.631 83.1733 134.689 82.5177 132.694 82.5725H85.0156V85.2824H124.612V89.9471H103.401V91.9906H124.605V95.8619H115.776V98.5718H124.605V106.625H127.512V98.5782H137.367C138.267 98.5782 139.131 98.2438 139.768 97.6487C140.405 97.0536 140.763 96.2465 140.763 95.405V91.0133C140.722 88.1256 139.853 85.898 138.127 84.4066ZM127.512 85.2824H132.864C134.081 85.2572 135.264 85.6553 136.185 86.3994C137.17 87.3564 137.741 88.6201 137.788 89.9471H127.512V85.2824ZM137.367 95.8682H127.512V91.9906H137.849V95.4113C137.85 95.4732 137.837 95.5346 137.812 95.5918C137.786 95.6489 137.749 95.7006 137.701 95.7434C137.653 95.7863 137.596 95.8195 137.534 95.841C137.472 95.8624 137.406 95.8717 137.34 95.8682H137.367Z" fill="#EDEEEF"/>
<path d="M142.519 65.2278H100.301C99.4756 65.2278 98.8066 65.8529 98.8066 66.624V101.237C98.8066 102.008 99.4756 102.633 100.301 102.633H142.519C143.344 102.633 144.013 102.008 144.013 101.237V66.624C144.013 65.8529 143.344 65.2278 142.519 65.2278Z" fill="#00DEDE"/>
<path fill-rule="evenodd" clip-rule="evenodd" d="M102.717 67.3728H140.072C140.425 67.3727 140.765 67.5011 141.018 67.731C141.272 67.9609 141.42 68.274 141.43 68.604V81.2968C128.084 86.3739 110.759 74.5696 101.399 91.1591V68.604C101.41 68.2805 101.552 67.9729 101.797 67.744C102.042 67.5151 102.371 67.3824 102.717 67.3728Z" fill="#00B39F"/>
<path d="M129.369 29.491H87.1514C86.3262 29.491 85.6572 30.116 85.6572 30.8871V65.5004C85.6572 66.2715 86.3262 66.8967 87.1514 66.8967H129.369C130.194 66.8967 130.863 66.2715 130.863 65.5004V30.8871C130.863 30.116 130.194 29.491 129.369 29.491Z" fill="#00DEDE"/>
<path fill-rule="evenodd" clip-rule="evenodd" d="M89.5693 31.6294H126.924C127.277 31.6393 127.612 31.7774 127.858 32.0143C128.104 32.2513 128.242 32.5685 128.242 32.8987V45.5915C114.903 50.6686 97.5769 38.8643 88.2178 55.4538V32.867C88.2266 32.5369 88.3726 32.2231 88.625 31.9921C88.8773 31.761 89.2161 31.6309 89.5693 31.6294Z" fill="#00B39F"/>
<path d="M110.088 41.3462L109.511 43.3199L109.144 44.5702H100.607L100.389 45.2873L100.213 45.8648H108.865L107.921 49.0888H99.2211L99.0038 49.8123L98.8272 50.3898H107.446L106.502 53.6074H93.876L94.8608 50.3898L97.4077 42.0697L97.5707 41.5366V41.3462H97.6319V41.3335L97.6794 41.3462H110.088Z" fill="white"/>
<path d="M253.839 172.698H218.875C213.757 172.698 208.664 172.032 203.743 170.718L191.26 167.386V156.343H269.08V158.45C269.08 162.228 267.475 165.851 264.617 168.523C261.759 171.194 257.882 172.696 253.839 172.698Z" fill="#323232"/>
<path d="M314.625 167.785L314.122 168.064C313.913 168.178 313.682 168.251 313.442 168.281C313.202 168.31 312.958 168.295 312.725 168.236C312.491 168.177 312.272 168.075 312.081 167.937C311.889 167.799 311.729 167.626 311.61 167.43L300.063 149.114L303.724 147.102L315.27 165.418C315.396 165.613 315.48 165.829 315.515 166.053C315.551 166.278 315.538 166.508 315.478 166.728C315.418 166.948 315.312 167.155 315.165 167.337C315.019 167.518 314.835 167.671 314.625 167.785Z" fill="#EDEEEF"/>
<path d="M269.187 90.3996L263.748 93.3884L304.004 157.349L309.443 154.361L269.187 90.3996Z" fill="#00B39F"/>
<path d="M300.702 122.7C279.084 122.7 274.513 147.515 274.513 162.809L274.771 163.051H282.88C284.16 163.062 285.405 162.655 286.397 161.899C287.39 161.144 288.068 160.087 288.314 158.913C290.351 148.562 299.697 142.33 311.283 142.33H340.957V139.334C337.473 133.648 325.261 122.7 300.702 122.7Z" fill="#00B39F"/>
<path d="M285.761 156.724C285.265 159.263 282.84 160.189 280.083 160.189H274.554C274.554 161.065 274.514 161.941 274.507 162.823L274.765 163.064H282.874C284.155 163.076 285.399 162.669 286.391 161.913C287.384 161.157 288.062 160.1 288.308 158.926C290.345 148.575 299.691 142.343 311.278 142.343H340.951V139.335H309.858C297.701 139.335 287.893 145.865 285.761 156.724Z" fill="white"/>
<path d="M304.248 89.6931H291.493V105.667H304.248V89.6931Z" fill="#00B39F"/>
<path d="M305.151 106.543H306.184C306.845 106.543 307.479 106.297 307.946 105.861C308.414 105.424 308.676 104.831 308.676 104.214V91.1402C308.676 90.5224 308.414 89.93 307.946 89.4932C307.479 89.0564 306.845 88.811 306.184 88.811H305.151C304.912 88.811 304.682 88.9 304.513 89.0583C304.343 89.2166 304.248 89.4313 304.248 89.6551V105.699C304.248 105.923 304.343 106.137 304.513 106.296C304.682 106.454 304.912 106.543 305.151 106.543Z" fill="#323232"/>
<path d="M191.26 37.2969H188.543C187.653 37.2991 186.784 37.05 186.048 36.5823C185.312 36.1146 184.745 35.4501 184.421 34.6758L175.517 13.6058L178.002 12.6919L186.906 33.7556C187.035 34.0637 187.26 34.3285 187.552 34.5153C187.844 34.7022 188.189 34.8023 188.543 34.8028H191.26V37.2969Z" fill="#EDEEEF"/>
<path d="M142.877 113.8H43.2773V102.542H142.877C144.429 102.542 145.918 103.009 147.015 103.838C148.113 104.668 148.729 105.794 148.729 106.967V109.375C148.729 109.956 148.578 110.532 148.284 111.069C147.99 111.605 147.559 112.093 147.015 112.504C146.472 112.915 145.827 113.241 145.117 113.463C144.407 113.686 143.646 113.8 142.877 113.8Z" fill="#323232"/>
<path d="M112.373 167.182H259.755C260.124 167.183 260.489 167.116 260.831 166.984C261.172 166.853 261.482 166.66 261.743 166.417C262.004 166.173 262.211 165.884 262.353 165.566C262.494 165.247 262.567 164.906 262.567 164.561V163.514H112.373V167.182Z" fill="#323232"/>
<path d="M96.0935 172.469C95.8053 172.469 95.5289 172.362 95.3251 172.172C95.1213 171.981 95.0068 171.723 95.0068 171.454C95.0068 171.184 95.1213 170.926 95.3251 170.736C95.5289 170.545 95.8053 170.438 96.0935 170.438H114.839C115.07 170.438 142.916 169.137 157.573 165.05C157.849 164.974 158.147 165.003 158.401 165.131C158.654 165.26 158.842 165.477 158.924 165.736C159.006 165.994 158.975 166.272 158.838 166.509C158.7 166.746 158.467 166.922 158.191 166.999C143.283 171.155 116.082 172.418 114.893 172.469H96.0935Z" fill="black"/>
<path d="M96.0935 174.817C95.8053 174.817 95.5289 174.71 95.3251 174.52C95.1213 174.33 95.0068 174.071 95.0068 173.802C95.0068 173.533 95.1213 173.274 95.3251 173.084C95.5289 172.893 95.8053 172.786 96.0935 172.786H114.839C114.968 172.786 132.946 171.949 147.569 169.518C147.853 169.471 148.146 169.531 148.383 169.686C148.62 169.841 148.781 170.077 148.832 170.343C148.882 170.609 148.818 170.883 148.652 171.104C148.486 171.326 148.234 171.476 147.949 171.524C133.184 173.973 115.077 174.811 114.893 174.817H96.0935Z" fill="black"/>
<path d="M143.782 167.349L141.936 167.563L142.627 172.778L144.474 172.564L143.782 167.349Z" fill="black"/>
<path d="M119.668 171.53H100.922C99.7134 171.479 72.4783 170.216 57.5704 166.059C57.4334 166.021 57.3059 165.958 57.1949 165.874C57.0839 165.79 56.9918 165.687 56.9237 165.57C56.7861 165.333 56.7549 165.054 56.8368 164.796C56.9188 164.538 57.1072 164.32 57.3607 164.192C57.6141 164.063 57.9119 164.034 58.1884 164.111C72.8519 168.198 100.691 169.486 100.977 169.499H119.675C119.963 169.499 120.239 169.606 120.443 169.796C120.647 169.987 120.761 170.245 120.761 170.514C120.761 170.784 120.647 171.042 120.443 171.232C120.239 171.423 119.963 171.53 119.675 171.53H119.668Z" fill="black"/>
<path d="M61.9296 163.578H58.3164V167.633H61.9296V163.578Z" fill="black"/>
<path d="M269.081 134.461H262.459C258.278 134.402 254.18 135.555 250.729 137.761L229.675 152.053V160.722H269.108L269.081 134.461Z" fill="#00B39F"/>
<path d="M229.912 119.674H193.508V157.352H229.912V119.674Z" fill="#00B39F"/>
<path d="M229.912 128.241H193.508V130.97H229.912V128.241Z" fill="#323232"/>
<path d="M193.507 148.353H139.37V157.359H193.507V148.353Z" fill="#00B39F"/>
<path d="M195.749 13.6887H191.26V151.824H195.749V13.6887Z" fill="#EDEEEF"/>
<path d="M193.507 16.4687H124.951C123.772 16.4662 122.604 16.681 121.514 17.1009C120.424 17.5208 119.433 18.1375 118.599 18.9156C117.764 19.6938 117.102 20.6181 116.65 21.6357C116.198 22.6533 115.966 23.7442 115.966 24.8459V87.231H43.3545V24.3446C43.3585 21.0993 44.0622 17.8881 45.4235 14.9025C46.7848 11.9169 48.7758 9.21819 51.2778 6.96739C53.7797 4.71659 56.7413 2.95985 59.9857 1.802C63.2302 0.644145 66.691 0.108913 70.1617 0.228258L194.954 4.53113C195.484 4.55096 196.011 4.61251 196.53 4.71516L267.694 17.9411C268.08 18.0195 268.425 18.2192 268.672 18.5068C268.92 18.7943 269.054 19.1524 269.053 19.5213V20.156H252.073L193.507 16.4687Z" fill="#323232"/>
<path d="M299.779 82.7564H282.636C281.357 82.7562 280.111 82.3683 279.088 81.6508C278.064 80.9334 277.317 79.9251 276.958 78.7772L260.454 25.8546C260.352 25.5299 260.332 25.1874 260.396 24.8543C260.46 24.5211 260.606 24.2065 260.823 23.9354C261.04 23.6643 261.321 23.4443 261.645 23.2927C261.969 23.1411 262.326 23.0622 262.689 23.0622H262.96L261.174 20.1682H252.1L263.599 88.3729C264.115 91.3937 264.115 94.4719 263.599 97.4927L256.651 137.424C255.956 141.418 253.763 145.051 250.464 147.673C247.166 150.295 242.976 151.735 238.646 151.735H210.562C209.279 151.736 208.01 151.501 206.825 151.043C205.64 150.585 204.563 149.913 203.656 149.066C202.749 148.22 202.03 147.214 201.539 146.107C201.048 145 200.795 143.814 200.795 142.616V113.422C200.795 112.857 200.555 112.314 200.127 111.914C199.699 111.514 199.118 111.29 198.513 111.29H188.495C187.89 111.291 187.311 111.517 186.883 111.916C186.456 112.316 186.215 112.857 186.213 113.422V142.616C186.213 145.034 185.185 147.354 183.354 149.064C181.524 150.775 179.042 151.735 176.453 151.735H156.655C152.536 151.736 148.537 150.434 145.311 148.041C142.085 145.647 139.821 142.303 138.888 138.554L132.32 112.185C131.917 110.573 131.318 109.01 130.534 107.526L121.399 90.207C120.927 89.3144 120.197 88.5627 119.293 88.0367C118.388 87.5108 117.344 87.2316 116.278 87.2306H43.3545V144.215C43.3522 149.08 45.1656 153.793 48.4823 157.542L51.199 160.62C51.9999 161.527 53.005 162.257 54.1427 162.758C55.2803 163.259 56.5224 163.52 57.7803 163.521H264.251C268.238 163.521 272.131 162.383 275.408 160.26C278.685 158.137 281.19 155.13 282.589 151.64L301.422 104.55C302.835 101.019 303.42 97.2462 303.136 93.4861C302.853 89.7261 301.708 86.0669 299.779 82.7564Z" fill="#00DEDE"/>
<path d="M126.663 173.697C130.294 159.045 120.527 144.416 104.846 141.022C89.1657 137.629 73.5101 146.756 69.8784 161.408C66.2468 176.06 76.0143 190.689 91.6948 194.083C107.375 197.476 123.031 188.349 126.663 173.697Z" fill="#323232"/>
<path d="M115.441 171.317C117.68 162.451 111.804 153.568 102.316 151.475C92.8277 149.383 83.3206 154.874 81.0812 163.74C78.8418 172.605 84.7181 181.489 94.2062 183.582C103.694 185.674 113.201 180.183 115.441 171.317Z" fill="#98989C"/>
<path d="M111.997 170.559C113.788 163.467 109.088 156.361 101.498 154.687C93.9083 153.013 86.3034 157.405 84.5121 164.498C82.7207 171.59 87.4213 178.696 95.0111 180.37C102.601 182.044 110.206 177.651 111.997 170.559Z" fill="#C3C5C8"/>
<path d="M108.006 167.557C108.006 169.357 107.435 171.117 106.364 172.613C105.293 174.109 103.771 175.275 101.99 175.962C100.21 176.65 98.2513 176.828 96.3624 176.474C94.4735 176.121 92.7394 175.252 91.3796 173.977C90.0198 172.701 89.0956 171.078 88.7239 169.312C88.3522 167.546 88.5498 165.716 89.2917 164.055C90.0335 162.394 91.2862 160.975 92.8912 159.98C94.4962 158.984 96.3812 158.456 98.3076 158.463C100.882 158.473 103.348 159.435 105.166 161.139C106.983 162.844 108.005 165.151 108.006 167.557Z" fill="#EDEEEF"/>
<path d="M98.3073 127.905C76.9471 127.905 59.5941 142.368 59.4922 163.273L59.7435 163.514H69.6391C70.9194 163.526 72.1638 163.119 73.1562 162.363C74.1487 161.607 74.8267 160.551 75.0726 159.377C77.1101 149.026 86.7341 142.793 98.3209 142.793C109.908 142.793 119.545 149.026 121.569 159.377C121.814 160.551 122.491 161.609 123.484 162.365C124.477 163.121 125.722 163.528 127.003 163.514H137.088C137.088 142.482 119.708 127.905 98.3073 127.905Z" fill="#00FFE1"/>
<path d="M233.464 163.514H145.103V162.924C145.103 161.894 145.54 160.906 146.32 160.178C147.099 159.449 148.157 159.04 149.259 159.04H233.464C246.925 159.04 253.466 152.345 256.046 139.919C257.147 134.619 263.85 91.6161 263.925 91.2036H264.353C264.665 91.2045 264.974 91.2655 265.259 91.383C265.545 91.5005 265.802 91.6718 266.014 91.8863C266.225 92.1007 266.387 92.3537 266.49 92.6294C266.592 92.905 266.632 93.1974 266.608 93.4883C265.854 102.373 261.718 136.384 260.74 141.086C257.568 156.387 250.07 163.514 233.464 163.514Z" fill="#EDEEEF"/>
<path d="M281.292 82.7565H299.78L262.954 23.1003H261.338C260.976 23.1007 260.618 23.1797 260.294 23.3313C259.97 23.4828 259.689 23.7027 259.471 23.9736C259.254 24.2444 259.107 24.5589 259.042 24.8919C258.977 25.225 258.996 25.5676 259.097 25.8927L275.608 78.8154C275.974 79.9572 276.725 80.9579 277.749 81.6681C278.774 82.3784 280.017 82.7601 281.292 82.7565Z" fill="#8CC8DD"/>
<path d="M301.231 85.644H263.143L263.598 88.3603C263.598 88.5063 263.645 88.6522 263.666 88.7982H302.331C302.034 87.7266 301.667 86.6733 301.231 85.644Z" fill="#323232"/>
<path d="M102.701 96.9344H102.463C101.789 96.9344 101.142 96.6846 100.664 96.2396C100.187 95.7947 99.9178 95.191 99.916 94.5609V83.9307H105.248V94.5609C105.246 95.191 104.977 95.7947 104.499 96.2396C104.022 96.6846 103.375 96.9344 102.701 96.9344Z" fill="#323232"/>
<path d="M106.892 90.9683H98.2734V93.0118H106.892V90.9683Z" fill="#E73324"/>
<path d="M57.4555 96.9344H57.211C56.5373 96.9344 55.8912 96.6844 55.4149 96.2393C54.9385 95.7941 54.6709 95.1904 54.6709 94.5609V83.9307H59.9957V94.5609C59.9957 95.1904 59.728 95.7941 59.2517 96.2393C58.7753 96.6844 58.1292 96.9344 57.4555 96.9344Z" fill="#323232"/>
<path d="M61.6383 90.9683H53.0195V93.0118H61.6383V90.9683Z" fill="#E73324"/>
<path d="M271.028 115.904L300.362 116.741C300.733 116.752 301.102 116.692 301.448 116.567C301.793 116.441 302.108 116.252 302.374 116.011C302.64 115.769 302.852 115.48 302.996 115.161C303.141 114.842 303.215 114.499 303.215 114.152V113.828C303.215 113.482 303.141 113.139 302.996 112.82C302.852 112.5 302.64 112.212 302.374 111.97C302.108 111.729 301.793 111.54 301.448 111.414C301.102 111.288 300.733 111.229 300.362 111.239L271.028 112.096C270.503 112.117 270.008 112.327 269.644 112.682C269.281 113.037 269.079 113.509 269.079 114V114.038C269.089 114.522 269.296 114.985 269.658 115.332C270.02 115.678 270.51 115.883 271.028 115.904Z" fill="#EDEEEF"/>
<path d="M284.442 101.459H271.103C270.342 101.459 269.725 102.036 269.725 102.748V107.368C269.725 108.079 270.342 108.656 271.103 108.656H284.442C285.204 108.656 285.821 108.079 285.821 107.368V102.748C285.821 102.036 285.204 101.459 284.442 101.459Z" fill="#323232"/>
<path d="M284.111 102.608H271.444C271.088 102.608 270.799 102.878 270.799 103.211V106.911C270.799 107.244 271.088 107.513 271.444 107.513H284.111C284.467 107.513 284.756 107.244 284.756 106.911V103.211C284.756 102.878 284.467 102.608 284.111 102.608Z" fill="#F7AF2C"/>
<path d="M328.218 128.829L321.807 128.143C320.638 128.023 319.559 127.502 318.778 126.681C317.997 125.861 317.568 124.799 317.575 123.701V122.654C317.568 121.556 317.997 120.494 318.778 119.673C319.559 118.853 320.638 118.332 321.807 118.211L328.252 117.526L328.218 128.829Z" fill="#00DEDE"/>
<path d="M328.734 129.337H329.454C329.912 129.337 330.35 129.167 330.674 128.865C330.997 128.562 331.179 128.152 331.179 127.725V118.649C331.179 118.221 330.998 117.811 330.674 117.507C330.351 117.204 329.912 117.033 329.454 117.031H328.734C328.568 117.033 328.409 117.096 328.292 117.206C328.175 117.317 328.109 117.466 328.109 117.621V128.753C328.109 128.908 328.175 129.056 328.292 129.166C328.41 129.275 328.568 129.337 328.734 129.337Z" fill="#323232"/>
</svg>
