<svg width="360" height="431" viewBox="0 0 360 431" fill="none" xmlns="http://www.w3.org/2000/svg">
<path d="M222.59 0.692383H591.286C595.205 0.692383 598.382 3.89945 598.382 7.85555V272.142C598.382 276.098 595.205 279.305 591.286 279.305H222.59C218.671 279.305 215.494 276.098 215.494 272.142V7.85555C215.494 3.89945 218.671 0.692383 222.59 0.692383Z" fill="#00DEDE"/>
<path fill-rule="evenodd" clip-rule="evenodd" d="M587.231 11.937V29.6069H226.562V11.937H587.231ZM587.231 35.6634V72.55H226.562V35.6634H587.231ZM587.231 78.6066V115.493H226.562V78.6066H587.231ZM587.231 121.562V158.448H226.562V121.562H587.231ZM587.231 164.505V201.391H226.562V164.505H587.231ZM587.231 207.46V244.346H226.562V207.46H587.231ZM587.231 250.403V268.025H226.562V250.403H587.231Z" fill="#00B39F"/>
<path d="M203.496 287.017H604.924V302.438H203.496V287.017Z" fill="black"/>
<path fill-rule="evenodd" clip-rule="evenodd" d="M201.81 37.0441H64.9327C63.3036 37.0227 61.7061 37.4986 60.3495 38.4095C58.993 39.3204 57.9406 40.6237 57.3304 42.1488L0.648544 178.653C0.210693 179.67 -0.0101013 180.769 0.000366211 181.878V358.601C0.003479 360.061 0.579422 361.46 1.60217 362.493C2.62492 363.525 4.01118 364.107 5.45757 364.11H28.6417C28.5209 354.669 30.2587 345.297 33.754 336.539C37.2494 327.781 42.4327 319.811 49.0034 313.091C55.5741 306.372 63.4012 301.037 72.0307 297.395C80.6601 293.754 89.9199 291.879 99.2729 291.879C108.626 291.879 117.886 293.754 126.515 297.395C135.145 301.037 142.972 306.372 149.542 313.091C156.113 319.811 161.296 327.781 164.792 336.539C168.287 345.297 170.025 354.669 169.904 364.11H201.81C203.256 364.104 204.64 363.521 205.662 362.489C206.684 361.457 207.261 360.06 207.268 358.601V42.5414C207.261 41.0833 206.684 39.6869 205.662 38.657C204.639 37.6271 203.255 37.0473 201.81 37.0441Z" fill="#00DEDE"/>
<path fill-rule="evenodd" clip-rule="evenodd" d="M197.002 60.7581C196.999 57.2277 195.608 53.8429 193.135 51.3465C190.663 48.8502 187.31 47.4463 183.813 47.4432H75.1286C72.5246 47.4248 69.9746 48.1934 67.8069 49.6502C65.6392 51.107 63.9527 53.1853 62.9648 55.6177L19.7905 159.567C18.9519 161.592 18.6218 163.795 18.8294 165.98C19.037 168.165 19.776 170.264 20.9807 172.091C22.1854 173.918 23.8186 175.417 25.735 176.454C27.6515 177.49 29.7919 178.033 31.9661 178.034H79.4778C81.2367 178.046 82.9799 177.697 84.6009 177.008C86.2219 176.318 87.687 175.303 88.9071 174.024L108.048 154.26C108.346 153.93 108.711 153.67 109.118 153.498C109.525 153.325 109.965 153.244 110.406 153.26H183.801C187.299 153.254 190.652 151.848 193.124 149.349C195.597 146.851 196.987 143.465 196.99 139.934L197.002 60.7581Z" fill="#00B39F"/>
<path fill-rule="evenodd" clip-rule="evenodd" d="M192.051 60.7589V139.934C192.051 142.143 191.182 144.262 189.634 145.824C188.087 147.386 185.988 148.263 183.8 148.263H110.405C109.305 148.249 108.214 148.463 107.201 148.893C106.187 149.323 105.271 149.959 104.512 150.762L85.3703 170.538C84.612 171.343 83.697 171.98 82.6827 172.41C81.6685 172.84 80.5769 173.054 79.477 173.037H31.9653C30.606 173.037 29.2677 172.699 28.0693 172.051C26.8709 171.403 25.8496 170.467 25.0962 169.325C24.3427 168.182 23.8804 166.87 23.7505 165.504C23.6205 164.138 23.8267 162.761 24.351 161.495L67.5253 57.5462C68.1356 56.0212 69.1879 54.7178 70.5445 53.807C71.9011 52.8961 73.4987 52.4202 75.1278 52.4416H183.812C185.996 52.4448 188.09 53.322 189.634 54.8812C191.179 56.4403 192.048 58.554 192.051 60.7589Z" fill="white"/>
<path d="M107.709 168.58C107.831 167.093 108.196 165.637 108.789 164.274L112.094 155.084C112.45 154.107 112.796 153.13 113.174 152.164C113.682 150.888 114.254 149.645 114.773 148.391C114.935 148.002 115.108 147.614 115.28 147.281C116.073 145.446 116.868 143.622 117.668 141.809C117.89 141.184 118.261 140.627 118.748 140.188C119.623 139.5 120.843 139.7 121.988 139.833C124.561 140.134 127.167 139.888 129.644 139.111C132.121 138.334 134.416 137.042 136.387 135.316C136.37 141.933 134.893 148.461 132.066 154.407C129.783 159.34 126.782 163.888 123.166 167.892C120.022 171.366 117.484 173.142 112.893 173.164C109.901 173.12 107.665 171.799 107.709 168.58Z" fill="#007B6D"/>
<path d="M105.416 103.079C105.025 105.822 104.139 108.466 103.675 111.187C102.814 116.316 103.427 121.594 105.437 126.366C107.009 130.059 109.658 133.534 113.319 134.813C115.25 135.479 117.329 135.49 119.302 136.015C121.27 136.559 123.081 137.591 124.579 139.02C126.077 140.45 127.218 142.235 127.902 144.222C134.071 141.821 139.786 138.319 144.786 133.873C142.918 123.635 143.646 113.07 146.896 103.21C147.318 101.943 147.751 100.456 147.033 99.3308C146.544 98.7114 145.892 98.2521 145.155 98.0086C133.11 92.7635 119.767 91.6155 107.051 94.7303C105.152 95.2001 104.761 95.3859 105.257 97.342C105.69 99.2228 105.744 101.176 105.416 103.079Z" fill="#FFB38A"/>
<path d="M105.054 106.374C102.544 108.882 101.126 112.225 101.09 115.713C101.09 119.864 103.002 123.807 104.914 127.564C105.763 129.469 106.9 131.242 108.288 132.825C108.989 133.612 109.858 134.242 110.835 134.672C111.813 135.102 112.876 135.322 113.95 135.316C116.453 135.16 118.495 133.406 120.321 131.746L125.919 126.682C126.722 126.099 127.301 125.274 127.562 124.337C127.4 124.452 127.197 124.502 126.997 124.477C126.797 124.452 126.615 124.353 126.488 124.202C126.244 123.848 126.113 123.433 126.112 123.008C125.833 120.414 125.65 117.82 125.51 115.205C125.51 114.302 125.779 112.434 125.07 111.728C124.361 111.023 122.309 110.971 121.481 110.753L105.054 106.374Z" fill="#A2E2E1"/>
<path d="M145.592 115.595C145.657 115.6 145.72 115.639 145.77 115.707C145.821 115.775 145.857 115.868 145.874 115.971C145.89 116.075 145.886 116.185 145.861 116.285C145.837 116.384 145.794 116.469 145.739 116.525C145.612 116.646 145.399 116.525 145.419 116.23C145.47 115.427 145.662 114.666 145.972 114.04C146.225 113.525 146.738 112.661 147.151 113.252C147.307 113.553 147.399 113.929 147.415 114.323C147.43 114.717 147.368 115.11 147.238 115.441C146.95 116.206 146.546 116.832 146.065 117.259C145.859 117.478 145.639 116.985 145.812 116.711C145.889 116.599 145.981 116.515 146.08 116.466C146.179 116.417 146.283 116.403 146.385 116.426C146.488 116.449 146.586 116.508 146.673 116.598C146.76 116.689 146.835 116.81 146.891 116.952C147.028 117.283 147.123 117.655 147.171 118.047C147.24 118.403 147.24 118.786 147.171 119.142C147.123 119.293 147.055 119.423 146.971 119.523C146.887 119.623 146.79 119.69 146.688 119.717C146.586 119.745 146.481 119.733 146.382 119.682C146.283 119.632 146.193 119.544 146.118 119.426C145.95 119.151 145.812 118.829 145.712 118.474C145.559 118.003 145.399 117.532 145.246 117.051C145.093 116.569 145.486 116.306 145.612 116.7C145.739 117.095 145.945 117.73 146.118 118.244C146.212 118.518 146.445 119.273 146.711 119.021C146.978 118.77 146.711 118.014 146.651 117.751C146.591 117.489 146.318 116.865 146.098 117.237L145.839 116.689C146.153 116.398 146.439 116.029 146.685 115.595C146.871 115.222 147.104 114.5 146.904 113.985C146.798 113.723 146.625 113.985 146.518 114.193C146.394 114.37 146.284 114.573 146.192 114.795C145.999 115.252 145.875 115.777 145.832 116.328L145.512 116.022L145.579 116.394C145.326 116.252 145.326 115.551 145.592 115.595Z" fill="#A2E2E1"/>
<path d="M122.918 118.975C123.282 120.678 123.218 122.449 122.73 124.118C121.923 125.746 120.713 127.12 119.225 128.098L115.167 131.297C114.216 132.195 113.049 132.81 111.791 133.076C110.527 133.21 109.056 132.336 109.016 131.019C109.079 130.499 109.245 129.999 109.506 129.551C109.766 129.102 110.114 128.716 110.527 128.417L114.19 124.9H105.541L105.333 120.57L112.363 120.004L105.659 118.585C105.056 118.511 104.482 118.278 103.991 117.906C103.73 117.632 103.534 117.299 103.418 116.934C103.301 116.568 103.268 116.179 103.319 115.797C103.437 115.038 103.666 114.303 104.001 113.617L111.04 115.674C111.354 115.805 111.698 115.834 112.028 115.756C112.106 115.738 112.179 115.704 112.244 115.656C112.309 115.607 112.364 115.545 112.405 115.474C112.447 115.403 112.474 115.324 112.486 115.242C112.497 115.159 112.492 115.076 112.472 114.995L106.676 111.838C106.02 111.562 105.456 111.089 105.057 110.48C104.967 110.324 104.91 110.151 104.889 109.97C104.868 109.79 104.884 109.607 104.935 109.434C104.986 109.26 105.072 109.1 105.186 108.963C105.301 108.826 105.442 108.716 105.6 108.639C106.301 108.433 107.94 109.092 108.661 109.246C109.767 109.472 110.872 109.719 111.968 109.966C114.081 110.459 116.188 110.987 118.287 111.55C119.581 111.899 121.476 112.023 122.138 113.422C122.799 114.82 122.71 117.299 122.918 118.975Z" fill="#8ECECC"/>
<path d="M120.946 94.4589C112.595 94.4783 104.255 95.0399 95.9831 96.1398C95.6917 96.1724 95.3971 96.1135 95.1436 95.9717C94.8902 95.83 94.6916 95.6132 94.5776 95.3539C94.4637 95.0946 94.4407 94.8068 94.5119 94.5338C94.5831 94.2608 94.7447 94.0174 94.9725 93.8401C95.857 93.1835 96.8078 92.6135 97.8107 92.1385C99.8534 91.1073 102.111 90.1895 103.541 88.4879C105.175 86.6008 105.691 84.0433 106.766 81.8364C107.871 79.8494 109.399 78.1074 111.251 76.7234C113.103 75.3395 115.238 74.3445 117.517 73.8029C122.073 72.7353 126.825 72.7036 131.396 73.7101C137.234 74.8033 143.061 76.9998 147.146 81.1455C151.231 85.2911 153.188 91.6951 150.78 96.9236C150.433 97.7242 149.954 98.4659 149.361 99.1201C148.479 100.079 148.114 99.6461 146.996 99.1923C145.037 98.3915 143.03 97.7028 140.986 97.1298C136.848 95.9893 132.608 95.2194 128.321 94.8301C125.827 94.6238 123.387 94.5207 120.946 94.4589Z" fill="#00B39F"/>
<path d="M105.502 89.1825C107.563 84.8501 109.956 80.5628 113.428 77.3783C116.9 74.1937 121.664 72.247 126.172 73.2372C131.331 74.3625 135.262 79.2238 136.662 84.5801C137.067 86.1217 137.377 87.8434 138.563 88.8336C140.197 90.1952 142.836 89.5763 144.353 91.0842C145.421 92.2095 145.421 93.9987 146.489 95.1352C147.009 95.6399 147.587 96.0746 148.209 96.4293C148.842 96.7816 149.32 97.3785 149.544 98.0947C150.388 101.729 144.203 98.0948 143.135 97.6559C140.219 96.4406 137.26 95.3378 134.258 94.37C128.253 92.4306 122.108 91.0081 115.885 90.1165C114.133 89.8689 112.37 89.6551 110.608 89.4863C110.074 89.5426 105.683 88.8336 105.502 89.1825Z" fill="#00DEDE"/>
<path d="M133.375 108.426L135.984 108.758C135.933 107.031 136.253 105.312 136.925 103.711C137.274 102.916 137.833 102.223 138.547 101.705C139.261 101.186 140.103 100.86 140.989 100.758C141.931 100.783 142.845 101.072 143.619 101.591C144.394 102.11 144.996 102.836 145.353 103.68C146.027 105.393 146.157 107.263 145.727 109.048C145.395 110.841 144.775 112.571 144.444 114.364C144.013 116.149 144.143 118.018 144.818 119.731C144.845 118.408 145.142 117.103 145.693 115.892C146.243 114.68 147.037 113.587 148.026 112.675C147.652 112.737 147.427 112.208 147.577 111.856C147.787 111.542 148.047 111.262 148.347 111.027C148.885 110.316 149.166 109.453 149.149 108.571L149.534 104.333C149.722 103.319 149.611 102.274 149.213 101.318C148.54 100.334 147.54 99.6033 146.379 99.2454C142.521 97.6447 138.483 96.4833 134.348 95.7845C133.279 95.6083 132.209 95.4529 131.193 95.3389C130.177 95.2249 129.557 95.0073 129.835 96.0953C130.306 97.9709 131.557 99.805 132.124 101.701C132.787 103.893 133.206 106.148 133.375 108.426Z" fill="#300C0F"/>
<path d="M114.326 101.265L111.569 101.849C110.966 101.979 110.255 102.018 109.997 101.2C109.896 100.927 109.887 100.618 109.971 100.338C110.056 100.057 110.227 99.8265 110.449 99.6946C111.114 99.6866 111.771 99.869 112.366 100.227C112.775 100.395 113.96 101.343 114.326 101.265Z" fill="#E6E2DA"/>
<path d="M107.78 98.471C108.29 97.9859 108.923 97.6758 109.598 97.5805C110.196 97.4302 110.819 97.4302 111.417 97.5805C112.553 97.9737 113.562 98.7069 114.326 99.6943C113.952 99.2413 113.495 98.8769 112.983 98.6242C112.471 98.3715 111.916 98.236 111.353 98.2264C110.833 98.1775 110.309 98.1775 109.789 98.2264C109.506 98.2678 109.229 98.3433 108.962 98.4515C108.644 98.5689 108.362 98.7646 108.053 98.8919C107.743 99.0191 107.616 98.7059 107.78 98.471Z" fill="#300C0F"/>
<path d="M107.799 100.923C108.177 100.943 108.553 100.99 108.922 101.063C108.695 100.924 108.505 100.742 108.367 100.529C108.229 100.316 108.146 100.077 108.125 99.832C108.125 99.6484 108.427 99.6484 108.451 99.832V99.8968C108.484 100.138 108.583 100.369 108.739 100.568C108.895 100.768 109.103 100.93 109.345 101.041C109.345 101.041 109.345 101.106 109.345 101.138C109.912 101.257 110.468 101.408 111.023 101.56C112.108 101.865 113.172 102.225 114.211 102.639C114.246 102.657 114.275 102.683 114.295 102.714C114.316 102.746 114.326 102.781 114.326 102.817C114.326 102.854 114.316 102.889 114.295 102.92C114.275 102.952 114.246 102.978 114.211 102.996C113.774 103.174 113.302 103.269 112.822 103.276L111.059 103.384C110.54 103.384 110.021 103.384 109.502 103.481C109.502 103.481 109.393 103.546 109.357 103.481C109.081 103.5 108.814 103.582 108.584 103.719C108.415 103.838 108.306 104.01 108.125 104.129C108.11 104.141 108.091 104.147 108.071 104.147C108.051 104.147 108.032 104.141 108.017 104.129C108.01 103.966 108.057 103.804 108.151 103.665C108.245 103.525 108.383 103.412 108.548 103.341C108.716 103.245 108.905 103.183 109.103 103.158C108.802 102.622 108.741 102.004 108.934 101.43C108.524 101.322 108.113 101.214 107.727 101.084C107.691 101.041 107.703 100.912 107.799 100.923ZM109.502 101.549C109.472 101.735 109.472 101.924 109.502 102.11L109.61 102.391C109.864 102.391 109.936 102.175 109.936 101.948C109.936 101.721 109.767 101.7 109.719 101.613L109.502 101.549ZM112.086 102.931C112.571 102.929 113.056 102.889 113.534 102.812C112.677 102.488 111.796 102.186 110.914 101.927L110.661 101.851C110.811 102.176 110.811 102.541 110.661 102.866C110.628 102.927 110.587 102.985 110.54 103.039L112.086 102.931Z" fill="#300C0F"/>
<path d="M123.151 110.339L123.466 110.826L135.459 105.336C135.798 105.188 136.698 104.7 136.277 104.276C135.856 103.852 134.933 104.594 134.617 104.732C133.285 105.294 131.987 105.898 130.678 106.513C130.047 106.778 123.081 110.233 123.151 110.339Z" fill="#A2E2E1"/>
<path d="M144.845 116.535L130.123 124.229L125.976 126.387C125.914 126.41 125.849 126.416 125.785 126.406C125.721 126.396 125.66 126.369 125.604 126.328C125.548 126.287 125.499 126.232 125.46 126.166C125.42 126.101 125.391 126.025 125.375 125.945C125.339 125.782 125.356 125.607 125.42 125.459C125.484 125.311 125.59 125.201 125.717 125.154L140.439 117.46L144.586 115.302C144.713 115.257 144.848 115.278 144.962 115.361C145.077 115.444 145.162 115.581 145.198 115.745C145.227 115.91 145.207 116.083 145.142 116.23C145.076 116.376 144.97 116.486 144.845 116.535Z" fill="#A2E2E1"/>
<path d="M138.842 103.126C139.059 102.647 139.394 102.279 139.792 102.081C140.19 101.884 140.629 101.868 141.035 102.038C141.438 102.221 141.802 102.523 142.1 102.922C142.398 103.32 142.62 103.803 142.75 104.333C143.003 105.396 143.068 106.52 142.943 107.621C142.721 109.91 142.092 112.1 141.108 114.017C140.741 114.746 140.191 115.512 139.502 115.213C137.952 114.615 138.778 110.837 139.126 109.522C139.741 107.441 138.062 105.158 138.842 103.126Z" fill="#D58D67"/>
<path d="M124.515 138.557C124.37 140.221 123.92 141.842 123.186 143.336C122.451 144.828 122.004 146.45 121.868 148.114C121.809 148.945 121.978 149.776 122.356 150.514C122.735 151.252 123.308 151.867 124.011 152.291H118.932C118.125 159.252 117.325 166.21 116.532 173.165L157.796 171.481C158.246 166.134 159.939 160.973 160.486 155.648C161.032 150.323 160.357 144.451 156.767 140.547C154.624 138.24 151.678 136.797 149.781 134.293C148.59 132.514 147.689 130.549 147.113 128.476C146.856 127.689 146.32 124.594 145.559 124.255C144.574 123.818 143.663 125.534 143.181 126.136C140.02 130.172 136.053 133.474 131.544 135.824C130.944 136.174 124.515 138.557 124.515 138.557Z" fill="#00B39F"/>
<path d="M158.267 152.863C157.777 158.705 156.35 164.422 154.045 169.775C146.757 171.065 139.331 171.283 131.984 170.422C131.873 165.122 132.732 159.848 134.517 154.882C135.235 152.983 136.122 151.161 137.008 149.34C137.719 147.738 138.586 146.215 139.595 144.796C140.847 143.207 142.427 141.93 144.217 141.06C146.008 140.19 147.963 139.749 149.939 139.77C153.549 139.77 155.681 140.999 157.328 144.445C158.365 147.111 158.69 150.02 158.267 152.863Z" fill="#00DEDE"/>
<path d="M61.1609 192.836C61.6037 192.684 62.012 192.444 62.3623 192.131C62.7127 191.818 62.9981 191.438 63.202 191.013C63.4059 190.588 63.5243 190.127 63.5502 189.655C63.5762 189.184 63.5092 188.712 63.3532 188.267L52.0616 155.45C51.9107 155.001 51.673 154.588 51.3623 154.233C51.0516 153.878 50.6742 153.59 50.2518 153.384C49.8295 153.178 49.3707 153.059 48.9024 153.033C48.4341 153.008 47.9654 153.077 47.5237 153.236C47.081 153.389 46.6727 153.628 46.3223 153.941C45.972 154.254 45.6866 154.634 45.4827 155.059C45.2788 155.484 45.1604 155.946 45.1345 156.417C45.1085 156.888 45.1754 157.36 45.3314 157.806L56.623 190.682C56.7798 191.125 57.0218 191.533 57.335 191.881C57.6483 192.229 58.0267 192.511 58.4484 192.712C58.8701 192.912 59.3269 193.026 59.7924 193.047C60.2579 193.068 60.723 192.997 61.1609 192.836Z" fill="#030404"/>
<path fill-rule="evenodd" clip-rule="evenodd" d="M189.635 184.9V326.331C189.632 327.832 189.228 329.304 188.464 330.592C187.7 331.881 186.606 332.936 185.297 333.648C179.675 317.467 169.684 303.195 156.452 292.442C143.22 281.69 127.274 274.886 110.414 272.798C93.5548 270.711 76.4527 273.423 61.039 280.628C45.6252 287.833 32.5136 299.245 23.1843 313.575V209.721C23.1843 207.512 24.0536 205.394 25.6009 203.832C27.1482 202.27 29.2467 201.392 31.4349 201.392H84.18C85.2801 201.41 86.3721 201.198 87.3866 200.767C88.4011 200.337 89.3159 199.699 90.0733 198.893L109.226 179.117C109.985 178.313 110.9 177.675 111.914 177.245C112.928 176.815 114.02 176.602 115.12 176.619H181.396C183.574 176.622 185.662 177.494 187.206 179.046C188.749 180.597 189.622 182.702 189.635 184.9Z" fill="#00B39F"/>
<path fill-rule="evenodd" clip-rule="evenodd" d="M0.0472412 203.117H13.4135C14.2086 203.12 14.97 203.441 15.5311 204.01C16.0923 204.579 16.4072 205.349 16.4072 206.151V318.203C16.4072 319.005 16.0919 319.774 15.5304 320.341C14.969 320.907 14.2075 321.226 13.4135 321.226H0.0472412V203.117Z" fill="black"/>
<path fill-rule="evenodd" clip-rule="evenodd" d="M0.0463877 211.03H9.39335C9.80816 211.033 10.205 211.201 10.4984 211.497C10.7917 211.793 10.9579 212.194 10.9609 212.612V216.337C10.9579 216.755 10.7917 217.156 10.4984 217.452C10.205 217.748 9.80816 217.916 9.39335 217.919H0.0463877V211.03ZM0.0463877 313.361V306.471H9.39335C9.80816 306.474 10.205 306.642 10.4984 306.938C10.7917 307.234 10.9579 307.635 10.9609 308.054V311.778C10.9579 312.197 10.7917 312.598 10.4984 312.894C10.205 313.19 9.80816 313.357 9.39335 313.361H0.0463877ZM0.0463877 302.759V295.881H9.39335C9.80911 295.881 10.2078 296.048 10.5018 296.345C10.7958 296.641 10.9609 297.044 10.9609 297.464V301.176C10.9579 301.595 10.7917 301.996 10.4984 302.292C10.205 302.588 9.80816 302.756 9.39335 302.759H0.0463877ZM0.0463877 292.157V285.279H9.39335C9.80816 285.282 10.205 285.45 10.4984 285.746C10.7917 286.042 10.9579 286.443 10.9609 286.862V290.574C10.9579 290.993 10.7917 291.394 10.4984 291.69C10.205 291.986 9.80816 292.154 9.39335 292.157H0.0463877ZM0.0463877 281.555V274.677H9.39335C9.80816 274.68 10.205 274.848 10.4984 275.144C10.7917 275.44 10.9579 275.841 10.9609 276.26V279.925C10.9609 280.344 10.7958 280.747 10.5018 281.044C10.2078 281.34 9.80911 281.507 9.39335 281.507L0.0463877 281.555ZM0.0463877 270.965V264.075H9.39335C9.80816 264.078 10.205 264.246 10.4984 264.542C10.7917 264.838 10.9579 265.239 10.9609 265.658V269.382C10.9579 269.801 10.7917 270.202 10.4984 270.498C10.205 270.794 9.80816 270.962 9.39335 270.965H0.0463877ZM0.0463877 260.363V253.473H9.39335C9.81019 253.476 10.2089 253.646 10.5025 253.945C10.7962 254.243 10.9609 254.647 10.9609 255.068V258.78C10.9579 259.199 10.7917 259.6 10.4984 259.896C10.205 260.192 9.80816 260.36 9.39335 260.363H0.0463877ZM0.0463877 249.761V242.883H9.39335C9.80816 242.886 10.205 243.054 10.4984 243.35C10.7917 243.646 10.9579 244.047 10.9609 244.466V248.178C10.9579 248.597 10.7917 248.998 10.4984 249.294C10.205 249.59 9.80816 249.758 9.39335 249.761H0.0463877ZM0.0463877 239.159V232.281H9.39335C9.80816 232.284 10.205 232.452 10.4984 232.748C10.7917 233.044 10.9579 233.445 10.9609 233.864V237.576C10.9579 237.995 10.7917 238.396 10.4984 238.692C10.205 238.988 9.80816 239.156 9.39335 239.159H0.0463877ZM0.0463877 228.569V221.62H9.39335C9.80816 221.623 10.205 221.791 10.4984 222.087C10.7917 222.383 10.9579 222.784 10.9609 223.202V226.915C10.9609 227.336 10.7962 227.739 10.5025 228.038C10.2089 228.337 9.81019 228.506 9.39335 228.509L0.0463877 228.569Z" fill="#4D4D4D"/>
<path d="M155.018 187.981H173.016C174.448 187.981 175.609 189.153 175.609 190.599V194.454C175.609 195.9 174.448 197.072 173.016 197.072H155.018C153.586 197.072 152.425 195.9 152.425 194.454V190.599C152.425 189.153 153.586 187.981 155.018 187.981Z" fill="#00DEDE"/>
<path fill-rule="evenodd" clip-rule="evenodd" d="M0.046875 225.642C2.99559 228.403 5.34792 231.749 6.95655 235.47C8.56518 239.191 9.39551 243.208 9.39551 247.268C9.39551 251.328 8.56518 255.344 6.95655 259.066C5.34792 262.787 2.99559 266.133 0.046875 268.894V225.642Z" fill="#FFB400"/>
<path fill-rule="evenodd" clip-rule="evenodd" d="M296.998 287.063H256.44C246.998 287.089 237.95 290.886 231.273 297.627C224.596 304.367 220.834 313.502 220.809 323.034C220.837 332.564 224.601 341.696 231.277 348.434C237.953 355.171 247 358.968 256.44 358.993H296.998C306.448 358.971 315.505 355.169 322.185 348.421C328.866 341.673 332.625 332.527 332.641 322.986C332.603 313.46 328.834 304.336 322.156 297.606C315.478 290.875 306.434 287.085 296.998 287.063Z" fill="#00DEDE"/>
<path fill-rule="evenodd" clip-rule="evenodd" d="M287.852 287.063V358.992H296.998C297.811 358.992 298.613 358.992 299.355 358.909V287.063C298.566 287.063 297.764 286.98 296.998 286.98L287.852 287.063ZM265.587 287.063H256.441C255.627 287.063 254.826 287.063 254.083 287.147V358.909C254.873 358.909 255.675 358.992 256.441 358.992H265.587V287.063Z" fill="#00B39F"/>
<path fill-rule="evenodd" clip-rule="evenodd" d="M99.2674 298.105C86.2658 298.101 73.555 301.989 62.743 309.279C51.931 316.569 43.5036 326.932 38.527 339.058C33.5504 351.184 32.2482 364.528 34.7853 377.401C37.3223 390.274 43.5846 402.098 52.7798 411.378C61.975 420.657 73.6898 426.975 86.4423 429.532C99.1949 432.088 112.412 430.769 124.422 425.741C136.431 420.712 146.694 412.201 153.911 401.283C161.128 390.365 164.975 377.532 164.966 364.406C164.956 346.821 158.031 329.959 145.711 317.527C133.392 305.094 116.687 298.109 99.2674 298.105ZM99.2674 323.676C107.257 323.681 115.066 326.078 121.707 330.563C128.347 335.049 133.521 341.422 136.573 348.877C139.625 356.331 140.419 364.532 138.854 372.441C137.289 380.351 133.435 387.615 127.781 393.313C122.126 399.012 114.924 402.89 107.086 404.456C99.2485 406.022 91.1268 405.206 83.7482 402.112C76.3696 399.017 70.0658 393.783 65.6341 387.072C61.2024 380.36 58.8419 372.472 58.8512 364.406C58.8637 353.596 63.1282 343.232 70.707 335.595C78.2858 327.957 88.5587 323.67 99.2674 323.676Z" fill="#323232"/>
<path fill-rule="evenodd" clip-rule="evenodd" d="M99.2667 323.678C91.2748 323.673 83.4612 326.062 76.8145 330.542C70.1679 335.022 64.987 341.391 61.9275 348.845C58.8681 356.298 58.0676 364.501 59.6273 372.414C61.187 380.327 65.0368 387.594 70.6896 393.298C76.3424 399.001 83.544 402.883 91.3832 404.453C99.2223 406.023 107.347 405.21 114.728 402.118C122.109 399.025 128.416 393.791 132.85 387.078C137.283 380.365 139.645 372.476 139.636 364.408C139.623 353.605 135.365 343.249 127.797 335.613C120.228 327.976 109.967 323.684 99.2667 323.678ZM113.729 345.643L107.918 351.509C106.194 350.337 104.254 349.528 102.213 349.129V340.8C106.406 341.311 110.385 342.955 113.729 345.56V345.643ZM112.091 355.722L117.89 349.855C120.464 353.234 122.092 357.249 122.604 361.481H114.354C113.963 359.419 113.161 357.46 111.996 355.722H112.091ZM114.448 367.43H122.698C122.197 371.664 120.568 375.682 117.984 379.055L112.185 373.189C113.346 371.449 114.148 369.49 114.542 367.43H114.448ZM107.918 377.401L113.729 383.256C110.382 385.855 106.405 387.499 102.213 388.015V379.686C104.254 379.288 106.194 378.479 107.918 377.306V377.401ZM96.3201 379.781V388.11C92.1286 387.594 88.1515 385.95 84.8046 383.351L90.6154 377.497C92.3374 378.672 94.2783 379.482 96.3201 379.876V379.781ZM86.4429 373.189L80.6321 379.055C78.0519 375.68 76.423 371.663 75.9175 367.43H84.168C84.5628 369.49 85.3645 371.449 86.5254 373.189H86.4429ZM84.0856 361.481H75.835C76.3383 357.247 77.9674 353.23 80.5496 349.855L86.3605 355.722C85.1959 357.46 84.3938 359.419 84.0032 361.481H84.0856ZM90.6272 351.509L84.8164 345.643C88.1589 343.036 92.1382 341.392 96.3319 340.884V349.213C94.284 349.577 92.331 350.358 90.5918 351.509H90.6272Z" fill="#89A1A1"/>
<g style="mix-blend-mode:multiply">
<path fill-rule="evenodd" clip-rule="evenodd" d="M99.267 327.841C92.0909 327.836 85.0748 329.981 79.1066 334.003C73.1383 338.025 68.4863 343.745 65.7391 350.437C62.9918 357.13 62.273 364.494 63.6735 371.599C65.0741 378.705 68.531 385.23 73.6068 390.351C78.6827 395.472 85.1493 398.958 92.1882 400.367C99.2272 401.776 106.522 401.046 113.15 398.268C119.777 395.491 125.439 390.79 129.42 384.763C133.4 378.735 135.52 371.651 135.511 364.406C135.501 354.707 131.679 345.409 124.883 338.553C118.088 331.697 108.874 327.844 99.267 327.841ZM99.267 333.588C105.313 333.602 111.219 335.426 116.239 338.828C121.258 342.23 125.166 347.058 127.468 352.702C129.77 358.346 130.362 364.553 129.171 370.536C127.979 376.52 125.057 382.013 120.774 386.321C116.49 390.629 111.038 393.557 105.106 394.737C99.1741 395.917 93.0288 395.295 87.447 392.949C81.8652 390.604 77.0976 386.64 73.7468 381.56C70.396 376.479 68.6125 370.51 68.6218 364.406C68.6265 360.35 69.4232 356.335 70.9663 352.591C72.5095 348.846 74.7689 345.445 77.6151 342.583C80.4614 339.72 83.8388 337.453 87.554 335.909C91.2693 334.366 95.2494 333.577 99.267 333.588Z" fill="#979797"/>
</g>
<g style="mix-blend-mode:multiply">
<path fill-rule="evenodd" clip-rule="evenodd" d="M99.2663 357.505C97.9044 357.503 96.5725 357.909 95.439 358.671C94.3055 359.433 93.4214 360.517 92.8986 361.787C92.3758 363.056 92.2378 364.454 92.502 365.803C92.7663 367.151 93.4209 368.391 94.3831 369.364C95.3453 370.337 96.5718 371 97.9074 371.269C99.2429 371.538 100.627 371.401 101.886 370.875C103.144 370.35 104.22 369.459 104.977 368.316C105.734 367.173 106.138 365.829 106.138 364.454C106.135 362.614 105.41 360.85 104.122 359.548C102.835 358.246 101.089 357.512 99.2663 357.505Z" fill="#979797"/>
</g>
<path fill-rule="evenodd" clip-rule="evenodd" d="M406.13 298.105C393.13 298.105 380.421 301.998 369.612 309.29C358.803 316.583 350.38 326.948 345.407 339.074C340.434 351.201 339.135 364.543 341.675 377.415C344.214 390.287 350.479 402.109 359.675 411.386C368.871 420.663 380.586 426.978 393.338 429.533C406.09 432.088 419.306 430.767 431.314 425.738C443.322 420.709 453.583 412.197 460.799 401.28C468.015 390.363 471.862 377.531 471.853 364.406C471.853 346.809 464.928 329.933 452.603 317.491C440.278 305.048 423.561 298.058 406.13 298.058V298.105ZM406.13 323.676C414.121 323.676 421.933 326.069 428.576 330.552C435.22 335.034 440.397 341.406 443.453 348.86C446.509 356.314 447.306 364.515 445.743 372.426C444.181 380.338 440.329 387.604 434.676 393.305C429.022 399.005 421.82 402.885 413.982 404.453C406.143 406.021 398.02 405.207 390.64 402.114C383.26 399.02 376.955 393.786 372.522 387.074C368.089 380.362 365.728 372.473 365.738 364.406C365.75 353.599 370.011 343.24 377.585 335.603C385.159 327.966 395.426 323.676 406.13 323.676Z" fill="#323232"/>
<g style="mix-blend-mode:multiply">
<path fill-rule="evenodd" clip-rule="evenodd" d="M184.543 126.31L46.7579 126.571C45.1319 126.557 43.5392 127.036 42.1859 127.946C40.8325 128.856 39.781 130.156 39.1674 131.676L26.6736 161.768C25.5657 164.458 23.5147 166.933 25.0941 169.324C25.8337 170.481 26.8524 171.428 28.0545 172.077C29.2565 172.727 30.6026 173.057 31.9658 173.037H79.4775C80.5775 173.053 81.669 172.84 82.6833 172.41C83.6976 171.98 84.6126 171.343 85.3708 170.538L104.512 150.762C105.272 149.959 106.187 149.323 107.201 148.893C108.215 148.463 109.306 148.248 110.406 148.263H183.801C185.649 148.266 187.444 147.637 188.893 146.478V130.712C188.886 129.548 188.427 128.434 187.613 127.61C186.799 126.786 185.696 126.319 184.543 126.31Z" fill="#C6D7D7"/>
</g>
<rect width="61.7699" height="19.8546" rx="1" transform="matrix(-1 0 0 1 169.478 130.045)" fill="#00DEDE"/>
<rect width="50.7396" height="4.41214" transform="matrix(-1 0 0 1 162.859 125.633)" fill="#00B39F"/>
</svg>
