<svg width="214" height="179" viewBox="0 0 214 179" fill="none" xmlns="http://www.w3.org/2000/svg">
<path fill-rule="evenodd" clip-rule="evenodd" d="M49.9949 121.621C56.0652 121.621 61.9992 123.303 67.0465 126.455C72.0938 129.606 76.0277 134.085 78.3507 139.326C80.6737 144.566 81.2815 150.333 80.0972 155.896C78.913 161.459 75.9898 166.569 71.6975 170.58C67.4051 174.591 61.9363 177.322 55.9826 178.429C50.0289 179.536 43.8577 178.968 38.2495 176.797C32.6412 174.626 27.8478 170.95 24.4753 166.234C21.1028 161.518 19.3027 155.973 19.3027 150.301C19.3027 142.694 22.5364 135.4 28.2922 130.021C34.0481 124.643 41.8548 121.621 49.9949 121.621V121.621ZM49.9949 128.989C45.4844 128.991 41.0756 130.242 37.3259 132.584C33.5762 134.927 30.6541 138.255 28.9289 142.15C27.2038 146.044 26.7531 150.329 27.6339 154.462C28.5146 158.596 30.6873 162.392 33.8772 165.372C37.067 168.352 41.1308 170.381 45.5548 171.203C49.9787 172.025 54.564 171.602 58.731 169.989C62.898 168.376 66.4596 165.644 68.9653 162.14C71.4711 158.635 72.8085 154.515 72.8085 150.301C72.8085 147.502 72.2184 144.73 71.0718 142.144C69.9252 139.558 68.2447 137.208 66.1261 135.229C64.0076 133.25 61.4926 131.68 58.7247 130.61C55.9569 129.539 52.9905 128.989 49.9949 128.989" fill="#323232"/>
<path fill-rule="evenodd" clip-rule="evenodd" d="M49.9943 128.99C54.5051 128.99 58.9146 130.239 62.6651 132.581C66.4157 134.923 69.3389 138.251 71.0651 142.145C72.7913 146.039 73.243 150.324 72.3629 154.458C71.4829 158.592 69.3108 162.39 66.1212 165.37C62.9316 168.35 58.8678 170.38 54.4437 171.202C50.0196 172.025 45.4339 171.603 41.2665 169.99C37.0991 168.377 33.5372 165.645 31.0311 162.141C28.5251 158.636 27.1875 154.516 27.1875 150.301C27.1875 144.649 29.5903 139.228 33.8675 135.231C38.1446 131.235 43.9456 128.99 49.9943 128.99V128.99ZM49.9943 137.011C47.1815 137.011 44.4318 137.791 42.093 139.251C39.7542 140.711 37.9313 142.787 36.8549 145.215C35.7785 147.643 35.4968 150.315 36.0456 152.893C36.5943 155.471 37.9489 157.839 39.9379 159.698C41.9268 161.556 44.461 162.822 47.2198 163.335C49.9786 163.847 52.8381 163.584 55.4369 162.578C58.0356 161.573 60.2568 159.869 61.8195 157.684C63.3822 155.498 64.2163 152.929 64.2163 150.301C64.2172 148.555 63.85 146.827 63.1356 145.214C62.4212 143.601 61.3736 142.136 60.0528 140.902C58.732 139.668 57.1638 138.689 55.4379 138.021C53.712 137.354 51.8622 137.011 49.9943 137.011Z" fill="#9EC2C2"/>
<path d="M49.9961 165.38C46.8044 165.38 43.6844 164.495 41.0307 162.838C38.3769 161.181 36.3085 158.826 35.0871 156.071C33.8657 153.316 33.5462 150.284 34.1688 147.359C34.7915 144.434 36.3284 141.747 38.5853 139.638C40.8421 137.529 43.7175 136.093 46.8478 135.511C49.9782 134.929 53.2228 135.228 56.1715 136.369C59.1202 137.511 61.6406 139.443 63.4137 141.923C65.1869 144.403 66.1334 147.318 66.1334 150.301C66.1343 152.281 65.7175 154.242 64.9068 156.072C64.0961 157.902 62.9075 159.565 61.4089 160.965C59.9102 162.365 58.1309 163.476 56.1726 164.233C54.2143 164.991 52.1155 165.38 49.9961 165.38ZM49.9961 130.779C45.8641 130.779 41.8249 131.924 38.3893 134.069C34.9537 136.214 32.276 139.263 30.6948 142.83C29.1135 146.397 28.6998 150.322 29.5059 154.109C30.312 157.896 32.3018 161.374 35.2235 164.104C38.1452 166.834 41.8678 168.694 45.9203 169.447C49.9729 170.2 54.1735 169.814 57.9909 168.336C61.8084 166.859 65.0712 164.356 67.3668 161.146C69.6624 157.936 70.8876 154.162 70.8876 150.301C70.8876 145.123 68.6866 140.158 64.7686 136.497C60.8507 132.836 55.5368 130.779 49.9961 130.779Z" fill="#769191"/>
<path fill-rule="evenodd" clip-rule="evenodd" d="M47.2172 145.573C47.5891 145.384 47.9805 145.231 48.3854 145.116L49.1529 135.831H50.844L51.5911 145.116C51.9987 145.23 52.3925 145.383 52.7661 145.573L60.3389 139.506L60.9366 140.064L61.5343 140.623L55.0549 147.705C55.2611 148.053 55.4251 148.421 55.5439 148.803L65.4871 149.514V151.094L55.5439 151.811C55.4226 152.192 55.2587 152.56 55.0549 152.909L61.5479 159.979L60.9502 160.538L60.3525 161.096L52.7797 155.035C52.4072 155.226 52.0131 155.377 51.6047 155.486L50.844 164.777H49.1529L48.3854 155.486C47.9796 155.376 47.5879 155.225 47.2172 155.035L39.6444 161.096L39.0467 160.538L38.449 159.979L44.9352 152.909C44.7335 152.56 44.5719 152.192 44.4529 151.811L34.5098 151.094V149.514L44.4529 148.803C44.5695 148.421 44.7312 148.053 44.9352 147.705L38.449 140.629L39.0467 140.07L39.6444 139.512L47.2172 145.573Z" fill="#9EC2C2"/>
<path fill-rule="evenodd" clip-rule="evenodd" d="M182.673 156.774C184.044 156.774 185.385 156.394 186.526 155.682C187.666 154.969 188.555 153.957 189.08 152.773C189.605 151.588 189.742 150.285 189.473 149.028C189.205 147.771 188.544 146.616 187.574 145.71C186.603 144.804 185.367 144.188 184.021 143.938C182.676 143.689 181.281 143.818 180.014 144.31C178.747 144.801 177.665 145.633 176.904 146.699C176.142 147.766 175.737 149.019 175.738 150.301C175.742 152.018 176.474 153.663 177.774 154.877C179.074 156.09 180.835 156.772 182.673 156.774V156.774Z" fill="#9EC2C2"/>
<path fill-rule="evenodd" clip-rule="evenodd" d="M187.583 145.719C188.553 146.625 189.213 147.779 189.481 149.036C189.748 150.293 189.611 151.596 189.086 152.78C188.561 153.964 187.672 154.976 186.532 155.688C185.392 156.4 184.051 156.78 182.68 156.78C181.308 156.78 179.967 156.4 178.827 155.688C177.687 154.976 176.798 153.964 176.273 152.78C175.748 151.596 175.611 150.293 175.878 149.036C176.146 147.779 176.806 146.625 177.776 145.719C178.42 145.117 179.184 144.64 180.026 144.314C180.867 143.988 181.769 143.821 182.68 143.821C183.59 143.821 184.492 143.988 185.333 144.314C186.175 144.64 186.939 145.117 187.583 145.719Z" fill="#9EC2C2"/>
<path fill-rule="evenodd" clip-rule="evenodd" d="M189.614 150.301C189.614 151.582 189.207 152.835 188.446 153.9C187.684 154.965 186.601 155.796 185.335 156.287C184.068 156.777 182.674 156.906 181.329 156.656C179.984 156.407 178.749 155.79 177.779 154.885C176.809 153.979 176.148 152.825 175.879 151.569C175.611 150.312 175.747 149.01 176.271 147.825C176.795 146.641 177.683 145.629 178.822 144.916C179.962 144.203 181.302 143.822 182.673 143.821C183.584 143.82 184.486 143.987 185.329 144.312C186.171 144.638 186.936 145.115 187.581 145.717C188.225 146.318 188.737 147.033 189.085 147.82C189.434 148.606 189.614 149.449 189.614 150.301V150.301Z" fill="#9EC2C2"/>
<path fill-rule="evenodd" clip-rule="evenodd" d="M187.584 154.877C186.615 155.784 185.379 156.402 184.034 156.652C182.688 156.903 181.294 156.775 180.026 156.285C178.758 155.795 177.675 154.964 176.912 153.899C176.15 152.833 175.743 151.58 175.743 150.298C175.743 149.016 176.15 147.763 176.912 146.697C177.675 145.631 178.758 144.801 180.026 144.311C181.294 143.82 182.688 143.693 184.034 143.943C185.379 144.194 186.615 144.812 187.584 145.719C188.883 146.934 189.612 148.581 189.612 150.298C189.612 152.015 188.883 153.662 187.584 154.877V154.877Z" fill="#9EC2C2"/>
<path fill-rule="evenodd" clip-rule="evenodd" d="M182.673 156.774C181.301 156.775 179.959 156.396 178.818 155.685C177.676 154.973 176.786 153.961 176.261 152.777C175.735 151.593 175.597 150.289 175.864 149.032C176.132 147.774 176.792 146.619 177.762 145.713C178.733 144.806 179.969 144.189 181.315 143.939C182.66 143.689 184.055 143.818 185.323 144.309C186.59 144.8 187.673 145.632 188.434 146.698C189.196 147.765 189.602 149.019 189.6 150.301C189.599 152.017 188.868 153.663 187.569 154.876C186.27 156.09 184.509 156.772 182.673 156.774Z" fill="#9EC2C2"/>
<path fill-rule="evenodd" clip-rule="evenodd" d="M177.776 154.877C176.806 153.97 176.146 152.816 175.878 151.559C175.611 150.302 175.748 148.999 176.273 147.815C176.798 146.631 177.687 145.619 178.827 144.907C179.967 144.195 181.308 143.815 182.68 143.815C184.051 143.815 185.392 144.195 186.532 144.907C187.672 145.619 188.561 146.631 189.086 147.815C189.611 148.999 189.748 150.302 189.481 151.559C189.213 152.816 188.553 153.97 187.583 154.877C186.939 155.478 186.175 155.956 185.333 156.281C184.492 156.607 183.59 156.775 182.68 156.775C181.769 156.775 180.867 156.607 180.026 156.281C179.184 155.956 178.42 155.478 177.776 154.877V154.877Z" fill="#9EC2C2"/>
<path fill-rule="evenodd" clip-rule="evenodd" d="M175.745 150.301C175.744 149.019 176.15 147.765 176.911 146.698C177.672 145.632 178.755 144.8 180.023 144.309C181.29 143.818 182.685 143.689 184.031 143.939C185.377 144.189 186.613 144.806 187.583 145.713C188.553 146.619 189.214 147.774 189.481 149.032C189.748 150.289 189.611 151.593 189.085 152.777C188.559 153.961 187.669 154.973 186.528 155.685C185.386 156.396 184.045 156.775 182.673 156.774C180.836 156.772 179.075 156.09 177.776 154.876C176.477 153.663 175.747 152.017 175.745 150.301V150.301Z" fill="#9EC2C2"/>
<path fill-rule="evenodd" clip-rule="evenodd" d="M182.673 121.621C188.743 121.621 194.677 123.303 199.724 126.455C204.771 129.606 208.705 134.085 211.028 139.326C213.351 144.566 213.959 150.333 212.775 155.896C211.591 161.459 208.668 166.569 204.375 170.58C200.083 174.591 194.614 177.322 188.66 178.429C182.707 179.536 176.535 178.968 170.927 176.797C165.319 174.626 160.526 170.95 157.153 166.234C153.781 161.518 151.98 155.973 151.98 150.301C151.98 142.694 155.214 135.4 160.97 130.021C166.726 124.643 174.533 121.621 182.673 121.621ZM182.673 128.989C178.162 128.989 173.752 130.239 170.002 132.581C166.251 134.923 163.328 138.251 161.602 142.145C159.876 146.039 159.424 150.324 160.304 154.458C161.184 158.592 163.356 162.39 166.546 165.37C169.735 168.35 173.799 170.38 178.223 171.202C182.647 172.025 187.233 171.603 191.4 169.99C195.568 168.377 199.13 165.645 201.636 162.141C204.142 158.636 205.479 154.516 205.479 150.301C205.48 147.502 204.891 144.73 203.745 142.144C202.599 139.558 200.919 137.209 198.801 135.23C196.683 133.25 194.169 131.681 191.401 130.61C188.634 129.539 185.668 128.989 182.673 128.989" fill="#323232"/>
<path fill-rule="evenodd" clip-rule="evenodd" d="M182.672 128.99C187.183 128.99 191.592 130.239 195.343 132.581C199.093 134.923 202.017 138.251 203.743 142.145C205.469 146.039 205.921 150.324 205.041 154.458C204.161 158.592 201.989 162.39 198.799 165.37C195.609 168.35 191.546 170.38 187.121 171.202C182.697 172.025 178.112 171.603 173.944 169.99C169.777 168.377 166.215 165.645 163.709 162.141C161.203 158.636 159.865 154.516 159.865 150.301C159.864 147.502 160.454 144.73 161.599 142.144C162.745 139.558 164.425 137.209 166.543 135.23C168.661 133.25 171.176 131.681 173.943 130.61C176.711 129.539 179.677 128.989 182.672 128.99V128.99ZM182.672 137.011C179.861 137.019 177.115 137.805 174.782 139.269C172.448 140.734 170.632 142.812 169.562 145.241C168.492 147.67 168.216 150.341 168.769 152.917C169.322 155.492 170.68 157.856 172.671 159.711C174.661 161.566 177.196 162.828 179.953 163.337C182.711 163.847 185.568 163.582 188.165 162.575C190.761 161.568 192.98 159.865 194.541 157.68C196.102 155.495 196.935 152.927 196.935 150.301C196.935 148.552 196.566 146.821 195.848 145.206C195.131 143.591 194.08 142.125 192.755 140.89C191.43 139.656 189.857 138.678 188.127 138.012C186.397 137.346 184.543 137.006 182.672 137.011" fill="#9EC2C2"/>
<path d="M182.672 165.38C179.48 165.38 176.36 164.495 173.706 162.838C171.053 161.181 168.984 158.826 167.763 156.071C166.542 153.316 166.222 150.284 166.845 147.359C167.467 144.434 169.004 141.747 171.261 139.638C173.518 137.529 176.393 136.093 179.524 135.511C182.654 134.929 185.899 135.228 188.847 136.369C191.796 137.511 194.316 139.443 196.09 141.923C197.863 144.403 198.809 147.318 198.809 150.301C198.809 154.3 197.109 158.135 194.083 160.963C191.056 163.791 186.952 165.38 182.672 165.38ZM182.672 130.779C178.54 130.779 174.501 131.924 171.065 134.069C167.63 136.214 164.952 139.263 163.371 142.83C161.789 146.397 161.376 150.322 162.182 154.109C162.988 157.896 164.978 161.374 167.899 164.104C170.821 166.834 174.544 168.694 178.596 169.447C182.649 170.2 186.849 169.814 190.667 168.336C194.484 166.859 197.747 164.356 200.043 161.146C202.338 157.936 203.563 154.162 203.563 150.301C203.563 145.123 201.362 140.158 197.444 136.497C193.526 132.836 188.213 130.779 182.672 130.779" fill="#769191"/>
<path fill-rule="evenodd" clip-rule="evenodd" d="M179.894 145.573C180.268 145.383 180.661 145.23 181.069 145.116L181.836 135.831H183.521L184.288 145.116C184.695 145.232 185.088 145.385 185.463 145.573L193.036 139.506L193.627 140.064L194.225 140.623L187.738 147.705C187.942 148.053 188.104 148.421 188.221 148.803L198.164 149.514V151.094L188.221 151.811C188.102 152.192 187.94 152.56 187.738 152.909L194.218 159.973L193.62 160.531L193.022 161.09L185.456 155.029C185.083 155.217 184.689 155.368 184.281 155.48L183.514 164.771H181.83L181.062 155.48C180.654 155.37 180.26 155.218 179.887 155.029L172.314 161.09L171.717 160.531L171.126 159.973L177.612 152.903C177.41 152.554 177.249 152.186 177.13 151.805L167.187 151.088V149.508L177.13 148.797C177.246 148.415 177.408 148.047 177.612 147.699L171.126 140.623L171.717 140.064L172.314 139.506L179.894 145.573Z" fill="#9EC2C2"/>
<path fill-rule="evenodd" clip-rule="evenodd" d="M156.47 114.069L162.032 111.067L185.233 149.146C186.109 150.58 185.301 152.078 184.058 153.246C182.815 154.413 180.54 153.582 179.67 152.141L156.47 114.069Z" fill="black"/>
<path fill-rule="evenodd" clip-rule="evenodd" d="M182.672 113.624C186.16 113.617 189.634 114.044 193.002 114.894C193.477 115.015 193.91 115.25 194.257 115.577C194.604 115.903 194.854 116.309 194.98 116.753C195.107 117.198 195.106 117.666 194.978 118.11C194.85 118.555 194.6 118.96 194.252 119.285L149.501 161.102C149.153 161.427 148.719 161.661 148.243 161.78C147.768 161.9 147.267 161.9 146.791 161.782C146.315 161.664 145.881 161.431 145.532 161.107C145.182 160.782 144.93 160.378 144.801 159.934C143.221 154.493 143.003 148.786 144.164 143.254C145.325 137.722 147.834 132.514 151.496 128.034C155.159 123.553 159.876 119.922 165.282 117.42C170.688 114.917 176.639 113.612 182.672 113.605V113.624Z" fill="#00B39F"/>
<path fill-rule="evenodd" clip-rule="evenodd" d="M48.8193 106.453L109.708 105.622C98.216 126.762 97.7066 141.993 109.708 154.686H81.8138L79.8442 152.858H12.6462C11.834 152.859 11.0311 152.697 10.2913 152.383C9.55154 152.07 8.892 151.613 8.35689 151.042C7.82178 150.471 7.42346 149.8 7.18865 149.073C6.95384 148.347 6.88795 147.582 6.9954 146.829C10.0585 125.404 24.0632 109.5 46.347 108.395C49.0026 108.281 49.3286 107.025 48.8193 106.453Z" fill="#00B39F"/>
<path fill-rule="evenodd" clip-rule="evenodd" d="M100.492 151.837H103.569C94.2096 138.211 97.5987 123.113 104.798 108.567H102.387C101.372 108.569 100.382 108.859 99.5482 109.399C98.7138 109.938 98.0743 110.702 97.7141 111.588C92.3894 124.166 90.2432 136.973 95.8056 148.93C96.1868 149.796 96.8369 150.536 97.6721 151.054C98.5074 151.572 99.4895 151.845 100.492 151.837V151.837Z" fill="#00F2D6"/>
<path fill-rule="evenodd" clip-rule="evenodd" d="M81.2306 153.417H108.398C117.03 153.417 128.637 154.578 134.064 146.157L157.883 109.195C160.912 104.493 160.946 100.907 159.302 94.5097L153.869 73.3C153.387 71.3961 153.19 69.9301 155.098 69.9301H157.543C158.691 69.9219 159.808 70.2787 160.71 70.9418C161.612 71.6049 162.246 72.535 162.508 73.5792L167.33 92.1044C168.301 95.8488 171.609 108.237 169.497 111.543L140.353 157.237H80.6533C80.9153 155.974 81.108 154.699 81.2306 153.417Z" fill="#00DEDE"/>
<path d="M139.734 156.946H80.1906C79.793 156.946 79.4707 157.247 79.4707 157.618V160.106C79.4707 160.478 79.793 160.779 80.1906 160.779H139.734C140.132 160.779 140.454 160.478 140.454 160.106V157.618C140.454 157.247 140.132 156.946 139.734 156.946Z" fill="#00B39F"/>
<path fill-rule="evenodd" clip-rule="evenodd" d="M49.9139 112.413C60.3976 112.412 70.5256 115.965 78.4191 122.412C86.3126 128.859 91.4357 137.762 92.8381 147.47C92.9349 148.145 92.8762 148.831 92.6659 149.483C92.4556 150.135 92.0985 150.737 91.6186 151.249C91.1387 151.761 90.5471 152.171 89.8836 152.452C89.22 152.733 88.4998 152.878 87.7714 152.878H12.0632C11.3341 152.88 10.6128 152.737 9.94817 152.456C9.28353 152.176 8.69101 151.766 8.21067 151.253C7.73034 150.741 7.37337 150.138 7.16391 149.485C6.95445 148.832 6.89738 148.145 6.99655 147.47C8.39871 137.763 13.5208 128.861 21.4129 122.414C29.305 115.967 39.4314 112.414 49.9139 112.413V112.413Z" fill="#00DEDE"/>
<path fill-rule="evenodd" clip-rule="evenodd" d="M49.9125 116.328C58.8122 116.328 67.41 119.344 74.1117 124.816C80.8133 130.288 85.164 137.845 86.3573 146.086C86.4526 146.735 86.3789 147.396 86.1425 148.012C85.906 148.629 85.5137 149.183 84.9989 149.628C82.6388 142.669 77.9686 136.593 71.665 132.281C65.3614 127.968 57.752 125.644 49.9397 125.644C42.1273 125.644 34.5179 127.968 28.2144 132.281C21.9108 136.593 17.2405 142.669 14.8804 149.628C14.765 149.526 14.6495 149.412 14.5341 149.298C14.1211 148.865 13.8146 148.354 13.6362 147.799C13.4578 147.244 13.4119 146.66 13.5017 146.086C14.6928 137.85 19.0382 130.297 25.7331 124.825C32.4279 119.353 41.0182 116.335 49.9125 116.328Z" fill="#00B39F"/>
<path d="M109.96 95.9629H47.7471C47.0006 95.9629 46.3955 96.5284 46.3955 97.2259V105.203C46.3955 105.901 47.0006 106.466 47.7471 106.466H109.96C110.706 106.466 111.311 105.901 111.311 105.203V97.2259C111.311 96.5284 110.706 95.9629 109.96 95.9629Z" fill="black"/>
<path fill-rule="evenodd" clip-rule="evenodd" d="M171.709 77.895C173.258 77.7681 174.793 80.7699 175.139 84.5905C175.485 88.411 174.521 91.6033 172.959 91.7302C171.397 91.8571 169.875 88.8553 169.529 85.0347C169.183 81.2142 170.154 78.0156 171.709 77.895Z" fill="#FCCF00"/>
<path fill-rule="evenodd" clip-rule="evenodd" d="M171.086 76.981H171.127C171.396 76.9542 171.665 77.0279 171.876 77.186C172.088 77.3441 172.223 77.5738 172.254 77.8251L173.932 91.5396C173.948 91.6643 173.937 91.7907 173.901 91.9115C173.865 92.0324 173.803 92.1454 173.72 92.2439C173.636 92.3424 173.533 92.4245 173.415 92.4856C173.298 92.5466 173.169 92.5853 173.035 92.5994H173.001C167.785 93.1579 163.126 90.118 162.596 85.8025C162.066 81.4869 165.863 77.5395 171.086 76.981Z" fill="#00B39F"/>
<path fill-rule="evenodd" clip-rule="evenodd" d="M169.435 77.2597L171.581 92.6371C172.053 92.6473 172.525 92.6261 172.993 92.5736H173.027C173.161 92.5595 173.29 92.5207 173.408 92.4597C173.525 92.3987 173.628 92.3166 173.712 92.218C173.795 92.1195 173.857 92.0066 173.893 91.8857C173.93 91.7649 173.94 91.6385 173.924 91.5138L172.246 77.7991C172.216 77.5479 172.08 77.3182 171.869 77.1601C171.658 77.002 171.388 76.9283 171.119 76.9551H171.085C170.527 77.0131 169.975 77.115 169.435 77.2597Z" fill="#89C6C6"/>
<path fill-rule="evenodd" clip-rule="evenodd" d="M156.524 71.6182L145.222 68.9083C145.081 68.872 144.934 68.8623 144.789 68.8798C144.644 68.8973 144.504 68.9415 144.378 69.0101C144.251 69.0786 144.141 69.17 144.052 69.2789C143.964 69.3879 143.9 69.5122 143.864 69.6445L143.572 70.717C143.533 70.8487 143.523 70.9863 143.541 71.1218C143.56 71.2573 143.607 71.388 143.681 71.5062C143.754 71.6243 143.852 71.7276 143.968 71.8101C144.085 71.8925 144.218 71.9524 144.36 71.9863L155.661 74.6962C155.802 74.7325 155.949 74.7422 156.094 74.7247C156.239 74.7073 156.379 74.663 156.506 74.5944C156.632 74.5259 156.743 74.4345 156.831 74.3256C156.919 74.2167 156.983 74.0924 157.02 73.96L157.312 72.8875C157.35 72.7558 157.361 72.6182 157.342 72.4827C157.323 72.3472 157.276 72.2166 157.203 72.0984C157.129 71.9802 157.031 71.8769 156.915 71.7945C156.798 71.712 156.665 71.6521 156.524 71.6182V71.6182Z" fill="black"/>
<path d="M110.136 145.801C109.601 146.757 109.182 147.766 108.887 148.809C108.742 149.334 108.711 149.88 108.795 150.416C108.879 150.952 109.076 151.467 109.376 151.932C110.605 153.626 113.213 153.677 115.4 153.544L118.633 153.347C119.991 153.264 121.614 153.055 122.3 151.938C122.912 150.935 122.497 149.691 122.144 148.593C121.341 146.1 120.952 143.505 120.99 140.901C121.062 140.129 120.974 139.351 120.731 138.61C120.483 138.122 120.119 137.694 119.667 137.356C119.215 137.019 118.688 136.781 118.123 136.662C115.61 136.027 113.695 136.078 113.016 138.338C112.265 140.891 111.302 143.387 110.136 145.801Z" fill="#150A0B"/>
<path d="M118.701 110.814C119.314 111.334 119.78 111.988 120.059 112.718C120.196 113.428 120.13 114.159 119.869 114.837C118.904 117.871 116.785 120.619 116.595 123.779C116.624 124.731 116.581 125.683 116.466 126.629C116.187 127.668 115.715 128.654 115.074 129.542L112.771 133.159C112.216 133.867 111.899 134.713 111.861 135.59C111.97 137.227 113.899 138.129 115.543 138.681C116.514 138.985 117.723 139.208 118.429 138.522C118.698 138.223 118.893 137.872 119 137.494L127.659 113.435C128.386 111.429 129.106 109.221 128.304 107.241C127.428 105.057 124.997 103.845 122.755 102.798L116.514 99.9359C114.694 99.1046 112.215 98.3747 110.883 99.7963C109.016 101.789 110.815 103.42 112.337 104.48C114.694 106.162 116.718 108.783 118.701 110.814Z" fill="#0E4B5E"/>
<path d="M114.428 146.499C113.701 148.2 112.961 149.99 113.171 151.811C113.186 152.213 113.346 152.598 113.626 152.903C113.908 153.119 114.245 153.263 114.604 153.322C120.709 154.834 127.097 155.066 133.309 154.001C134.216 153.905 135.085 153.607 135.842 153.131C136.215 152.884 136.494 152.533 136.638 152.128C136.782 151.722 136.784 151.285 136.644 150.878C136.195 149.92 134.878 149.692 133.757 149.609C131.748 149.492 129.784 149.005 127.977 148.175C126.232 147.255 124.806 145.585 124.792 143.732C124.792 142.311 125.471 140.591 124.303 139.652C123.704 139.269 122.99 139.075 122.265 139.099C119.861 138.953 118.611 138.465 117.151 140.115C115.84 141.511 115.154 144.722 114.428 146.499Z" fill="#281416"/>
<path d="M83.7966 52.6549C78.6348 61.7302 76.02 71.8591 73.4527 81.8483C73.1505 82.7165 73.0852 83.6414 73.2625 84.5392C73.3665 84.9836 73.6406 85.3772 74.0333 85.646C74.426 85.9148 74.9103 86.0403 75.3951 85.9989L75.4359 88.5819C76.7331 90.3208 79.0355 91.2156 81.2972 91.3997C83.5677 91.4722 85.8374 91.2348 88.0346 90.6952L102.44 87.8457C103.411 87.6553 104.478 87.4204 105.075 86.697C105.673 85.9735 105.462 84.6217 104.484 84.463C107.88 83.8918 109.327 80.1475 110.122 76.9997C110.916 73.8519 111.711 70.6533 112.512 67.4801C113.776 62.4601 115.046 57.3957 115.12 52.2487C115.175 48.4409 114.774 44.0745 117.667 41.3837C118.577 40.5459 119.786 39.8923 120.235 38.7753C120.914 37.0681 119.494 35.3038 118.197 33.9584C116.467 32.2153 114.74 30.4679 113.015 28.7163C112.906 28.5279 112.743 28.3713 112.545 28.264C112.347 28.1566 112.12 28.1025 111.891 28.1078C111.662 28.113 111.439 28.1774 111.246 28.2937C111.054 28.4101 110.9 28.5739 110.801 28.767C108.767 30.9497 106.241 32.6837 103.404 33.8442C100.514 35.1852 97.8182 36.8657 95.3834 38.8451C90.9076 42.4181 86.0107 47.4825 83.7966 52.6549Z" fill="#00B39F"/>
<path d="M93.0191 59.4456C92.3399 65.1573 93.8069 71.3641 98.3303 75.2418C101.366 77.8438 105.475 79.1448 109.571 79.5637C113.666 79.9825 117.809 79.5637 121.905 79.2019C122.163 78.764 122.421 78.3261 122.672 77.8882L125.62 78.8465L126.686 77.6534C126.885 78.1285 127.262 78.5196 127.747 78.7533C128.232 78.987 128.792 79.0472 129.321 78.9227C129.649 76.2692 130.477 73.6909 131.766 71.307C124.295 69.9298 116.77 68.5273 109.965 65.3795C108.885 64.8781 107.683 64.3196 106.528 64.6369C107.437 60.0108 107.691 55.293 107.282 50.6051C107.085 48.3711 106.677 46.023 105.142 44.3094C97.8888 36.2495 93.4741 55.7266 93.0191 59.4456Z" fill="#00B39F"/>
<path d="M107.636 47.711C107.494 46.617 107.183 45.5481 106.712 44.5378C106.182 43.5097 105.014 42.526 103.853 42.8877C102.44 43.3256 102.406 45.1598 102.644 46.5369C103.35 50.5478 104.054 54.5672 104.756 58.5951C105.252 61.4446 105.741 64.4274 104.756 67.1627L106.726 66.9786C106.766 67.6577 106.814 68.3368 106.855 69.0095C111.932 70.3916 117.145 71.2951 122.415 71.7067C122.306 69.8916 119.908 69.1681 118.013 68.762C115.697 68.304 113.446 67.5903 111.31 66.6359C108.722 65.4111 109.055 64.9668 109.021 62.1935C108.958 57.3399 108.495 52.498 107.636 47.711V47.711Z" fill="#00DEDE"/>
<path d="M115.379 41.0347C116.505 40.272 117.531 39.388 118.436 38.4009L115.719 35.2277C115.595 35.0553 115.43 34.912 115.237 34.8088C115.04 34.7429 114.827 34.7305 114.622 34.7732C114.418 34.8159 114.231 34.9119 114.082 35.05C113.698 35.4219 113.443 35.8929 113.348 36.402C113.254 36.9111 113.325 37.435 113.552 37.9059C114.03 38.8386 114.71 39.6685 115.549 40.3429" fill="#00DEDE"/>
<path d="M104.771 83.8667C103.833 84.641 102.448 84.6283 101.205 84.5712C100.593 84.5921 99.9856 84.4676 99.4392 84.2095C99.1729 84.0708 98.9708 83.8451 98.8717 83.5756C98.7727 83.3062 98.7837 83.0121 98.9027 82.7498C99.0875 82.5418 99.3241 82.3793 99.5916 82.2764C99.8592 82.1735 100.15 82.1334 100.438 82.1595C101.272 82.1663 102.102 82.0594 102.903 81.8422C103.301 81.7286 103.662 81.5232 103.953 81.2448C104.244 80.9664 104.455 80.624 104.567 80.2493C104.737 80.1868 104.919 80.1569 105.102 80.1616C105.284 80.1663 105.464 80.2053 105.63 80.2764C105.796 80.3475 105.945 80.4492 106.068 80.5754C106.191 80.7016 106.286 80.8497 106.346 81.0108C106.434 81.3463 106.429 81.697 106.331 82.03C106.234 82.3631 106.047 82.6675 105.79 82.9148C105.26 83.4037 104.645 83.8031 103.969 84.0952" fill="#00DEDE"/>
<path d="M81.5772 97.3018C84.7897 99.0281 88.5863 99.466 92.2675 99.8404L104.581 101.173C110.259 101.808 116.568 102.728 120.039 106.974C120.333 107.457 120.792 107.835 121.343 108.046C121.968 108.186 122.586 107.837 123.211 107.672C123.836 107.507 124.705 107.672 124.773 108.306C124.438 108.593 124.175 108.945 124.005 109.338C123.835 109.731 123.761 110.155 123.788 110.578L125.187 110.356C125.466 111.404 124.732 112.425 124.107 113.339C122.152 116.207 120.962 119.472 120.637 122.859C120.406 125.251 120.576 127.815 119.238 129.84C118.633 130.766 117.757 131.522 117.139 132.442C116.57 133.288 116.229 134.251 116.147 135.247C115.889 138.547 119.149 141.784 122.681 141.511C126.213 141.238 128.733 138.008 130.478 135.031C135.823 125.937 139.729 115.992 140.999 105.704C141.311 104.002 141.237 102.257 140.781 100.583C139.525 96.8766 135.266 94.941 131.395 93.513C124.834 91.0802 118.176 88.9013 111.42 86.9762C109.602 86.3902 107.717 86.0026 105.804 85.8212C104.092 85.7696 102.379 85.8737 100.689 86.1322L81.1289 88.5311C78.1066 88.8992 75.6955 88.4423 76.7414 91.9074C77.5713 94.2091 79.2976 96.1348 81.5772 97.3018V97.3018Z" fill="#225E79"/>
<path d="M125.527 96.7249C127.47 97.4294 129.466 98.1593 130.961 99.492C134.601 102.697 134.289 108.212 132.726 112.654C131.164 117.097 128.651 121.387 128.651 126.058C129.392 126.693 130.444 125.747 130.906 124.928C134.293 118.909 136.475 112.362 137.345 105.61C137.569 103.833 137.671 101.904 136.666 100.393C135.79 99.0858 134.248 98.3243 132.767 97.6515C125.208 94.2054 115.632 89.3631 107.203 88.5127C107.013 92.0223 122.376 95.5889 125.527 96.7249Z" fill="#316D83"/>
<path d="M135.931 77.9837C136.68 78.0328 137.433 77.9922 138.172 77.8631C140.963 77.2285 142.539 74.2583 145.283 73.5095C145.45 73.4501 145.629 73.4305 145.806 73.4523C146.051 73.5196 146.266 73.66 146.417 73.8522C146.819 74.3456 147.274 74.7987 147.776 75.2039C148.031 75.4067 148.341 75.5396 148.672 75.5877C149.003 75.6359 149.341 75.5975 149.65 75.4768C149.795 75.4071 149.919 75.3066 150.015 75.1835C150.11 75.0605 150.173 74.9182 150.199 74.7682C150.225 74.6182 150.212 74.4646 150.163 74.3198C150.114 74.1751 150.029 74.0432 149.915 73.9347C149.977 74.0751 150.069 74.2021 150.185 74.3081C150.301 74.414 150.44 74.4965 150.592 74.5506C150.743 74.6046 150.905 74.6289 151.068 74.6221C151.23 74.6153 151.389 74.5775 151.535 74.511C151.681 74.4446 151.811 74.3508 151.917 74.2356C152.022 74.1203 152.102 73.986 152.15 73.841C152.198 73.696 152.214 73.5434 152.196 73.3924C152.178 73.2415 152.128 73.0956 152.048 72.9636C152.19 73.1706 152.396 73.3328 152.638 73.429C152.88 73.5252 153.148 73.551 153.406 73.5031C153.665 73.4449 153.898 73.3138 154.074 73.1276C154.25 72.9414 154.361 72.7092 154.391 72.4623C154.466 71.7325 153.847 71.1295 153.325 70.5584C152.564 69.7651 151.925 68.8702 151.131 68.1023C150.374 67.2904 149.34 66.7478 148.203 66.5665C147.295 66.5239 146.388 66.6713 145.548 66.998C143.621 67.6185 141.757 68.3979 139.979 69.3272C138.596 70.1138 137.17 70.8319 135.707 71.4786C134.224 72.1262 132.564 72.3322 130.952 72.0688C129.974 71.8657 128.562 76.7905 129.003 77.4886C129.445 78.1867 131.176 77.825 131.91 77.844L135.931 77.9837Z" fill="#FFB38A"/>
<path d="M141.663 20.777C142.383 21.8559 144 22.2366 144.57 23.3917C143.586 23.7504 142.695 24.3027 141.959 25.0111C141.224 25.7196 140.659 26.5677 140.305 27.4978C139.476 29.7127 139.809 32.4163 138.104 34.1361C136.576 35.6783 133.975 35.7735 131.788 35.2722C129.601 34.7708 127.53 33.7934 125.295 33.5713C123.896 33.4448 122.485 33.6155 121.166 34.0704C119.848 34.5254 118.657 35.253 117.681 36.1987C117.226 36.643 116.697 37.1761 116.051 37.0745C115.618 36.9426 115.252 36.6643 115.026 36.2939L111.793 32.2005C113.342 30.6085 114.187 28.5262 114.156 26.3745C114.156 24.7181 113.579 23.1061 113.477 21.4624C113.036 15.446 118.605 10.096 124.874 8.67436C129.771 7.56374 137.996 8.03972 142.234 10.9273C146.472 13.8149 139.442 17.407 141.663 20.777Z" fill="#FFB38A"/>
<path d="M137.541 14.3103C137.84 15.0338 136.76 15.5796 135.931 15.5796C134.322 15.5796 132.773 14.9894 131.177 14.8624C129.581 14.7355 127.686 15.2813 127.15 16.6966C126.796 17.6485 127.15 18.683 127.292 19.6857C127.435 20.6884 127.17 21.9133 126.158 22.2814C125.275 21.2215 125.588 19.5143 124.508 18.6258C123.598 17.8706 122.171 18.1245 121.057 18.5878C120.093 18.9136 119.28 19.5415 118.755 20.3647C117.682 22.3575 119.638 24.8072 118.843 26.9333C118.532 27.6206 118.069 28.239 117.485 28.7483C116.857 29.4532 116.077 30.0263 115.196 30.4302C114.757 30.6186 114.27 30.6893 113.791 30.6344C113.311 30.5795 112.857 30.4011 112.479 30.1191C111.277 29.0593 111.936 27.1998 111.63 25.6767C111.325 24.1535 109.844 22.8208 109.532 21.2342C109.415 20.3381 109.494 19.4294 109.763 18.5624C110.214 16.2852 111.061 14.0923 112.269 12.07C114.381 8.82704 118.035 6.62482 121.954 5.62209C125.91 4.71293 130.031 4.61981 134.03 5.3492C135.787 5.56294 137.488 6.07482 139.049 6.85965C140.835 7.85603 142.445 9.52512 144.537 9.34742C143.977 9.81922 143.314 10.1721 142.594 10.3819C143.559 10.7987 144.426 11.3921 145.141 12.1271C144.996 12.3338 144.8 12.5051 144.57 12.6265C144.339 12.748 144.081 12.8161 143.817 12.8252C144.367 13.701 144.007 15.1226 142.764 15.2496C141.888 15.3384 140.903 14.4436 140.006 14.323C140.231 14.4309 140.475 14.7038 140.686 14.8434C140.095 14.9894 137.847 15.0655 137.541 14.3103Z" fill="#42210B"/>
<path d="M123.358 23.5823C123.358 23.6839 123.209 23.7347 123.12 23.6775C123.035 23.6153 122.979 23.5241 122.964 23.4237C122.82 23.0597 122.799 22.6633 122.903 22.2877C122.934 22.1975 122.985 22.1142 123.052 22.0431C123.119 21.9721 123.201 21.9148 123.292 21.8748C123.384 21.8349 123.484 21.8131 123.585 21.811C123.687 21.8089 123.787 21.8264 123.881 21.8625C124.021 21.547 124.048 21.1976 123.958 20.8666C123.868 20.5356 123.665 20.2408 123.381 20.0264C123.096 19.812 122.745 19.6895 122.38 19.6773C122.015 19.6651 121.655 19.7637 121.355 19.9586C120.9 20.3051 120.569 20.7719 120.404 21.2976C120.203 21.706 120.132 22.16 120.2 22.605C120.31 22.9623 120.498 23.2949 120.75 23.5823L121.565 24.6295C121.823 24.9658 122.149 25.3403 122.598 25.353C122.821 25.3361 123.032 25.2482 123.195 25.1039C123.358 24.9596 123.464 24.7676 123.494 24.5597C123.547 24.1423 123.479 23.7193 123.297 23.3348" fill="#D09271"/>
<path d="M140.292 22.1096C140.98 21.7205 141.777 21.5306 142.581 21.5638C143.769 21.7478 144.489 22.9981 144.428 24.1023C144.267 25.2228 143.817 26.29 143.117 27.2121C142.064 28.8622 141.018 30.5122 139.945 32.1496C139.309 33.3044 138.39 34.3025 137.263 35.0626C136.502 35.4442 135.663 35.6689 134.802 35.7214C133.941 35.774 133.078 35.6532 132.271 35.3673C130.661 34.7903 129.149 33.9994 127.781 33.0191C127.842 32.156 128.759 31.6165 129.391 30.9882C130.62 29.7697 130.872 27.9419 130.688 26.2728C130.403 23.6708 132.047 24.2991 134.261 23.8993C136.342 23.5369 138.368 22.9358 140.292 22.1096Z" fill="#C2EAE8"/>
<path d="M125.383 21.1133C127.47 22.5485 129.655 23.8544 131.924 25.0227C132.284 25.2067 132.603 24.6926 132.243 24.5086C129.976 23.3381 127.793 22.0301 125.709 20.5929C125.377 20.3644 125.057 20.8848 125.383 21.1133Z" fill="#C2EAE8"/>
<path d="M118.619 26.4888C122.083 28.6719 125.479 30.9333 128.807 33.273C129.133 33.5078 129.452 32.9874 129.133 32.759C125.791 30.4193 122.395 28.1579 118.945 25.9747C118.606 25.759 118.28 26.2794 118.619 26.4888Z" fill="#C2EAE8"/>
<path d="M132.475 27.9613C132.435 27.3651 132.571 26.7702 132.869 26.2414C133.373 25.7458 134.044 25.4276 134.77 25.3403C136.034 25.0223 137.247 24.5485 138.377 23.9313C138.567 23.8074 138.786 23.727 139.015 23.6965C139.545 23.6965 139.918 24.2487 139.884 24.7437C139.792 25.233 139.603 25.702 139.328 26.1272L139.273 26.3874C139.273 26.489 139.409 26.5524 139.491 26.6222C139.682 26.806 139.795 27.0489 139.807 27.3051C139.82 27.5613 139.731 27.8129 139.558 28.0121C139.376 28.2035 139.153 28.3584 138.904 28.4675C138.656 28.5765 138.386 28.6375 138.112 28.6467C137.752 28.6467 137.31 28.6784 137.141 28.9704C137.072 29.1183 137.044 29.2796 137.059 29.44C137.018 30.2128 136.71 30.9523 136.181 31.5474C135.652 32.1425 134.93 32.561 134.125 32.7401C134.242 33.056 134.293 33.39 134.274 33.7238C134.278 33.7871 134.269 33.8505 134.247 33.9104C134.225 33.9702 134.19 34.0255 134.145 34.0729C133.982 34.2062 133.724 34.111 133.534 34.0158C132.339 33.3811 130.62 33.0829 131.035 31.6549C131.408 30.3539 132.475 29.44 132.475 27.9613Z" fill="#ADCECC"/>
<path d="M121.139 25.5433C121.689 25.5433 122.23 25.4168 122.715 25.1752C123.158 24.8764 123.511 24.4765 123.741 24.0138C125.011 21.7925 125.316 18.9367 127.137 17.1724C129.351 14.9956 132.821 15.2685 135.878 15.2685C138.327 15.2624 140.767 14.9811 143.145 14.4307C143.595 14.3552 144.021 14.1884 144.394 13.9421C144.705 13.6597 144.948 13.3193 145.109 12.9432C145.269 12.567 145.343 12.1635 145.325 11.7589C145.427 8.67455 143.104 6.04717 140.625 4.3273C136.349 1.30505 131.072 -0.215846 125.717 0.0307839C120.336 0.36472 115.246 2.43535 111.318 5.88849C109.186 7.74163 107.318 10.0898 106.727 12.8695C106.422 14.6223 106.422 16.4097 106.727 18.1624C106.872 19.7216 107.29 21.248 107.963 22.681C110.483 27.4281 116.847 25.8542 121.139 25.5433Z" fill="#00B39F"/>
<path d="M117.47 2.37285C114.19 3.43905 111.059 5.18432 109.021 7.81173C106.984 10.4391 106.203 14.0312 107.575 17.0077C107.932 17.9294 108.664 18.6821 109.612 19.102C110.903 19.5716 112.397 18.975 113.375 18.0612C115.324 16.2397 116.363 13.7202 118.347 11.8607C119.963 10.3439 122.001 9.63948 123.705 8.30673C124.451 7.75588 124.962 6.97504 125.147 6.10404C125.333 5.23304 125.18 4.32878 124.717 3.55327C123.203 1.14799 119.793 1.61128 117.47 2.37285Z" fill="#00DEDE"/>
<path d="M122.605 33.286L122.639 33.5715L122.435 33.7302C122.06 33.91 121.666 34.0525 121.26 34.1554C120.295 31.5083 119.651 28.7687 119.338 25.9877C119.28 25.6955 119.301 25.3944 119.399 25.1118C119.596 24.6359 120.825 23.9759 121.287 24.4011C121.572 24.6613 121.246 26.9396 121.287 27.3838C121.405 29.402 121.85 31.3919 122.605 33.286V33.286Z" fill="#790E0E"/>
<path d="M135.381 18.2385C136.545 17.6961 137.839 17.4467 139.137 17.515C139.762 17.515 140.428 17.35 140.441 16.6582L140.394 16.5947C139.974 16.5895 139.554 16.6129 139.137 16.6646C138.611 16.6328 138.083 16.652 137.561 16.7216C136.6 16.8297 135.722 17.2853 135.116 17.991C135.001 18.1623 135.218 18.321 135.381 18.2385Z" fill="#523424"/>
<path d="M135.707 20.028C136.529 19.6665 137.421 19.4657 138.329 19.4378C138.79 19.3743 139.341 19.3045 139.578 18.892C139.589 18.8717 139.593 18.849 139.591 18.8264C139.589 18.8039 139.579 18.7824 139.564 18.7646C139.55 18.7467 139.53 18.7331 139.507 18.7253C139.484 18.7176 139.459 18.7159 139.436 18.7207C139.13 18.7968 138.879 18.9682 138.573 19.057C138.267 19.1459 137.894 19.1903 137.554 19.2664C136.893 19.4128 136.264 19.664 135.693 20.0089L135.707 20.028Z" fill="#523424"/>
<path d="M137.845 19.3428C137.777 19.603 137.594 20.2693 138.049 20.3455C138.504 20.4217 138.558 19.7109 138.497 19.4316L138.321 19.2603H138.266L138.063 19.3364L138.002 19.5649L138.056 19.7236V19.9393L138.117 19.8314V19.6982C138.117 19.5776 138.069 19.4633 138.042 19.3491L137.845 19.3428Z" fill="#523424"/>
<path d="M136.828 20.3452C137.164 20.5187 137.546 20.6001 137.929 20.58C138.221 20.58 138.655 20.4975 138.791 20.231L138.737 20.1357C138.489 20.1807 138.246 20.2465 138.01 20.3325C137.64 20.4001 137.256 20.3534 136.917 20.1992C136.815 20.1421 136.72 20.2944 136.828 20.3452Z" fill="#523424"/>
<path d="M137.609 21.001C137.782 21.0189 137.957 20.9854 138.108 20.9052L138.067 20.7583C137.91 20.7583 137.766 20.7967 137.609 20.7967C137.58 20.7967 137.553 20.8074 137.532 20.8266C137.512 20.8457 137.5 20.8717 137.5 20.8988C137.5 20.9259 137.512 20.9519 137.532 20.9711C137.553 20.9902 137.58 21.001 137.609 21.001Z" fill="#523424"/>
<path d="M74.4591 32.3276H2.77846C1.37934 32.3276 0.245117 33.3875 0.245117 34.6948V93.4625C0.245117 94.7699 1.37934 95.8297 2.77846 95.8297H74.4591C75.8582 95.8297 76.9924 94.7699 76.9924 93.4625V34.6948C76.9924 33.3875 75.8582 32.3276 74.4591 32.3276Z" fill="#00DEDE"/>
<path fill-rule="evenodd" clip-rule="evenodd" d="M6.88773 35.9641H70.3503C70.9459 35.9658 71.5167 36.1877 71.9379 36.5812C72.3591 36.9748 72.5966 37.5082 72.5984 38.0648V59.6425C49.9477 68.2229 20.5324 48.219 4.63965 76.3844V38.0521C4.64501 37.4977 4.88401 36.9676 5.30484 36.5767C5.72566 36.1859 6.29439 35.9658 6.88773 35.9641V35.9641Z" fill="#00B39F"/>
</svg>
