<svg width="296" height="268" viewBox="0 0 296 268" fill="none" xmlns="http://www.w3.org/2000/svg">
<path fill-rule="evenodd" clip-rule="evenodd" d="M68.902 182.138C77.3092 182.138 85.5276 184.654 92.5179 189.37C99.5082 194.085 104.956 200.787 108.174 208.628C111.391 216.469 112.233 225.098 110.593 233.422C108.953 241.746 104.904 249.392 98.9593 255.394C93.0145 261.395 85.4404 265.482 77.1948 267.138C68.9491 268.794 60.4023 267.944 52.6351 264.696C44.8679 261.448 38.2291 255.948 33.5583 248.891C28.8875 241.834 26.3945 233.537 26.3945 225.05C26.3945 213.669 30.873 202.754 38.8447 194.706C46.8164 186.659 57.6283 182.138 68.902 182.138ZM68.902 193.163C62.6551 193.164 56.5491 195.036 51.356 198.541C46.1628 202.046 42.1157 207.027 39.7264 212.854C37.3372 218.681 36.713 225.092 37.9328 231.277C39.1527 237.462 42.1617 243.143 46.5796 247.601C50.9974 252.06 56.6257 255.096 62.7526 256.326C68.8796 257.555 75.2301 256.923 81.0013 254.51C86.7724 252.096 91.705 248.009 95.1754 242.765C98.6458 237.521 100.498 231.357 100.498 225.05C100.498 220.862 99.6807 216.715 98.0928 212.845C96.5048 208.976 94.1773 205.46 91.2432 202.499C88.3091 199.538 84.8259 197.189 80.9926 195.587C77.1592 193.985 73.0508 193.161 68.902 193.163Z" fill="#323232"/>
<path fill-rule="evenodd" clip-rule="evenodd" d="M68.902 193.162C75.1493 193.162 81.2563 195.032 86.4507 198.536C91.6451 202.04 95.6936 207.02 98.0843 212.847C100.475 218.674 101.101 225.085 99.8818 231.271C98.663 237.456 95.6547 243.138 91.2372 247.598C86.8197 252.057 81.1915 255.094 75.0643 256.325C68.9371 257.555 62.5861 256.923 56.8144 254.51C51.0427 252.096 46.1095 248.009 42.6387 242.765C39.1679 237.522 37.3154 231.356 37.3154 225.05C37.3154 216.593 40.6433 208.482 46.5669 202.502C52.4906 196.522 60.5248 193.162 68.902 193.162ZM68.902 205.165C65.0064 205.165 61.1982 206.331 57.959 208.516C54.7199 210.701 52.1952 213.807 50.7044 217.44C49.2136 221.074 48.8235 225.072 49.5836 228.929C50.3436 232.786 52.2195 236.329 54.9742 239.11C57.7289 241.891 61.2385 243.785 65.0594 244.552C68.8802 245.319 72.8406 244.926 76.4398 243.421C80.0389 241.916 83.1152 239.367 85.2795 236.097C87.4438 232.827 88.599 228.982 88.599 225.05C88.6003 222.438 88.0916 219.852 87.1022 217.439C86.1128 215.026 84.6619 212.833 82.8327 210.986C81.0034 209.14 78.8315 207.675 76.4412 206.676C74.0509 205.677 71.489 205.164 68.902 205.165Z" fill="#9EC2C2"/>
<path d="M68.9018 247.611C64.4815 247.611 60.1604 246.288 56.4851 243.809C52.8097 241.33 49.9451 237.806 48.2535 233.683C46.5619 229.56 46.1193 225.024 46.9817 220.647C47.8441 216.27 49.9726 212.25 53.0983 209.094C56.2239 205.939 60.2062 203.79 64.5416 202.92C68.877 202.049 73.3708 202.496 77.4546 204.204C81.5385 205.911 85.029 208.803 87.4848 212.514C89.9406 216.224 91.2514 220.586 91.2514 225.049C91.2526 228.012 90.6754 230.947 89.5526 233.685C88.4299 236.423 86.7837 238.91 84.7081 241.006C82.6325 243.101 80.1682 244.763 77.4561 245.896C74.7439 247.03 71.8371 247.613 68.9018 247.611ZM68.9018 195.839C63.1792 195.839 57.5851 197.552 52.8269 200.762C48.0687 203.971 44.3602 208.533 42.1703 213.871C39.9803 219.208 39.4073 225.081 40.5237 230.747C41.6402 236.413 44.3959 241.618 48.4424 245.703C52.4889 249.788 57.6444 252.57 63.2571 253.697C68.8697 254.824 74.6874 254.246 79.9744 252.035C85.2614 249.824 89.7803 246.08 92.9596 241.277C96.1389 236.473 97.8358 230.826 97.8358 225.049C97.8358 217.302 94.7874 209.872 89.3613 204.394C83.9351 198.916 76.5756 195.839 68.9018 195.839Z" fill="#769191"/>
<path fill-rule="evenodd" clip-rule="evenodd" d="M65.0544 217.975C65.5694 217.692 66.1115 217.463 66.6723 217.291L67.7352 203.398H70.0774L71.1121 217.291C71.6766 217.461 72.222 217.69 72.7394 217.975L83.2275 208.897L84.0553 209.732L84.8831 210.568L75.9094 221.166C76.1949 221.686 76.422 222.237 76.5866 222.808L90.3575 223.872V226.236L76.5866 227.309C76.4186 227.88 76.1916 228.43 75.9094 228.952L84.9019 239.531L84.0741 240.367L83.2463 241.202L72.7582 232.133C72.2423 232.419 71.6965 232.645 71.1309 232.808L70.0774 246.71H67.7352L66.6723 232.808C66.1103 232.643 65.5678 232.417 65.0544 232.133L54.5663 241.202L53.7385 240.367L52.9108 239.531L61.8939 228.952C61.6146 228.43 61.3907 227.879 61.226 227.309L47.4551 226.236V223.872L61.226 222.808C61.3874 222.237 61.6114 221.686 61.8939 221.166L52.9108 210.577L53.7385 209.742L54.5663 208.906L65.0544 217.975Z" fill="#9EC2C2"/>
<path fill-rule="evenodd" clip-rule="evenodd" d="M252.656 234.736C254.556 234.736 256.413 234.167 257.992 233.101C259.572 232.035 260.803 230.521 261.529 228.748C262.256 226.976 262.446 225.026 262.074 223.145C261.703 221.264 260.787 219.537 259.443 218.181C258.099 216.826 256.387 215.903 254.524 215.53C252.66 215.157 250.729 215.35 248.974 216.086C247.219 216.821 245.72 218.065 244.666 219.661C243.612 221.256 243.05 223.132 243.052 225.05C243.057 227.619 244.07 230.081 245.871 231.897C247.671 233.712 250.111 234.733 252.656 234.736Z" fill="#9EC2C2"/>
<path fill-rule="evenodd" clip-rule="evenodd" d="M259.456 218.194C260.799 219.55 261.713 221.277 262.084 223.158C262.454 225.038 262.264 226.988 261.537 228.759C260.81 230.531 259.579 232.045 258 233.11C256.421 234.176 254.564 234.744 252.664 234.744C250.765 234.744 248.908 234.176 247.329 233.11C245.75 232.045 244.519 230.531 243.792 228.759C243.065 226.988 242.875 225.038 243.245 223.158C243.615 221.277 244.53 219.55 245.873 218.194C246.765 217.293 247.824 216.579 248.989 216.092C250.154 215.604 251.403 215.354 252.664 215.354C253.926 215.354 255.175 215.604 256.34 216.092C257.505 216.579 258.564 217.293 259.456 218.194Z" fill="#9EC2C2"/>
<path fill-rule="evenodd" clip-rule="evenodd" d="M262.268 225.049C262.268 226.966 261.705 228.84 260.651 230.434C259.596 232.029 258.096 233.271 256.342 234.005C254.588 234.74 252.657 234.932 250.794 234.559C248.932 234.185 247.22 233.263 245.877 231.908C244.533 230.553 243.618 228.826 243.246 226.946C242.875 225.066 243.063 223.117 243.789 221.345C244.514 219.573 245.744 218.059 247.322 216.992C248.9 215.926 250.756 215.355 252.655 215.354C253.917 215.352 255.167 215.602 256.333 216.089C257.5 216.575 258.559 217.289 259.452 218.19C260.345 219.09 261.053 220.16 261.536 221.336C262.02 222.513 262.268 223.775 262.268 225.049Z" fill="#9EC2C2"/>
<path fill-rule="evenodd" clip-rule="evenodd" d="M259.456 231.896C258.113 233.253 256.402 234.178 254.539 234.553C252.675 234.928 250.744 234.737 248.988 234.003C247.233 233.27 245.732 232.027 244.676 230.433C243.62 228.838 243.057 226.963 243.057 225.045C243.057 223.127 243.62 221.252 244.676 219.657C245.732 218.063 247.233 216.82 248.988 216.086C250.744 215.353 252.675 215.162 254.539 215.537C256.402 215.912 258.113 216.836 259.456 218.194C261.254 220.011 262.264 222.476 262.264 225.045C262.264 227.614 261.254 230.078 259.456 231.896Z" fill="#9EC2C2"/>
<path fill-rule="evenodd" clip-rule="evenodd" d="M252.655 234.736C250.755 234.738 248.897 234.171 247.316 233.106C245.735 232.041 244.503 230.527 243.775 228.755C243.047 226.983 242.856 225.033 243.226 223.151C243.596 221.27 244.511 219.541 245.855 218.185C247.199 216.828 248.911 215.904 250.775 215.531C252.638 215.157 254.57 215.35 256.326 216.085C258.081 216.82 259.581 218.064 260.635 219.66C261.69 221.256 262.252 223.132 262.25 225.05C262.247 227.618 261.236 230.08 259.437 231.896C257.638 233.712 255.199 234.734 252.655 234.736Z" fill="#9EC2C2"/>
<path fill-rule="evenodd" clip-rule="evenodd" d="M245.873 231.896C244.53 230.54 243.615 228.813 243.245 226.932C242.875 225.051 243.065 223.102 243.792 221.331C244.519 219.559 245.75 218.045 247.329 216.98C248.908 215.914 250.765 215.346 252.664 215.346C254.564 215.346 256.421 215.914 258 216.98C259.579 218.045 260.81 219.559 261.537 221.331C262.264 223.102 262.454 225.051 262.084 226.932C261.713 228.813 260.799 230.54 259.456 231.896C258.564 232.797 257.505 233.511 256.34 233.998C255.175 234.486 253.926 234.737 252.664 234.737C251.403 234.737 250.154 234.486 248.989 233.998C247.824 233.511 246.765 232.797 245.873 231.896Z" fill="#9EC2C2"/>
<path fill-rule="evenodd" clip-rule="evenodd" d="M243.061 225.05C243.059 223.132 243.621 221.256 244.675 219.66C245.73 218.064 247.23 216.82 248.985 216.085C250.74 215.35 252.672 215.157 254.536 215.531C256.4 215.904 258.112 216.828 259.456 218.185C260.799 219.541 261.714 221.27 262.084 223.151C262.455 225.033 262.264 226.983 261.536 228.755C260.808 230.527 259.575 232.041 257.994 233.106C256.414 234.171 254.555 234.738 252.655 234.736C250.111 234.734 247.672 233.712 245.873 231.896C244.075 230.08 243.063 227.618 243.061 225.05Z" fill="#9EC2C2"/>
<path fill-rule="evenodd" clip-rule="evenodd" d="M252.656 182.138C261.063 182.138 269.281 184.654 276.272 189.37C283.262 194.085 288.71 200.787 291.928 208.628C295.145 216.469 295.987 225.098 294.347 233.422C292.706 241.746 288.658 249.392 282.713 255.394C276.768 261.395 269.194 265.482 260.949 267.138C252.703 268.794 244.156 267.944 236.389 264.696C228.622 261.448 221.983 255.948 217.312 248.891C212.641 241.834 210.148 233.537 210.148 225.05C210.148 213.669 214.627 202.754 222.599 194.706C230.57 186.659 241.382 182.138 252.656 182.138ZM252.656 193.163C246.409 193.163 240.302 195.033 235.107 198.537C229.913 202.04 225.864 207.021 223.474 212.847C221.083 218.674 220.457 225.086 221.676 231.271C222.895 237.457 225.903 243.139 230.321 247.598C234.738 252.058 240.366 255.095 246.494 256.325C252.621 257.555 258.972 256.924 264.744 254.51C270.515 252.097 275.448 248.01 278.919 242.766C282.39 237.522 284.242 231.357 284.242 225.05C284.244 220.862 283.428 216.715 281.841 212.846C280.254 208.976 277.927 205.461 274.994 202.499C272.06 199.538 268.578 197.189 264.745 195.587C260.912 193.985 256.804 193.161 252.656 193.163Z" fill="#323232"/>
<path fill-rule="evenodd" clip-rule="evenodd" d="M252.655 193.162C258.902 193.162 265.009 195.032 270.204 198.536C275.398 202.04 279.446 207.02 281.837 212.847C284.228 218.674 284.853 225.085 283.635 231.271C282.416 237.456 279.408 243.138 274.99 247.598C270.573 252.057 264.944 255.094 258.817 256.325C252.69 257.555 246.339 256.923 240.567 254.51C234.796 252.096 229.862 248.009 226.392 242.765C222.921 237.522 221.068 231.356 221.068 225.05C221.067 220.862 221.883 216.715 223.47 212.845C225.057 208.976 227.384 205.46 230.317 202.499C233.25 199.538 236.733 197.189 240.566 195.587C244.399 193.985 248.507 193.161 252.655 193.162ZM252.655 205.165C248.762 205.176 244.959 206.352 241.727 208.544C238.496 210.736 235.98 213.845 234.498 217.48C233.015 221.114 232.633 225.11 233.4 228.964C234.166 232.817 236.047 236.355 238.804 239.13C241.56 241.905 245.07 243.794 248.889 244.556C252.709 245.319 256.666 244.922 260.262 243.415C263.858 241.908 266.931 239.36 269.093 236.091C271.255 232.822 272.408 228.98 272.408 225.05C272.408 222.434 271.897 219.843 270.904 217.427C269.91 215.011 268.454 212.816 266.619 210.969C264.784 209.122 262.606 207.658 260.21 206.662C257.814 205.666 255.246 205.158 252.655 205.165Z" fill="#9EC2C2"/>
<path d="M252.656 247.611C248.235 247.611 243.914 246.288 240.239 243.809C236.564 241.33 233.699 237.806 232.007 233.683C230.316 229.56 229.873 225.024 230.736 220.647C231.598 216.27 233.727 212.25 236.852 209.094C239.978 205.939 243.96 203.79 248.296 202.92C252.631 202.049 257.125 202.496 261.209 204.204C265.292 205.911 268.783 208.803 271.239 212.514C273.694 216.224 275.005 220.586 275.005 225.049C275.005 231.033 272.651 236.772 268.459 241.003C264.268 245.234 258.583 247.611 252.656 247.611ZM252.656 195.839C246.933 195.839 241.339 197.552 236.581 200.762C231.823 203.971 228.114 208.533 225.924 213.871C223.734 219.208 223.161 225.081 224.278 230.747C225.394 236.413 228.15 241.618 232.196 245.703C236.243 249.788 241.398 252.57 247.011 253.697C252.624 254.824 258.441 254.246 263.728 252.035C269.015 249.824 273.534 246.08 276.713 241.277C279.893 236.473 281.59 230.826 281.59 225.049C281.59 217.302 278.541 209.872 273.115 204.394C267.689 198.916 260.329 195.839 252.656 195.839Z" fill="#769191"/>
<path fill-rule="evenodd" clip-rule="evenodd" d="M248.808 217.975C249.326 217.69 249.871 217.461 250.436 217.291L251.499 203.398H253.831L254.894 217.291C255.457 217.465 256.002 217.694 256.522 217.975L267.01 208.897L267.828 209.732L268.656 210.568L259.673 221.165C259.955 221.686 260.179 222.237 260.341 222.808L274.111 223.872V226.236L260.341 227.309C260.176 227.879 259.952 228.43 259.673 228.952L268.646 239.521L267.819 240.357L266.991 241.193L256.512 232.124C255.995 232.406 255.449 232.632 254.885 232.798L253.822 246.7H251.489L250.426 232.798C249.861 232.633 249.316 232.407 248.799 232.124L238.311 241.193L237.483 240.357L236.665 239.521L245.648 228.943C245.368 228.42 245.145 227.87 244.98 227.3L231.209 226.227V223.862L244.98 222.799C245.141 222.228 245.365 221.677 245.648 221.156L236.665 210.568L237.483 209.732L238.311 208.897L248.808 217.975Z" fill="#9EC2C2"/>
<path fill-rule="evenodd" clip-rule="evenodd" d="M216.365 170.836L224.069 166.345L256.201 223.321C257.415 225.467 256.295 227.708 254.574 229.455C252.853 231.203 249.701 229.959 248.497 227.803L216.365 170.836Z" fill="black"/>
<path fill-rule="evenodd" clip-rule="evenodd" d="M252.656 170.172C257.487 170.161 262.299 170.799 266.963 172.071C267.621 172.252 268.22 172.604 268.701 173.093C269.182 173.581 269.527 174.188 269.702 174.853C269.877 175.519 269.876 176.219 269.699 176.884C269.522 177.549 269.176 178.155 268.694 178.642L206.715 241.212C206.233 241.698 205.632 242.048 204.973 242.227C204.315 242.406 203.621 242.406 202.962 242.23C202.303 242.053 201.702 241.704 201.218 241.219C200.734 240.734 200.385 240.129 200.206 239.464C198.018 231.323 197.716 222.783 199.324 214.505C200.932 206.228 204.407 198.435 209.479 191.732C214.551 185.028 221.084 179.594 228.571 175.85C236.059 172.106 244.3 170.153 252.656 170.143V170.172Z" fill="#00B39F"/>
<path fill-rule="evenodd" clip-rule="evenodd" d="M67.2741 159.441L151.602 158.197C135.687 189.829 134.981 212.619 151.602 231.611H112.97L110.243 228.876H17.1758C16.0509 228.877 14.9389 228.634 13.9144 228.166C12.8898 227.697 11.9764 227.012 11.2353 226.158C10.4941 225.304 9.94249 224.299 9.61729 223.212C9.29208 222.125 9.20083 220.981 9.34965 219.855C13.5919 187.796 32.9879 163.999 63.8502 162.347C67.5281 162.176 67.9796 160.296 67.2741 159.441Z" fill="#00B39F"/>
<path fill-rule="evenodd" clip-rule="evenodd" d="M138.839 227.348H143.1C130.138 206.96 134.832 184.368 144.802 162.604H141.463C140.058 162.607 138.687 163.041 137.532 163.848C136.376 164.655 135.49 165.798 134.991 167.124C127.617 185.945 124.644 205.108 132.348 222.998C132.876 224.295 133.777 225.402 134.933 226.177C136.09 226.952 137.45 227.36 138.839 227.348Z" fill="#00F2D6"/>
<path fill-rule="evenodd" clip-rule="evenodd" d="M112.162 229.712H149.787C161.743 229.712 177.818 231.45 185.334 218.849L218.322 163.544C222.517 156.508 222.565 151.142 220.288 141.57L212.763 109.835C212.095 106.986 211.822 104.792 214.466 104.792H217.852C219.442 104.78 220.988 105.314 222.238 106.306C223.487 107.298 224.365 108.69 224.728 110.252L231.407 137.971C232.752 143.574 237.333 162.11 234.407 167.058L194.044 235.429H111.362C111.725 233.538 111.992 231.63 112.162 229.712Z" fill="#00DEDE"/>
<path d="M193.188 234.992H110.723C110.172 234.992 109.726 235.443 109.726 235.999V239.721C109.726 240.277 110.172 240.728 110.723 240.728H193.188C193.739 240.728 194.186 240.277 194.186 239.721V235.999C194.186 235.443 193.739 234.992 193.188 234.992Z" fill="#00B39F"/>
<path fill-rule="evenodd" clip-rule="evenodd" d="M68.7897 168.358C83.3092 168.357 97.3362 173.673 108.268 183.319C119.201 192.966 126.296 206.288 128.238 220.814C128.372 221.823 128.291 222.85 128 223.825C127.708 224.8 127.214 225.701 126.549 226.468C125.884 227.234 125.065 227.848 124.146 228.268C123.227 228.688 122.23 228.905 121.221 228.904H16.3679C15.358 228.909 14.3591 228.694 13.4386 228.274C12.5181 227.855 11.6975 227.241 11.0322 226.474C10.367 225.707 9.87259 224.805 9.5825 223.828C9.29241 222.852 9.21336 221.824 9.35071 220.814C11.2927 206.289 18.3866 192.969 29.3168 183.323C40.2471 173.676 54.2718 168.36 68.7897 168.358Z" fill="#00DEDE"/>
<path fill-rule="evenodd" clip-rule="evenodd" d="M68.7893 174.217C81.1151 174.217 93.0227 178.729 102.304 186.917C111.586 195.105 117.611 206.413 119.264 218.743C119.396 219.714 119.294 220.703 118.966 221.626C118.639 222.548 118.096 223.377 117.383 224.042C114.114 213.63 107.646 204.538 98.9157 198.086C90.1854 191.634 79.6467 188.155 68.8269 188.155C58.0071 188.155 47.4684 191.634 38.7381 198.086C30.0079 204.538 23.5398 213.63 20.2712 224.042C20.1113 223.89 19.9514 223.719 19.7914 223.548C19.2195 222.902 18.795 222.136 18.548 221.306C18.3009 220.476 18.2373 219.601 18.3617 218.743C20.0112 206.42 26.0296 195.117 35.3016 186.93C44.5737 178.743 56.471 174.227 68.7893 174.217Z" fill="#00B39F"/>
<path d="M151.95 143.745H65.7879C64.7541 143.745 63.916 144.591 63.916 145.634V157.571C63.916 158.615 64.7541 159.461 65.7879 159.461H151.95C152.984 159.461 153.822 158.615 153.822 157.571V145.634C153.822 144.591 152.984 143.745 151.95 143.745Z" fill="black"/>
<path fill-rule="evenodd" clip-rule="evenodd" d="M237.473 116.709C239.618 116.52 241.743 121.011 242.223 126.728C242.703 132.444 241.367 137.221 239.204 137.411C237.04 137.601 234.933 133.109 234.453 127.392C233.974 121.676 235.319 116.89 237.473 116.709Z" fill="#FCCF00"/>
<path fill-rule="evenodd" clip-rule="evenodd" d="M236.609 115.342H236.665C237.038 115.302 237.411 115.412 237.703 115.649C237.996 115.885 238.184 116.229 238.226 116.605L240.55 137.126C240.572 137.312 240.558 137.501 240.507 137.682C240.457 137.863 240.371 138.032 240.256 138.18C240.14 138.327 239.997 138.45 239.835 138.541C239.672 138.632 239.493 138.69 239.308 138.712H239.261C232.037 139.547 225.584 134.999 224.851 128.541C224.117 122.084 229.375 116.178 236.609 115.342Z" fill="#00B39F"/>
<path fill-rule="evenodd" clip-rule="evenodd" d="M234.323 115.759L237.296 138.768C237.949 138.784 238.603 138.752 239.252 138.673H239.299C239.484 138.652 239.663 138.594 239.826 138.503C239.988 138.412 240.132 138.289 240.247 138.141C240.362 137.994 240.448 137.825 240.498 137.644C240.549 137.463 240.563 137.274 240.541 137.087L238.217 116.566C238.175 116.191 237.987 115.847 237.694 115.61C237.402 115.374 237.029 115.263 236.656 115.303H236.609C235.836 115.39 235.071 115.543 234.323 115.759Z" fill="#89C6C6"/>
<path fill-rule="evenodd" clip-rule="evenodd" d="M216.441 107.318L200.789 103.263C200.594 103.209 200.39 103.194 200.189 103.221C199.988 103.247 199.794 103.313 199.619 103.416C199.444 103.518 199.291 103.655 199.169 103.818C199.047 103.981 198.958 104.167 198.908 104.365L198.503 105.97C198.449 106.167 198.435 106.373 198.461 106.575C198.487 106.778 198.552 106.974 198.654 107.15C198.755 107.327 198.891 107.482 199.052 107.605C199.214 107.729 199.398 107.818 199.594 107.869L215.246 111.924C215.442 111.978 215.646 111.993 215.846 111.966C216.047 111.94 216.241 111.874 216.416 111.771C216.591 111.669 216.744 111.532 216.866 111.369C216.989 111.206 217.077 111.02 217.128 110.822L217.532 109.217C217.586 109.02 217.6 108.814 217.574 108.612C217.548 108.409 217.483 108.213 217.381 108.037C217.28 107.86 217.144 107.705 216.983 107.582C216.821 107.458 216.637 107.369 216.441 107.318Z" fill="black"/>
<path d="M152.195 218.317C151.454 219.747 150.873 221.257 150.464 222.818C150.264 223.603 150.221 224.42 150.337 225.222C150.453 226.025 150.727 226.795 151.141 227.49C152.844 230.025 156.456 230.101 159.485 229.902L163.962 229.607C165.843 229.484 168.092 229.171 169.042 227.499C169.888 225.999 169.314 224.138 168.825 222.495C167.713 218.763 167.174 214.882 167.226 210.986C167.327 209.83 167.205 208.666 166.869 207.557C166.524 206.827 166.02 206.186 165.395 205.681C164.769 205.176 164.038 204.821 163.257 204.642C159.776 203.692 157.124 203.768 156.183 207.149C155.143 210.97 153.809 214.704 152.195 218.317Z" fill="#150A0B"/>
<path d="M164.056 165.965C164.905 166.744 165.552 167.723 165.937 168.814C166.127 169.876 166.036 170.97 165.674 171.985C164.338 176.525 161.404 180.636 161.14 185.365C161.18 186.789 161.12 188.214 160.961 189.629C160.574 191.184 159.922 192.659 159.033 193.988L155.844 199.401C155.075 200.459 154.636 201.726 154.584 203.038C154.734 205.488 157.406 206.836 159.682 207.662C161.027 208.118 162.702 208.45 163.68 207.425C164.052 206.977 164.322 206.452 164.47 205.886L176.463 169.887C177.47 166.886 178.467 163.581 177.357 160.619C176.143 157.352 172.776 155.538 169.672 153.971L161.027 149.689C158.506 148.445 155.073 147.353 153.229 149.48C150.643 152.462 153.135 154.902 155.242 156.488C158.506 159.004 161.309 162.926 164.056 165.965Z" fill="#0E4B5E"/>
<path d="M158.14 219.361C157.134 221.906 156.108 224.584 156.4 227.309C156.42 227.91 156.643 228.486 157.03 228.943C157.421 229.266 157.887 229.482 158.385 229.569C166.84 231.832 175.686 232.179 184.29 230.586C185.546 230.442 186.749 229.996 187.798 229.285C188.315 228.915 188.701 228.389 188.901 227.783C189.1 227.176 189.103 226.522 188.908 225.914C188.288 224.48 186.463 224.138 184.911 224.014C182.128 223.84 179.408 223.11 176.906 221.868C174.488 220.491 172.513 217.994 172.494 215.221C172.494 213.094 173.435 210.521 171.817 209.115C170.988 208.543 169.999 208.253 168.995 208.289C165.665 208.071 163.935 207.339 161.912 209.808C160.097 211.898 159.147 216.702 158.14 219.361Z" fill="#281416"/>
<path d="M115.717 78.9438C108.569 92.5231 104.947 107.679 101.392 122.625C100.973 123.924 100.883 125.308 101.128 126.652C101.272 127.317 101.652 127.906 102.196 128.308C102.74 128.71 103.41 128.898 104.082 128.836L104.138 132.701C105.935 135.303 109.124 136.642 112.256 136.917C115.4 137.025 118.544 136.67 121.587 135.863L141.538 131.599C142.883 131.314 144.36 130.963 145.188 129.88C146.015 128.798 145.724 126.775 144.369 126.538C149.072 125.683 151.076 120.081 152.177 115.371C153.277 110.66 154.378 105.875 155.488 101.127C157.237 93.6152 158.996 86.0373 159.1 78.3361C159.175 72.6385 158.62 66.1052 162.627 62.0789C163.888 60.8254 165.562 59.8473 166.183 58.176C167.123 55.6216 165.157 52.9817 163.361 50.9686C160.965 48.3603 158.573 45.7458 156.184 43.1249C156.033 42.843 155.807 42.6088 155.533 42.4481C155.258 42.2874 154.945 42.2065 154.627 42.2144C154.31 42.2223 154.001 42.3186 153.735 42.4927C153.468 42.6667 153.254 42.9118 153.117 43.2009C150.301 46.4667 146.803 49.0613 142.874 50.7977C138.87 52.8042 135.137 55.3188 131.765 58.2805C125.566 63.6267 118.784 71.2045 115.717 78.9438Z" fill="#00B39F"/>
<path d="M128.491 89.1042C127.55 97.6506 129.582 106.938 135.847 112.74C140.051 116.633 145.742 118.58 151.414 119.206C157.086 119.833 162.824 119.206 168.496 118.665C168.854 118.01 169.211 117.355 169.559 116.7L173.642 118.133L175.118 116.348C175.393 117.059 175.916 117.644 176.588 117.994C177.26 118.344 178.035 118.434 178.768 118.247C179.222 114.277 180.369 110.419 182.154 106.852C171.807 104.792 161.385 102.693 151.96 97.9829C150.464 97.2328 148.799 96.3971 147.2 96.8719C148.46 89.9499 148.811 82.8907 148.244 75.8762C147.972 72.5337 147.407 69.0202 145.281 66.4562C135.235 54.3963 129.121 83.5395 128.491 89.1042Z" fill="#00B39F"/>
<path d="M148.733 71.5462C148.537 69.9092 148.106 68.3098 147.454 66.7982C146.72 65.2598 145.102 63.788 143.494 64.3293C141.537 64.9845 141.49 67.7288 141.819 69.7894C142.798 75.7909 143.773 81.805 144.745 87.8318C145.431 92.0955 146.109 96.5586 144.745 100.651L147.473 100.376C147.529 101.392 147.595 102.408 147.651 103.415C154.683 105.483 161.903 106.835 169.201 107.45C169.051 104.735 165.73 103.652 163.106 103.044C159.897 102.359 156.781 101.291 153.822 99.8632C150.238 98.0304 150.699 97.3657 150.652 93.216C150.565 85.9537 149.923 78.7089 148.733 71.5462Z" fill="#00DEDE"/>
<path d="M159.457 61.5566C161.017 60.4155 162.437 59.0927 163.69 57.6158L159.928 52.8678C159.756 52.6098 159.527 52.3953 159.26 52.241C158.987 52.1423 158.692 52.1238 158.408 52.1877C158.125 52.2515 157.866 52.3952 157.661 52.6018C157.129 53.1583 156.775 53.863 156.644 54.6248C156.513 55.3866 156.612 56.1704 156.927 56.8751C157.589 58.2707 158.531 59.5125 159.692 60.5216" fill="#00DEDE"/>
<path d="M144.765 125.645C143.467 126.803 141.548 126.784 139.826 126.699C138.979 126.73 138.137 126.544 137.381 126.157C137.012 125.95 136.732 125.612 136.595 125.209C136.458 124.806 136.473 124.366 136.638 123.973C136.894 123.662 137.221 123.419 137.592 123.265C137.962 123.111 138.365 123.051 138.763 123.09C139.918 123.1 141.069 122.94 142.178 122.615C142.729 122.445 143.23 122.138 143.632 121.721C144.035 121.305 144.328 120.793 144.483 120.232C144.718 120.138 144.97 120.094 145.223 120.101C145.476 120.108 145.725 120.166 145.955 120.273C146.185 120.379 146.391 120.531 146.562 120.72C146.732 120.909 146.863 121.13 146.947 121.371C147.068 121.873 147.061 122.398 146.926 122.896C146.791 123.395 146.533 123.85 146.176 124.22C145.443 124.952 144.59 125.549 143.655 125.987" fill="#00DEDE"/>
<path d="M112.642 145.748C117.091 148.331 122.349 148.986 127.447 149.546L144.501 151.54C152.365 152.49 161.103 153.867 165.91 160.22C166.317 160.944 166.953 161.509 167.716 161.825C168.582 162.034 169.437 161.511 170.303 161.264C171.168 161.017 172.372 161.264 172.466 162.214C172.002 162.642 171.639 163.17 171.403 163.758C171.167 164.346 171.064 164.98 171.102 165.614L173.04 165.281C173.426 166.848 172.41 168.377 171.545 169.744C168.836 174.036 167.188 178.92 166.738 183.988C166.418 187.568 166.653 191.405 164.8 194.434C163.963 195.82 162.75 196.951 161.894 198.327C161.105 199.593 160.634 201.034 160.52 202.525C160.163 207.463 164.678 212.306 169.569 211.897C174.461 211.489 177.95 206.655 180.368 202.202C187.771 188.594 193.179 173.714 194.938 158.321C195.371 155.773 195.269 153.162 194.637 150.657C192.897 145.112 186.999 142.215 181.638 140.079C172.551 136.439 163.33 133.178 153.973 130.298C151.455 129.421 148.845 128.841 146.194 128.569C143.824 128.492 141.452 128.648 139.111 129.035L112.021 132.624C107.835 133.175 104.496 132.491 105.944 137.676C107.094 141.12 109.485 144.002 112.642 145.748Z" fill="#225E79"/>
<path d="M173.511 144.885C176.201 145.939 178.966 147.031 181.036 149.025C186.078 153.82 185.645 162.072 183.481 168.72C181.318 175.367 177.838 181.786 177.838 188.775C178.863 189.725 180.321 188.31 180.961 187.085C185.652 178.078 188.674 168.282 189.878 158.179C190.188 155.52 190.329 152.633 188.937 150.373C187.724 148.417 185.589 147.278 183.538 146.271C173.069 141.115 159.806 133.869 148.132 132.597C147.869 137.848 169.146 143.185 173.511 144.885Z" fill="#316D83"/>
<path d="M187.921 116.843C188.959 116.916 190.002 116.856 191.025 116.662C194.891 115.713 197.073 111.269 200.873 110.148C201.104 110.059 201.353 110.03 201.597 110.063C201.937 110.163 202.234 110.373 202.444 110.661C203 111.399 203.63 112.077 204.325 112.684C204.679 112.987 205.108 113.186 205.566 113.258C206.025 113.33 206.494 113.272 206.921 113.092C207.122 112.987 207.294 112.837 207.426 112.653C207.558 112.469 207.646 112.256 207.681 112.031C207.717 111.807 207.7 111.577 207.632 111.361C207.564 111.144 207.446 110.947 207.288 110.784C207.374 110.994 207.501 111.185 207.662 111.343C207.823 111.502 208.015 111.625 208.225 111.706C208.435 111.787 208.66 111.823 208.885 111.813C209.109 111.803 209.33 111.746 209.532 111.647C209.734 111.547 209.914 111.407 210.061 111.235C210.207 111.062 210.317 110.861 210.383 110.644C210.45 110.427 210.472 110.199 210.447 109.973C210.423 109.747 210.353 109.529 210.242 109.331C210.439 109.641 210.724 109.884 211.059 110.028C211.395 110.172 211.766 110.21 212.123 110.139C212.481 110.051 212.804 109.855 213.048 109.577C213.292 109.298 213.445 108.951 213.487 108.581C213.591 107.489 212.735 106.587 212.01 105.732C210.957 104.545 210.073 103.206 208.972 102.057C207.924 100.842 206.491 100.031 204.918 99.7593C203.66 99.6955 202.403 99.9162 201.24 100.405C198.572 101.333 195.99 102.5 193.527 103.89C191.612 105.067 189.637 106.142 187.61 107.109C185.557 108.078 183.258 108.387 181.026 107.992C179.671 107.689 177.715 115.058 178.326 116.102C178.938 117.147 181.336 116.605 182.352 116.634L187.921 116.843Z" fill="#FFB38A"/>
<path d="M195.859 31.2452C196.857 32.8595 199.095 33.4293 199.885 35.1576C198.522 35.6943 197.289 36.5207 196.27 37.5807C195.25 38.6408 194.469 39.9098 193.978 41.3016C192.831 44.6157 193.292 48.661 190.931 51.2344C188.814 53.5419 185.211 53.6844 182.183 52.9342C179.154 52.184 176.285 50.7216 173.19 50.3892C171.253 50.2 169.298 50.4553 167.472 51.1361C165.646 51.8169 163.996 52.9055 162.646 54.3206C162.015 54.9853 161.282 55.783 160.388 55.6311C159.787 55.4337 159.281 55.0172 158.968 54.4631L154.49 48.3381C156.636 45.956 157.806 42.8403 157.764 39.6207C157.764 37.1423 156.964 34.7303 156.823 32.2708C156.212 23.2685 163.925 15.2633 172.607 13.1362C179.389 11.4744 190.78 12.1866 196.65 16.5073C202.519 20.828 192.784 26.2028 195.859 31.2452Z" fill="#FFB38A"/>
<path d="M190.149 21.5687C190.563 22.6512 189.068 23.4679 187.92 23.4679C185.691 23.4679 183.546 22.5847 181.336 22.3948C179.125 22.2049 176.501 23.0216 175.758 25.1392C175.269 26.5636 175.758 28.1115 175.955 29.6118C176.153 31.1122 175.786 32.9449 174.384 33.4957C173.161 31.9098 173.594 29.3554 172.099 28.0259C170.838 26.8959 168.863 27.2758 167.32 27.969C165.985 28.4565 164.858 29.3961 164.131 30.6278C162.645 33.6096 165.354 37.2751 164.254 40.4562C163.822 41.4846 163.181 42.4099 162.372 43.1721C161.503 44.2267 160.423 45.0842 159.202 45.6886C158.594 45.9706 157.92 46.0763 157.256 45.9942C156.591 45.912 155.963 45.6451 155.44 45.2232C153.775 43.6374 154.687 40.855 154.264 38.576C153.841 36.297 151.79 34.3028 151.357 31.9288C151.196 30.588 151.305 29.2283 151.677 27.931C152.303 24.5237 153.475 21.2424 155.148 18.2166C158.074 13.3641 163.134 10.069 168.562 8.56863C174.041 7.20826 179.748 7.06893 185.286 8.16031C187.72 8.48011 190.076 9.24603 192.238 10.4204C194.711 11.9112 196.941 14.4087 199.838 14.1428C199.062 14.8487 198.145 15.3768 197.148 15.6906C198.485 16.3143 199.684 17.2023 200.675 18.302C200.474 18.6113 200.203 18.8675 199.884 19.0492C199.565 19.231 199.207 19.3329 198.841 19.3466C199.603 20.657 199.104 22.7841 197.383 22.9741C196.169 23.107 194.806 21.7681 193.564 21.5877C193.874 21.7491 194.213 22.1574 194.505 22.3664C193.686 22.5848 190.573 22.6987 190.149 21.5687Z" fill="#42210B"/>
<path d="M170.509 35.4422C170.509 35.5941 170.303 35.6701 170.18 35.5846C170.062 35.4915 169.984 35.3551 169.964 35.2048C169.765 34.6601 169.735 34.0671 169.879 33.505C169.922 33.37 169.992 33.2455 170.085 33.1391C170.177 33.0328 170.291 32.947 170.418 32.8873C170.546 32.8275 170.684 32.795 170.824 32.7918C170.964 32.7886 171.104 32.8149 171.234 32.8688C171.428 32.3968 171.465 31.874 171.34 31.3787C171.215 30.8835 170.935 30.4424 170.541 30.1216C170.147 29.8007 169.66 29.6175 169.154 29.5992C168.649 29.5809 168.15 29.7285 167.735 30.0201C167.105 30.5386 166.646 31.237 166.418 32.0237C166.139 32.6347 166.041 33.3139 166.135 33.9798C166.288 34.5145 166.548 35.0121 166.897 35.4422L168.026 37.009C168.384 37.5123 168.835 38.0726 169.456 38.0916C169.766 38.0663 170.058 37.9348 170.284 37.7189C170.51 37.503 170.656 37.2157 170.698 36.9046C170.771 36.28 170.677 35.6471 170.425 35.0719" fill="#D09271"/>
<path d="M193.96 33.2392C194.914 32.657 196.017 32.3729 197.13 32.4226C198.776 32.6979 199.774 34.5687 199.689 36.221C199.466 37.8976 198.843 39.4944 197.873 40.8741C196.415 43.3431 194.967 45.8121 193.481 48.2621C192.599 49.99 191.326 51.4835 189.765 52.6209C188.712 53.1918 187.55 53.528 186.357 53.6066C185.165 53.6852 183.969 53.5045 182.851 53.0767C180.622 52.2133 178.528 51.0299 176.634 49.5631C176.718 48.2716 177.988 47.4645 178.863 46.5244C180.566 44.7011 180.914 41.9662 180.66 39.4687C180.265 35.5753 182.541 36.5154 185.607 35.9171C188.49 35.375 191.296 34.4755 193.96 33.2392Z" fill="#C2EAE8"/>
<path d="M173.313 31.7484C176.202 33.8959 179.228 35.85 182.371 37.5981C182.87 37.8735 183.312 37.1043 182.813 36.8289C179.673 35.0775 176.651 33.1202 173.764 30.9696C173.303 30.6278 172.861 31.4065 173.313 31.7484Z" fill="#C2EAE8"/>
<path d="M163.944 39.7914C168.741 43.0581 173.444 46.442 178.053 49.9429C178.505 50.2943 178.947 49.5156 178.505 49.1737C173.877 45.6728 169.174 42.2889 164.395 39.0222C163.925 38.6993 163.474 39.478 163.944 39.7914Z" fill="#C2EAE8"/>
<path d="M183.133 41.9947C183.078 41.1026 183.267 40.2124 183.679 39.4212C184.377 38.6796 185.307 38.2035 186.313 38.0728C188.063 37.597 189.742 36.888 191.307 35.9646C191.571 35.7792 191.874 35.6589 192.192 35.6133C192.925 35.6133 193.443 36.4395 193.396 37.1802C193.267 37.9123 193.005 38.6141 192.624 39.2503L192.549 39.6397C192.549 39.7916 192.737 39.8866 192.85 39.991C193.115 40.2659 193.271 40.6295 193.289 41.0128C193.306 41.3961 193.183 41.7725 192.944 42.0706C192.691 42.3571 192.383 42.5888 192.038 42.752C191.694 42.9152 191.321 43.0065 190.941 43.0203C190.442 43.0203 189.831 43.0677 189.595 43.5045C189.501 43.7258 189.462 43.9672 189.483 44.2073C189.426 45.3635 188.999 46.47 188.267 47.3605C187.534 48.2509 186.535 48.8772 185.419 49.1452C185.581 49.6179 185.651 50.1176 185.626 50.6171C185.632 50.7117 185.619 50.8066 185.588 50.8962C185.557 50.9858 185.51 51.0684 185.447 51.1394C185.221 51.3388 184.864 51.1963 184.601 51.0539C182.945 50.1043 180.565 49.658 181.139 47.5214C181.656 45.5747 183.133 44.2072 183.133 41.9947Z" fill="#ADCECC"/>
<path d="M167.434 38.3766C168.195 38.3766 168.945 38.1874 169.616 37.8258C170.229 37.3787 170.718 36.7803 171.037 36.088C172.796 32.7644 173.219 28.4913 175.74 25.8514C178.806 22.5943 183.613 23.0026 187.846 23.0026C191.238 22.9935 194.618 22.5726 197.911 21.7491C198.534 21.6361 199.124 21.3865 199.641 21.0179C200.071 20.5954 200.409 20.0861 200.631 19.5233C200.853 18.9604 200.955 18.3567 200.93 17.7513C201.071 13.1363 197.854 9.205 194.421 6.6316C188.499 2.10948 181.19 -0.166209 173.774 0.202818C166.321 0.702479 159.272 3.80071 153.832 8.96756C150.879 11.7404 148.292 15.2539 147.474 19.4131C147.05 22.0357 147.05 24.7102 147.474 27.3328C147.675 29.6657 148.253 31.9497 149.186 34.0939C152.675 41.1968 161.489 38.8419 167.434 38.3766Z" fill="#00B39F"/>
<path d="M162.354 3.70738C157.811 5.30269 153.475 7.91408 150.653 11.8454C147.831 15.7767 146.749 21.1514 148.649 25.605C149.144 26.9842 150.158 28.1104 151.471 28.7386C153.258 29.4413 155.328 28.5487 156.682 27.1813C159.382 24.4559 160.821 20.6861 163.568 17.9038C165.806 15.6343 168.628 14.5802 170.989 12.586C172.022 11.7618 172.73 10.5935 172.987 9.29023C173.243 7.98698 173.032 6.63397 172.391 5.47361C170.293 1.87465 165.571 2.56787 162.354 3.70738Z" fill="#00DEDE"/>
<path d="M169.466 49.962L169.513 50.3893L169.23 50.6267C168.712 50.8957 168.166 51.109 167.603 51.2629C166.267 47.302 165.374 43.2027 164.941 39.0414C164.86 38.6043 164.889 38.1537 165.026 37.7309C165.299 37.0187 167.001 36.0311 167.641 36.6674C168.036 37.0567 167.584 40.4658 167.641 41.1305C167.804 44.1504 168.42 47.1279 169.466 49.962Z" fill="#790E0E"/>
<path d="M187.159 27.4468C188.77 26.6351 190.563 26.2619 192.361 26.3641C193.226 26.3641 194.148 26.1172 194.167 25.0819L194.101 24.9869C193.519 24.9791 192.937 25.0141 192.361 25.0914C191.632 25.044 190.901 25.0726 190.178 25.1769C188.847 25.3385 187.631 26.0204 186.792 27.0764C186.632 27.3328 186.933 27.5703 187.159 27.4468Z" fill="#523424"/>
<path d="M187.611 30.125C188.749 29.5842 189.984 29.2837 191.241 29.242C191.881 29.147 192.643 29.0426 192.972 28.4254C192.987 28.395 192.993 28.361 192.99 28.3272C192.986 28.2935 192.974 28.2614 192.953 28.2347C192.933 28.2079 192.905 28.1876 192.873 28.176C192.842 28.1644 192.808 28.1619 192.775 28.169C192.351 28.283 192.003 28.5393 191.58 28.6722C191.157 28.8052 190.639 28.8716 190.169 28.9856C189.254 29.2046 188.382 29.5803 187.592 30.0965L187.611 30.125Z" fill="#523424"/>
<path d="M190.573 29.099C190.479 29.4881 190.225 30.4846 190.855 30.5984C191.485 30.7123 191.561 29.6494 191.476 29.2318L191.231 28.9756H191.156L190.874 29.0895L190.789 29.4312L190.865 29.6684V29.9911L190.949 29.8297V29.6304C190.949 29.4501 190.883 29.2793 190.846 29.1085L190.573 29.099Z" fill="#523424"/>
<path d="M189.162 30.5994C189.627 30.8589 190.156 30.9807 190.686 30.9506C191.091 30.9506 191.693 30.8272 191.881 30.4285L191.806 30.2861C191.462 30.3533 191.125 30.4518 190.799 30.5804C190.286 30.6815 189.755 30.6116 189.285 30.3811C189.144 30.2957 189.012 30.5235 189.162 30.5994Z" fill="#523424"/>
<path d="M190.245 31.5794C190.485 31.6062 190.726 31.5561 190.936 31.4363L190.879 31.2168C190.662 31.2168 190.463 31.2741 190.245 31.2741C190.205 31.2741 190.167 31.2901 190.138 31.3188C190.11 31.3474 190.094 31.3863 190.094 31.4267C190.094 31.4672 190.11 31.5061 190.138 31.5347C190.167 31.5634 190.205 31.5794 190.245 31.5794Z" fill="#523424"/>
<path d="M102.784 48.5278H3.50859C1.57086 48.5278 0 50.1136 0 52.0698V140.003C0 141.959 1.57086 143.545 3.50859 143.545H102.784C104.721 143.545 106.292 141.959 106.292 140.003V52.0698C106.292 50.1136 104.721 48.5278 102.784 48.5278Z" fill="#00DEDE"/>
<path fill-rule="evenodd" clip-rule="evenodd" d="M9.19945 53.9692H97.0927C97.9177 53.9717 98.7082 54.3037 99.2916 54.8926C99.8749 55.4816 100.204 56.2796 100.206 57.1124V89.3989C68.8359 102.238 28.0969 72.3061 6.08594 114.449V57.0934C6.09336 56.2639 6.42437 55.4707 7.0072 54.8859C7.59003 54.301 8.3777 53.9717 9.19945 53.9692Z" fill="#00B39F"/>
</svg>
