<svg width="345" height="339" viewBox="0 0 345 339" fill="none" xmlns="http://www.w3.org/2000/svg">
<path d="M267.845 213.691H259.519V223.053H267.845V213.691Z" fill="#009C8A"/>
<path d="M123.601 130.768C120.177 145.874 120.592 161.57 121.028 177.061C120.956 178.435 121.226 179.804 121.815 181.044C122.129 181.653 122.653 182.124 123.287 182.371C123.921 182.618 124.623 182.624 125.26 182.386C125.611 183.632 125.962 184.877 126.324 186.122C127.592 187.086 129.052 187.76 130.604 188.097C132.156 188.434 133.761 188.427 135.31 188.076C138.398 187.352 141.364 186.177 144.115 184.587L162.417 175.193C163.716 174.693 164.807 173.762 165.512 172.552C166.054 171.275 165.225 169.396 163.853 169.525C168.224 167.442 168.692 161.462 168.532 156.642C168.373 151.821 168.224 146.851 168.064 141.966C167.809 134.193 167.554 126.345 165.65 118.809C164.236 113.248 162.002 106.999 164.852 102.072C165.746 100.515 167.128 99.1191 167.298 97.337C167.554 94.5886 164.948 92.5489 162.64 91.078L153.612 85.2592C153.161 84.8873 152.587 84.703 152.006 84.7439C151.357 84.8727 150.943 85.5383 150.645 86.1395C148.746 90.0464 146.015 93.4814 142.648 96.199C139.273 99.2083 136.296 102.643 133.789 106.42C129.152 113.269 124.569 122.427 123.601 130.768Z" fill="#00B39F"/>
<path d="M131.715 126.56C131.556 135.148 134.512 144.349 141.286 149.556C145.88 153.056 151.772 154.451 157.525 154.537C163.278 154.623 168.968 153.464 174.604 152.39C174.891 151.703 175.189 151.016 175.476 150.318L179.73 151.392L181.048 149.427C181.382 150.126 181.959 150.676 182.67 150.971C183.38 151.266 184.174 151.286 184.898 151.027C184.984 147.012 185.769 143.043 187.216 139.303C176.678 138.229 165.948 137.156 156.089 133.323C154.526 132.722 152.771 132.046 151.219 132.679C151.805 125.598 151.473 118.47 150.23 111.476C149.634 108.148 148.73 104.68 146.359 102.307C135.182 91.1098 131.821 120.923 131.715 126.56Z" fill="#00B39F"/>
<path d="M150.358 106.999C150 105.377 149.412 103.815 148.614 102.361C147.731 100.88 145.976 99.5698 144.413 100.268C142.509 101.116 142.722 103.875 143.254 105.904C144.799 111.83 146.345 117.756 147.89 123.683C148.954 127.88 150.092 132.271 149.103 136.566L151.815 136.029C151.963 137.038 152.123 138.047 152.282 139.057C159.53 140.45 166.897 141.108 174.274 141.021C173.86 138.316 170.435 137.553 167.734 137.188C164.465 136.809 161.252 136.038 158.163 134.891C154.388 133.409 154.792 132.744 154.346 128.557C153.568 121.278 152.234 114.071 150.358 106.999Z" fill="#00DEDE"/>
<path d="M160.481 101.438C161.995 100.215 163.362 98.8168 164.554 97.273L160.503 92.6459C160.319 92.3929 160.078 92.187 159.801 92.0447C159.522 91.9611 159.224 91.959 158.944 92.0388C158.664 92.1187 158.411 92.277 158.216 92.4956C157.712 93.0754 157.392 93.7947 157.297 94.5603C157.202 95.3259 157.337 96.1026 157.685 96.7899C158.415 98.1628 159.417 99.3689 160.63 100.333" fill="#00DEDE"/>
<path d="M160.206 172.681C158.908 173.84 157.015 173.83 155.229 173.754C154.377 173.782 153.533 173.593 152.772 173.207C152.411 173.001 152.136 172.67 151.998 172.276C151.859 171.881 151.866 171.45 152.017 171.06C152.275 170.75 152.603 170.507 152.973 170.352C153.343 170.197 153.745 170.134 154.144 170.169C155.306 170.184 156.463 170.025 157.579 169.696C158.135 169.523 158.639 169.213 159.046 168.793C159.453 168.373 159.749 167.857 159.908 167.292C160.144 167.193 160.398 167.145 160.654 167.15C160.91 167.155 161.162 167.213 161.395 167.321C161.627 167.429 161.835 167.584 162.006 167.776C162.176 167.969 162.306 168.195 162.386 168.44C162.514 168.95 162.51 169.485 162.374 169.992C162.238 170.5 161.975 170.964 161.609 171.339C160.872 172.079 160.012 172.682 159.068 173.121" fill="#00DEDE"/>
<path d="M229.531 142.74L202.233 147.764C201.294 147.936 200.325 147.726 199.54 147.178C198.754 146.631 198.216 145.791 198.043 144.844L197.979 144.479C197.808 143.532 198.017 142.556 198.56 141.765C199.102 140.973 199.934 140.432 200.872 140.26L228.181 135.235L229.531 142.74Z" fill="#323232"/>
<path d="M193.948 148.633C194.999 148.602 196.042 148.439 197.054 148.15C200.829 146.851 202.594 142.159 206.306 140.635C206.528 140.528 206.772 140.476 207.018 140.485C207.368 140.549 207.687 140.731 207.922 141C208.569 141.685 209.281 142.303 210.049 142.846C210.435 143.112 210.885 143.268 211.351 143.296C211.817 143.325 212.282 143.225 212.697 143.008C212.889 142.883 213.049 142.714 213.164 142.516C213.28 142.317 213.347 142.094 213.362 141.865C213.376 141.635 213.337 141.405 213.248 141.193C213.158 140.981 213.02 140.794 212.846 140.646C212.952 140.847 213.098 141.025 213.274 141.168C213.45 141.311 213.654 141.416 213.872 141.476C214.09 141.537 214.318 141.551 214.542 141.52C214.766 141.488 214.981 141.41 215.174 141.292C215.368 141.173 215.535 141.015 215.665 140.829C215.796 140.643 215.888 140.431 215.935 140.208C215.981 139.985 215.983 139.754 215.938 139.53C215.893 139.306 215.804 139.094 215.675 138.907C215.899 139.205 216.21 139.425 216.565 139.535C216.919 139.646 217.299 139.642 217.651 139.523C218.003 139.405 218.309 139.178 218.527 138.875C218.744 138.572 218.863 138.207 218.865 137.833C218.865 136.759 217.919 135.911 217.121 135.171C215.951 134.097 214.941 132.819 213.729 131.767C212.565 130.664 211.066 129.99 209.475 129.856C208.204 129.921 206.963 130.265 205.838 130.866C203.238 132.051 200.746 133.466 198.394 135.095C196.589 136.469 194.711 137.741 192.768 138.907C190.806 140.069 188.539 140.598 186.27 140.42C184.888 140.248 183.622 147.839 184.335 148.815C185.047 149.792 187.408 149.041 188.419 148.966L193.948 148.633Z" fill="#FF9B6B"/>
<path d="M195.66 69.1338C196.724 70.712 199.021 71.1736 199.914 72.8699C198.573 73.4756 197.375 74.3636 196.401 75.4745C195.427 76.5855 194.7 77.8936 194.267 79.3114C193.267 82.7039 193.927 86.7513 191.672 89.4568C189.652 91.8831 186.036 92.1944 182.952 91.6039C179.868 91.0135 176.922 89.6715 173.785 89.4568C171.827 89.3585 169.872 89.7092 168.067 90.4827C166.262 91.2562 164.654 92.4323 163.363 93.9228C162.768 94.6207 162.055 95.4688 161.151 95.3507C160.542 95.189 160.012 94.807 159.662 94.2771L154.877 88.3832C156.913 85.8765 157.938 82.687 157.748 79.4509C157.589 76.971 156.685 74.5768 156.419 72.1076C155.356 63.0788 162.8 54.6512 171.392 52.0853C178.145 50.0777 189.63 50.2173 195.745 54.3076C201.86 58.398 192.332 64.249 195.66 69.1338Z" fill="#FF9B6B"/>
<path d="M189.461 59.7074C189.929 60.781 188.397 61.6613 187.334 61.715C185.09 61.8116 182.889 61.0279 180.645 60.9528C178.401 60.8776 175.806 61.8116 175.168 63.9909C174.743 65.4403 175.317 66.9755 175.572 68.4678C175.827 69.9601 175.572 71.8388 174.19 72.4508C172.881 70.9263 173.19 68.3282 171.627 67.0829C170.297 66.0093 168.33 66.4924 166.809 67.2547C165.491 67.816 164.402 68.8162 163.725 70.0889C162.375 73.1593 165.278 76.7558 164.321 79.9765C163.942 81.0331 163.343 81.9958 162.566 82.8001C161.741 83.9042 160.694 84.819 159.493 85.484C158.89 85.8093 158.209 85.9558 157.528 85.9064C156.847 85.857 156.193 85.6137 155.643 85.2049C153.888 83.6911 154.675 80.8462 154.144 78.5809C153.612 76.3157 151.453 74.4047 150.9 72.0106C150.672 70.6666 150.715 69.2898 151.028 67.9632C151.495 64.5048 152.518 61.1468 154.058 58.0219C156.959 53.0359 161.614 49.3368 167.096 47.6619C172.543 46.0273 178.276 45.6097 183.899 46.438C186.369 46.6347 188.782 47.2937 191.013 48.3811C193.566 49.7553 195.958 52.1494 198.83 51.7522C198.085 52.4996 197.189 53.0747 196.203 53.4377C197.576 53.997 198.824 54.8294 199.872 55.8854C199.688 56.2082 199.429 56.4812 199.118 56.6813C198.807 56.8813 198.453 57.0024 198.085 57.0342C198.915 58.3117 198.511 60.4803 196.788 60.7595C195.565 60.9527 194.14 59.6859 192.885 59.5464C193.193 59.6967 193.555 60.0939 193.874 60.2764C193.066 60.5555 189.939 60.8132 189.461 59.7074Z" fill="black"/>
<path d="M170.351 74.6199C170.351 74.7702 170.159 74.8668 170.021 74.7916C169.901 74.6959 169.821 74.5579 169.798 74.4052C169.568 73.8712 169.509 73.2785 169.628 72.709C169.711 72.4372 169.898 72.2099 170.147 72.077C170.396 71.9442 170.687 71.9166 170.957 72.0005C171.138 71.5161 171.157 70.9853 171.011 70.4889C170.865 69.9926 170.563 69.558 170.149 69.2515C169.736 68.945 169.235 68.7834 168.722 68.7913C168.209 68.7992 167.713 68.9761 167.309 69.2952C166.696 69.8468 166.262 70.5728 166.065 71.3778C165.82 72.0056 165.757 72.6907 165.884 73.3531C166.059 73.8879 166.345 74.3784 166.724 74.7916L167.926 76.3161C168.319 76.7992 168.798 77.3896 169.415 77.3252C169.726 77.2874 170.015 77.1432 170.233 76.9166C170.452 76.6901 170.587 76.3948 170.617 76.0799C170.655 75.4468 170.53 74.8144 170.255 74.2441" fill="#D09271"/>
<path d="M193.853 71.27C194.794 70.6277 195.906 70.2871 197.043 70.293C198.713 70.4863 199.808 72.3222 199.797 74.0184C199.653 75.7154 199.102 77.3514 198.191 78.7852C196.852 81.3403 195.501 83.9062 194.119 86.4399C193.317 88.2192 192.111 89.7825 190.598 91.0026C189.565 91.6291 188.41 92.0242 187.212 92.1612C186.014 92.2983 184.801 92.1741 183.654 91.7971C181.385 91.0388 179.236 89.9541 177.273 88.5763C177.273 87.2665 178.539 86.4291 179.4 85.4092C181.017 83.4875 181.24 80.7176 180.868 78.2269C180.283 74.319 182.58 75.1564 185.675 74.4049C188.515 73.6947 191.261 72.6422 193.853 71.27Z" fill="#C2EAE8"/>
<path d="M172.999 70.7656C176.007 72.7898 179.143 74.6117 182.389 76.2193C182.899 76.477 183.314 75.6718 182.804 75.4142C179.559 73.8085 176.422 71.9903 173.413 69.9712C172.935 69.6491 172.531 70.4542 172.999 70.7656Z" fill="#C2EAE8"/>
<path d="M163.959 79.3222C168.922 82.3712 173.818 85.5491 178.646 88.8558C179.124 89.1779 179.528 88.3727 179.06 88.0506C174.247 84.751 169.351 81.5768 164.374 78.5277C163.885 78.2271 163.47 79.0216 163.959 79.3222Z" fill="#C2EAE8"/>
<path d="M183.388 80.5993C183.294 79.7034 183.441 78.7985 183.813 77.9798C184.485 77.2005 185.401 76.6775 186.408 76.4982C188.145 75.9371 189.801 75.1466 191.332 74.1471C191.583 73.9398 191.884 73.8028 192.204 73.7498C192.938 73.6747 193.501 74.512 193.48 75.2528C193.39 76.004 193.162 76.732 192.81 77.4L192.757 77.7973C192.757 77.9476 192.959 78.0335 193.076 78.1301C193.355 78.3956 193.529 78.7548 193.564 79.1402C193.599 79.5257 193.494 79.9109 193.267 80.2235C193.029 80.5303 192.73 80.7839 192.389 80.9687C192.049 81.1534 191.675 81.2652 191.289 81.2971C190.79 81.3615 190.226 81.4045 189.96 81.8554C189.877 82.0815 189.851 82.3252 189.886 82.5639C189.887 83.73 189.512 84.8647 188.817 85.7963C188.122 86.728 187.146 87.4061 186.036 87.7279C186.218 88.2004 186.311 88.7026 186.313 89.2094C186.331 89.3975 186.278 89.5858 186.164 89.7355C185.94 89.9502 185.579 89.8214 185.302 89.7355C183.59 88.9089 181.176 88.5331 181.644 86.343C182.048 84.2817 183.473 82.8646 183.388 80.5993Z" fill="#ADCECC"/>
<path d="M170 89.3072L170.064 89.7259L169.798 89.9836C169.285 90.281 168.743 90.5256 168.182 90.7136C166.652 86.8014 165.56 82.7287 164.927 78.5714C164.826 78.1372 164.826 77.6852 164.927 77.2509C165.183 76.5209 166.842 75.4473 167.522 76.0485C167.937 76.4243 167.639 79.8812 167.703 80.5468C168.027 83.5671 168.801 86.5206 170 89.3072V89.3072Z" fill="#790E0E"/>
<path d="M186.728 65.7845C188.308 64.8864 190.093 64.4201 191.907 64.4318C192.779 64.4318 193.704 64.099 193.672 63.0576L193.587 62.9717C193.005 62.9845 192.425 63.0456 191.853 63.1542C191.119 63.1434 190.385 63.2082 189.663 63.3475C188.33 63.5779 187.137 64.3204 186.334 65.4195C186.185 65.6879 186.504 65.9133 186.728 65.7845Z" fill="black"/>
<path d="M187.312 68.4358C188.432 67.8409 189.657 67.476 190.917 67.3622C191.566 67.2334 192.321 67.0938 192.63 66.4604C192.643 66.429 192.647 66.3946 192.641 66.361C192.636 66.3274 192.621 66.296 192.599 66.2703C192.577 66.2446 192.548 66.2257 192.516 66.2156C192.484 66.2056 192.449 66.2048 192.417 66.2135C191.991 66.3423 191.651 66.6215 191.236 66.7718C190.822 66.9221 190.29 67.0187 189.833 67.1582C188.919 67.4167 188.058 67.8385 187.291 68.4036L187.312 68.4358Z" fill="#523424"/>
<path d="M190.269 67.2654C190.195 67.6625 189.982 68.6712 190.631 68.7571C191.279 68.8429 191.29 67.7698 191.184 67.3513L190.929 67.1152H190.854L190.578 67.2547L190.503 67.5982L190.588 67.8342V68.1561L190.663 67.9952V67.7913C190.663 67.6196 190.567 67.4479 190.535 67.2762L190.269 67.2654Z" fill="#523424"/>
<path d="M188.887 68.8443C189.368 69.0845 189.906 69.1813 190.439 69.1233C190.844 69.0696 191.503 68.9515 191.62 68.5437L191.535 68.4043C191.191 68.485 190.856 68.6 190.535 68.7476C190.024 68.8718 189.487 68.8267 189.004 68.6189C188.855 68.5652 188.706 68.7799 188.887 68.8443Z" fill="#523424"/>
<path d="M190.036 69.7688C190.276 69.7941 190.517 69.7372 190.721 69.6072L190.646 69.3809C190.432 69.3809 190.228 69.4563 190.014 69.4671C189.975 69.4699 189.938 69.4885 189.912 69.5188C189.886 69.5492 189.873 69.5887 189.875 69.6287C189.878 69.6687 189.897 69.7059 189.927 69.7322C189.957 69.7585 189.996 69.7716 190.036 69.7688Z" fill="#523424"/>
<path fill-rule="evenodd" clip-rule="evenodd" d="M286.915 281.542C286.915 279.418 287.539 277.342 288.707 275.577C289.876 273.811 291.537 272.435 293.48 271.623C295.423 270.81 297.561 270.598 299.624 271.012C301.687 271.426 303.582 272.449 305.069 273.95C306.557 275.452 307.569 277.364 307.98 279.447C308.39 281.53 308.179 283.688 307.375 285.65C306.57 287.612 305.207 289.288 303.458 290.468C301.709 291.648 299.653 292.277 297.55 292.277C294.729 292.277 292.024 291.146 290.03 289.133C288.035 287.12 286.915 284.389 286.915 281.542V281.542Z" fill="#9EC2C2"/>
<path fill-rule="evenodd" clip-rule="evenodd" d="M297.528 234.09C306.825 234.088 315.914 236.869 323.645 242.082C331.376 247.295 337.403 254.705 340.962 263.376C344.521 272.046 345.453 281.588 343.641 290.793C341.829 299.999 337.353 308.455 330.779 315.092C324.206 321.73 315.831 326.25 306.713 328.082C297.594 329.914 288.143 328.975 279.553 325.384C270.964 321.792 263.622 315.71 258.457 307.906C253.291 300.103 250.534 290.928 250.534 281.542C250.534 268.959 255.485 256.891 264.298 247.992C273.11 239.093 285.063 234.093 297.528 234.09V234.09ZM297.528 249.238C291.199 249.238 285.012 251.133 279.75 254.682C274.488 258.232 270.386 263.277 267.965 269.18C265.543 275.083 264.909 281.578 266.144 287.844C267.378 294.111 270.426 299.867 274.901 304.385C279.376 308.903 285.078 311.979 291.285 313.226C297.492 314.472 303.926 313.832 309.773 311.387C315.621 308.942 320.618 304.802 324.134 299.489C327.65 294.177 329.527 287.931 329.527 281.542C329.519 272.98 326.143 264.772 320.143 258.721C314.143 252.669 306.009 249.27 297.528 249.27" fill="#323232"/>
<path fill-rule="evenodd" clip-rule="evenodd" d="M297.528 249.27C303.858 249.268 310.046 251.161 315.309 254.709C320.573 258.257 324.676 263.302 327.1 269.204C329.523 275.107 330.158 281.603 328.925 287.87C327.691 294.137 324.644 299.894 320.17 304.413C315.695 308.932 309.993 312.009 303.786 313.257C297.578 314.504 291.144 313.865 285.296 311.42C279.448 308.976 274.45 304.835 270.934 299.522C267.417 294.21 265.54 287.964 265.54 281.574C265.54 273.008 268.91 264.793 274.909 258.735C280.907 252.678 289.044 249.273 297.528 249.27V249.27ZM297.528 261.434C293.583 261.434 289.726 262.615 286.445 264.828C283.164 267.041 280.607 270.187 279.097 273.867C277.587 277.547 277.192 281.596 277.962 285.503C278.731 289.41 280.631 292.999 283.422 295.816C286.212 298.632 289.767 300.55 293.637 301.327C297.506 302.105 301.518 301.706 305.163 300.181C308.809 298.657 311.924 296.076 314.117 292.764C316.309 289.451 317.479 285.558 317.479 281.574C317.48 278.929 316.965 276.309 315.963 273.865C314.961 271.421 313.491 269.2 311.639 267.33C309.786 265.459 307.586 263.976 305.165 262.964C302.744 261.952 300.149 261.432 297.528 261.434" fill="#9EC2C2"/>
<path d="M297.528 306.481C292.64 306.481 287.861 305.018 283.797 302.276C279.732 299.534 276.564 295.636 274.694 291.077C272.824 286.517 272.335 281.5 273.289 276.66C274.244 271.82 276.599 267.374 280.056 263.885C283.514 260.396 287.918 258.021 292.713 257.059C297.508 256.098 302.478 256.594 306.994 258.484C311.509 260.374 315.369 263.573 318.083 267.678C320.797 271.782 322.245 276.607 322.243 281.542C322.243 284.818 321.604 288.062 320.361 291.088C319.119 294.115 317.299 296.864 315.004 299.18C312.708 301.496 309.984 303.333 306.985 304.586C303.987 305.839 300.773 306.483 297.528 306.481V306.481ZM297.528 252.255C291.79 252.253 286.18 253.969 281.408 257.185C276.636 260.402 272.916 264.976 270.718 270.327C268.521 275.678 267.945 281.567 269.063 287.249C270.181 292.931 272.943 298.15 277 302.247C281.057 306.344 286.226 309.135 291.854 310.266C297.482 311.396 303.316 310.817 308.617 308.601C313.919 306.384 318.45 302.631 321.639 297.814C324.827 292.998 326.529 287.335 326.529 281.542C326.53 277.696 325.781 273.888 324.324 270.335C322.867 266.782 320.731 263.553 318.038 260.834C315.345 258.114 312.148 255.956 308.629 254.484C305.11 253.012 301.338 252.255 297.528 252.255Z" fill="#769191"/>
<path fill-rule="evenodd" clip-rule="evenodd" d="M293.274 273.716C293.843 273.397 294.446 273.145 295.072 272.964L296.241 257.602H298.826L299.995 272.964C300.62 273.147 301.223 273.399 301.792 273.716L313.384 263.689L314.299 264.612L315.213 265.535L305.281 277.237C305.595 277.812 305.844 278.421 306.025 279.052L321.243 280.233V282.841L306.025 284.022C305.84 284.651 305.59 285.259 305.281 285.837L315.256 297.582L314.341 298.516L313.427 299.428L301.835 289.401C301.265 289.718 300.663 289.97 300.038 290.152L298.868 305.526H296.284L295.05 290.067C294.425 289.886 293.822 289.634 293.253 289.315L281.651 299.342L280.736 298.43L279.822 297.496L289.765 285.794C289.451 285.219 289.201 284.61 289.021 283.979L273.792 282.798V280.19L289.021 279.009C289.201 278.378 289.451 277.769 289.765 277.194L279.822 265.492L280.736 264.569L281.651 263.646L293.274 273.716Z" fill="#9EC2C2"/>
<path d="M179.645 213.294C180.5 214.095 181.143 215.099 181.516 216.215C181.719 217.293 181.627 218.406 181.251 219.435C179.911 224.009 176.997 228.153 176.688 232.909C176.729 234.343 176.669 235.778 176.508 237.203C176.116 238.764 175.461 240.246 174.572 241.583L171.382 247.037C170.611 248.104 170.171 249.378 170.116 250.698C170.265 253.178 172.924 254.584 175.253 255.368C176.603 255.819 178.294 256.162 179.283 255.132C179.657 254.678 179.926 254.147 180.07 253.575C184.111 241.479 188.149 229.38 192.183 217.277C193.246 214.261 194.203 210.933 193.087 207.948C191.864 204.652 188.471 202.827 185.345 201.281L176.635 196.987C174.094 195.731 170.637 194.625 168.776 196.772C166.171 199.778 168.691 202.237 170.808 203.836C174.051 206.327 176.88 210.245 179.645 213.294Z" fill="#0E4B5E"/>
<path d="M121.357 189.762L114.083 136.19C113.868 134.599 113.088 133.141 111.89 132.085C110.692 131.029 109.155 130.447 107.565 130.446H103.694C102.681 130.446 101.681 130.664 100.76 131.087C99.8385 131.51 99.0176 132.127 98.3525 132.898C97.6874 133.668 97.1935 134.573 96.9041 135.552C96.6147 136.531 96.5365 137.561 96.6748 138.573L106.522 211.083H174.434C174.92 211.083 175.4 210.986 175.849 210.798C176.297 210.611 176.704 210.335 177.047 209.988C177.39 209.641 177.662 209.229 177.846 208.776C178.031 208.323 178.126 207.837 178.124 207.347V198.189C178.124 197.395 177.812 196.633 177.255 196.071C176.699 195.51 175.944 195.194 175.157 195.194H127.536C126.03 195.195 124.574 194.646 123.438 193.647C122.302 192.648 121.563 191.268 121.357 189.762V189.762Z" fill="#323232"/>
<path d="M167.691 265.997C166.949 267.442 166.368 268.965 165.958 270.539C165.753 271.328 165.707 272.151 165.822 272.958C165.938 273.766 166.211 274.542 166.628 275.241C168.351 277.796 171.945 277.871 175.04 277.667L179.549 277.377C181.474 277.249 183.707 276.937 184.675 275.23C185.525 273.727 184.94 271.848 184.441 270.184C183.328 266.423 182.787 262.514 182.835 258.59C182.94 257.428 182.817 256.257 182.473 255.143C182.128 254.406 181.621 253.759 180.991 253.249C180.361 252.739 179.624 252.381 178.836 252.202C175.338 251.246 172.668 251.332 171.711 254.736C170.667 258.59 169.323 262.356 167.691 265.997V265.997Z" fill="#150A0B"/>
<path d="M173.679 267.092C172.616 269.658 171.637 272.352 171.935 275.101C171.951 275.707 172.176 276.288 172.573 276.743C172.966 277.069 173.434 277.287 173.934 277.377C182.448 279.674 191.36 280.04 200.031 278.45C201.296 278.302 202.507 277.849 203.562 277.13C204.074 276.752 204.453 276.22 204.644 275.609C204.836 274.999 204.829 274.343 204.625 273.737C203.998 272.288 202.158 271.944 200.606 271.773C197.804 271.604 195.064 270.874 192.545 269.625C190.099 268.241 188.11 265.718 188.089 262.894C188.089 260.747 189.014 258.149 187.408 256.742C186.571 256.155 185.566 255.861 184.548 255.905C181.187 255.68 179.432 254.95 177.401 257.44C175.657 259.566 174.7 264.419 173.679 267.092Z" fill="#281416"/>
<path d="M127.844 192.94C132.331 195.538 137.627 196.16 142.732 196.794L159.992 198.812C167.914 199.735 176.73 201.153 181.569 207.551C181.974 208.283 182.616 208.851 183.388 209.162C184.286 209.211 185.182 209.018 185.982 208.603C186.854 208.346 188.109 208.603 188.173 209.516C187.708 209.949 187.343 210.481 187.104 211.073C186.865 211.665 186.758 212.302 186.791 212.941L188.747 212.608C189.13 214.197 188.109 215.732 187.237 217.106C184.491 221.412 182.806 226.319 182.324 231.417C182.005 235.024 182.239 238.932 180.378 241.981C179.527 243.377 178.251 244.515 177.443 245.9C176.65 247.176 176.176 248.627 176.06 250.13C175.699 255.111 180.25 259.985 185.174 259.566C190.098 259.148 193.618 254.295 196.053 249.807C203.497 236.098 208.964 221.143 210.729 205.597C211.169 203.032 211.067 200.401 210.431 197.878C208.676 192.296 202.742 189.375 197.34 187.218C188.18 183.553 178.889 180.268 169.467 177.362C166.929 176.48 164.299 175.896 161.629 175.623C159.241 175.55 156.852 175.708 154.494 176.095L127.206 179.702C122.952 180.271 119.581 179.584 121.08 184.802C122.245 188.274 124.659 191.178 127.844 192.94V192.94Z" fill="#225E79"/>
<path d="M189.173 192.06C191.885 193.133 194.671 194.207 196.788 196.236C201.86 201.067 201.424 209.377 199.255 216.076C197.085 222.775 193.523 229.238 193.576 236.281C194.64 237.204 196.086 235.819 196.766 234.584C201.486 225.504 204.521 215.629 205.721 205.447C206.04 202.774 206.189 199.875 204.774 197.589C203.53 195.592 201.371 194.518 199.34 193.445C188.791 188.259 175.423 180.948 163.672 179.67C163.332 184.974 184.771 190.353 189.173 192.06Z" fill="#316D83"/>
<path d="M23.478 143.04C21.1347 140.953 18.0935 139.844 14.9704 139.937H-59.6836V144.521H2.31537V152.412H-30.8961V155.869H2.30472V162.418H-11.5201V167.002H2.30472V180.625H6.85631V167.013H22.2869C23.6972 167.013 25.0496 166.447 26.0468 165.44C27.044 164.434 27.6042 163.068 27.6042 161.645V154.216C27.5404 149.331 26.1791 145.563 23.478 143.04ZM6.85631 144.521H15.2363C17.1418 144.479 18.995 145.152 20.4365 146.411C21.9786 148.03 22.8725 150.167 22.9463 152.412H6.85631V144.521ZM22.2869 162.428H6.85631V155.869H23.0419V161.655C23.0436 161.76 23.0238 161.864 22.9839 161.961C22.944 162.057 22.8847 162.145 22.8099 162.217C22.7351 162.29 22.6462 162.346 22.5489 162.382C22.4516 162.419 22.3479 162.434 22.2444 162.428H22.2869Z" fill="#EDEEEF"/>
<path d="M30.3526 110.596H-35.7512C-37.0433 110.596 -38.0908 111.653 -38.0908 112.958V171.511C-38.0908 172.815 -37.0433 173.873 -35.7512 173.873H30.3526C31.6447 173.873 32.6922 172.815 32.6922 171.511V112.958C32.6922 111.653 31.6447 110.596 30.3526 110.596Z" fill="#00DEDE"/>
<path fill-rule="evenodd" clip-rule="evenodd" d="M-31.9662 114.225H26.5235C27.0767 114.224 27.6082 114.442 28.0053 114.831C28.4024 115.219 28.6338 115.749 28.6504 116.307V137.779C7.7536 146.368 -19.375 126.399 -34.0293 154.462V116.307C-34.0133 115.76 -33.7908 115.24 -33.4073 114.853C-33.0238 114.465 -32.5083 114.241 -31.9662 114.225Z" fill="#00B39F"/>
<path d="M0.160896 130.65L-0.743075 134L-1.30667 136.104H-14.6849L-15.0252 137.328L-15.3017 138.305H-1.75336L-3.23151 143.748H-16.8437L-17.1946 144.972L-17.4711 145.949H-3.97594L-5.4435 151.403H-25.2236L-23.6817 145.949L-19.6937 131.874L-19.4385 130.972V130.65H-19.3428L-19.3321 130.629L-19.2683 130.65H0.160896Z" fill="white"/>
<path d="M9.76665 50.1421H-56.3372C-57.6293 50.1421 -58.6768 51.1995 -58.6768 52.5039V111.057C-58.6768 112.362 -57.6293 113.419 -56.3372 113.419H9.76665C11.0588 113.419 12.1062 112.362 12.1062 111.057V52.5039C12.1062 51.1995 11.0588 50.1421 9.76665 50.1421Z" fill="#00DEDE"/>
<path fill-rule="evenodd" clip-rule="evenodd" d="M-52.5527 53.7598H5.93691C6.48986 53.7765 7.01456 54.0101 7.39973 54.411C7.78491 54.8118 8.00025 55.3485 8 55.9069V77.3787C-12.8861 85.9674 -40.0146 65.9987 -54.6689 94.0623V55.8533C-54.6551 55.295 -54.4264 54.7641 -54.0314 54.3733C-53.6363 53.9824 -53.1058 53.7624 -52.5527 53.7598Z" fill="#00B39F"/>
<path d="M204.657 292.396H149.911C141.897 292.397 133.922 291.27 126.217 289.047L106.671 283.41V264.73H228.521V268.294C228.521 274.685 226.007 280.813 221.532 285.333C217.057 289.853 210.987 292.393 204.657 292.396V292.396Z" fill="#323232"/>
<path d="M299.836 284.086L299.049 284.558C298.722 284.75 298.359 284.874 297.984 284.924C297.608 284.974 297.226 284.948 296.861 284.848C296.495 284.749 296.152 284.577 295.853 284.343C295.553 284.109 295.302 283.817 295.115 283.484L277.036 252.501L282.768 249.098L300.847 280.081C301.044 280.41 301.174 280.776 301.23 281.156C301.286 281.537 301.267 281.924 301.172 282.297C301.078 282.67 300.912 283.02 300.683 283.327C300.453 283.634 300.166 283.892 299.836 284.086V284.086Z" fill="#EDEEEF"/>
<path d="M228.688 153.177L220.172 158.233L283.204 266.432L291.719 261.376L228.688 153.177Z" fill="#00B39F"/>
<path d="M278.035 207.818C244.185 207.818 237.028 249.795 237.028 275.669L237.432 276.077H250.13C252.135 276.097 254.083 275.408 255.637 274.129C257.191 272.851 258.253 271.063 258.638 269.077C261.828 251.567 276.461 241.024 294.603 241.024H341.065V235.957C335.61 226.338 316.489 207.818 278.035 207.818Z" fill="#00B39F"/>
<path d="M254.639 265.374C253.863 269.669 250.066 271.236 245.749 271.236H237.092C237.092 272.718 237.028 274.199 237.018 275.691L237.422 276.099H250.119C252.124 276.12 254.072 275.431 255.626 274.152C257.18 272.873 258.242 271.086 258.627 269.1C261.817 251.589 276.45 241.047 294.593 241.047H341.055V235.958H292.37C273.334 235.958 257.978 247.005 254.639 265.374Z" fill="white"/>
<path d="M283.587 151.982H263.615V179.005H283.587V151.982Z" fill="#00B39F"/>
<path d="M285 180.486H286.617C287.652 180.486 288.645 180.071 289.377 179.332C290.108 178.593 290.52 177.591 290.52 176.546V154.43C290.52 153.385 290.108 152.383 289.377 151.644C288.645 150.905 287.652 150.49 286.617 150.49H285C284.625 150.49 284.265 150.641 284 150.908C283.735 151.176 283.586 151.539 283.586 151.918V179.058C283.586 179.437 283.735 179.8 284 180.068C284.265 180.336 284.625 180.486 285 180.486V180.486Z" fill="#323232"/>
<path d="M106.671 63.3464H102.417C101.024 63.3502 99.6624 62.9288 98.5104 62.1376C97.3585 61.3464 96.4703 60.2222 95.9623 58.9125L82.0205 23.2696L85.9128 21.7236L99.8546 57.3558C100.056 57.8771 100.408 58.325 100.865 58.641C101.322 58.9571 101.863 59.1265 102.417 59.1272H106.671V63.3464Z" fill="#EDEEEF"/>
<path d="M30.9159 192.762H-125.036V173.719H30.9159C33.3459 173.719 35.6764 174.507 37.3947 175.911C39.113 177.315 40.0783 179.219 40.0783 181.204V185.278C40.0783 186.26 39.8413 187.234 39.3808 188.142C38.9204 189.05 38.2455 189.875 37.3947 190.57C36.5439 191.265 35.5338 191.817 34.4222 192.193C33.3106 192.569 32.1191 192.762 30.9159 192.762V192.762Z" fill="#323232"/>
<path d="M-16.8477 283.066H213.92C214.498 283.067 215.07 282.953 215.604 282.731C216.139 282.509 216.624 282.183 217.033 281.771C217.442 281.359 217.766 280.87 217.988 280.331C218.209 279.792 218.323 279.215 218.323 278.632V276.86H-16.8477V283.066Z" fill="#323232"/>
<path d="M-42.3395 292.009C-42.7908 292.009 -43.2236 291.828 -43.5427 291.506C-43.8618 291.184 -44.041 290.747 -44.041 290.292C-44.041 289.836 -43.8618 289.399 -43.5427 289.077C-43.2236 288.755 -42.7908 288.574 -42.3395 288.574H-12.9884C-12.6268 288.574 30.9745 286.373 53.9237 279.459C54.3567 279.33 54.8229 279.379 55.2197 279.596C55.6166 279.814 55.9116 280.181 56.04 280.619C56.1683 281.056 56.1194 281.526 55.904 281.927C55.6886 282.328 55.3244 282.625 54.8914 282.755C31.5488 289.787 -11.0423 291.923 -12.9033 292.009H-42.3395Z" fill="black"/>
<path d="M-42.3395 295.982C-42.7908 295.982 -43.2236 295.801 -43.5427 295.479C-43.8618 295.157 -44.041 294.72 -44.041 294.264C-44.041 293.809 -43.8618 293.372 -43.5427 293.05C-43.2236 292.727 -42.7908 292.547 -42.3395 292.547H-12.9883C-12.7863 292.547 15.3632 291.129 38.2593 287.018C38.7049 286.938 39.1636 287.04 39.5346 287.302C39.9055 287.564 40.1583 287.963 40.2373 288.413C40.3162 288.863 40.215 289.326 39.9557 289.701C39.6964 290.075 39.3004 290.33 38.8548 290.41C15.7354 294.554 -12.6162 295.971 -12.9033 295.982H-42.3395Z" fill="black"/>
<path d="M32.3332 283.348L29.4414 283.709L30.5237 292.532L33.4155 292.17L32.3332 283.348Z" fill="black"/>
<path d="M228.522 227.713H218.153C211.607 227.613 205.19 229.563 199.787 233.296L166.82 257.473V272.138H228.564L228.522 227.713Z" fill="#00B39F"/>
<path d="M167.192 202.698H110.191V266.437H167.192V202.698Z" fill="#00B39F"/>
<path d="M167.192 217.192H110.191V221.808H167.192V217.192Z" fill="#323232"/>
<path d="M110.191 251.213H25.4238V266.447H110.191V251.213Z" fill="#00B39F"/>
<path d="M113.7 23.4102H106.671V257.086H113.7V23.4102Z" fill="#EDEEEF"/>
<path d="M110.191 28.1129H2.8465C1.00039 28.1087 -0.828396 28.4721 -2.53519 29.1824C-4.24198 29.8926 -5.79325 30.9358 -7.10014 32.2522C-8.40702 33.5685 -9.44387 35.1322 -10.1513 36.8536C-10.8588 38.5751 -11.2229 40.4205 -11.2229 42.2842V147.817H-124.916V41.436C-124.91 35.9462 -123.808 30.514 -121.676 25.4635C-119.545 20.413 -116.427 15.8477 -112.51 12.0401C-108.592 8.23259 -103.955 5.26082 -98.8751 3.30215C-93.795 1.34348 -88.3761 0.438064 -82.9418 0.639952L112.456 7.91886C113.286 7.9524 114.111 8.05653 114.923 8.23017L226.351 30.6036C226.955 30.7363 227.496 31.0741 227.883 31.5606C228.27 32.0471 228.48 32.6528 228.478 33.2768V34.3504H201.892L110.191 28.1129Z" fill="#323232"/>
<path d="M276.589 140.248H249.747C247.743 140.247 245.794 139.591 244.191 138.377C242.588 137.164 241.418 135.458 240.857 133.516L215.015 43.9903C214.854 43.4411 214.823 42.8618 214.923 42.2982C215.024 41.7346 215.253 41.2024 215.592 40.7438C215.932 40.2853 216.373 39.913 216.88 39.6566C217.387 39.4001 217.947 39.2666 218.514 39.2666H218.939L216.142 34.3711H201.935L219.939 149.749C220.747 154.859 220.747 160.066 219.939 165.176L209.06 232.726C207.972 239.483 204.538 245.628 199.373 250.064C194.208 254.499 187.648 256.935 180.868 256.935H136.894C134.886 256.937 132.898 256.539 131.043 255.764C129.187 254.989 127.502 253.853 126.081 252.42C124.661 250.988 123.535 249.287 122.766 247.414C121.997 245.542 121.602 243.535 121.602 241.508V192.123C121.602 191.166 121.225 190.249 120.555 189.572C119.885 188.896 118.976 188.516 118.028 188.516H102.343C101.396 188.519 100.489 188.9 99.8192 189.575C99.1497 190.251 98.7723 191.167 98.7695 192.123V241.508C98.7695 245.599 97.1594 249.523 94.2936 252.417C91.4277 255.31 87.5407 256.935 83.4877 256.935H52.4882C46.038 256.937 39.7772 254.734 34.7255 250.685C29.6739 246.636 26.1291 240.979 24.6685 234.637L14.3849 190.03C13.7534 187.304 12.815 184.66 11.5881 182.149L-2.71531 152.851C-3.45444 151.341 -4.59681 150.07 -6.01359 149.18C-7.43037 148.29 -9.06518 147.818 -10.7337 147.816H-124.916V244.213C-124.92 252.442 -122.08 260.415 -116.887 266.758L-112.633 271.965C-111.379 273.498 -109.805 274.733 -108.024 275.581C-106.243 276.429 -104.298 276.87 -102.328 276.872H220.96C227.203 276.872 233.298 274.947 238.429 271.356C243.561 267.765 247.483 262.677 249.673 256.774L279.162 177.114C281.375 171.142 282.29 164.759 281.846 158.399C281.402 152.038 279.609 145.848 276.589 140.248V140.248Z" fill="#00DEDE"/>
<path d="M5.52608 294.087C11.2125 269.301 -4.08131 244.554 -28.6336 238.813C-53.1858 233.073 -77.6991 248.512 -83.3855 273.298C-89.0719 298.085 -73.7781 322.831 -49.2258 328.572C-24.6736 334.313 -0.160311 318.873 5.52608 294.087Z" fill="#323232"/>
<path d="M-38.8724 216.622C-72.3178 216.622 -99.4889 241.089 -99.6484 276.453L-99.255 276.861H-83.7605C-81.7559 276.881 -79.8075 276.192 -78.2535 274.913C-76.6995 273.635 -75.6379 271.847 -75.253 269.861C-72.0626 252.351 -56.9935 241.808 -38.8511 241.808C-20.7087 241.808 -5.6184 252.351 -2.44932 269.861C-2.0663 271.848 -1.00523 273.637 0.549217 274.916C2.10366 276.195 4.05307 276.883 6.05826 276.861H21.8504C21.8504 241.282 -5.36317 216.622 -38.8724 216.622Z" fill="#00FFE1"/>
<path d="M172.754 276.861H34.3994V275.863C34.3994 274.12 35.0851 272.449 36.3056 271.217C37.5262 269.985 39.1816 269.293 40.9077 269.293H172.754C193.831 269.293 204.072 257.966 208.113 236.946C209.836 227.981 220.332 155.235 220.449 154.538H221.119C221.608 154.539 222.092 154.642 222.539 154.841C222.987 155.04 223.389 155.33 223.72 155.692C224.051 156.055 224.305 156.483 224.465 156.949C224.625 157.416 224.688 157.91 224.65 158.402C223.47 173.433 216.993 230.966 215.462 238.921C210.496 264.805 198.755 276.861 172.754 276.861Z" fill="#EDEEEF"/>
<path d="M247.642 140.248H276.589L218.929 39.3311H216.398C215.831 39.3316 215.271 39.4653 214.764 39.7217C214.256 39.9781 213.815 40.3501 213.475 40.8083C213.134 41.2665 212.904 41.7983 212.802 42.3618C212.701 42.9252 212.73 43.5048 212.888 44.0548L238.741 133.581C239.314 135.512 240.491 137.205 242.095 138.407C243.699 139.608 245.645 140.254 247.642 140.248Z" fill="#8CC8DD"/>
<path d="M278.865 145.133H219.227L219.939 149.728C219.939 149.975 220.013 150.222 220.045 150.469H280.588C280.123 148.656 279.547 146.874 278.865 145.133V145.133Z" fill="#323232"/>
<path d="M231.573 196.321L277.503 197.739C278.083 197.756 278.661 197.655 279.202 197.443C279.744 197.23 280.237 196.911 280.654 196.502C281.07 196.094 281.401 195.605 281.627 195.065C281.853 194.525 281.97 193.945 281.969 193.358V192.811C281.97 192.225 281.853 191.644 281.627 191.104C281.401 190.564 281.07 190.076 280.654 189.667C280.237 189.259 279.744 188.939 279.202 188.726C278.661 188.514 278.083 188.413 277.503 188.431L231.573 189.88C230.751 189.916 229.974 190.271 229.406 190.871C228.837 191.471 228.52 192.27 228.521 193.101V193.165C228.536 193.984 228.86 194.767 229.427 195.353C229.994 195.94 230.762 196.286 231.573 196.321Z" fill="#EDEEEF"/>
<path d="M252.575 171.886H231.689C230.497 171.886 229.53 172.862 229.53 174.066V181.881C229.53 183.085 230.497 184.061 231.689 184.061H252.575C253.767 184.061 254.734 183.085 254.734 181.881V174.066C254.734 172.862 253.767 171.886 252.575 171.886Z" fill="#323232"/>
<path d="M252.056 173.829H232.222C231.664 173.829 231.212 174.286 231.212 174.849V181.108C231.212 181.671 231.664 182.128 232.222 182.128H252.056C252.614 182.128 253.066 181.671 253.066 181.108V174.849C253.066 174.286 252.614 173.829 252.056 173.829Z" fill="#F7AF2C"/>
<path d="M321.117 218.186L311.079 217.027C309.249 216.822 307.56 215.941 306.336 214.553C305.113 213.166 304.442 211.369 304.453 209.512V207.74C304.442 205.882 305.113 204.086 306.336 202.698C307.56 201.31 309.249 200.429 311.079 200.225L321.171 199.065L321.117 218.186Z" fill="#00DEDE"/>
<path d="M321.927 219.045H323.054C323.77 219.045 324.457 218.757 324.964 218.246C325.47 217.735 325.755 217.041 325.755 216.318V200.966C325.755 200.241 325.471 199.547 324.964 199.034C324.458 198.521 323.771 198.231 323.054 198.228H321.927C321.666 198.231 321.417 198.337 321.234 198.524C321.051 198.711 320.948 198.963 320.948 199.226V218.057C320.948 218.319 321.051 218.57 321.235 218.755C321.418 218.941 321.667 219.045 321.927 219.045V219.045Z" fill="#323232"/>
</svg>
