<svg width="390" height="256" viewBox="0 0 390 256" fill="none" xmlns="http://www.w3.org/2000/svg">
<path d="M246.733 0.231445H10.1622C7.64774 0.231445 5.60938 2.13614 5.60938 4.48568V161.446C5.60938 163.796 7.64774 165.701 10.1622 165.701H246.733C249.247 165.701 251.286 163.796 251.286 161.446V4.48568C251.286 2.13614 249.247 0.231445 246.733 0.231445Z" fill="#00DEDE"/>
<path fill-rule="evenodd" clip-rule="evenodd" d="M12.7617 6.90942V17.4036H244.182V6.90942H12.7617ZM12.7617 21.0006V42.9077H244.182V21.0006H12.7617ZM12.7617 46.5047V68.4118H244.182V46.5047H12.7617ZM12.7617 72.0159V93.923H244.182V72.0159H12.7617ZM12.7617 97.52V119.427H244.182V97.52H12.7617ZM12.7617 123.031V144.938H244.182V123.031H12.7617ZM12.7617 148.535V159.001H244.182V148.535H12.7617Z" fill="#00B39F"/>
<path d="M258.983 170.28H1.41016V179.439H258.983V170.28Z" fill="black"/>
<path fill-rule="evenodd" clip-rule="evenodd" d="M260.065 21.821H347.891C348.937 21.8082 349.962 22.0909 350.832 22.6319C351.703 23.1728 352.378 23.9469 352.769 24.8526L389.139 105.923C389.42 106.527 389.561 107.18 389.555 107.838V212.794C389.553 213.662 389.183 214.493 388.527 215.106C387.871 215.719 386.981 216.064 386.053 216.066H371.177C371.255 210.459 370.14 204.893 367.897 199.692C365.654 194.491 362.328 189.757 358.112 185.766C353.896 181.776 348.874 178.607 343.337 176.444C337.8 174.282 331.858 173.168 325.857 173.168C319.856 173.168 313.914 174.282 308.378 176.444C302.841 178.607 297.818 181.776 293.602 185.766C289.386 189.757 286.06 194.491 283.818 199.692C281.575 204.893 280.46 210.459 280.537 216.066H260.065C259.138 216.063 258.249 215.717 257.593 215.104C256.938 214.491 256.567 213.661 256.563 212.794V25.0858C256.567 24.2199 256.938 23.3905 257.594 22.7789C258.25 22.1672 259.138 21.8228 260.065 21.821Z" fill="#00DEDE"/>
<path fill-rule="evenodd" clip-rule="evenodd" d="M263.15 35.905C263.152 33.8083 264.045 31.798 265.631 30.3155C267.218 28.8329 269.369 27.9991 271.613 27.9973H341.349C343.02 27.9863 344.656 28.4428 346.047 29.308C347.438 30.1732 348.52 31.4075 349.154 32.8522L376.856 94.5878C377.395 95.7905 377.606 97.0988 377.473 98.3965C377.34 99.6941 376.866 100.941 376.093 102.026C375.32 103.111 374.272 104.001 373.042 104.617C371.813 105.233 370.439 105.555 369.044 105.556H338.559C337.43 105.563 336.312 105.355 335.271 104.946C334.231 104.537 333.291 103.934 332.508 103.174L320.227 91.436C320.036 91.2404 319.801 91.086 319.54 90.9834C319.279 90.8809 318.997 90.8328 318.714 90.8424H271.621C269.376 90.8387 267.225 90.0034 265.638 88.5196C264.052 87.0359 263.16 85.0249 263.158 82.9276L263.15 35.905Z" fill="#00B39F"/>
<path fill-rule="evenodd" clip-rule="evenodd" d="M266.327 35.9049V82.9274C266.327 84.2394 266.885 85.4976 267.878 86.4253C268.87 87.353 270.217 87.8742 271.621 87.8742H318.714C319.42 87.8655 320.12 87.9928 320.771 88.2482C321.421 88.5035 322.008 88.8814 322.496 89.3583L334.778 101.103C335.264 101.581 335.851 101.96 336.502 102.215C337.153 102.471 337.853 102.597 338.559 102.587H369.045C369.917 102.587 370.775 102.386 371.544 102.002C372.313 101.617 372.969 101.061 373.452 100.383C373.935 99.7042 374.232 98.9248 374.316 98.1136C374.399 97.3023 374.267 96.4844 373.93 95.7325L346.228 33.9969C345.836 33.0912 345.161 32.3171 344.291 31.7761C343.42 31.2352 342.395 30.9525 341.35 30.9653H271.614C270.212 30.9671 268.869 31.4881 267.878 32.4141C266.887 33.3401 266.329 34.5954 266.327 35.9049V35.9049Z" fill="white"/>
<path d="M320.444 99.9408C320.365 99.0573 320.131 98.1927 319.751 97.3832L317.63 91.9251C317.401 91.345 317.18 90.765 316.937 90.1915C316.611 89.4334 316.244 88.6951 315.911 87.9502C315.807 87.7195 315.697 87.4888 315.586 87.291C315.077 86.2012 314.567 85.1179 314.054 84.0413C313.911 83.6702 313.673 83.3393 313.361 83.0789C312.799 82.6702 312.016 82.7888 311.282 82.8679C309.631 83.0465 307.959 82.9005 306.369 82.439C304.78 81.9775 303.308 81.2103 302.043 80.1851C302.054 84.1151 303.002 87.9917 304.815 91.523C306.28 94.4532 308.206 97.1539 310.526 99.5321C312.543 101.595 314.172 102.65 317.117 102.663C319.037 102.637 320.472 101.852 320.444 99.9408Z" fill="#007B6D"/>
<path d="M321.915 61.0392C322.165 62.6682 322.734 64.2387 323.032 65.8547C323.584 68.9009 323.191 72.0355 321.901 74.8693C320.892 77.0629 319.193 79.1267 316.843 79.886C315.604 80.2819 314.27 80.2884 313.004 80.5999C311.741 80.9233 310.58 81.5358 309.618 82.3848C308.657 83.2338 307.925 84.2939 307.486 85.4739C303.528 84.0483 299.861 81.9681 296.653 79.3279C297.851 73.2475 297.385 66.9731 295.299 61.1171C295.028 60.3642 294.751 59.4816 295.211 58.8132C295.525 58.4453 295.944 58.1725 296.416 58.0279C304.145 54.9128 312.706 54.231 320.865 56.0809C322.084 56.3599 322.334 56.4703 322.016 57.632C321.738 58.749 321.704 59.9088 321.915 61.0392Z" fill="#FFB38A"/>
<path d="M322.146 62.9958C323.757 64.4858 324.667 66.4709 324.69 68.5427C324.69 71.008 323.463 73.35 322.236 75.5811C321.691 76.7127 320.962 77.7657 320.071 78.7058C319.622 79.1729 319.064 79.5472 318.437 79.8026C317.81 80.058 317.128 80.1885 316.438 80.185C314.832 80.0925 313.522 79.0509 312.35 78.0648L308.759 75.0572C308.243 74.7112 307.872 74.2208 307.704 73.6643C307.808 73.7328 307.938 73.7627 308.067 73.7478C308.195 73.7329 308.312 73.6743 308.393 73.5842C308.55 73.3743 308.634 73.1278 308.635 72.8754C308.814 71.3346 308.931 69.7938 309.021 68.2407C309.021 67.7045 308.848 66.5952 309.303 66.1761C309.758 65.757 311.075 65.7262 311.606 65.5967L322.146 62.9958Z" fill="#A2E2E1"/>
<path d="M296.136 68.4721C296.094 68.4753 296.054 68.4987 296.021 68.539C295.989 68.5792 295.966 68.6342 295.955 68.6959C295.945 68.7576 295.947 68.8227 295.963 68.8819C295.979 68.9411 296.006 68.9911 296.042 69.0248C296.123 69.0963 296.26 69.0248 296.247 68.8492C296.214 68.3726 296.091 67.9208 295.892 67.5488C295.73 67.2432 295.401 66.7295 295.136 67.0806C295.036 67.2595 294.976 67.4826 294.966 67.7169C294.956 67.9511 294.996 68.184 295.08 68.381C295.264 68.8349 295.524 69.2072 295.832 69.4604C295.965 69.5905 296.106 69.2979 295.995 69.1353C295.945 69.0685 295.886 69.0188 295.823 68.9896C295.759 68.9603 295.693 68.9522 295.627 68.9657C295.561 68.9793 295.498 69.0143 295.442 69.0682C295.386 69.1222 295.338 69.1938 295.302 69.2784C295.214 69.4746 295.153 69.6957 295.123 69.9286C295.078 70.14 295.078 70.3673 295.123 70.5788C295.153 70.6685 295.197 70.7461 295.251 70.8054C295.305 70.8647 295.367 70.9041 295.433 70.9205C295.498 70.9369 295.565 70.9299 295.629 70.8999C295.692 70.8699 295.75 70.8179 295.798 70.7479C295.906 70.5844 295.995 70.3928 296.059 70.1822C296.157 69.9026 296.26 69.623 296.358 69.3369C296.456 69.0508 296.204 68.8947 296.123 69.1288C296.042 69.3629 295.909 69.74 295.798 70.0456C295.738 70.2082 295.589 70.6568 295.418 70.5073C295.247 70.3577 295.418 69.9091 295.456 69.753C295.495 69.597 295.67 69.2263 295.811 69.4474L295.978 69.1223C295.776 68.9493 295.593 68.73 295.435 68.4721C295.315 68.251 295.165 67.8219 295.294 67.5163C295.362 67.3602 295.473 67.5162 295.542 67.6398C295.621 67.7449 295.692 67.8651 295.751 67.9974C295.875 68.2683 295.954 68.5805 295.982 68.9077L296.187 68.7257L296.144 68.9467C296.307 68.8622 296.307 68.4461 296.136 68.4721Z" fill="#A2E2E1"/>
<path d="M310.684 70.4804C310.451 71.4914 310.492 72.5435 310.805 73.5345C311.323 74.5016 312.099 75.3177 313.054 75.8984L315.657 77.7981C316.268 78.3316 317.017 78.6966 317.824 78.8548C318.635 78.9342 319.579 78.415 319.604 77.6332C319.564 77.3244 319.457 77.0272 319.29 76.761C319.123 76.4947 318.9 76.2653 318.635 76.0877L316.285 73.9987H321.834L321.967 71.4271L317.457 71.0912L321.758 70.2482C322.145 70.2047 322.514 70.0659 322.829 69.8451C322.996 69.6825 323.122 69.4849 323.196 69.2677C323.271 69.0505 323.293 68.8195 323.26 68.5929C323.184 68.142 323.037 67.7052 322.822 67.2979L318.306 68.5196C318.104 68.5977 317.883 68.6148 317.672 68.5685C317.622 68.5578 317.575 68.5374 317.533 68.5087C317.491 68.4799 317.456 68.4433 317.43 68.4011C317.403 68.3588 317.385 68.3119 317.378 68.263C317.371 68.2141 317.374 68.1642 317.387 68.1165L321.106 66.2412C321.527 66.0773 321.888 65.7967 322.145 65.4349C322.202 65.3424 322.239 65.2392 322.252 65.1322C322.266 65.0251 322.256 64.9165 322.223 64.8135C322.19 64.7104 322.135 64.6151 322.062 64.5338C321.988 64.4525 321.898 64.387 321.796 64.3415C321.346 64.2194 320.295 64.6103 319.832 64.7019C319.123 64.8363 318.413 64.9829 317.71 65.1295C316.354 65.4227 315.003 65.7363 313.656 66.0702C312.826 66.2779 311.609 66.3512 311.185 67.1819C310.76 68.0126 310.817 69.4847 310.684 70.4804Z" fill="#8ECECC"/>
<path d="M311.949 55.9197C317.308 55.9312 322.659 56.2648 327.967 56.918C328.154 56.9374 328.343 56.9024 328.506 56.8182C328.668 56.734 328.796 56.6052 328.869 56.4512C328.942 56.2972 328.957 56.1263 328.911 55.9642C328.865 55.8021 328.761 55.6575 328.615 55.5522C328.048 55.1622 327.438 54.8237 326.794 54.5416C325.484 53.9292 324.035 53.3841 323.118 52.3735C322.069 51.2527 321.738 49.7338 321.048 48.4231C320.339 47.243 319.359 46.2085 318.17 45.3865C316.982 44.5646 315.612 43.9736 314.15 43.652C311.227 43.018 308.177 42.9991 305.244 43.5969C301.499 44.2461 297.76 45.5507 295.139 48.0128C292.517 50.4749 291.262 54.2783 292.807 57.3835C293.03 57.8589 293.337 58.2995 293.718 58.688C294.283 59.2576 294.518 59.0004 295.235 58.7309C296.492 58.2553 297.78 57.8463 299.091 57.506C301.747 56.8286 304.467 56.3713 307.217 56.1401C308.818 56.0177 310.383 55.9564 311.949 55.9197Z" fill="#00B39F"/>
<path d="M321.86 52.786C320.537 50.213 319.002 47.6668 316.774 45.7754C314.547 43.8841 311.49 42.7279 308.597 43.3161C305.287 43.9844 302.764 46.8715 301.866 50.0526C301.606 50.9682 301.407 51.9907 300.646 52.5788C299.598 53.3875 297.905 53.0199 296.932 53.9155C296.246 54.5838 296.246 55.6464 295.561 56.3214C295.227 56.6211 294.856 56.8793 294.457 57.0899C294.051 57.2992 293.744 57.6537 293.6 58.079C293.059 60.2377 297.027 58.079 297.713 57.8184C299.584 57.0966 301.483 56.4417 303.409 55.8669C307.262 54.7151 311.204 53.8702 315.198 53.3407C316.322 53.1937 317.453 53.0667 318.584 52.9665C318.926 52.9999 321.743 52.5788 321.86 52.786Z" fill="#00DEDE"/>
<path d="M303.975 64.2151L302.301 64.4121C302.334 63.3863 302.128 62.3656 301.697 61.415C301.474 60.9424 301.115 60.5313 300.657 60.2233C300.199 59.9152 299.658 59.7213 299.09 59.6611C298.485 59.6757 297.899 59.8476 297.402 60.1557C296.905 60.4638 296.519 60.895 296.29 61.3966C295.857 62.4139 295.773 63.5241 296.05 64.5844C296.262 65.649 296.66 66.6768 296.873 67.7414C297.149 68.8017 297.066 69.9119 296.633 70.9292C296.616 70.1433 296.425 69.3682 296.072 68.6489C295.718 67.9295 295.209 67.2801 294.574 66.7383C294.815 66.7752 294.959 66.4614 294.863 66.2521C294.728 66.0657 294.561 65.8995 294.368 65.7598C294.024 65.3372 293.843 64.8249 293.854 64.3013L293.607 61.7843C293.486 61.1818 293.558 60.5612 293.813 59.9935C294.245 59.4094 294.886 58.9752 295.631 58.7626C298.107 57.812 300.698 57.1222 303.351 56.7072C304.037 56.6026 304.723 56.5102 305.375 56.4426C306.027 56.3749 306.425 56.2456 306.247 56.8918C305.945 58.0057 305.142 59.095 304.778 60.2212C304.353 61.523 304.083 62.862 303.975 64.2151V64.2151Z" fill="#300C0F"/>
<path d="M316.197 59.9619L317.966 60.3087C318.353 60.3858 318.809 60.4089 318.975 59.9233C319.04 59.7613 319.046 59.5777 318.992 59.4111C318.937 59.2444 318.828 59.1075 318.685 59.0292C318.258 59.0244 317.837 59.1328 317.455 59.3452C317.192 59.4454 316.432 60.0081 316.197 59.9619Z" fill="#E6E2DA"/>
<path d="M320.398 58.3026C320.07 58.0145 319.664 57.8303 319.231 57.7737C318.847 57.6845 318.448 57.6845 318.064 57.7737C317.335 58.0072 316.687 58.4426 316.197 59.029C316.197 59.029 316.197 59.029 316.197 59.029C316.437 58.76 316.731 58.5436 317.059 58.3935C317.388 58.2435 317.744 58.163 318.105 58.1573C318.439 58.1282 318.775 58.1282 319.108 58.1573C319.29 58.1819 319.468 58.2267 319.639 58.2909C319.844 58.3607 320.024 58.4769 320.223 58.5525C320.421 58.628 320.503 58.4421 320.398 58.3026Z" fill="#300C0F"/>
<path d="M320.385 59.7585C320.143 59.7705 319.902 59.7984 319.665 59.8419C319.811 59.7596 319.933 59.6511 320.021 59.5246C320.11 59.398 320.163 59.2566 320.176 59.1108C320.176 59.0018 319.982 59.0018 319.967 59.1108V59.1493C319.946 59.2927 319.882 59.4297 319.782 59.5482C319.682 59.6666 319.549 59.7631 319.394 59.829C319.394 59.829 319.394 59.8675 319.394 59.8867C319.029 59.9573 318.673 60.047 318.317 60.1368C317.621 60.318 316.938 60.5321 316.271 60.7781C316.249 60.7887 316.23 60.8041 316.217 60.8227C316.204 60.8413 316.197 60.8624 316.197 60.8839C316.197 60.9054 316.204 60.9265 316.217 60.9451C316.23 60.9637 316.249 60.979 316.271 60.9897C316.551 61.0955 316.855 61.1523 317.162 61.1564L318.293 61.2205C318.627 61.2205 318.96 61.2206 319.293 61.2783C319.293 61.2783 319.363 61.3167 319.386 61.2783C319.563 61.2891 319.734 61.3377 319.882 61.4193C319.99 61.4899 320.06 61.5925 320.176 61.663C320.186 61.6698 320.198 61.6735 320.211 61.6735C320.224 61.6735 320.236 61.6698 320.246 61.663C320.25 61.566 320.22 61.4701 320.159 61.387C320.099 61.3039 320.011 61.2371 319.905 61.1949C319.797 61.138 319.675 61.1008 319.549 61.0859C319.742 60.768 319.781 60.4008 319.657 60.0599C319.92 59.9957 320.184 59.9316 320.432 59.8547C320.455 59.829 320.447 59.7521 320.385 59.7585ZM319.293 60.1304C319.312 60.241 319.312 60.3533 319.293 60.4639L319.223 60.6306C319.06 60.6306 319.014 60.5023 319.014 60.3677C319.014 60.233 319.122 60.2202 319.153 60.1689L319.293 60.1304ZM317.635 60.9512C317.323 60.9499 317.012 60.9263 316.705 60.8807C317.255 60.6883 317.821 60.5088 318.387 60.3549L318.549 60.31C318.453 60.503 318.453 60.7197 318.549 60.9128C318.57 60.9492 318.596 60.9836 318.627 61.0153L317.635 60.9512Z" fill="#300C0F"/>
<path d="M310.536 65.3508L310.333 65.6403L302.638 62.3799C302.421 62.2917 301.843 62.0022 302.113 61.7504C302.383 61.4986 302.976 61.9392 303.178 62.0211C304.033 62.3547 304.866 62.7134 305.706 63.0785C306.111 63.2359 310.581 65.2879 310.536 65.3508Z" fill="#A2E2E1"/>
<path d="M296.615 69.031L306.062 73.6004L308.723 74.8821C308.763 74.8954 308.804 74.8991 308.845 74.8931C308.886 74.887 308.926 74.8714 308.961 74.8469C308.997 74.8225 309.029 74.7898 309.054 74.7508C309.079 74.7117 309.098 74.6671 309.109 74.6194C309.131 74.5223 309.121 74.4185 309.08 74.3305C309.039 74.2425 308.97 74.1776 308.889 74.1497L299.443 69.5803L296.782 68.2986C296.701 68.2716 296.614 68.2841 296.54 68.3333C296.467 68.3825 296.413 68.4644 296.389 68.5613C296.37 68.6593 296.383 68.7622 296.425 68.8493C296.467 68.9365 296.535 69.0014 296.615 69.031V69.031Z" fill="#A2E2E1"/>
<path d="M300.467 61.0668C300.328 60.7827 300.113 60.564 299.857 60.4466C299.602 60.3292 299.321 60.32 299.06 60.4206C298.802 60.5293 298.567 60.7091 298.376 60.9457C298.185 61.1823 298.043 61.4693 297.959 61.7839C297.797 62.4154 297.755 63.0827 297.836 63.7365C297.978 65.0959 298.381 66.3964 299.013 67.5353C299.248 67.9684 299.602 68.4229 300.043 68.2453C301.038 67.8903 300.508 65.6466 300.285 64.8655C299.89 63.63 300.967 62.2738 300.467 61.0668Z" fill="#D58D67"/>
<path d="M309.661 82.1097C309.753 83.0979 310.043 84.0607 310.513 84.9476C310.985 85.8337 311.272 86.7971 311.359 87.7854C311.397 88.2789 311.288 88.7725 311.046 89.2108C310.803 89.6491 310.435 90.0146 309.984 90.2661H313.243C313.761 94.4006 314.274 98.533 314.783 102.663L288.306 101.663C288.017 98.4875 286.931 95.4223 286.58 92.2598C286.23 89.0972 286.663 85.61 288.966 83.2916C290.341 81.9214 292.232 81.0642 293.449 79.5771C294.213 78.5203 294.791 77.3536 295.161 76.1223C295.326 75.6547 295.669 73.8169 296.158 73.6156C296.79 73.3558 297.374 74.3754 297.684 74.7326C299.712 77.1295 302.257 79.0909 305.15 80.4862C305.535 80.694 309.661 82.1097 309.661 82.1097Z" fill="#00B39F"/>
<path d="M288.003 90.6057C288.318 94.0758 289.233 97.4708 290.712 100.65C295.389 101.416 300.154 101.546 304.868 101.035C304.939 97.8867 304.387 94.7545 303.242 91.805C302.782 90.6774 302.213 89.5954 301.644 88.5134C301.188 87.5619 300.632 86.6577 299.984 85.815C299.181 84.8711 298.167 84.1129 297.018 83.5962C295.87 83.0796 294.615 82.8177 293.347 82.8297C291.031 82.8297 289.663 83.5597 288.606 85.6064C287.94 87.19 287.732 88.9175 288.003 90.6057V90.6057Z" fill="#00DEDE"/>
<path d="M350.31 114.346C350.026 114.256 349.764 114.113 349.539 113.927C349.314 113.742 349.131 113.516 349 113.264C348.87 113.011 348.794 112.737 348.777 112.457C348.76 112.177 348.803 111.897 348.903 111.632L356.148 92.1421C356.245 91.8759 356.398 91.6303 356.597 91.4196C356.797 91.209 357.039 91.0375 357.31 90.9152C357.581 90.7929 357.875 90.7221 358.176 90.7071C358.476 90.6921 358.777 90.7331 359.06 90.8277V90.8277C359.344 90.9182 359.606 91.0605 359.831 91.2463C360.056 91.4321 360.239 91.6577 360.37 91.9101C360.501 92.1625 360.577 92.4367 360.593 92.7167C360.61 92.9967 360.567 93.277 360.467 93.5414L353.222 113.067C353.121 113.33 352.966 113.572 352.765 113.779C352.564 113.986 352.321 114.153 352.05 114.272C351.78 114.391 351.487 114.459 351.188 114.471C350.889 114.484 350.591 114.441 350.31 114.346Z" fill="#030404"/>
<path fill-rule="evenodd" clip-rule="evenodd" d="M267.877 109.633V193.629C267.879 194.52 268.138 195.395 268.628 196.16C269.118 196.925 269.82 197.552 270.66 197.975C274.268 188.365 280.678 179.888 289.168 173.502C297.659 167.117 307.89 163.076 318.708 161.836C329.526 160.596 340.499 162.206 350.389 166.486C360.279 170.765 368.692 177.543 374.678 186.053V124.374C374.678 123.062 374.121 121.804 373.128 120.876C372.135 119.948 370.788 119.427 369.384 119.427H335.541C334.835 119.438 334.134 119.312 333.484 119.056C332.833 118.801 332.246 118.422 331.76 117.943L319.47 106.198C318.984 105.72 318.396 105.342 317.746 105.086C317.095 104.831 316.395 104.704 315.689 104.714H273.163C271.766 104.716 270.426 105.234 269.435 106.156C268.445 107.077 267.885 108.327 267.877 109.633Z" fill="#00B39F"/>
<path fill-rule="evenodd" clip-rule="evenodd" d="M389.524 120.452H380.947C380.437 120.454 379.949 120.645 379.589 120.982C379.228 121.32 379.026 121.777 379.026 122.254V188.802C379.026 189.278 379.229 189.735 379.589 190.072C379.949 190.408 380.438 190.597 380.947 190.597H389.524V120.452Z" fill="black"/>
<path fill-rule="evenodd" clip-rule="evenodd" d="M389.524 125.152H383.526C383.26 125.153 383.006 125.253 382.817 125.429C382.629 125.605 382.522 125.843 382.521 126.092V128.303C382.522 128.552 382.629 128.79 382.817 128.966C383.006 129.142 383.26 129.241 383.526 129.243H389.524V125.152ZM389.524 185.926V181.834H383.526C383.26 181.836 383.006 181.936 382.817 182.112C382.629 182.288 382.522 182.526 382.521 182.774V184.986C382.522 185.235 382.629 185.473 382.817 185.649C383.006 185.825 383.26 185.924 383.526 185.926H389.524ZM389.524 179.63V175.545H383.526C383.26 175.545 383.004 175.644 382.815 175.82C382.626 175.997 382.521 176.236 382.521 176.485V178.69C382.522 178.938 382.629 179.176 382.817 179.352C383.006 179.528 383.26 179.628 383.526 179.63H389.524ZM389.524 173.333V169.248H383.526C383.26 169.25 383.006 169.35 382.817 169.526C382.629 169.702 382.522 169.94 382.521 170.188V172.393C382.522 172.642 382.629 172.88 382.817 173.056C383.006 173.232 383.26 173.331 383.526 173.333H389.524ZM389.524 167.037V162.952H383.526C383.26 162.954 383.006 163.053 382.817 163.229C382.629 163.405 382.522 163.643 382.521 163.892V166.068C382.521 166.318 382.626 166.557 382.815 166.733C383.004 166.909 383.26 167.008 383.526 167.008L389.524 167.037ZM389.524 160.747V156.655H383.526C383.26 156.657 383.006 156.757 382.817 156.933C382.629 157.109 382.522 157.347 382.521 157.595V159.807C382.522 160.056 382.629 160.294 382.817 160.47C383.006 160.646 383.26 160.745 383.526 160.747H389.524ZM389.524 154.451V150.359H383.526C383.259 150.361 383.003 150.461 382.815 150.639C382.626 150.816 382.521 151.056 382.521 151.306V153.511C382.522 153.759 382.629 153.997 382.817 154.173C383.006 154.349 383.26 154.449 383.526 154.451H389.524ZM389.524 148.154V144.069H383.526C383.26 144.071 383.006 144.171 382.817 144.347C382.629 144.523 382.522 144.761 382.521 145.009V147.214C382.522 147.463 382.629 147.701 382.817 147.877C383.006 148.053 383.26 148.152 383.526 148.154H389.524ZM389.524 141.858V137.773H383.526C383.26 137.775 383.006 137.874 382.817 138.05C382.629 138.226 382.522 138.464 382.521 138.713V140.918C382.522 141.166 382.629 141.404 382.817 141.58C383.006 141.756 383.26 141.856 383.526 141.858H389.524ZM389.524 135.568V131.441H383.526C383.26 131.443 383.006 131.543 382.817 131.718C382.629 131.894 382.522 132.132 382.521 132.381V134.586C382.521 134.836 382.626 135.076 382.815 135.253C383.003 135.43 383.259 135.531 383.526 135.533L389.524 135.568Z" fill="#4D4D4D"/>
<path d="M290.089 111.463H278.541C277.622 111.463 276.877 112.159 276.877 113.018V115.307C276.877 116.166 277.622 116.862 278.541 116.862H290.089C291.008 116.862 291.753 116.166 291.753 115.307V113.018C291.753 112.159 291.008 111.463 290.089 111.463Z" fill="#00DEDE"/>
<path fill-rule="evenodd" clip-rule="evenodd" d="M389.524 133.83C387.632 135.469 386.122 137.457 385.09 139.667C384.058 141.877 383.525 144.262 383.525 146.673C383.525 149.085 384.058 151.47 385.09 153.68C386.122 155.89 387.632 157.878 389.524 159.517V133.83Z" fill="#FFB400"/>
<path fill-rule="evenodd" clip-rule="evenodd" d="M198.988 170.308H225.011C231.07 170.323 236.876 172.579 241.16 176.582C245.444 180.585 247.858 186.01 247.874 191.671C247.856 197.331 245.441 202.755 241.157 206.756C236.873 210.758 231.069 213.012 225.011 213.027H198.988C192.924 213.014 187.113 210.757 182.827 206.749C178.54 202.741 176.128 197.309 176.118 191.643C176.142 185.986 178.561 180.567 182.845 176.569C187.13 172.572 192.933 170.321 198.988 170.308V170.308Z" fill="#00DEDE"/>
<path fill-rule="evenodd" clip-rule="evenodd" d="M204.857 170.308V213.027H198.988C198.466 213.027 197.952 213.027 197.476 212.978V170.308C197.982 170.308 198.497 170.259 198.988 170.259L204.857 170.308ZM219.143 170.308H225.012C225.533 170.308 226.048 170.308 226.524 170.358V212.978C226.017 212.978 225.503 213.027 225.012 213.027H219.143V170.308Z" fill="#00B39F"/>
<path fill-rule="evenodd" clip-rule="evenodd" d="M325.86 176.866C334.202 176.864 342.358 179.173 349.295 183.502C356.233 187.832 361.64 193.987 364.833 201.188C368.027 208.39 368.862 216.315 367.234 223.96C365.606 231.606 361.588 238.628 355.688 244.139C349.788 249.65 342.272 253.402 334.089 254.921C325.906 256.439 317.426 255.656 309.72 252.669C302.014 249.683 295.429 244.628 290.798 238.144C286.168 231.66 283.699 224.038 283.705 216.243C283.711 205.799 288.155 195.784 296.059 188.401C303.964 181.017 314.683 176.868 325.86 176.866V176.866ZM325.86 192.053C320.733 192.056 315.723 193.479 311.462 196.143C307.201 198.807 303.882 202.592 301.923 207.019C299.965 211.447 299.455 216.317 300.46 221.015C301.464 225.712 303.936 230.026 307.565 233.411C311.193 236.795 315.814 239.098 320.843 240.028C325.872 240.958 331.083 240.474 335.818 238.636C340.552 236.798 344.597 233.69 347.44 229.704C350.284 225.718 351.799 221.033 351.793 216.243C351.785 209.822 349.048 203.667 344.185 199.131C339.323 194.595 332.731 192.049 325.86 192.053V192.053Z" fill="#323232"/>
<path fill-rule="evenodd" clip-rule="evenodd" d="M325.861 192.053C330.989 192.051 336.003 193.469 340.268 196.13C344.532 198.791 347.857 202.574 349.82 207C351.783 211.427 352.296 216.298 351.296 220.998C350.295 225.697 347.825 230.014 344.198 233.401C340.571 236.788 335.95 239.094 330.92 240.026C325.89 240.959 320.677 240.476 315.941 238.639C311.205 236.802 307.158 233.694 304.313 229.707C301.468 225.72 299.953 221.035 299.959 216.243C299.967 209.828 302.699 203.677 307.555 199.142C312.412 194.606 318.996 192.057 325.861 192.053ZM316.582 205.099L320.31 208.583C321.417 207.887 322.661 207.406 323.971 207.169V202.223C321.28 202.526 318.727 203.502 316.582 205.049V205.099ZM317.633 211.084L313.912 207.6C312.26 209.607 311.216 211.992 310.887 214.505H316.181C316.432 213.281 316.946 212.117 317.694 211.084H317.633ZM316.121 218.038H310.827C311.148 220.553 312.194 222.939 313.852 224.942L317.573 221.458C316.827 220.425 316.313 219.262 316.06 218.038H316.121ZM320.31 223.96L316.582 227.437C318.729 228.981 321.281 229.957 323.971 230.264V225.317C322.661 225.081 321.416 224.6 320.31 223.904V223.96ZM327.752 225.373V230.32C330.442 230.013 332.993 229.037 335.141 227.494L331.412 224.017C330.308 224.715 329.062 225.196 327.752 225.43V225.373ZM334.09 221.458L337.818 224.942C339.474 222.938 340.519 220.552 340.843 218.038H335.549C335.296 219.262 334.782 220.425 334.037 221.458H334.09ZM335.602 214.505H340.896C340.573 211.99 339.528 209.605 337.871 207.6L334.143 211.084C334.89 212.117 335.404 213.281 335.655 214.505H335.602ZM331.405 208.583L335.133 205.099C332.989 203.551 330.435 202.574 327.745 202.272V207.219C329.059 207.435 330.312 207.899 331.428 208.583H331.405Z" fill="#89A1A1"/>
<g style="mix-blend-mode:multiply">
<path fill-rule="evenodd" clip-rule="evenodd" d="M325.861 194.526C330.465 194.523 334.967 195.797 338.797 198.186C342.626 200.575 345.611 203.971 347.374 207.946C349.137 211.921 349.598 216.295 348.699 220.515C347.8 224.734 345.582 228.61 342.326 231.651C339.069 234.693 334.919 236.763 330.403 237.6C325.886 238.437 321.206 238.003 316.953 236.353C312.701 234.704 309.068 231.912 306.514 228.332C303.96 224.752 302.6 220.545 302.605 216.242C302.612 210.482 305.064 204.96 309.424 200.888C313.785 196.816 319.696 194.528 325.861 194.526ZM325.861 197.939C321.982 197.948 318.192 199.031 314.971 201.051C311.75 203.072 309.243 205.939 307.766 209.291C306.289 212.643 305.909 216.329 306.673 219.883C307.438 223.437 309.313 226.699 312.061 229.258C314.81 231.816 318.308 233.556 322.114 234.256C325.921 234.957 329.864 234.587 333.445 233.194C337.027 231.801 340.086 229.447 342.236 226.43C344.386 223.413 345.53 219.867 345.524 216.242C345.521 213.834 345.01 211.449 344.02 209.225C343.03 207.001 341.58 204.981 339.754 203.281C337.927 201.581 335.76 200.235 333.376 199.318C330.993 198.401 328.439 197.933 325.861 197.939V197.939Z" fill="#979797"/>
</g>
<g style="mix-blend-mode:multiply">
<path fill-rule="evenodd" clip-rule="evenodd" d="M325.861 212.144C326.735 212.142 327.59 212.383 328.317 212.836C329.044 213.289 329.612 213.933 329.947 214.687C330.282 215.441 330.371 216.271 330.201 217.072C330.032 217.873 329.612 218.609 328.994 219.187C328.377 219.764 327.59 220.158 326.733 220.318C325.876 220.478 324.988 220.396 324.18 220.084C323.373 219.772 322.683 219.243 322.197 218.564C321.711 217.886 321.452 217.087 321.452 216.271C321.454 215.178 321.919 214.13 322.745 213.357C323.571 212.584 324.692 212.148 325.861 212.144V212.144Z" fill="#979797"/>
</g>
<path fill-rule="evenodd" clip-rule="evenodd" d="M128.964 176.866C137.306 176.866 145.46 179.178 152.395 183.509C159.331 187.84 164.736 193.996 167.927 201.198C171.118 208.399 171.951 216.324 170.321 223.968C168.692 231.613 164.672 238.634 158.772 244.144C152.871 249.653 145.354 253.404 137.172 254.921C128.99 256.439 120.51 255.654 112.805 252.667C105.1 249.681 98.5162 244.626 93.8862 238.142C89.2561 231.658 86.788 224.037 86.794 216.242C86.794 205.791 91.2368 195.769 99.1452 188.379C107.054 180.989 117.78 176.838 128.964 176.838V176.866ZM128.964 192.053C123.837 192.053 118.824 193.474 114.562 196.136C110.299 198.798 106.977 202.582 105.016 207.009C103.056 211.436 102.544 216.307 103.547 221.006C104.549 225.704 107.02 230.019 110.648 233.405C114.276 236.791 118.897 239.095 123.926 240.027C128.956 240.958 134.168 240.474 138.903 238.637C143.638 236.799 147.684 233.691 150.528 229.705C153.373 225.718 154.887 221.033 154.881 216.242C154.873 209.824 152.139 203.671 147.28 199.136C142.42 194.6 135.832 192.053 128.964 192.053V192.053Z" fill="#323232"/>
<path fill-rule="evenodd" clip-rule="evenodd" d="M128.965 192.053C134.093 192.053 139.105 193.474 143.368 196.136C147.63 198.798 150.952 202.582 152.913 207.009C154.874 211.436 155.385 216.307 154.383 221.006C153.38 225.704 150.909 230.02 147.281 233.405C143.654 236.791 139.033 239.095 134.003 240.027C128.974 240.958 123.762 240.474 119.026 238.637C114.291 236.8 110.245 233.691 107.401 229.705C104.557 225.719 103.042 221.033 103.048 216.242C103.048 209.819 105.778 203.659 110.639 199.118C115.499 194.576 122.092 192.024 128.965 192.024V192.053ZM119.686 205.098L123.414 208.582C124.519 207.884 125.765 207.403 127.075 207.169V202.222C124.384 202.524 121.831 203.5 119.686 205.049V205.098ZM120.737 211.084L117.009 207.6C115.352 209.604 114.307 211.99 113.984 214.504H119.278C119.528 213.28 120.043 212.116 120.79 211.084H120.737ZM119.225 218.037H113.931C114.255 220.551 115.3 222.937 116.956 224.942L120.684 221.458C119.939 220.424 119.425 219.261 119.172 218.037H119.225ZM123.422 223.959L119.694 227.436C121.841 228.98 124.393 229.956 127.082 230.263V225.316C125.772 225.082 124.527 224.601 123.422 223.903V223.959ZM130.864 225.373V230.319C133.553 230.013 136.105 229.036 138.253 227.493L134.524 224.016C133.418 224.712 132.173 225.193 130.864 225.429V225.373ZM137.201 221.458L140.922 224.942C142.574 222.935 143.619 220.55 143.947 218.037H138.653C138.4 219.261 137.886 220.424 137.141 221.458H137.201ZM138.714 214.504H144.008C143.679 211.991 142.635 209.606 140.983 207.6L137.262 211.084C138.009 212.116 138.524 213.28 138.774 214.504H138.714ZM134.524 208.582L138.253 205.098C136.107 203.551 133.554 202.574 130.864 202.271V207.218C132.169 207.44 133.414 207.903 134.524 208.582V208.582Z" fill="#89A1A1"/>
<g style="mix-blend-mode:multiply">
<path fill-rule="evenodd" clip-rule="evenodd" d="M128.966 194.526C133.57 194.526 138.07 195.802 141.897 198.193C145.725 200.584 148.707 203.981 150.468 207.956C152.228 211.931 152.687 216.305 151.787 220.523C150.887 224.742 148.667 228.617 145.41 231.657C142.152 234.697 138.003 236.765 133.487 237.601C128.971 238.437 124.291 238.002 120.04 236.352C115.788 234.702 112.156 231.911 109.602 228.331C107.049 224.751 105.689 220.545 105.695 216.243C105.695 210.476 108.147 204.945 112.511 200.867C116.875 196.789 122.794 194.498 128.966 194.498V194.526ZM128.966 197.94C125.084 197.938 121.289 199.013 118.062 201.028C114.834 203.042 112.318 205.906 110.833 209.257C109.348 212.609 108.96 216.296 109.719 219.853C110.477 223.41 112.348 226.677 115.095 229.241C117.841 231.804 121.339 233.548 125.147 234.253C128.955 234.958 132.9 234.591 136.485 233.199C140.07 231.808 143.132 229.454 145.284 226.435C147.436 223.417 148.582 219.87 148.576 216.243C148.568 211.387 146.499 206.733 142.822 203.301C139.146 199.87 134.162 197.941 128.966 197.94Z" fill="#979797"/>
</g>
<g style="mix-blend-mode:multiply">
<path fill-rule="evenodd" clip-rule="evenodd" d="M128.965 212.144C129.839 212.144 130.693 212.386 131.419 212.839C132.146 213.293 132.712 213.937 133.046 214.691C133.38 215.446 133.468 216.275 133.297 217.076C133.127 217.876 132.706 218.612 132.089 219.189C131.471 219.766 130.684 220.159 129.827 220.318C128.97 220.478 128.082 220.396 127.275 220.084C126.468 219.771 125.778 219.242 125.293 218.564C124.808 217.885 124.549 217.087 124.549 216.271C124.549 215.176 125.014 214.127 125.842 213.353C126.671 212.579 127.794 212.144 128.965 212.144V212.144Z" fill="#979797"/>
</g>
<path fill-rule="evenodd" clip-rule="evenodd" d="M42.711 176.866C51.0527 176.866 59.207 179.178 66.1425 183.509C73.078 187.84 78.483 193.996 81.6738 201.198C84.8647 208.399 85.698 216.324 84.0684 223.968C82.4388 231.613 78.4196 238.634 72.519 244.144C66.6184 249.653 59.1016 253.404 50.9194 254.921C42.7372 256.439 34.2573 255.654 26.5523 252.667C18.8473 249.681 12.2633 244.626 7.63323 238.142C3.00318 231.658 0.535042 224.037 0.541026 216.242C0.540033 211.067 1.63013 205.943 3.74901 201.162C5.8679 196.38 8.97411 192.036 12.8901 188.377C16.8062 184.718 21.4553 181.815 26.5721 179.835C31.6888 177.855 37.1729 176.837 42.711 176.838V176.866ZM42.711 192.053C37.5837 192.053 32.5715 193.474 28.3088 196.136C24.046 198.798 20.7241 202.582 18.7634 207.009C16.8026 211.436 16.2912 216.307 17.2937 221.006C18.2961 225.704 20.7675 230.019 24.3952 233.405C28.0229 236.791 32.6438 239.095 37.6733 240.027C42.7028 240.958 47.9149 240.474 52.6502 238.637C57.3855 236.799 61.4311 233.691 64.2754 229.705C67.1196 225.718 68.6345 221.033 68.6286 216.242C68.6205 209.824 65.8864 203.671 61.0267 199.136C56.1671 194.6 49.5795 192.053 42.711 192.053V192.053Z" fill="#323232"/>
<path fill-rule="evenodd" clip-rule="evenodd" d="M42.7106 192.053C47.8379 192.053 52.85 193.474 57.1128 196.136C61.3756 198.798 64.6974 202.582 66.6582 207.009C68.6189 211.436 69.1304 216.307 68.1279 221.006C67.1254 225.704 64.654 230.02 61.0264 233.405C57.3987 236.791 52.7778 239.095 47.7483 240.027C42.7188 240.958 37.5066 240.474 32.7713 238.637C28.0361 236.8 23.9904 233.691 21.1462 229.705C18.302 225.719 16.787 221.033 16.793 216.242C16.793 209.819 19.5236 203.659 24.3841 199.118C29.2446 194.576 35.8368 192.024 42.7106 192.024V192.053ZM33.4311 205.098L37.1595 208.582C38.2657 207.886 39.5106 207.405 40.8199 207.169V202.222C38.1294 202.525 35.5765 203.502 33.4311 205.049V205.098ZM34.4823 211.084L30.7615 207.6C29.1095 209.606 28.0648 211.991 27.7364 214.504H33.0303C33.281 213.28 33.7956 212.116 34.5429 211.084H34.4823ZM32.9697 218.037H27.6758C28.0042 220.55 29.049 222.935 30.7009 224.942L34.4218 221.458C33.6766 220.424 33.1621 219.261 32.9093 218.037H32.9697ZM37.1595 223.959L33.4311 227.436C35.5786 228.98 38.1305 229.956 40.8199 230.263V225.316C39.5105 225.08 38.2655 224.599 37.1595 223.903V223.959ZM44.6013 225.373V230.319C47.2907 230.013 49.8426 229.036 51.9901 227.493L48.2616 224.016C47.1567 224.714 45.9114 225.195 44.6013 225.429V225.373ZM50.9389 221.458L54.6673 224.942C56.3229 222.937 57.3681 220.551 57.6924 218.037H52.3985C52.1452 219.261 51.6308 220.424 50.886 221.458H50.9389ZM52.4514 214.504H57.7453C57.4224 211.99 56.3771 209.604 54.7202 207.6L50.9919 211.084C51.7391 212.116 52.2537 213.28 52.5044 214.504H52.4514ZM48.2541 208.582L51.9825 205.098C49.8378 203.55 47.2845 202.573 44.5937 202.271V207.218C45.9025 207.436 47.1502 207.9 48.2616 208.582H48.2541Z" fill="#89A1A1"/>
<g style="mix-blend-mode:multiply">
<path fill-rule="evenodd" clip-rule="evenodd" d="M42.711 194.526C47.3148 194.526 51.8152 195.802 55.6427 198.193C59.4702 200.584 62.4528 203.981 64.2132 207.956C65.9736 211.931 66.4326 216.305 65.5322 220.523C64.6319 224.742 62.4126 228.617 59.1551 231.657C55.8976 234.697 51.7484 236.765 47.2323 237.601C42.7163 238.437 38.0364 238.002 33.7848 236.352C29.5332 234.702 25.9009 231.911 23.3476 228.331C20.7942 224.751 19.4345 220.545 19.4404 216.243C19.4395 213.387 20.0407 210.559 21.2098 207.92C22.3789 205.282 24.093 202.884 26.254 200.865C28.4151 198.845 30.9808 197.244 33.8046 196.151C36.6284 195.059 39.6548 194.497 42.711 194.498V194.526ZM42.711 197.94C38.8297 197.94 35.0356 199.015 31.8088 201.031C28.5821 203.046 26.0676 205.911 24.5837 209.262C23.0998 212.614 22.7131 216.301 23.4725 219.858C24.2319 223.414 26.1033 226.681 28.8499 229.243C31.5966 231.806 35.095 233.549 38.9024 234.253C42.7099 234.958 46.6553 234.59 50.2394 233.199C53.8236 231.807 56.8853 229.453 59.0373 226.435C61.1893 223.416 62.3348 219.869 62.3289 216.243C62.3228 211.385 60.2531 206.729 56.5744 203.297C52.8958 199.865 47.9094 197.938 42.711 197.94V197.94Z" fill="#979797"/>
</g>
<g style="mix-blend-mode:multiply">
<path fill-rule="evenodd" clip-rule="evenodd" d="M42.7118 212.144C43.5857 212.142 44.4404 212.383 45.1677 212.836C45.895 213.289 46.4622 213.933 46.7977 214.687C47.1331 215.441 47.2216 216.271 47.0521 217.072C46.8825 217.873 46.4625 218.609 45.8451 219.187C45.2277 219.764 44.4408 220.158 43.5838 220.318C42.7269 220.478 41.8384 220.396 41.0309 220.084C40.2235 219.772 39.5332 219.243 39.0476 218.564C38.5619 217.886 38.3027 217.087 38.3027 216.271C38.3047 215.178 38.7696 214.13 39.5958 213.357C40.4221 212.584 41.5424 212.148 42.7118 212.144V212.144Z" fill="#979797"/>
</g>
<g style="mix-blend-mode:multiply">
<path fill-rule="evenodd" clip-rule="evenodd" d="M271.143 74.8359L359.552 74.9914C360.595 74.983 361.617 75.2675 362.486 75.808C363.354 76.3485 364.029 77.1201 364.422 78.023L372.439 95.895C373.15 97.4921 374.466 98.962 373.452 100.382C372.978 101.069 372.324 101.632 371.553 102.018C370.782 102.403 369.918 102.599 369.043 102.587H338.558C337.852 102.597 337.152 102.471 336.501 102.215C335.85 101.96 335.263 101.581 334.776 101.103L322.494 89.3582C322.007 88.8814 321.42 88.5035 320.769 88.2481C320.119 87.9928 319.419 87.8655 318.713 87.8742H271.62C270.434 87.8759 269.282 87.5022 268.353 86.8141V77.4506C268.356 76.7595 268.652 76.0977 269.174 75.6083C269.696 75.119 270.404 74.8415 271.143 74.8359V74.8359Z" fill="#C6D7D7"/>
</g>
<rect x="280.811" y="90.7629" width="39.6341" height="11.9002" rx="1" fill="#00DEDE"/>
<rect x="285.057" y="88.1184" width="32.5566" height="2.64449" fill="#00B39F"/>
</svg>
