<svg width="19" height="21" viewBox="0 0 19 21" fill="none" xmlns="http://www.w3.org/2000/svg">
<path d="M6.96664 3.69142H7.59997V5.57814C7.59997 5.91791 7.88354 6.19337 8.23331 6.19337H10.7667C11.1164 6.19337 11.4 5.91791 11.4 5.57814V3.69142H12.0333C12.2895 3.69142 12.5204 3.54151 12.6184 3.31162C12.7164 3.08173 12.6623 2.81709 12.4811 2.64114L9.94779 0.180202C9.70049 -0.0600673 9.29947 -0.0600673 9.05213 0.180202L6.51879 2.64114C6.33765 2.81709 6.28348 3.08173 6.38148 3.31162C6.47956 3.54151 6.71047 3.69142 6.96664 3.69142ZM9.49998 1.48532L10.5444 2.49988C10.3043 2.58732 10.1333 2.81238 10.1333 3.07619V4.96291H8.86664V3.07619C8.86664 2.81238 8.69569 2.58732 8.45557 2.49988L9.49998 1.48532ZM18.8936 11.3892L16.3603 7.69779C16.2428 7.52667 16.0451 7.42384 15.8333 7.42384H3.16663C2.95484 7.42384 2.75715 7.52667 2.63969 7.69779L0.106348 11.3892C-0.0231904 11.578 -0.035266 11.8207 0.0749344 12.0207C0.185093 12.2208 0.399709 12.3457 0.633283 12.3457H2.53329V20.3848C2.53329 20.7245 2.81686 21 3.16663 21H15.8333C16.1831 21 16.4667 20.7245 16.4667 20.3848V12.3457H18.3667C18.6003 12.3457 18.8149 12.2208 18.9251 12.0208C19.0353 11.8207 19.0232 11.578 18.8936 11.3892ZM15.2 19.7695H3.79996V12.3457H15.2V19.7695ZM1.81665 11.1152L3.50554 8.65431H15.4944L17.1833 11.1152H1.81665ZM5.69997 18.5391H6.96664C7.31641 18.5391 7.59997 18.2636 7.59997 17.9238C7.59997 17.5841 7.31641 17.3086 6.96664 17.3086H5.69997C5.3502 17.3086 5.06663 17.5841 5.06663 17.9238C5.06663 18.2636 5.3502 18.5391 5.69997 18.5391Z" fill="#00DEDE"/>
</svg>
