<svg width="58" height="70" viewBox="0 0 58 70" fill="none" xmlns="http://www.w3.org/2000/svg">
<path d="M28.872 22.3179C33.3605 22.3179 36.9991 18.6793 36.9991 14.1908C36.9991 9.70235 33.3605 6.06372 28.872 6.06372C24.3835 6.06372 20.7449 9.70235 20.7449 14.1908C20.7449 18.6793 24.3835 22.3179 28.872 22.3179Z" fill="#F9F5F3"/>
<path d="M49.8589 17.6366V21.6371C49.8589 22.4025 49.6799 23.1583 49.3386 23.8439L45.8997 30.7215C45.5583 31.4071 45.3793 32.1628 45.3793 32.9283V40.8618C45.3793 41.8392 45.6698 42.7946 46.2136 43.6069C47.4525 45.4598 47.3094 47.924 45.8336 49.5939C45.634 49.8197 45.4276 50.0399 45.2142 50.2547C43.079 52.405 40.1013 54.174 36.0746 54.2112V49.8473C36.0746 47.8195 35.2528 45.9844 33.923 44.6546C32.5945 43.3261 30.7581 42.5042 28.7302 42.5042C24.6746 42.5042 21.3872 45.7916 21.3872 49.8473V54.2057C17.5037 54.0914 14.6142 52.3555 12.5285 50.2548C12.3262 50.0511 12.1307 49.8432 11.9406 49.6299C10.4484 47.9518 10.2805 45.4751 11.5303 43.6085V43.6072C12.0741 42.7949 12.3646 41.8395 12.3646 40.8621V32.9286C12.3646 32.1631 12.1856 31.4075 11.8442 30.7218L8.40536 23.8442C8.06397 23.1587 7.88501 22.4029 7.88501 21.6374V17.6369C7.88501 15.7329 9.42679 14.1912 11.3307 14.1912H20.7442C20.7442 18.679 24.3827 22.3188 28.8719 22.3188C33.3597 22.3188 36.9982 18.679 36.9982 14.1912H46.413C48.3171 14.1909 49.8589 15.7327 49.8589 17.6366Z" fill="#00DEDE"/>
<path d="M36.0739 58.2922H21.3872V49.8475C21.3872 45.7918 24.6749 42.5042 28.7305 42.5042C32.7861 42.5042 36.0738 45.7918 36.0738 49.8475V58.2922H36.0739Z" fill="#E0E7EF"/>
<path d="M28.8718 68.6328C26.414 68.6328 24.4216 66.6404 24.4216 64.1826V58.2921H33.3219V64.1826C33.3219 66.6404 31.3295 68.6328 28.8718 68.6328Z" fill="#868EAF"/>
<path d="M23.0644 38.8384C22.4718 43.2726 21.9854 46.8663 21.9446 47.0195C21.9433 47.025 21.9433 47.0306 21.9446 47.0361C23.0486 44.375 25.6698 42.5041 28.7301 42.5041C30.7579 42.5041 32.5943 43.3259 33.9228 44.6544C34.596 45.3276 35.1384 46.1288 35.5101 47.0195C35.4013 46.6107 32.1181 21.7003 32.1181 21.7003L32.0672 21.6659C31.087 22.0857 30.0063 22.3184 28.872 22.3184C27.6703 22.3184 26.5289 22.0582 25.5034 21.5887L25.3369 21.7003C25.3369 21.7003 25.0576 23.8199 24.6592 26.832L23.0644 38.8384Z" fill="#9AFFFF"/>
<path d="M11.4456 6.94066H4.97302C3.43397 6.94066 2.18628 5.69297 2.18628 4.15393C2.18628 2.61488 3.43397 1.36719 4.97302 1.36719H11.4456C12.9846 1.36719 14.2323 2.61488 14.2323 4.15393C14.2323 5.69297 12.9846 6.94066 11.4456 6.94066Z" fill="#868EAF"/>
<path d="M53.0261 6.94066H46.5536C45.0145 6.94066 43.7668 5.69297 43.7668 4.15393C43.7668 2.61488 45.0145 1.36719 46.5536 1.36719H53.0261C54.5652 1.36719 55.8129 2.61488 55.8129 4.15393C55.8129 5.69297 54.5652 6.94066 53.0261 6.94066Z" fill="#868EAF"/>
<path d="M53.0264 0H46.5537C44.7809 0 43.2647 1.11672 42.6695 2.68338H42.0849C40.1725 2.68338 38.3886 3.62756 37.3134 5.20885L35.6904 7.59432C33.9633 5.80945 31.5457 4.6967 28.8717 4.6967C25.9849 4.6967 23.3967 5.99348 21.6539 8.03332L19.5288 5.14582C18.5309 3.7893 17.0021 2.91443 15.3456 2.72357C14.7613 1.13559 13.2336 0 11.4456 0H4.97302C2.68257 0 0.819092 1.86348 0.819092 4.15393C0.819092 6.44438 2.68257 8.30785 4.97302 8.30785H11.4456C13.2657 8.30785 14.8151 7.13043 15.3751 5.49773C16.1491 5.67014 16.8488 6.11707 17.3262 6.76635L20.1067 10.5444C19.8062 11.2638 19.5925 12.028 19.4772 12.8237H11.3307C8.67686 12.8237 6.5178 14.9827 6.5178 17.6366V21.6371C6.5178 22.6077 6.74735 23.5815 7.18253 24.4552L10.6203 31.3309C10.867 31.8263 10.9974 32.3786 10.9974 32.9283V40.8618C10.9974 41.5708 10.7889 42.2569 10.3943 42.8463C10.385 42.8604 10.3759 42.8743 10.3671 42.8887C8.80005 45.2687 9.02413 48.4073 10.9196 50.539C11.1254 50.77 11.3403 50.9986 11.5582 51.2181C13.9861 53.6636 16.8276 55.091 20.02 55.4736V58.2922C20.02 59.0472 20.6321 59.6594 21.3872 59.6594H23.0543V64.1828C23.0543 67.3904 25.664 70.0001 28.8717 70.0001C32.0793 70.0001 34.689 67.3904 34.689 64.1828V59.6594H36.0739C36.8289 59.6594 37.4411 59.0472 37.4411 58.2922V55.5048C40.747 55.1746 43.6831 53.7369 46.1841 51.2183C46.416 50.9846 46.6427 50.7428 46.858 50.4994C48.7381 48.3721 48.9403 45.2253 47.3497 42.8463C46.9551 42.257 46.7466 41.5708 46.7466 40.8618V32.9283C46.7466 32.3786 46.8769 31.8262 47.1226 31.3329L50.5623 24.4532C50.9966 23.5813 51.2261 22.6074 51.2261 21.6371V17.6366C51.2261 14.9827 49.067 12.8237 46.4132 12.8237H38.2662C38.1201 11.8151 37.8145 10.8578 37.3764 9.97719L39.5745 6.74666C40.1404 5.91459 41.0788 5.41775 42.085 5.41775H42.5971C43.1331 7.09201 44.7039 8.30785 46.5537 8.30785H53.0264C55.3168 8.30785 57.1803 6.44438 57.1803 4.15393C57.1803 1.86348 55.3168 0 53.0264 0V0ZM11.4456 5.57348H4.97302C4.1903 5.57348 3.55347 4.93678 3.55347 4.15393C3.55347 3.37107 4.1903 2.73438 4.97302 2.73438H11.4456C12.2283 2.73438 12.8651 3.37107 12.8651 4.15393C12.8651 4.93678 12.2283 5.57348 11.4456 5.57348ZM28.8717 7.43107C32.5968 7.43107 35.6275 10.4598 35.6315 14.1839C35.6185 17.8661 32.564 20.9508 28.8717 20.9508C25.1885 20.9508 22.1119 17.8712 22.1119 14.191C22.1118 10.4635 25.1444 7.43107 28.8717 7.43107ZM13.4985 49.2912C13.3153 49.1066 13.1346 48.9145 12.9623 48.7211C11.8841 47.5087 11.7625 45.7189 12.6665 44.3688C12.6759 44.3548 12.6849 44.3408 12.6938 44.3264C13.373 43.2946 13.7319 42.0976 13.7319 40.8617V32.9282C13.7319 31.9577 13.5024 30.9839 13.0672 30.1101L9.62925 23.2343C9.38261 22.7391 9.25231 22.1867 9.25231 21.637V17.6364C9.25231 16.4903 10.1847 15.5579 11.3308 15.5579H19.4753C19.8737 18.3124 21.5209 20.7996 23.8834 22.2644C23.7687 23.1343 23.5612 24.7067 23.3037 26.6528C23.2047 27.4014 23.7312 28.0885 24.4799 28.1876C25.2283 28.2872 25.9156 27.7599 26.0146 27.0114C26.2087 25.5438 26.3746 24.2881 26.4935 23.386C27.9486 23.7621 29.5039 23.7847 30.9705 23.4531C32.1271 32.2228 32.9757 38.606 33.5111 42.5622C32.1043 41.6351 30.4333 41.1407 28.7498 41.1372C27.0527 41.1327 25.3638 41.631 23.9447 42.563C24.0751 41.5952 24.2316 40.4284 24.4199 39.0194C24.5198 38.271 23.9941 37.5832 23.2458 37.4832C22.498 37.3844 21.8095 37.9088 21.7096 38.6574C20.8863 44.819 20.6678 46.3615 20.6154 46.6889C20.2327 47.6688 20.0203 48.7333 20.0203 49.8471V49.8474V52.7134C17.5796 52.3446 15.391 51.1973 13.4985 49.2912ZM31.9546 64.1826C31.9546 65.8826 30.5717 67.2656 28.8717 67.2656C27.1718 67.2656 25.7887 65.8826 25.7887 64.1826V59.6593H31.9546V64.1826ZM34.7067 56.9249H22.7544V49.8474C22.7544 46.5955 25.4755 43.8713 28.7302 43.8713C31.9829 43.8713 34.7067 46.5944 34.7067 49.8474V56.9249ZM48.4917 17.6366V21.6371C48.4917 22.1867 48.3613 22.7391 48.1156 23.2325L44.6759 30.1122C44.2416 30.984 44.0122 31.9577 44.0122 32.9283V40.8618C44.0122 42.1144 44.3806 43.3266 45.0771 44.3669C45.9778 45.7138 45.8675 47.491 44.8093 48.6884C44.6292 48.8921 44.4389 49.095 44.244 49.2913C42.279 51.2702 39.9961 52.4305 37.4418 52.7521V49.8471C37.4418 48.7308 37.231 47.6473 36.8319 46.6394C36.6054 45.1772 34.8348 31.8429 33.5925 22.4237C36.0935 20.9832 37.8528 18.4185 38.2673 15.5578H46.4132C47.5593 15.558 48.4917 16.4905 48.4917 17.6366ZM53.0264 5.57348H46.5537C45.7708 5.57348 45.1341 4.93678 45.1341 4.15393C45.1341 3.37107 45.771 2.73438 46.5537 2.73438H53.0264C53.8091 2.73438 54.4459 3.37107 54.4459 4.15393C54.4459 4.93678 53.8091 5.57348 53.0264 5.57348Z" fill="#39374D"/>
<path d="M23.9272 34.1962C24.6823 34.1962 25.2944 33.5841 25.2944 32.829C25.2944 32.0739 24.6823 31.4618 23.9272 31.4618C23.1722 31.4618 22.5601 32.0739 22.5601 32.829C22.5601 33.5841 23.1722 34.1962 23.9272 34.1962Z" fill="black"/>
</svg>
