<svg width="84" height="34" viewBox="0 0 84 34" fill="none" xmlns="http://www.w3.org/2000/svg">
<path d="M61.5773 23.9788L61.0945 25.8727L60.9581 26.4092H13.5609V23.9788H61.5773Z" fill="black"/>
<path d="M67.6836 0.000244141L67.6774 0.0236988L67.2212 1.81407L66.5824 4.32371L66.1262 6.11408L65.7266 7.68065L65.5849 8.24161L65.2704 9.472L64.5483 12.309L64.3295 13.1671L64.2152 13.6147L64.0921 14.1004L63.3692 16.9374L62.9138 18.7278L62.7464 19.3826L62.7047 19.5477L62.3052 21.1153L61.8489 22.9066L61.576 23.9787L61.0932 25.8726L60.9568 26.4092H58.6693L58.8057 25.8726L59.2886 23.9787L59.5614 22.9066L60.0177 21.1153L60.4173 19.5477L60.6263 18.7278L61.0728 16.9736L61.0826 16.9374L61.9278 13.6147L62.042 13.1671L62.9829 9.472L63.2974 8.24161L63.4392 7.68065L63.8387 6.11408L64.295 4.32371L64.9337 1.81407L65.39 0.0236988L65.3953 0.000244141H67.6836Z" fill="black"/>
<path d="M7.52234 4.70754C7.07621 4.70283 6.63583 4.81875 6.23969 5.04516C5.84356 5.27157 5.50374 5.60158 5.24993 6.00633L1.28718 12.5091C0.689555 13.4819 0.369022 14.6294 0.366699 15.8045L0.366699 23.9081C0.366699 25.2069 1.374 26.2643 2.62493 26.277L5.56001 26.3073L13.5599 26.3904L15.012 26.405H15.4337C15.8332 26.405 16.1761 26.3972 16.4702 26.3816L16.984 24.5247L17.1364 23.9755L18.367 19.523L22.4617 4.70754H7.52234ZM2.63556 15.0842C2.17399 15.1927 1.82228 14.6611 2.08274 14.2526L6.95446 6.64547C7.00533 6.56893 7.07211 6.50697 7.14919 6.4648C7.22627 6.42263 7.31139 6.40147 7.39742 6.40311L15.105 6.46565C15.239 6.46197 15.369 6.51694 15.4664 6.61856C15.5638 6.72018 15.6209 6.8602 15.625 7.00804V11.5778C15.6225 11.7043 15.5806 11.8259 15.5064 11.9224C15.4322 12.0188 15.3302 12.0842 15.2175 12.1075L2.63556 15.0842Z" fill="black"/>
<path d="M17.3093 32.9257C20.545 32.9257 23.168 30.0322 23.168 26.463C23.168 22.8937 20.545 20.0002 17.3093 20.0002C14.0737 20.0002 11.4507 22.8937 11.4507 26.463C11.4507 30.0322 14.0737 32.9257 17.3093 32.9257Z" fill="black"/>
<path d="M55.4413 26.5373C55.4413 26.7181 55.4342 26.8959 55.4209 27.0738C55.3356 28.2025 54.9828 29.2866 54.3981 30.2176C53.8133 31.1486 53.0171 31.8938 52.0891 32.3784C51.1611 32.8631 50.1339 33.0703 49.1105 32.9792C48.0871 32.8881 47.1033 32.502 46.2578 31.8595C45.6303 31.3809 45.0929 30.7725 44.6755 30.0682C44.0531 29.019 43.7224 27.7921 43.724 26.5382C43.724 26.4952 43.724 26.4532 43.724 26.4102C43.7367 25.5733 43.898 24.7472 44.1989 23.9788H54.9629C55.1968 24.582 55.3462 25.2209 55.4059 25.8737C55.4218 26.0496 55.4316 26.2284 55.4351 26.4102C55.4413 26.4522 55.4413 26.4943 55.4413 26.5373Z" fill="black"/>
<path d="M74.2151 4.32397V6.11434H63.8391L64.2954 4.32397H74.2151Z" fill="black"/>
<path d="M71.4741 7.68091V9.47225H62.9825L63.2971 8.24186L63.4388 7.68091H71.4741Z" fill="black"/>
<path d="M77.0058 21.1155V22.9068H59.5619L60.0181 21.1155H77.0058Z" fill="black"/>
<path d="M80.1961 12.3091V14.1004H62.7531L63.2093 12.3091H80.1961Z" fill="black"/>
<path d="M71.4686 16.9374V18.7278H60.6266L61.0731 16.9735L61.0828 16.9374H71.4686Z" fill="black"/>
<path d="M65.3902 0.0245361H67.6777H81.5114V1.8149H67.2214H64.934L65.3902 0.0245361Z" fill="black"/>
<path d="M59.2606 27.0747V28.8651H49.9478L50.1914 27.0747H59.2606Z" fill="black"/>
<path d="M56.7245 30.0675V31.8598H46.2582C45.6307 31.3812 45.0933 30.7729 44.6759 30.0685L56.7245 30.0675Z" fill="black"/>
<path d="M62.7464 16.9734V19.5475H62.7048L62.3052 21.1151H62.7464V22.9064H61.849L61.5761 23.9785L61.0933 25.8725H45.0376V23.9785H59.2886L59.5615 22.9064L60.0178 21.1151L60.4173 19.5475L60.6264 18.7276L61.0729 16.9734H62.7464Z" fill="black"/>
<path d="M60.826 27.0747H59.8615V28.8661H60.826V27.0747Z" fill="black"/>
<path d="M58.6697 30.0675H57.1379V31.8589H58.6697V30.0675Z" fill="black"/>
<path d="M78.3953 4.32397H75.0917V6.11532H78.3953V4.32397Z" fill="black"/>
<path d="M73.5203 7.68091H72.2322V9.47225H73.5203V7.68091Z" fill="black"/>
<path d="M83.6645 12.3091H81.0908V14.1004H83.6645V12.3091Z" fill="black"/>
<path d="M74.8058 16.9374H72.2322V18.7287H74.8058V16.9374Z" fill="black"/>
<path d="M79.4901 21.1155H77.6226V22.9068H79.4901V21.1155Z" fill="black"/>
<path d="M84.0011 0.0245361H82.3772V1.81588H84.0011V0.0245361Z" fill="black"/>
<path d="M32.0906 19.5801C30.6907 19.5983 29.4742 19.3609 28.441 18.8677C27.4078 18.3744 26.6119 17.6714 26.0533 16.7587C25.4946 15.8459 25.2075 14.7895 25.1918 13.5896C25.1711 12.0031 25.5124 10.5719 26.2158 9.29591C26.9324 8.00644 27.9391 6.98653 29.2361 6.2362C30.5464 5.48569 32.0482 5.09937 33.7413 5.07726C35.1412 5.05897 36.3578 5.29644 37.391 5.78965C38.4242 6.28287 39.2201 6.98586 39.7787 7.89865C40.3373 8.81143 40.6245 9.86777 40.6402 11.0677C40.6609 12.6542 40.313 14.0922 39.5964 15.3817C38.893 16.6576 37.8862 17.6709 36.5759 18.4214C35.2789 19.1717 33.7838 19.5579 32.0906 19.5801ZM32.3345 16.8166C33.3611 16.8032 34.2578 16.5448 35.0247 16.0414C35.7915 15.538 36.3761 14.8703 36.7786 14.0384C37.1811 13.2064 37.3759 12.2904 37.3628 11.2905C37.3489 10.2239 37.0045 9.38167 36.3297 8.76377C35.6547 8.13253 34.7106 7.82483 33.4974 7.84068C32.4708 7.85409 31.5741 8.11249 30.8073 8.61588C30.0405 9.11927 29.4558 9.78697 29.0533 10.619C28.6508 11.451 28.4561 12.3669 28.4692 13.3668C28.4831 14.4334 28.8275 15.2823 29.5025 15.9135C30.1773 16.5315 31.1213 16.8325 32.3345 16.8166ZM44.3186 5.17912L50.1781 5.10259C51.6046 5.08395 52.8343 5.30791 53.8672 5.77446C54.9132 6.22751 55.7152 6.89042 56.2733 7.7632C56.8448 8.63582 57.1383 9.6654 57.1538 10.852C57.175 12.4785 56.8271 13.9165 56.11 15.166C55.3928 16.4021 54.3786 17.3688 53.0676 18.066C51.7698 18.7496 50.2609 19.1027 48.5411 19.1252L41.7017 19.2145L44.3186 5.17912ZM48.6063 16.4641C49.6996 16.4498 50.6432 16.2108 51.4372 15.747C52.2444 15.2698 52.8561 14.6284 53.2722 13.8229C53.6882 13.0041 53.8896 12.088 53.8764 11.0748C53.8626 10.0215 53.512 9.20606 52.8244 8.62832C52.1366 8.03726 51.1461 7.75017 49.8528 7.76706L47.0731 7.80337L45.4466 16.5054L48.6063 16.4641Z" fill="white"/>
</svg>
