<svg width="1280" height="652" viewBox="0 0 1280 652" fill="none" xmlns="http://www.w3.org/2000/svg">
<path d="M279.424 288.345H198.684V575.675H279.424V288.345Z" fill="#F5F5F5"/>
<path d="M279.423 288.345H239.053V574.887H279.423V288.345Z" fill="#EBEBEB"/>
<path d="M236.414 260.135H207.901V288.345H236.414V260.135Z" fill="#F5F5F5"/>
<path d="M236.408 260.135H229.615V288.345H236.408V260.135Z" fill="#EBEBEB"/>
<path d="M191.953 288.345V286.698H281.786V288.345" fill="#E0E0E0"/>
<path d="M221.457 300.645H214.62V316.829H221.457V300.645Z" fill="#FAFAFA"/>
<path d="M239.054 323.177C239.054 323.345 230.018 323.486 218.869 323.486C207.721 323.486 198.684 323.345 198.684 323.177C198.684 323.008 207.721 322.867 218.869 322.867C230.018 322.867 239.054 323.008 239.054 323.177Z" fill="#E0E0E0"/>
<path d="M262.176 300.645H255.339V316.829H262.176V300.645Z" fill="#E0E0E0"/>
<path d="M279.773 323.177C279.773 323.345 270.736 323.486 259.588 323.486C248.439 323.486 239.403 323.345 239.403 323.177C239.403 323.008 248.439 322.867 259.588 322.867C270.736 322.867 279.773 323.008 279.773 323.177Z" fill="#E0E0E0"/>
<path d="M262.176 332.775H255.339V348.959H262.176V332.775Z" fill="#E0E0E0"/>
<path d="M279.773 355.307C279.773 355.476 270.736 355.616 259.588 355.616C248.439 355.616 239.403 355.476 239.403 355.307C239.403 355.138 248.439 354.997 259.588 354.997C270.736 354.997 279.773 355.138 279.773 355.307Z" fill="#E0E0E0"/>
<path d="M262.176 365.868H255.339V382.053H262.176V365.868Z" fill="#E0E0E0"/>
<path d="M279.773 388.4C279.773 388.576 270.736 388.71 259.588 388.71C248.439 388.71 239.403 388.576 239.403 388.4C239.403 388.224 248.439 388.091 259.588 388.091C270.736 388.091 279.773 388.231 279.773 388.4Z" fill="#E0E0E0"/>
<path d="M262.176 398.969H255.339V415.154H262.176V398.969Z" fill="#E0E0E0"/>
<path d="M279.773 421.521C279.773 421.69 270.736 421.831 259.588 421.831C248.439 421.831 239.403 421.69 239.403 421.521C239.403 421.353 248.439 421.212 259.588 421.212C270.736 421.212 279.773 421.324 279.773 421.521Z" fill="#E0E0E0"/>
<path d="M262.176 431.113H255.339V447.297H262.176V431.113Z" fill="#E0E0E0"/>
<path d="M279.773 453.651C279.773 453.82 270.736 453.961 259.588 453.961C248.439 453.961 239.403 453.82 239.403 453.651C239.403 453.482 248.439 453.341 259.588 453.341C270.736 453.341 279.773 453.475 279.773 453.651Z" fill="#E0E0E0"/>
<path d="M262.176 463.397H255.339V479.582H262.176V463.397Z" fill="#E0E0E0"/>
<path d="M262.176 496.097H255.339V512.281H262.176V496.097Z" fill="#E0E0E0"/>
<path d="M279.773 485.929C279.773 486.098 270.736 486.238 259.588 486.238C248.439 486.238 239.403 486.098 239.403 485.929C239.403 485.76 248.439 485.619 259.588 485.619C270.736 485.619 279.773 485.76 279.773 485.929Z" fill="#E0E0E0"/>
<path d="M221.457 333.26H214.62V349.445H221.457V333.26Z" fill="#FAFAFA"/>
<path d="M239.054 355.799C239.054 355.968 230.018 356.101 218.869 356.101C207.721 356.101 198.684 355.968 198.684 355.799C198.684 355.63 207.721 355.489 218.869 355.489C230.018 355.489 239.054 355.623 239.054 355.799Z" fill="#E0E0E0"/>
<path d="M221.457 365.883H214.62V382.067H221.457V365.883Z" fill="#FAFAFA"/>
<path d="M239.054 388.449C239.054 388.618 230.018 388.759 218.869 388.759C207.721 388.759 198.684 388.618 198.684 388.449C198.684 388.28 207.721 388.14 218.869 388.14C230.018 388.14 239.054 388.245 239.054 388.449Z" fill="#E0E0E0"/>
<path d="M221.457 398.497H214.62V414.682H221.457V398.497Z" fill="#FAFAFA"/>
<path d="M239.054 421.029C239.054 421.205 230.018 421.339 218.869 421.339C207.721 421.339 198.684 421.205 198.684 421.029C198.684 420.853 207.721 420.72 218.869 420.72C230.018 420.72 239.054 420.86 239.054 421.029Z" fill="#E0E0E0"/>
<path d="M221.457 431.113H214.62V447.297H221.457V431.113Z" fill="#FAFAFA"/>
<path d="M239.054 453.651C239.054 453.82 230.018 453.961 218.869 453.961C207.721 453.961 198.684 453.82 198.684 453.651C198.684 453.482 207.721 453.341 218.869 453.341C230.018 453.341 239.054 453.475 239.054 453.651Z" fill="#E0E0E0"/>
<path d="M221.457 463.735H214.62V479.92H221.457V463.735Z" fill="#FAFAFA"/>
<path d="M239.054 486.26C239.054 486.428 230.018 486.569 218.869 486.569C207.721 486.569 198.684 486.428 198.684 486.26C198.684 486.091 207.721 485.95 218.869 485.95C230.018 485.95 239.054 486.098 239.054 486.26Z" fill="#E0E0E0"/>
<path d="M221.457 496.35H214.62V512.535H221.457V496.35Z" fill="#FAFAFA"/>
<path d="M598.022 222.812H481.637V636.992H598.022V222.812Z" fill="#F5F5F5"/>
<path d="M598.027 222.812H539.835V635.853H598.027V222.812Z" fill="#EBEBEB"/>
<path d="M536.025 182.154H494.928V222.812H536.025V182.154Z" fill="#F5F5F5"/>
<path d="M536.024 182.154H526.229V222.812H536.024V182.154Z" fill="#EBEBEB"/>
<path d="M471.935 222.812V220.441H601.43V222.812" fill="#E0E0E0"/>
<path d="M514.461 240.545H504.609V263.871H514.461V240.545Z" fill="#FAFAFA"/>
<path d="M539.835 273.048C539.835 273.294 526.807 273.498 510.739 273.498C494.671 273.498 481.637 273.294 481.637 273.048C481.637 272.801 494.665 272.604 510.739 272.604C526.813 272.604 539.835 272.78 539.835 273.048Z" fill="#E0E0E0"/>
<path d="M573.161 240.545H563.31V263.871H573.161V240.545Z" fill="#E0E0E0"/>
<path d="M598.528 273.048C598.528 273.294 585.506 273.498 569.438 273.498C553.371 273.498 540.336 273.294 540.336 273.048C540.336 272.801 553.364 272.604 569.438 272.604C585.512 272.604 598.528 272.78 598.528 273.048Z" fill="#E0E0E0"/>
<path d="M573.161 286.861H563.31V310.187H573.161V286.861Z" fill="#E0E0E0"/>
<path d="M598.528 319.335C598.528 319.581 585.506 319.785 569.438 319.785C553.371 319.785 540.336 319.581 540.336 319.335C540.336 319.088 553.364 318.891 569.438 318.891C585.512 318.891 598.528 319.095 598.528 319.335Z" fill="#E0E0E0"/>
<path d="M573.161 334.569H563.31V357.896H573.161V334.569Z" fill="#E0E0E0"/>
<path d="M598.528 367.044C598.528 367.291 585.506 367.495 569.438 367.495C553.371 367.495 540.336 367.291 540.336 367.044C540.336 366.798 553.364 366.601 569.438 366.601C585.512 366.601 598.528 366.798 598.528 367.044Z" fill="#E0E0E0"/>
<path d="M573.161 382.271H563.31V405.598H573.161V382.271Z" fill="#E0E0E0"/>
<path d="M598.528 414.753C598.528 414.999 585.506 415.196 569.438 415.196C553.371 415.196 540.336 414.999 540.336 414.753C540.336 414.506 553.364 414.309 569.438 414.309C585.512 414.309 598.528 414.485 598.528 414.753Z" fill="#E0E0E0"/>
<path d="M573.161 428.615H563.31V451.942H573.161V428.615Z" fill="#E0E0E0"/>
<path d="M598.528 461.097C598.528 461.343 585.506 461.54 569.438 461.54C553.371 461.54 540.336 461.343 540.336 461.097C540.336 460.85 553.364 460.653 569.438 460.653C585.512 460.653 598.528 460.85 598.528 461.097Z" fill="#E0E0E0"/>
<path d="M573.161 475.149H563.31V498.475H573.161V475.149Z" fill="#E0E0E0"/>
<path d="M573.161 522.287H563.31V545.614H573.161V522.287Z" fill="#E0E0E0"/>
<path d="M598.528 507.63C598.528 507.876 585.506 508.073 569.438 508.073C553.371 508.073 540.336 507.876 540.336 507.63C540.336 507.384 553.364 507.18 569.438 507.18C585.512 507.18 598.528 507.37 598.528 507.63Z" fill="#E0E0E0"/>
<path d="M514.461 287.564H504.609V310.89H514.461V287.564Z" fill="#FAFAFA"/>
<path d="M539.835 320.046C539.835 320.292 526.807 320.489 510.739 320.489C494.671 320.489 481.637 320.292 481.637 320.046C481.637 319.8 494.665 319.603 510.739 319.603C526.813 319.603 539.835 319.8 539.835 320.046Z" fill="#E0E0E0"/>
<path d="M514.461 334.583H504.609V357.91H514.461V334.583Z" fill="#FAFAFA"/>
<path d="M539.835 367.065C539.835 367.311 526.807 367.508 510.739 367.508C494.671 367.508 481.637 367.311 481.637 367.065C481.637 366.818 494.665 366.614 510.739 366.614C526.813 366.614 539.835 366.818 539.835 367.065Z" fill="#E0E0E0"/>
<path d="M514.461 381.603H504.609V404.93H514.461V381.603Z" fill="#FAFAFA"/>
<path d="M539.835 414.077C539.835 414.323 526.807 414.527 510.739 414.527C494.671 414.527 481.637 414.323 481.637 414.077C481.637 413.831 494.665 413.634 510.739 413.634C526.813 413.634 539.835 413.831 539.835 414.077Z" fill="#E0E0E0"/>
<path d="M514.461 428.615H504.609V451.942H514.461V428.615Z" fill="#FAFAFA"/>
<path d="M539.835 461.097C539.835 461.343 526.807 461.54 510.739 461.54C494.671 461.54 481.637 461.343 481.637 461.097C481.637 460.85 494.665 460.653 510.739 460.653C526.813 460.653 539.835 460.85 539.835 461.097Z" fill="#E0E0E0"/>
<path d="M514.461 475.634H504.609V498.961H514.461V475.634Z" fill="#FAFAFA"/>
<path d="M539.835 508.115C539.835 508.361 526.807 508.558 510.739 508.558C494.671 508.558 481.637 508.361 481.637 508.115C481.637 507.869 494.665 507.672 510.739 507.672C526.813 507.672 539.835 507.869 539.835 508.115Z" fill="#E0E0E0"/>
<path d="M514.461 522.653H504.609V545.98H514.461V522.653Z" fill="#FAFAFA"/>
<path d="M639.1 410.699H575.512V636.979H639.1V410.699Z" fill="#F5F5F5"/>
<path d="M639.094 410.699H607.303V636.36H639.094V410.699Z" fill="#EBEBEB"/>
<path d="M605.221 388.485H582.768V410.7H605.221V388.485Z" fill="#F5F5F5"/>
<path d="M605.222 388.485H599.87V410.7H605.222V388.485Z" fill="#EBEBEB"/>
<path d="M570.209 410.699V409.398H640.96V410.699" fill="#E0E0E0"/>
<path d="M593.447 420.382H588.063V433.126H593.447V420.382Z" fill="#FAFAFA"/>
<path d="M607.303 438.129C607.303 438.263 600.184 438.375 591.41 438.375C582.637 438.375 575.512 438.263 575.512 438.129C575.512 437.995 582.624 437.89 591.41 437.89C600.196 437.89 607.303 437.995 607.303 438.129Z" fill="#E0E0E0"/>
<path d="M625.513 420.382H620.13V433.126H625.513V420.382Z" fill="#E0E0E0"/>
<path d="M639.375 438.129C639.375 438.263 632.256 438.375 623.477 438.375C614.697 438.375 607.578 438.263 607.578 438.129C607.578 437.995 614.697 437.89 623.477 437.89C632.256 437.89 639.375 437.995 639.375 438.129Z" fill="#E0E0E0"/>
<path d="M625.513 445.686H620.13V458.43H625.513V445.686Z" fill="#E0E0E0"/>
<path d="M639.375 463.432C639.375 463.566 632.256 463.671 623.477 463.671C614.697 463.671 607.578 463.566 607.578 463.432C607.578 463.298 614.697 463.186 623.477 463.186C632.256 463.186 639.375 463.298 639.375 463.432Z" fill="#E0E0E0"/>
<path d="M625.513 471.75H620.13V484.493H625.513V471.75Z" fill="#E0E0E0"/>
<path d="M639.375 489.497C639.375 489.63 632.256 489.736 623.477 489.736C614.697 489.736 607.578 489.63 607.578 489.497C607.578 489.363 614.697 489.25 623.477 489.25C632.256 489.25 639.375 489.363 639.375 489.497Z" fill="#E0E0E0"/>
<path d="M625.513 497.814H620.13V510.557H625.513V497.814Z" fill="#E0E0E0"/>
<path d="M639.375 515.561C639.375 515.694 632.256 515.807 623.477 515.807C614.697 515.807 607.578 515.694 607.578 515.561C607.578 515.427 614.697 515.314 623.477 515.314C632.256 515.314 639.375 515.427 639.375 515.561Z" fill="#E0E0E0"/>
<path d="M625.513 523.131H620.13V535.875H625.513V523.131Z" fill="#E0E0E0"/>
<path d="M639.375 540.878C639.375 541.012 632.256 541.125 623.477 541.125C614.697 541.125 607.578 541.012 607.578 540.878C607.578 540.745 614.697 540.639 623.477 540.639C632.256 540.639 639.375 540.745 639.375 540.878Z" fill="#E0E0E0"/>
<path d="M625.513 548.556H620.13V561.299H625.513V548.556Z" fill="#E0E0E0"/>
<path d="M625.513 574.31H620.13V587.054H625.513V574.31Z" fill="#E0E0E0"/>
<path d="M639.375 566.302C639.375 566.436 632.256 566.542 623.477 566.542C614.697 566.542 607.578 566.436 607.578 566.302C607.578 566.169 614.722 566.056 623.496 566.056C632.269 566.056 639.375 566.169 639.375 566.302Z" fill="#E0E0E0"/>
<path d="M593.447 446.073H588.063V458.816H593.447V446.073Z" fill="#FAFAFA"/>
<path d="M607.303 463.819C607.303 463.953 600.184 464.059 591.41 464.059C582.637 464.059 575.512 463.953 575.512 463.819C575.512 463.686 582.624 463.573 591.41 463.573C600.196 463.573 607.303 463.686 607.303 463.819Z" fill="#E0E0E0"/>
<path d="M593.447 471.757H588.063V484.501H593.447V471.757Z" fill="#FAFAFA"/>
<path d="M607.303 489.504C607.303 489.637 600.184 489.75 591.41 489.75C582.637 489.75 575.512 489.637 575.512 489.504C575.512 489.37 582.624 489.264 591.41 489.264C600.196 489.264 607.303 489.37 607.303 489.504Z" fill="#E0E0E0"/>
<path d="M593.447 497.448H588.063V510.191H593.447V497.448Z" fill="#FAFAFA"/>
<path d="M607.303 515.195C607.303 515.328 600.184 515.434 591.41 515.434C582.637 515.434 575.512 515.328 575.512 515.195C575.512 515.061 582.624 514.948 591.41 514.948C600.196 514.948 607.303 515.061 607.303 515.195Z" fill="#E0E0E0"/>
<path d="M593.447 523.131H588.063V535.875H593.447V523.131Z" fill="#FAFAFA"/>
<path d="M607.303 540.878C607.303 541.012 600.184 541.125 591.41 541.125C582.637 541.125 575.512 541.012 575.512 540.878C575.512 540.745 582.624 540.639 591.41 540.639C600.196 540.639 607.303 540.745 607.303 540.878Z" fill="#E0E0E0"/>
<path d="M593.447 548.823H588.063V561.566H593.447V548.823Z" fill="#FAFAFA"/>
<path d="M607.303 566.569C607.303 566.703 600.184 566.809 591.41 566.809C582.637 566.809 575.512 566.703 575.512 566.569C575.512 566.436 582.624 566.323 591.41 566.323C600.196 566.323 607.303 566.429 607.303 566.569Z" fill="#E0E0E0"/>
<path d="M593.447 574.507H588.063V587.25H593.447V574.507Z" fill="#FAFAFA"/>
<path d="M1130.45 636.993H1246.83V222.812H1130.45V636.993Z" fill="#F5F5F5"/>
<path d="M1130.45 635.853H1188.64V222.812H1130.45V635.853Z" fill="#EBEBEB"/>
<path d="M1192.44 222.812H1233.54V182.154H1192.44V222.812Z" fill="#F5F5F5"/>
<path d="M1192.44 222.812H1202.24V182.154H1192.44V222.812Z" fill="#EBEBEB"/>
<path d="M1256.53 222.812V220.441H1127.04V222.812" fill="#E0E0E0"/>
<path d="M1214.01 263.879H1223.86V240.552H1214.01V263.879Z" fill="#FAFAFA"/>
<path d="M1188.64 273.048C1188.64 273.294 1201.67 273.498 1217.73 273.498C1233.8 273.498 1246.83 273.294 1246.83 273.048C1246.83 272.801 1233.81 272.604 1217.73 272.604C1201.66 272.604 1188.64 272.78 1188.64 273.048Z" fill="#E0E0E0"/>
<path d="M1155.31 263.879H1165.16V240.552H1155.31V263.879Z" fill="#E0E0E0"/>
<path d="M1129.94 273.048C1129.94 273.294 1142.97 273.498 1159.03 273.498C1175.1 273.498 1188.13 273.294 1188.13 273.048C1188.13 272.801 1175.11 272.604 1159.03 272.604C1142.96 272.604 1129.94 272.78 1129.94 273.048Z" fill="#E0E0E0"/>
<path d="M1155.31 310.18H1165.16V286.853H1155.31V310.18Z" fill="#E0E0E0"/>
<path d="M1129.94 319.335C1129.94 319.581 1142.97 319.785 1159.03 319.785C1175.1 319.785 1188.13 319.581 1188.13 319.335C1188.13 319.088 1175.11 318.891 1159.03 318.891C1142.96 318.891 1129.94 319.095 1129.94 319.335Z" fill="#E0E0E0"/>
<path d="M1155.31 357.889H1165.16V334.562H1155.31V357.889Z" fill="#E0E0E0"/>
<path d="M1129.94 367.044C1129.94 367.291 1142.97 367.495 1159.03 367.495C1175.1 367.495 1188.13 367.291 1188.13 367.044C1188.13 366.798 1175.11 366.601 1159.03 366.601C1142.96 366.601 1129.94 366.798 1129.94 367.044Z" fill="#E0E0E0"/>
<path d="M1155.31 405.604H1165.16V382.278H1155.31V405.604Z" fill="#E0E0E0"/>
<path d="M1129.94 414.753C1129.94 414.999 1142.97 415.196 1159.03 415.196C1175.1 415.196 1188.13 414.999 1188.13 414.753C1188.13 414.506 1175.11 414.309 1159.03 414.309C1142.96 414.309 1129.94 414.485 1129.94 414.753Z" fill="#E0E0E0"/>
<path d="M1155.31 451.942H1165.16V428.615H1155.31V451.942Z" fill="#E0E0E0"/>
<path d="M1129.94 461.097C1129.94 461.343 1142.97 461.54 1159.03 461.54C1175.1 461.54 1188.13 461.343 1188.13 461.097C1188.13 460.851 1175.11 460.654 1159.03 460.654C1142.96 460.654 1129.94 460.851 1129.94 461.097Z" fill="#E0E0E0"/>
<path d="M1155.31 498.468H1165.16V475.141H1155.31V498.468Z" fill="#E0E0E0"/>
<path d="M1155.31 545.614H1165.16V522.287H1155.31V545.614Z" fill="#E0E0E0"/>
<path d="M1129.94 507.63C1129.94 507.876 1142.97 508.073 1159.03 508.073C1175.1 508.073 1188.13 507.876 1188.13 507.63C1188.13 507.384 1175.11 507.18 1159.03 507.18C1142.96 507.18 1129.94 507.37 1129.94 507.63Z" fill="#E0E0E0"/>
<path d="M1214.01 310.891H1223.86V287.564H1214.01V310.891Z" fill="#FAFAFA"/>
<path d="M1188.64 320.046C1188.64 320.292 1201.67 320.489 1217.73 320.489C1233.8 320.489 1246.83 320.292 1246.83 320.046C1246.83 319.8 1233.81 319.603 1217.73 319.603C1201.66 319.603 1188.64 319.8 1188.64 320.046Z" fill="#E0E0E0"/>
<path d="M1214.01 357.903H1223.86V334.576H1214.01V357.903Z" fill="#FAFAFA"/>
<path d="M1188.64 367.065C1188.64 367.311 1201.67 367.508 1217.73 367.508C1233.8 367.508 1246.83 367.311 1246.83 367.065C1246.83 366.818 1233.81 366.614 1217.73 366.614C1201.66 366.614 1188.64 366.818 1188.64 367.065Z" fill="#E0E0E0"/>
<path d="M1214.01 404.922H1223.86V381.596H1214.01V404.922Z" fill="#FAFAFA"/>
<path d="M1188.64 414.077C1188.64 414.323 1201.67 414.527 1217.73 414.527C1233.8 414.527 1246.83 414.323 1246.83 414.077C1246.83 413.831 1233.81 413.634 1217.73 413.634C1201.66 413.634 1188.64 413.831 1188.64 414.077Z" fill="#E0E0E0"/>
<path d="M1214.01 451.942H1223.86V428.615H1214.01V451.942Z" fill="#FAFAFA"/>
<path d="M1188.64 461.097C1188.64 461.343 1201.67 461.54 1217.73 461.54C1233.8 461.54 1246.83 461.343 1246.83 461.097C1246.83 460.851 1233.81 460.654 1217.73 460.654C1201.66 460.654 1188.64 460.851 1188.64 461.097Z" fill="#E0E0E0"/>
<path d="M1214.01 498.961H1223.86V475.635H1214.01V498.961Z" fill="#FAFAFA"/>
<path d="M1188.64 508.115C1188.64 508.361 1201.67 508.558 1217.73 508.558C1233.8 508.558 1246.83 508.361 1246.83 508.115C1246.83 507.869 1233.81 507.672 1217.73 507.672C1201.66 507.672 1188.64 507.869 1188.64 508.115Z" fill="#E0E0E0"/>
<path d="M1214.01 545.973H1223.86V522.646H1214.01V545.973Z" fill="#FAFAFA"/>
<path d="M1089.37 636.972H1152.96V410.692H1089.37V636.972Z" fill="#F5F5F5"/>
<path d="M1089.37 636.352H1121.16V410.692H1089.37V636.352Z" fill="#EBEBEB"/>
<path d="M1123.24 410.692H1145.7V388.478H1123.24V410.692Z" fill="#F5F5F5"/>
<path d="M1123.24 410.692H1128.6V388.478H1123.24V410.692Z" fill="#EBEBEB"/>
<path d="M1158.26 410.699V409.398H1087.51V410.699" fill="#E0E0E0"/>
<path d="M1135.02 433.133H1140.4V420.389H1135.02V433.133Z" fill="#FAFAFA"/>
<path d="M1121.16 438.129C1121.16 438.263 1128.28 438.375 1137.06 438.375C1145.84 438.375 1152.96 438.263 1152.96 438.129C1152.96 437.995 1145.84 437.89 1137.06 437.89C1128.28 437.89 1121.16 437.995 1121.16 438.129Z" fill="#E0E0E0"/>
<path d="M1102.95 433.133H1108.34V420.389H1102.95V433.133Z" fill="#E0E0E0"/>
<path d="M1089.11 438.129C1089.11 438.263 1096.22 438.375 1105 438.375C1113.78 438.375 1120.9 438.263 1120.9 438.129C1120.9 437.995 1113.78 437.89 1105 437.89C1096.22 437.89 1089.11 437.995 1089.11 438.129Z" fill="#E0E0E0"/>
<path d="M1102.95 458.429H1108.34V445.686H1102.95V458.429Z" fill="#E0E0E0"/>
<path d="M1089.11 463.432C1089.11 463.566 1096.22 463.671 1105 463.671C1113.78 463.671 1120.9 463.566 1120.9 463.432C1120.9 463.298 1113.78 463.186 1105 463.186C1096.22 463.186 1089.11 463.298 1089.11 463.432Z" fill="#E0E0E0"/>
<path d="M1102.95 484.494H1108.34V471.75H1102.95V484.494Z" fill="#E0E0E0"/>
<path d="M1089.11 489.497C1089.11 489.63 1096.22 489.736 1105 489.736C1113.78 489.736 1120.9 489.63 1120.9 489.497C1120.9 489.363 1113.78 489.25 1105 489.25C1096.22 489.25 1089.11 489.363 1089.11 489.497Z" fill="#E0E0E0"/>
<path d="M1102.95 510.558H1108.34V497.814H1102.95V510.558Z" fill="#E0E0E0"/>
<path d="M1089.11 515.561C1089.11 515.694 1096.22 515.807 1105 515.807C1113.78 515.807 1120.9 515.694 1120.9 515.561C1120.9 515.427 1113.78 515.314 1105 515.314C1096.22 515.314 1089.11 515.427 1089.11 515.561Z" fill="#E0E0E0"/>
<path d="M1102.95 535.882H1108.34V523.139H1102.95V535.882Z" fill="#E0E0E0"/>
<path d="M1089.11 540.878C1089.11 541.012 1096.22 541.125 1105 541.125C1113.78 541.125 1120.9 541.012 1120.9 540.878C1120.9 540.745 1113.78 540.639 1105 540.639C1096.22 540.639 1089.11 540.745 1089.11 540.878Z" fill="#E0E0E0"/>
<path d="M1102.95 561.299H1108.34V548.556H1102.95V561.299Z" fill="#E0E0E0"/>
<path d="M1102.95 587.054H1108.34V574.31H1102.95V587.054Z" fill="#E0E0E0"/>
<path d="M1089.11 566.302C1089.11 566.436 1096.22 566.542 1105 566.542C1113.78 566.542 1120.9 566.436 1120.9 566.302C1120.9 566.169 1113.78 566.056 1105 566.056C1096.22 566.056 1089.11 566.169 1089.11 566.302Z" fill="#E0E0E0"/>
<path d="M1135.02 458.817H1140.4V446.073H1135.02V458.817Z" fill="#FAFAFA"/>
<path d="M1121.16 463.819C1121.16 463.953 1128.28 464.059 1137.06 464.059C1145.84 464.059 1152.96 463.953 1152.96 463.819C1152.96 463.686 1145.84 463.573 1137.06 463.573C1128.28 463.573 1121.16 463.686 1121.16 463.819Z" fill="#E0E0E0"/>
<path d="M1135.02 484.508H1140.4V471.764H1135.02V484.508Z" fill="#FAFAFA"/>
<path d="M1121.16 489.504C1121.16 489.637 1128.28 489.75 1137.06 489.75C1145.84 489.75 1152.96 489.637 1152.96 489.504C1152.96 489.37 1145.84 489.264 1137.06 489.264C1128.28 489.264 1121.16 489.37 1121.16 489.504Z" fill="#E0E0E0"/>
<path d="M1135.02 510.192H1140.4V497.448H1135.02V510.192Z" fill="#FAFAFA"/>
<path d="M1121.16 515.195C1121.16 515.329 1128.28 515.434 1137.06 515.434C1145.84 515.434 1152.96 515.329 1152.96 515.195C1152.96 515.061 1145.84 514.949 1137.06 514.949C1128.28 514.949 1121.16 515.061 1121.16 515.195Z" fill="#E0E0E0"/>
<path d="M1135.02 535.882H1140.4V523.139H1135.02V535.882Z" fill="#FAFAFA"/>
<path d="M1121.16 540.878C1121.16 541.012 1128.28 541.125 1137.06 541.125C1145.84 541.125 1152.96 541.012 1152.96 540.878C1152.96 540.745 1145.84 540.639 1137.06 540.639C1128.28 540.639 1121.16 540.745 1121.16 540.878Z" fill="#E0E0E0"/>
<path d="M1135.02 561.566H1140.4V548.823H1135.02V561.566Z" fill="#FAFAFA"/>
<path d="M1121.16 566.57C1121.16 566.703 1128.28 566.809 1137.06 566.809C1145.84 566.809 1152.96 566.703 1152.96 566.57C1152.96 566.436 1145.84 566.323 1137.06 566.323C1128.28 566.323 1121.16 566.429 1121.16 566.57Z" fill="#E0E0E0"/>
<path d="M1135.02 587.25H1140.4V574.507H1135.02V587.25Z" fill="#FAFAFA"/>
<path d="M320.207 491.094H251.75V636.979H320.207V491.094Z" fill="#E0E0E0"/>
<path d="M320.206 491.094H288.108V636.979H320.206V491.094Z" fill="#EBEBEB"/>
<path d="M272.26 504.815H266.106V521.605H272.26V504.815Z" fill="#F5F5F5"/>
<path d="M272.26 570.538H266.106V587.328H272.26V570.538Z" fill="#F5F5F5"/>
<path d="M288.109 528.198C288.109 528.345 279.962 528.465 269.936 528.465C259.909 528.465 251.762 528.345 251.762 528.198C251.762 528.05 259.909 527.937 269.936 527.937C279.962 527.937 288.109 528.057 288.109 528.198Z" fill="#F5F5F5"/>
<path d="M272.26 537.93H266.106V554.719H272.26V537.93Z" fill="#F5F5F5"/>
<path d="M288.109 561.313C288.109 561.454 279.962 561.574 269.936 561.574C259.909 561.574 251.762 561.454 251.762 561.313C251.762 561.173 259.909 561.046 269.936 561.046C279.962 561.046 288.109 561.166 288.109 561.313Z" fill="#F5F5F5"/>
<path d="M301.081 504.815H294.927V521.605H301.081V504.815Z" fill="#E0E0E0"/>
<path d="M314.435 504.815H308.281V521.605H314.435V504.815Z" fill="#E0E0E0"/>
<path d="M301.081 536.685H294.927V553.474H301.081V536.685Z" fill="#E0E0E0"/>
<path d="M314.435 536.685H308.281V553.474H314.435V536.685Z" fill="#E0E0E0"/>
<path d="M301.081 568.546H294.927V585.336H301.081V568.546Z" fill="#E0E0E0"/>
<path d="M314.435 568.546H308.281V585.336H314.435V568.546Z" fill="#E0E0E0"/>
<path d="M325.352 487.562H246.604V491.221H325.352V487.562Z" fill="#E0E0E0"/>
<path d="M320.689 491.565C320.689 491.706 305.386 491.825 286.517 491.825C267.648 491.825 252.345 491.706 252.345 491.565C252.345 491.424 267.642 491.298 286.517 491.298C305.392 491.298 320.689 491.417 320.689 491.565Z" fill="#EBEBEB"/>
<path d="M252.532 636.881H142.282L141.8 441.225H252.056L252.532 636.881Z" fill="#EBEBEB"/>
<path d="M252.056 441.225H196.928V636.881H252.056V441.225Z" fill="#E0E0E0"/>
<path d="M193.324 402.706H154.389V441.225H193.324V402.706Z" fill="#EBEBEB"/>
<path d="M193.324 402.706H184.043V441.225H193.324V402.706Z" fill="#E0E0E0"/>
<path d="M255.277 438.974H132.613V441.218H255.277V438.974Z" fill="#E0E0E0"/>
<path d="M172.896 458.021H163.564V480.116H172.896V458.021Z" fill="white"/>
<path d="M196.929 488.786C196.929 489.025 184.589 489.208 169.355 489.208C154.121 489.208 141.782 489.025 141.782 488.786C141.782 488.547 154.115 488.371 169.355 488.371C184.596 488.371 196.929 488.554 196.929 488.786Z" fill="#E0E0E0"/>
<path d="M228.506 458.021H219.175V480.116H228.506V458.021Z" fill="#F5F5F5"/>
<path d="M252.507 488.786C252.507 489.025 240.168 489.208 224.934 489.208C209.699 489.208 197.36 489.025 197.36 488.786C197.36 488.547 209.699 488.371 224.934 488.371C240.168 488.371 252.507 488.554 252.507 488.786Z" fill="#EBEBEB"/>
<path d="M228.506 501.888H219.175V523.983H228.506V501.888Z" fill="#F5F5F5"/>
<path d="M252.507 532.66C252.507 532.892 240.168 533.082 224.934 533.082C209.699 533.082 197.36 532.892 197.36 532.66C197.36 532.427 209.699 532.237 224.934 532.237C240.168 532.237 252.507 532.427 252.507 532.66Z" fill="#EBEBEB"/>
<path d="M228.506 547.085H219.175V569.181H228.506V547.085Z" fill="#F5F5F5"/>
<path d="M252.507 577.849C252.507 578.081 240.168 578.271 224.934 578.271C209.699 578.271 197.36 578.081 197.36 577.849C197.36 577.617 209.699 577.427 224.934 577.427C240.168 577.427 252.507 577.617 252.507 577.849Z" fill="#EBEBEB"/>
<path d="M228.506 592.275H219.175V614.37H228.506V592.275Z" fill="#F5F5F5"/>
<path d="M252.507 623.046C252.507 623.278 240.168 623.468 224.934 623.468C209.699 623.468 197.36 623.278 197.36 623.046C197.36 622.814 209.699 622.624 224.934 622.624C240.168 622.624 252.507 622.814 252.507 623.046Z" fill="#EBEBEB"/>
<path d="M172.896 502.557H163.564V524.652H172.896V502.557Z" fill="white"/>
<path d="M196.929 533.328C196.929 533.56 184.589 533.75 169.355 533.75C154.121 533.75 141.782 533.56 141.782 533.328C141.782 533.095 154.115 532.905 169.355 532.905C184.596 532.905 196.929 533.095 196.929 533.328Z" fill="#E0E0E0"/>
<path d="M172.896 547.099H163.564V569.194H172.896V547.099Z" fill="white"/>
<path d="M196.929 577.863C196.929 578.103 184.589 578.286 169.355 578.286C154.121 578.286 141.782 578.103 141.782 577.863C141.782 577.624 154.115 577.441 169.355 577.441C184.596 577.441 196.929 577.631 196.929 577.863Z" fill="#E0E0E0"/>
<path d="M172.896 591.635H163.564V613.73H172.896V591.635Z" fill="white"/>
<path d="M196.929 622.406C196.929 622.638 184.589 622.828 169.355 622.828C154.121 622.828 141.782 622.638 141.782 622.406C141.782 622.174 154.115 621.984 169.355 621.984C184.596 621.984 196.929 622.174 196.929 622.406Z" fill="#E0E0E0"/>
<path d="M984.946 288.345H904.206V575.675H984.946V288.345Z" fill="#F5F5F5"/>
<path d="M984.945 288.345H944.575V574.887H984.945V288.345Z" fill="#EBEBEB"/>
<path d="M941.937 260.135H913.424V288.345H941.937V260.135Z" fill="#F5F5F5"/>
<path d="M941.938 260.135H935.145V288.345H941.938V260.135Z" fill="#EBEBEB"/>
<path d="M897.476 288.345V286.698H987.315V288.345" fill="#E0E0E0"/>
<path d="M926.984 300.645H920.147V316.829H926.984V300.645Z" fill="#FAFAFA"/>
<path d="M944.575 323.177C944.575 323.345 935.539 323.486 924.39 323.486C913.242 323.486 904.205 323.345 904.205 323.177C904.205 323.008 913.242 322.867 924.39 322.867C935.539 322.867 944.575 323.008 944.575 323.177Z" fill="#E0E0E0"/>
<path d="M967.706 300.645H960.869V316.829H967.706V300.645Z" fill="#E0E0E0"/>
<path d="M985.303 323.177C985.303 323.345 976.26 323.486 965.118 323.486C953.976 323.486 944.927 323.345 944.927 323.177C944.927 323.008 953.963 322.867 965.118 322.867C976.273 322.867 985.303 323.008 985.303 323.177Z" fill="#E0E0E0"/>
<path d="M967.706 332.775H960.869V348.959H967.706V332.775Z" fill="#E0E0E0"/>
<path d="M985.303 355.307C985.303 355.476 976.26 355.616 965.118 355.616C953.976 355.616 944.927 355.476 944.927 355.307C944.927 355.138 953.963 354.997 965.118 354.997C976.273 354.997 985.303 355.138 985.303 355.307Z" fill="#E0E0E0"/>
<path d="M967.706 365.868H960.869V382.053H967.706V365.868Z" fill="#E0E0E0"/>
<path d="M985.303 388.4C985.303 388.576 976.26 388.71 965.118 388.71C953.976 388.71 944.927 388.576 944.927 388.4C944.927 388.224 953.963 388.091 965.118 388.091C976.273 388.091 985.303 388.231 985.303 388.4Z" fill="#E0E0E0"/>
<path d="M967.706 398.969H960.869V415.154H967.706V398.969Z" fill="#E0E0E0"/>
<path d="M985.303 421.521C985.303 421.69 976.26 421.831 965.118 421.831C953.976 421.831 944.927 421.69 944.927 421.521C944.927 421.353 953.963 421.212 965.118 421.212C976.273 421.212 985.303 421.324 985.303 421.521Z" fill="#E0E0E0"/>
<path d="M967.706 431.113H960.869V447.297H967.706V431.113Z" fill="#E0E0E0"/>
<path d="M985.303 453.651C985.303 453.82 976.26 453.961 965.118 453.961C953.976 453.961 944.927 453.82 944.927 453.651C944.927 453.482 953.963 453.342 965.118 453.342C976.273 453.342 985.303 453.475 985.303 453.651Z" fill="#E0E0E0"/>
<path d="M967.706 463.397H960.869V479.582H967.706V463.397Z" fill="#E0E0E0"/>
<path d="M967.706 496.097H960.869V512.282H967.706V496.097Z" fill="#E0E0E0"/>
<path d="M985.303 485.929C985.303 486.098 976.26 486.238 965.118 486.238C953.976 486.238 944.927 486.098 944.927 485.929C944.927 485.76 953.963 485.619 965.118 485.619C976.273 485.619 985.303 485.76 985.303 485.929Z" fill="#E0E0E0"/>
<path d="M926.984 333.26H920.147V349.445H926.984V333.26Z" fill="#FAFAFA"/>
<path d="M944.575 355.799C944.575 355.968 935.539 356.101 924.39 356.101C913.242 356.101 904.205 355.968 904.205 355.799C904.205 355.63 913.242 355.489 924.39 355.489C935.539 355.489 944.575 355.623 944.575 355.799Z" fill="#E0E0E0"/>
<path d="M926.984 365.883H920.147V382.067H926.984V365.883Z" fill="#FAFAFA"/>
<path d="M944.575 388.449C944.575 388.618 935.539 388.759 924.39 388.759C913.242 388.759 904.205 388.618 904.205 388.449C904.205 388.28 913.242 388.14 924.39 388.14C935.539 388.14 944.575 388.245 944.575 388.449Z" fill="#E0E0E0"/>
<path d="M926.984 398.497H920.147V414.682H926.984V398.497Z" fill="#FAFAFA"/>
<path d="M944.575 421.029C944.575 421.205 935.539 421.339 924.39 421.339C913.242 421.339 904.205 421.205 904.205 421.029C904.205 420.853 913.242 420.72 924.39 420.72C935.539 420.72 944.575 420.86 944.575 421.029Z" fill="#E0E0E0"/>
<path d="M926.984 431.113H920.147V447.297H926.984V431.113Z" fill="#FAFAFA"/>
<path d="M944.576 453.651C944.576 453.82 935.54 453.961 924.391 453.961C913.243 453.961 904.206 453.82 904.206 453.651C904.206 453.482 913.243 453.342 924.391 453.342C935.54 453.342 944.576 453.475 944.576 453.651Z" fill="#E0E0E0"/>
<path d="M926.984 463.735H920.147V479.92H926.984V463.735Z" fill="#FAFAFA"/>
<path d="M944.576 486.26C944.576 486.428 935.54 486.569 924.391 486.569C913.243 486.569 904.206 486.428 904.206 486.26C904.206 486.091 913.243 485.95 924.391 485.95C935.54 485.95 944.576 486.098 944.576 486.26Z" fill="#E0E0E0"/>
<path d="M926.984 496.35H920.147V512.535H926.984V496.35Z" fill="#FAFAFA"/>
<path d="M958.061 636.881H847.812L847.329 441.225H957.579L958.061 636.881Z" fill="#EBEBEB"/>
<path d="M957.586 441.225H902.458V636.881H957.586V441.225Z" fill="#E0E0E0"/>
<path d="M898.853 402.706H859.918V441.225H898.853V402.706Z" fill="#EBEBEB"/>
<path d="M898.853 402.706H889.572V441.225H898.853V402.706Z" fill="#E0E0E0"/>
<path d="M960.806 438.973H838.142V441.218H960.806V438.973Z" fill="#E0E0E0"/>
<path d="M878.426 458.021H869.095V480.116H878.426V458.021Z" fill="white"/>
<path d="M902.457 488.786C902.457 489.025 890.112 489.208 874.884 489.208C859.656 489.208 847.311 489.025 847.311 488.786C847.311 488.547 859.65 488.371 874.884 488.371C890.118 488.371 902.457 488.554 902.457 488.786Z" fill="#E0E0E0"/>
<path d="M934.029 458.021H924.698V480.116H934.029V458.021Z" fill="#F5F5F5"/>
<path d="M958.061 488.786C958.061 489.025 945.716 489.208 930.487 489.208C915.259 489.208 902.914 489.025 902.914 488.786C902.914 488.547 915.253 488.371 930.487 488.371C945.722 488.371 958.061 488.554 958.061 488.786Z" fill="#EBEBEB"/>
<path d="M934.029 501.888H924.698V523.983H934.029V501.888Z" fill="#F5F5F5"/>
<path d="M958.061 532.66C958.061 532.892 945.716 533.082 930.487 533.082C915.259 533.082 902.914 532.892 902.914 532.66C902.914 532.428 915.253 532.238 930.487 532.238C945.722 532.238 958.061 532.428 958.061 532.66Z" fill="#EBEBEB"/>
<path d="M934.029 547.085H924.698V569.181H934.029V547.085Z" fill="#F5F5F5"/>
<path d="M958.061 577.849C958.061 578.081 945.716 578.272 930.487 578.272C915.259 578.272 902.914 578.081 902.914 577.849C902.914 577.617 915.253 577.427 930.487 577.427C945.722 577.427 958.061 577.617 958.061 577.849Z" fill="#EBEBEB"/>
<path d="M934.029 592.275H924.698V614.37H934.029V592.275Z" fill="#F5F5F5"/>
<path d="M958.061 623.047C958.061 623.279 945.716 623.469 930.487 623.469C915.259 623.469 902.914 623.279 902.914 623.047C902.914 622.814 915.253 622.624 930.487 622.624C945.722 622.624 958.061 622.814 958.061 623.047Z" fill="#EBEBEB"/>
<path d="M878.426 502.557H869.095V524.652H878.426V502.557Z" fill="white"/>
<path d="M902.457 533.328C902.457 533.56 890.112 533.75 874.884 533.75C859.656 533.75 847.311 533.56 847.311 533.328C847.311 533.096 859.65 532.906 874.884 532.906C890.118 532.906 902.457 533.096 902.457 533.328Z" fill="#E0E0E0"/>
<path d="M878.426 547.099H869.095V569.194H878.426V547.099Z" fill="white"/>
<path d="M902.457 577.863C902.457 578.103 890.112 578.286 874.884 578.286C859.656 578.286 847.311 578.103 847.311 577.863C847.311 577.624 859.65 577.441 874.884 577.441C890.118 577.441 902.457 577.631 902.457 577.863Z" fill="#E0E0E0"/>
<path d="M878.426 591.635H869.095V613.73H878.426V591.635Z" fill="white"/>
<path d="M902.457 622.406C902.457 622.638 890.112 622.828 874.884 622.828C859.656 622.828 847.311 622.638 847.311 622.406C847.311 622.174 859.65 621.984 874.884 621.984C890.118 621.984 902.457 622.174 902.457 622.406Z" fill="#E0E0E0"/>
<path d="M799.583 565.38H710.891V636.979H799.583V565.38Z" fill="#EBEBEB"/>
<path d="M734.678 565.38C734.804 565.38 734.678 580.495 734.678 580.495H728.148V565.38H734.678Z" fill="#F5F5F5"/>
<path d="M755.24 636.979H799.583V565.38H755.24V636.979Z" fill="#E0E0E0"/>
<path d="M725.474 622.962H713.599V632.398H725.474V622.962Z" fill="white"/>
<path d="M733.595 622.962H727.66V632.398H733.595V622.962Z" fill="white"/>
<path d="M791.161 518.762H733.413V565.38H791.161V518.762Z" fill="#EBEBEB"/>
<path d="M748.898 518.762C748.979 518.762 748.898 528.614 748.898 528.614H744.624V518.762H748.898Z" fill="#F5F5F5"/>
<path d="M762.284 565.38H791.161V518.762H762.284V565.38Z" fill="#E0E0E0"/>
<path d="M742.907 556.254H735.174V562.397H742.907V556.254Z" fill="white"/>
<path d="M748.197 556.254H744.33V562.397H748.197V556.254Z" fill="white"/>
<path d="M687.867 72.538C688.511 67.2845 681.899 62.9581 676.938 62.5108C674.57 62.2913 672.107 62.6979 669.862 61.8196C665.002 59.9166 663.061 52.874 658.317 50.6213C654.776 48.946 650.691 50.4424 647.258 52.386C643.825 54.3297 640.421 56.7694 636.583 57.0459C633.244 57.2817 629.616 55.8911 626.69 57.729C624.517 59.0952 623.373 61.909 621.367 63.568C619.36 65.227 616.84 65.5442 614.406 65.6906C611.973 65.837 609.445 65.8695 607.229 67.008C605.013 68.1466 603.173 70.7814 603.608 73.4733L687.867 72.538Z" fill="#F5F5F5"/>
<path d="M728.945 218.839C729.865 211.324 720.421 205.144 713.323 204.501C709.941 204.192 706.428 204.778 703.184 203.517C696.238 200.801 693.464 190.725 686.685 187.513C681.616 185.073 675.785 187.253 670.875 190.026C665.965 192.799 661.105 196.296 655.615 196.694C650.842 197.036 645.657 195.068 641.485 197.67C638.371 199.622 636.741 203.647 633.873 206.022C631.005 208.397 627.406 208.836 623.922 209.047C620.439 209.259 616.839 209.299 613.667 210.934C610.495 212.569 607.873 216.326 608.532 220.172L728.945 218.839Z" fill="#F5F5F5"/>
<path d="M65.2409 74.4159C65.7624 70.1545 60.4175 66.6576 56.3979 66.2835C54.4787 66.1127 52.487 66.438 50.6764 65.7305C46.7437 64.1935 45.1721 58.4846 41.3336 56.671C38.4366 55.3048 35.1558 56.5165 32.3747 58.0861C29.5936 59.6556 26.8487 61.6399 23.7417 61.8676C21.033 62.0547 18.0998 60.9324 15.7315 62.4125C13.9716 63.5185 13.0518 65.8037 11.3861 67.1455C9.72031 68.4874 7.76484 68.772 5.75144 68.8615C3.73804 68.9509 1.73912 69.0079 -0.0425193 69.9268C-1.82416 70.8458 -3.32335 72.9846 -2.9395 75.1559L65.2409 74.4159Z" fill="#EBEBEB"/>
<path d="M747.574 160.789C748.081 156.634 742.867 153.226 738.949 152.868C737.073 152.697 735.132 153.023 733.365 152.323C729.526 150.827 727.991 145.256 724.254 143.483C721.451 142.158 718.228 143.337 715.519 144.874C712.811 146.411 710.124 148.339 707.089 148.558C704.453 148.745 701.592 147.647 699.282 149.095C697.565 150.168 696.667 152.397 695.081 153.706C693.495 155.015 691.51 155.259 689.584 155.381C687.658 155.503 685.673 155.519 683.92 156.422C682.168 157.325 680.719 159.399 681.081 161.521L747.574 160.789Z" fill="#EBEBEB"/>
<path d="M1289.97 102.224C1290.47 98.0761 1285.26 94.6606 1281.34 94.3027C1279.47 94.1401 1277.52 94.4572 1275.76 93.766C1271.92 92.2615 1270.39 86.699 1266.65 84.9261C1263.84 83.6005 1260.62 84.7797 1257.91 86.3086C1255.2 87.8375 1252.52 89.773 1249.48 89.9926C1246.84 90.1796 1243.98 89.0817 1241.67 90.5293C1239.96 91.6109 1239.06 93.831 1237.47 95.1485C1235.89 96.4659 1233.9 96.7018 1231.98 96.775C1230.05 96.8482 1228.06 96.9132 1226.31 97.8159C1224.56 98.7186 1223.11 100.8 1223.47 102.923L1289.97 102.224Z" fill="#EBEBEB"/>
<path d="M1140.53 72.2444C1142.05 59.7925 1126.39 49.538 1114.62 48.4637C1109.01 47.9754 1103.16 48.9276 1097.85 46.8523C1086.32 42.3354 1081.73 25.6352 1070.49 20.3126C1062.07 16.3328 1052.39 19.8731 1044.26 24.4632C1036.12 29.0533 1028.05 34.8642 1018.94 35.5234C1011.02 36.085 1002.43 32.7889 995.492 37.1349C990.337 40.3821 987.639 47.0476 982.876 51.0029C978.113 54.9582 972.153 55.6663 966.367 55.886C960.582 56.1057 954.622 56.3011 949.358 59.0112C944.094 61.7213 939.744 67.9717 940.832 74.3441L1140.53 72.2444Z" fill="#EBEBEB"/>
<path d="M182.62 100.757C183.569 92.9825 173.806 86.5904 166.462 85.9236C162.964 85.6064 159.328 86.2082 156.011 84.9152C148.827 82.1014 145.958 71.6757 138.948 68.3577C133.704 65.8773 127.671 68.0893 122.587 70.96C117.503 73.8308 112.448 77.4659 106.813 77.8481C101.874 78.206 96.5143 76.1485 92.1905 78.8566C88.9749 80.8734 87.2874 85.0372 84.318 87.5013C81.3486 89.9654 77.626 90.4127 74.0265 90.6322C70.427 90.8518 66.6971 90.8925 63.4163 92.5759C60.1354 94.2593 57.4268 98.1547 58.1076 102.14L182.62 100.757Z" fill="#F5F5F5"/>
<path d="M1080.57 190.722C1081.51 182.947 1071.75 176.555 1064.41 175.889C1060.91 175.571 1057.27 176.173 1053.96 174.88C1046.77 172.066 1043.9 161.641 1036.89 158.323C1031.65 155.883 1025.62 158.054 1020.53 160.925C1015.45 163.796 1010.39 167.431 1004.76 167.813C999.82 168.171 994.461 166.113 990.137 168.822C986.921 170.838 985.234 175.002 982.264 177.466C979.295 179.93 975.572 180.378 971.973 180.597C968.373 180.817 964.643 180.857 961.363 182.541C958.082 184.224 955.373 188.12 956.054 192.104L1018.31 191.413L1080.57 190.722Z" fill="#F5F5F5"/>
<path d="M880.603 33.4559C881.552 25.6813 871.789 19.2893 864.445 18.6224C860.947 18.3053 857.312 18.9071 853.994 17.614C846.81 14.8002 843.942 4.37451 836.931 1.05651C831.688 -1.3832 825.655 0.788148 820.571 3.65887C815.486 6.5296 810.431 10.1648 804.796 10.547C799.857 10.9048 794.498 8.84732 790.174 11.5554C786.958 13.5722 785.271 17.736 782.301 20.2001C779.332 22.6642 775.609 23.1115 772.01 23.3311C768.41 23.5507 764.68 23.5913 761.4 25.2747C758.119 26.9581 755.41 30.8535 756.091 34.8384L818.347 34.1471L880.603 33.4559Z" fill="#F5F5F5"/>
<path d="M410.744 628.78C411.074 627.355 410.238 625.917 409.304 624.882C408.371 623.846 407.25 622.92 406.766 621.545C405.975 619.328 407.033 616.433 405.69 614.598C404.899 613.505 403.482 613.141 402.776 611.978C402.455 611.334 402.241 610.63 402.144 609.901C401.397 606.209 399.781 602.81 397.465 600.058C397.305 603.347 397.938 606.624 399.298 609.543C399.867 610.706 400.516 611.844 400.693 613.141C400.988 615.25 399.935 617.43 400.402 619.532C400.926 621.903 403.299 623.488 403.413 625.923C403.51 627.988 401.905 629.797 402.024 631.861C402.121 632.738 402.402 633.577 402.844 634.309C404.261 636.961 406.35 638.783 409.515 638.725L413.402 638.872L410.744 628.78Z" fill="#00DEDE"/>
<g opacity="0.3">
<path opacity="0.3" d="M410.744 628.78C411.074 627.355 410.238 625.917 409.304 624.882C408.371 623.846 407.25 622.92 406.766 621.545C405.975 619.328 407.033 616.433 405.69 614.598C404.899 613.505 403.482 613.141 402.776 611.978C402.455 611.334 402.241 610.63 402.144 609.901C401.397 606.209 399.781 602.81 397.465 600.058C397.305 603.347 397.938 606.624 399.298 609.543C399.867 610.706 400.516 611.844 400.693 613.141C400.988 615.25 399.935 617.43 400.402 619.532C400.926 621.903 403.299 623.488 403.413 625.923C403.51 627.988 401.905 629.797 402.024 631.861C402.121 632.738 402.402 633.577 402.844 634.309C404.261 636.961 406.35 638.783 409.515 638.725L413.402 638.872L410.744 628.78Z" fill="black"/>
</g>
<path d="M414.171 638.968C414.525 639.037 414.887 639.037 415.241 638.968C415.67 638.897 416.091 638.777 416.499 638.61C417.061 638.392 417.587 638.068 418.052 637.651C418.334 637.399 418.555 637.072 418.696 636.699C418.807 636.284 418.869 635.854 418.878 635.421C418.881 634.95 418.911 634.481 418.969 634.015C419.04 633.517 419.201 633.041 419.441 632.615C419.897 631.714 420.654 630.864 420.898 629.637C421.088 628.363 421.053 627.06 420.796 625.802C420.513 624.452 420.545 623.044 420.887 621.712C421.302 620.35 422.151 619.123 422.594 617.589C423.038 616.055 422.816 614.394 422.908 612.732C422.934 611.897 423.106 611.077 423.414 610.316C423.727 609.543 424.16 608.821 424.501 608.009C425.19 606.366 425.309 604.513 425.497 602.691C425.588 601.771 425.679 600.844 425.776 599.911C425.832 598.97 425.975 598.039 426.203 597.131C426.466 596.213 426.775 595.312 427.131 594.434C427.319 593.982 427.469 593.511 427.58 593.028C427.647 592.532 427.689 592.033 427.706 591.532C427.748 590.527 427.714 589.52 427.603 588.522C427.501 587.519 427.336 586.522 427.239 585.518C427.239 585.454 427.239 585.397 427.239 585.346V585.141L427.08 585.231C426.258 585.699 425.545 586.375 424.996 587.205C424.458 588.017 424.025 588.91 423.71 589.858C423.16 591.715 422.757 593.623 422.503 595.559C422.261 597.405 421.723 599.187 420.915 600.819C420.489 601.592 419.976 602.302 419.527 603.056C419.036 603.781 418.694 604.619 418.525 605.51C418.297 607.351 419.196 608.968 419.009 610.623C418.922 611.424 418.681 612.194 418.303 612.879C417.95 613.576 417.54 614.221 417.164 614.867C416.763 615.499 416.415 616.17 416.123 616.874C415.851 617.565 415.69 618.305 415.645 619.059C415.554 620.523 415.736 621.916 415.645 623.233C415.534 624.482 415.209 625.695 414.689 626.805C414.216 627.873 413.698 628.844 413.26 629.784C413.048 630.234 412.858 630.697 412.691 631.171C412.533 631.614 412.419 632.074 412.349 632.545C412.235 633.366 412.226 634.201 412.321 635.025C412.425 636.189 412.819 637.297 413.459 638.22C413.553 638.358 413.658 638.486 413.772 638.604C413.849 638.691 413.933 638.77 414.023 638.84L414.245 639.019C413.971 638.77 413.721 638.489 413.499 638.182C412.898 637.262 412.533 636.174 412.446 635.037C412.357 634.223 412.372 633.399 412.492 632.589C412.566 632.13 412.683 631.68 412.839 631.247C413.004 630.8 413.209 630.346 413.408 629.88C413.852 628.953 414.375 627.962 414.854 626.908C415.395 625.781 415.732 624.545 415.844 623.271C415.946 621.929 415.77 620.529 415.844 619.098C415.887 618.369 416.045 617.655 416.311 616.989C416.599 616.3 416.944 615.643 417.341 615.026C417.734 614.387 418.149 613.748 418.513 613.026C418.905 612.31 419.155 611.508 419.248 610.674C419.436 608.936 418.542 607.312 418.775 605.599C418.922 604.741 419.239 603.93 419.703 603.228C420.147 602.487 420.659 601.777 421.098 600.985C421.926 599.328 422.478 597.515 422.725 595.635C422.974 593.716 423.376 591.825 423.926 589.986C424.234 589.073 424.654 588.212 425.173 587.429C425.699 586.627 426.383 585.97 427.171 585.512L426.994 585.403V585.576C427.091 586.598 427.25 587.595 427.359 588.586C427.466 589.57 427.501 590.562 427.461 591.552C427.461 592.037 427.41 592.549 427.341 593.002C427.23 593.467 427.083 593.92 426.903 594.357C426.548 595.245 426.236 596.154 425.97 597.08C425.74 598.005 425.595 598.953 425.537 599.911C425.446 600.844 425.349 601.777 425.258 602.691C425.076 604.519 424.957 606.347 424.291 607.932C423.966 608.718 423.534 609.447 423.209 610.239C422.891 611.028 422.715 611.88 422.691 612.745C422.606 614.426 422.799 616.068 422.395 617.557C421.991 619.047 421.149 620.267 420.722 621.673C420.374 623.037 420.344 624.479 420.637 625.86C420.894 627.087 420.937 628.359 420.762 629.605C420.54 630.774 419.8 631.618 419.339 632.545C419.093 632.99 418.929 633.485 418.855 634.002C418.804 634.473 418.778 634.947 418.775 635.421C418.773 635.853 418.718 636.284 418.61 636.699C418.479 637.055 418.272 637.369 418.007 637.613C417.553 638.026 417.041 638.352 416.493 638.578C416.089 638.748 415.672 638.874 415.246 638.955C414.987 639.006 414.724 639.034 414.461 639.038L414.171 638.968Z" fill="#263238"/>
<path d="M426.414 587.743C426.396 587.785 426.384 587.83 426.38 587.877L426.294 588.267C426.215 588.612 426.124 589.13 425.981 589.775C425.839 590.421 425.475 591.149 425.173 592.044C424.871 592.939 424.547 593.961 424.251 595.131C423.955 596.301 423.682 597.579 423.42 598.966C423.186 600.44 422.77 601.871 422.185 603.216C421.866 603.925 421.508 604.641 421.223 605.421C420.94 606.224 420.749 607.063 420.654 607.92C420.458 609.689 420.179 611.444 419.817 613.18C419.043 616.746 418.303 620.14 417.626 623.233L415.793 631.433C415.281 633.753 414.865 635.638 414.575 636.968C414.438 637.607 414.336 638.105 414.256 638.476L414.182 638.866C414.182 638.956 414.182 639.007 414.182 639.007C414.204 638.967 414.219 638.924 414.228 638.879C414.256 638.77 414.285 638.649 414.33 638.489C414.417 638.123 414.537 637.624 414.689 636.993C415.002 635.67 415.44 633.798 415.986 631.484C416.533 629.171 417.165 626.371 417.87 623.297C418.576 620.223 419.299 616.81 420.085 613.244C420.449 611.501 420.727 609.736 420.916 607.958C421.013 607.123 421.204 606.305 421.485 605.523C421.758 604.756 422.111 604.047 422.43 603.331C423.017 601.964 423.433 600.512 423.665 599.017C423.927 597.636 424.183 596.352 424.462 595.182C424.74 594.013 425.031 592.99 425.344 592.095C425.657 591.2 425.97 590.465 426.112 589.794C426.255 589.123 426.323 588.625 426.38 588.273C426.38 588.113 426.425 587.979 426.442 587.877C426.439 587.831 426.429 587.786 426.414 587.743Z" fill="#263238"/>
<path d="M414.86 638.98C417.387 637.293 418.116 632.161 417.057 629.08C415.998 626 414.154 623.169 413.87 619.884C413.653 617.327 414.387 614.771 413.87 612.284C413.164 608.948 410.261 606.366 410.295 602.934C410.295 601.017 411.291 599.202 411.211 597.278C411.115 594.919 409.504 593.047 408.508 590.97C406.977 587.774 406.874 584.035 406.356 580.469C405.838 576.903 404.62 573.087 401.803 571.336C401.387 574.359 400.665 576.449 400.898 580.533C400.983 582.003 402.503 584.828 402.714 588.049C402.833 589.966 402.918 591.884 403.027 593.839C403.045 595.726 403.317 597.598 403.835 599.393C404.296 600.735 405.036 601.95 405.377 603.349C406.015 605.963 405.172 608.801 405.69 611.447C406.129 613.697 407.517 615.627 407.796 617.902C408.195 621.098 406.351 624.428 407.295 627.489C407.762 629.004 408.872 630.218 409.185 631.784C409.43 632.998 409.185 634.277 409.384 635.497C409.743 637.459 413.078 638.987 414.86 638.865" fill="#00DEDE"/>
<path d="M402.503 574.321C402.494 574.376 402.494 574.432 402.503 574.487C402.503 574.615 402.537 574.781 402.56 574.986C402.622 575.427 402.685 576.066 402.816 576.903C402.947 577.74 403.339 578.68 403.647 579.811C403.954 580.942 404.29 582.24 404.574 583.703C404.859 585.167 405.104 586.771 405.36 588.51C405.563 590.382 406 592.213 406.658 593.948C407.011 594.856 407.409 595.764 407.711 596.735C408.001 597.729 408.181 598.759 408.246 599.803C408.383 602.024 408.63 604.234 408.986 606.424C409.76 610.898 410.5 615.18 411.171 619.066C411.843 622.952 412.515 626.429 413.055 629.369C413.596 632.309 414.034 634.648 414.347 636.303L414.706 638.22C414.751 638.418 414.786 638.585 414.808 638.706C414.816 638.764 414.831 638.82 414.854 638.872V638.7C414.854 638.578 414.808 638.412 414.774 638.208C414.7 637.754 414.592 637.121 414.455 636.29C414.165 634.629 413.755 632.257 413.243 629.33L411.399 619.06C410.733 615.174 410.004 610.904 409.236 606.424C408.884 604.24 408.635 602.036 408.49 599.822C408.421 598.755 408.23 597.702 407.921 596.69C407.614 595.7 407.21 594.773 406.857 593.885C406.202 592.172 405.763 590.365 405.553 588.516C405.292 586.784 405.036 585.167 404.734 583.703C404.471 582.386 404.148 581.085 403.766 579.805C403.448 578.667 403.055 577.74 402.901 576.922C402.747 576.104 402.673 575.459 402.599 575.005C402.565 574.8 402.543 574.641 402.52 574.513L402.503 574.321Z" fill="#263238"/>
<path d="M1111.79 633.759C1111.55 632.698 1112.17 631.637 1112.86 630.87C1113.55 630.103 1114.39 629.407 1114.74 628.391C1115.31 626.742 1114.54 624.613 1115.54 623.239C1116.11 622.428 1117.18 622.159 1117.7 621.322C1117.94 620.843 1118.1 620.319 1118.17 619.775C1118.73 617.038 1119.93 614.517 1121.64 612.476C1121.76 614.915 1121.29 617.343 1120.28 619.507C1119.81 620.328 1119.46 621.231 1119.25 622.178C1119.03 623.744 1119.82 625.374 1119.46 626.895C1119.08 628.653 1117.32 629.829 1117.23 631.637C1117.16 633.171 1118.37 634.513 1118.26 636.047C1118.19 636.698 1117.98 637.319 1117.65 637.862C1116.6 639.824 1115.05 641.179 1112.71 641.141L1109.83 641.25L1111.79 633.759Z" fill="#00DEDE"/>
<g opacity="0.3">
<path opacity="0.3" d="M1111.79 633.759C1111.55 632.698 1112.17 631.637 1112.86 630.87C1113.55 630.103 1114.39 629.407 1114.74 628.391C1115.31 626.742 1114.54 624.613 1115.54 623.239C1116.11 622.428 1117.18 622.159 1117.7 621.322C1117.94 620.843 1118.1 620.319 1118.17 619.775C1118.73 617.038 1119.93 614.517 1121.64 612.476C1121.76 614.915 1121.29 617.343 1120.28 619.507C1119.81 620.328 1119.46 621.231 1119.25 622.178C1119.03 623.744 1119.82 625.374 1119.46 626.895C1119.08 628.653 1117.32 629.829 1117.23 631.637C1117.16 633.171 1118.37 634.513 1118.26 636.047C1118.19 636.698 1117.98 637.319 1117.65 637.862C1116.6 639.824 1115.05 641.179 1112.71 641.141L1109.83 641.25L1111.79 633.759Z" fill="black"/>
</g>
<path d="M1109.22 641.281C1108.96 641.336 1108.69 641.336 1108.43 641.281C1108.11 641.232 1107.8 641.144 1107.5 641.019C1107.09 640.856 1106.7 640.616 1106.36 640.31C1106.15 640.121 1105.99 639.877 1105.89 639.6C1105.8 639.288 1105.75 638.963 1105.75 638.635C1105.74 638.287 1105.72 637.939 1105.68 637.594C1105.63 637.224 1105.51 636.87 1105.33 636.552C1104.99 635.913 1104.43 635.274 1104.25 634.347C1104.11 633.406 1104.14 632.445 1104.33 631.516C1104.53 630.516 1104.51 629.473 1104.26 628.486C1103.95 627.476 1103.32 626.569 1103.01 625.425C1102.69 624.281 1102.84 623.041 1102.77 621.82C1102.75 621.2 1102.63 620.59 1102.4 620.024C1102.16 619.455 1101.83 618.918 1101.59 618.318C1101.16 617.053 1100.91 615.72 1100.85 614.368C1100.78 613.69 1100.71 613 1100.64 612.31C1100.6 611.611 1100.5 610.92 1100.33 610.246C1100.13 609.564 1099.9 608.895 1099.64 608.245C1099.5 607.909 1099.39 607.56 1099.3 607.203C1099.25 606.82 1099.23 606.468 1099.21 606.091C1099.18 605.347 1099.21 604.6 1099.29 603.861C1099.36 603.113 1099.48 602.372 1099.56 601.63C1099.56 601.585 1099.56 601.541 1099.56 601.496V601.349L1099.67 601.419C1100.28 601.764 1100.81 602.265 1101.22 602.883C1101.62 603.484 1101.94 604.147 1102.17 604.851C1102.58 606.226 1102.88 607.64 1103.07 609.076C1103.25 610.447 1103.65 611.77 1104.25 612.981C1104.57 613.556 1104.94 614.08 1105.28 614.643C1105.64 615.188 1105.88 615.817 1105.99 616.483C1106.16 617.845 1105.49 619.04 1105.63 620.254C1105.7 620.848 1105.88 621.419 1106.15 621.929C1106.42 622.446 1106.72 622.926 1107.01 623.405C1107.31 623.875 1107.57 624.373 1107.79 624.894C1107.99 625.406 1108.11 625.953 1108.14 626.511C1108.21 627.604 1108.07 628.633 1108.14 629.611C1108.22 630.538 1108.46 631.439 1108.85 632.263C1109.2 633.056 1109.59 633.772 1109.91 634.468C1110.08 634.82 1110.22 635.158 1110.35 635.497C1110.46 635.828 1110.55 636.17 1110.6 636.52C1110.68 637.13 1110.68 637.75 1110.6 638.361C1110.52 639.215 1110.24 640.029 1109.77 640.712C1109.71 640.815 1109.63 640.909 1109.54 640.994C1109.48 641.061 1109.42 641.121 1109.35 641.173L1109.19 641.3C1109.4 641.116 1109.59 640.901 1109.76 640.661C1110.2 639.977 1110.47 639.171 1110.54 638.329C1110.6 637.725 1110.59 637.114 1110.5 636.513C1110.45 636.172 1110.36 635.838 1110.25 635.516C1110.12 635.184 1109.97 634.877 1109.81 634.5C1109.48 633.81 1109.09 633.094 1108.74 632.295C1108.34 631.457 1108.09 630.538 1108 629.592C1107.92 628.601 1108.06 627.566 1108 626.498C1107.97 625.96 1107.85 625.432 1107.66 624.939C1107.44 624.427 1107.19 623.937 1106.89 623.475C1106.6 623.002 1106.29 622.517 1106.02 621.993C1105.72 621.464 1105.53 620.869 1105.45 620.248C1105.31 618.97 1105.98 617.755 1105.81 616.483C1105.69 615.848 1105.46 615.249 1105.12 614.726C1104.79 614.176 1104.41 613.652 1104.08 613.058C1103.47 611.828 1103.06 610.483 1102.87 609.089C1102.69 607.664 1102.39 606.26 1101.98 604.896C1101.76 604.212 1101.45 603.566 1101.06 602.979C1100.67 602.386 1100.16 601.905 1099.57 601.573L1099.71 601.49V601.617C1099.63 602.372 1099.51 603.113 1099.44 603.848C1099.36 604.579 1099.33 605.317 1099.36 606.053C1099.36 606.411 1099.4 606.788 1099.45 607.127C1099.53 607.473 1099.64 607.811 1099.77 608.136C1100.04 608.793 1100.27 609.467 1100.46 610.156C1100.64 610.84 1100.75 611.543 1100.79 612.252C1100.86 612.949 1100.92 613.633 1100.99 614.317C1101.04 615.647 1101.29 616.959 1101.71 618.203C1101.95 618.784 1102.28 619.328 1102.52 619.915C1102.75 620.502 1102.88 621.134 1102.9 621.775C1102.96 623.054 1102.82 624.236 1103.12 625.342C1103.42 626.447 1104.04 627.355 1104.36 628.397C1104.62 629.411 1104.64 630.482 1104.42 631.509C1104.23 632.418 1104.2 633.36 1104.33 634.283C1104.5 635.152 1105.04 635.778 1105.39 636.462C1105.57 636.792 1105.69 637.159 1105.74 637.542C1105.78 637.893 1105.8 638.245 1105.81 638.597C1105.8 638.915 1105.84 639.232 1105.93 639.536C1106.02 639.802 1106.18 640.037 1106.38 640.22C1106.72 640.527 1107.1 640.767 1107.51 640.93C1107.81 641.057 1108.12 641.152 1108.44 641.211C1108.62 641.247 1108.82 641.269 1109.01 641.275L1109.22 641.281Z" fill="#263238"/>
<path d="M1100.14 603.26C1100.14 603.26 1100.14 603.292 1100.14 603.356L1100.2 603.643C1100.26 603.899 1100.33 604.282 1100.43 604.762C1100.54 605.241 1100.81 605.784 1101.03 606.449C1101.3 607.198 1101.52 607.962 1101.72 608.737C1101.94 609.6 1102.13 610.552 1102.34 611.581C1102.51 612.675 1102.82 613.735 1103.25 614.732C1103.49 615.256 1103.75 615.787 1103.96 616.368C1104.17 616.964 1104.31 617.587 1104.38 618.222C1104.52 619.535 1104.73 620.838 1105 622.127C1105.57 624.773 1106.14 627.291 1106.62 629.585C1107.11 631.88 1107.59 633.931 1107.99 635.67L1108.89 639.773C1108.99 640.246 1109.07 640.616 1109.13 640.891L1109.18 641.185C1109.18 641.249 1109.18 641.281 1109.18 641.281C1109.18 641.249 1109.18 641.217 1109.18 641.185L1109.11 640.904L1108.84 639.792C1108.61 638.808 1108.27 637.414 1107.87 635.702C1107.48 633.989 1107 631.912 1106.47 629.63C1105.94 627.348 1105.42 624.817 1104.83 622.171C1104.57 620.877 1104.36 619.567 1104.21 618.247C1104.15 617.628 1104.02 617.02 1103.82 616.439C1103.62 615.876 1103.35 615.346 1103.12 614.815C1102.68 613.802 1102.37 612.727 1102.2 611.62C1102.01 610.591 1101.82 609.638 1101.63 608.775C1101.44 607.913 1101.2 607.152 1100.98 606.487C1100.75 605.823 1100.51 605.279 1100.41 604.787C1100.3 604.295 1100.25 603.912 1100.21 603.656C1100.21 603.535 1100.17 603.439 1100.16 603.362C1100.15 603.329 1100.14 603.295 1100.14 603.26Z" fill="#263238"/>
<path d="M1108.72 641.294C1106.84 640.015 1106.3 636.238 1107.08 633.95C1107.87 631.662 1109.24 629.566 1109.45 627.124C1109.61 625.245 1109.06 623.29 1109.45 621.487C1109.98 619.014 1112.13 617.096 1112.11 614.553C1112.11 613.121 1111.37 611.779 1111.42 610.354C1111.5 608.603 1112.69 607.216 1113.43 605.675C1114.57 603.317 1114.64 600.524 1115.03 597.884C1115.41 595.245 1116.31 592.407 1118.4 591.103C1118.71 593.353 1119.23 594.887 1119.07 597.929C1119.01 599.022 1117.88 601.125 1117.73 603.509C1117.63 604.94 1117.57 606.372 1117.49 607.804C1117.49 609.2 1117.3 610.588 1116.92 611.92C1116.58 612.923 1116.04 613.837 1115.78 614.86C1115.31 616.777 1115.93 618.905 1115.55 620.867C1115.23 622.535 1114.2 623.967 1113.99 625.654C1113.7 628.032 1115.06 630.499 1114.36 632.761C1114.01 633.88 1113.19 634.787 1112.96 635.957C1112.77 636.858 1112.96 637.81 1112.81 638.711C1112.55 640.169 1110.07 641.268 1108.75 641.21" fill="#00DEDE"/>
<path d="M1117.89 593.334C1117.89 593.377 1117.89 593.419 1117.89 593.462L1117.85 593.833C1117.8 594.152 1117.76 594.632 1117.66 595.245C1117.56 595.859 1117.27 596.562 1117.04 597.405C1116.81 598.249 1116.57 599.208 1116.35 600.288C1116.13 601.368 1115.96 602.569 1115.78 603.86C1115.63 605.249 1115.31 606.606 1114.82 607.893C1114.56 608.564 1114.25 609.242 1114.04 609.958C1113.82 610.697 1113.69 611.463 1113.64 612.239C1113.53 613.886 1113.34 615.524 1113.07 617.148C1112.5 620.478 1111.93 623.648 1111.45 626.53C1110.97 629.412 1110.45 631.988 1110.05 634.168C1109.65 636.347 1109.32 638.085 1109.09 639.319L1108.83 640.712L1108.75 641.076C1108.74 641.118 1108.73 641.159 1108.72 641.198C1108.72 641.198 1108.72 641.153 1108.72 641.07C1108.72 640.987 1108.75 640.859 1108.77 640.706L1109.01 639.3C1109.22 638.066 1109.53 636.309 1109.91 634.142L1111.27 626.472C1111.76 623.59 1112.31 620.42 1112.88 617.097C1113.14 615.477 1113.33 613.843 1113.45 612.201C1113.49 611.409 1113.63 610.627 1113.86 609.875C1114.09 609.14 1114.39 608.462 1114.65 607.797C1115.13 606.524 1115.46 605.182 1115.62 603.809C1115.81 602.531 1116 601.323 1116.22 600.237C1116.44 599.15 1116.69 598.185 1116.94 597.348C1117.19 596.511 1117.47 595.814 1117.58 595.213C1117.69 594.612 1117.75 594.127 1117.8 593.807C1117.8 593.654 1117.85 593.532 1117.86 593.436C1117.88 593.34 1117.88 593.334 1117.89 593.334Z" fill="#263238"/>
<path d="M1256.53 638.276H133.166V652H1256.53V638.276Z" fill="#A39A9A"/>
</svg>
