<svg width="1158" height="652" viewBox="0 0 1158 652" fill="none" xmlns="http://www.w3.org/2000/svg">
<path d="M146.811 288.345H66.0708V575.675H146.811V288.345Z" fill="#F5F5F5"/>
<path d="M146.809 288.345H106.439V574.887H146.809V288.345Z" fill="#EBEBEB"/>
<path d="M103.801 260.135H75.2874V288.345H103.801V260.135Z" fill="#F5F5F5"/>
<path d="M103.795 260.135H97.002V288.345H103.795V260.135Z" fill="#EBEBEB"/>
<path d="M59.3401 288.345V286.698H149.173V288.345" fill="#E0E0E0"/>
<path d="M88.8433 300.645H82.0063V316.829H88.8433V300.645Z" fill="#FAFAFA"/>
<path d="M106.441 323.177C106.441 323.345 97.4042 323.486 86.2558 323.486C75.1074 323.486 66.0708 323.345 66.0708 323.177C66.0708 323.008 75.1074 322.867 86.2558 322.867C97.4042 322.867 106.441 323.008 106.441 323.177Z" fill="#E0E0E0"/>
<path d="M129.563 300.645H122.726V316.829H129.563V300.645Z" fill="#E0E0E0"/>
<path d="M147.16 323.177C147.16 323.345 138.123 323.486 126.975 323.486C115.826 323.486 106.79 323.345 106.79 323.177C106.79 323.008 115.826 322.867 126.975 322.867C138.123 322.867 147.16 323.008 147.16 323.177Z" fill="#E0E0E0"/>
<path d="M129.563 332.775H122.726V348.959H129.563V332.775Z" fill="#E0E0E0"/>
<path d="M147.16 355.307C147.16 355.476 138.123 355.616 126.975 355.616C115.826 355.616 106.79 355.476 106.79 355.307C106.79 355.138 115.826 354.997 126.975 354.997C138.123 354.997 147.16 355.138 147.16 355.307Z" fill="#E0E0E0"/>
<path d="M129.563 365.868H122.726V382.053H129.563V365.868Z" fill="#E0E0E0"/>
<path d="M147.16 388.4C147.16 388.576 138.123 388.71 126.975 388.71C115.826 388.71 106.79 388.576 106.79 388.4C106.79 388.224 115.826 388.091 126.975 388.091C138.123 388.091 147.16 388.231 147.16 388.4Z" fill="#E0E0E0"/>
<path d="M129.563 398.969H122.726V415.154H129.563V398.969Z" fill="#E0E0E0"/>
<path d="M147.16 421.521C147.16 421.69 138.123 421.831 126.975 421.831C115.826 421.831 106.79 421.69 106.79 421.521C106.79 421.353 115.826 421.212 126.975 421.212C138.123 421.212 147.16 421.324 147.16 421.521Z" fill="#E0E0E0"/>
<path d="M129.563 431.113H122.726V447.297H129.563V431.113Z" fill="#E0E0E0"/>
<path d="M147.16 453.651C147.16 453.82 138.123 453.961 126.975 453.961C115.826 453.961 106.79 453.82 106.79 453.651C106.79 453.482 115.826 453.341 126.975 453.341C138.123 453.341 147.16 453.475 147.16 453.651Z" fill="#E0E0E0"/>
<path d="M129.563 463.397H122.726V479.582H129.563V463.397Z" fill="#E0E0E0"/>
<path d="M129.563 496.097H122.726V512.281H129.563V496.097Z" fill="#E0E0E0"/>
<path d="M147.16 485.929C147.16 486.098 138.123 486.238 126.975 486.238C115.826 486.238 106.79 486.098 106.79 485.929C106.79 485.76 115.826 485.619 126.975 485.619C138.123 485.619 147.16 485.76 147.16 485.929Z" fill="#E0E0E0"/>
<path d="M88.8433 333.26H82.0063V349.445H88.8433V333.26Z" fill="#FAFAFA"/>
<path d="M106.441 355.799C106.441 355.968 97.4042 356.101 86.2558 356.101C75.1074 356.101 66.0708 355.968 66.0708 355.799C66.0708 355.63 75.1074 355.489 86.2558 355.489C97.4042 355.489 106.441 355.623 106.441 355.799Z" fill="#E0E0E0"/>
<path d="M88.8433 365.883H82.0063V382.067H88.8433V365.883Z" fill="#FAFAFA"/>
<path d="M106.441 388.449C106.441 388.618 97.4042 388.759 86.2558 388.759C75.1074 388.759 66.0708 388.618 66.0708 388.449C66.0708 388.28 75.1074 388.14 86.2558 388.14C97.4042 388.14 106.441 388.245 106.441 388.449Z" fill="#E0E0E0"/>
<path d="M88.8433 398.497H82.0063V414.682H88.8433V398.497Z" fill="#FAFAFA"/>
<path d="M106.441 421.029C106.441 421.205 97.4042 421.339 86.2558 421.339C75.1074 421.339 66.0708 421.205 66.0708 421.029C66.0708 420.853 75.1074 420.72 86.2558 420.72C97.4042 420.72 106.441 420.86 106.441 421.029Z" fill="#E0E0E0"/>
<path d="M88.8433 431.113H82.0063V447.297H88.8433V431.113Z" fill="#FAFAFA"/>
<path d="M106.441 453.651C106.441 453.82 97.4042 453.961 86.2558 453.961C75.1074 453.961 66.0708 453.82 66.0708 453.651C66.0708 453.482 75.1074 453.341 86.2558 453.341C97.4042 453.341 106.441 453.475 106.441 453.651Z" fill="#E0E0E0"/>
<path d="M88.8433 463.735H82.0063V479.92H88.8433V463.735Z" fill="#FAFAFA"/>
<path d="M106.441 486.26C106.441 486.428 97.4042 486.569 86.2558 486.569C75.1074 486.569 66.0708 486.428 66.0708 486.26C66.0708 486.091 75.1074 485.95 86.2558 485.95C97.4042 485.95 106.441 486.098 106.441 486.26Z" fill="#E0E0E0"/>
<path d="M88.8433 496.35H82.0063V512.535H88.8433V496.35Z" fill="#FAFAFA"/>
<path d="M465.408 222.812H349.023V636.992H465.408V222.812Z" fill="#F5F5F5"/>
<path d="M465.414 222.812H407.222V635.853H465.414V222.812Z" fill="#EBEBEB"/>
<path d="M403.411 182.154H362.314V222.812H403.411V182.154Z" fill="#F5F5F5"/>
<path d="M403.411 182.154H393.616V222.812H403.411V182.154Z" fill="#EBEBEB"/>
<path d="M339.322 222.812V220.441H468.817V222.812" fill="#E0E0E0"/>
<path d="M381.847 240.545H371.996V263.871H381.847V240.545Z" fill="#FAFAFA"/>
<path d="M407.222 273.048C407.222 273.294 394.194 273.498 378.126 273.498C362.058 273.498 349.023 273.294 349.023 273.048C349.023 272.801 362.052 272.604 378.126 272.604C394.2 272.604 407.222 272.78 407.222 273.048Z" fill="#E0E0E0"/>
<path d="M440.547 240.545H430.696V263.871H440.547V240.545Z" fill="#E0E0E0"/>
<path d="M465.916 273.048C465.916 273.294 452.893 273.498 436.826 273.498C420.758 273.498 407.723 273.294 407.723 273.048C407.723 272.801 420.752 272.604 436.826 272.604C452.9 272.604 465.916 272.78 465.916 273.048Z" fill="#E0E0E0"/>
<path d="M440.547 286.861H430.696V310.187H440.547V286.861Z" fill="#E0E0E0"/>
<path d="M465.916 319.335C465.916 319.581 452.893 319.785 436.826 319.785C420.758 319.785 407.723 319.581 407.723 319.335C407.723 319.088 420.752 318.891 436.826 318.891C452.9 318.891 465.916 319.095 465.916 319.335Z" fill="#E0E0E0"/>
<path d="M440.547 334.569H430.696V357.896H440.547V334.569Z" fill="#E0E0E0"/>
<path d="M465.916 367.044C465.916 367.291 452.893 367.495 436.826 367.495C420.758 367.495 407.723 367.291 407.723 367.044C407.723 366.798 420.752 366.601 436.826 366.601C452.9 366.601 465.916 366.798 465.916 367.044Z" fill="#E0E0E0"/>
<path d="M440.547 382.271H430.696V405.598H440.547V382.271Z" fill="#E0E0E0"/>
<path d="M465.916 414.753C465.916 414.999 452.893 415.196 436.826 415.196C420.758 415.196 407.723 414.999 407.723 414.753C407.723 414.506 420.752 414.309 436.826 414.309C452.9 414.309 465.916 414.485 465.916 414.753Z" fill="#E0E0E0"/>
<path d="M440.547 428.615H430.696V451.942H440.547V428.615Z" fill="#E0E0E0"/>
<path d="M465.916 461.097C465.916 461.343 452.893 461.54 436.826 461.54C420.758 461.54 407.723 461.343 407.723 461.097C407.723 460.85 420.752 460.653 436.826 460.653C452.9 460.653 465.916 460.85 465.916 461.097Z" fill="#E0E0E0"/>
<path d="M440.547 475.149H430.696V498.475H440.547V475.149Z" fill="#E0E0E0"/>
<path d="M440.547 522.287H430.696V545.614H440.547V522.287Z" fill="#E0E0E0"/>
<path d="M465.916 507.63C465.916 507.876 452.893 508.073 436.826 508.073C420.758 508.073 407.723 507.876 407.723 507.63C407.723 507.384 420.752 507.18 436.826 507.18C452.9 507.18 465.916 507.37 465.916 507.63Z" fill="#E0E0E0"/>
<path d="M381.847 287.564H371.996V310.89H381.847V287.564Z" fill="#FAFAFA"/>
<path d="M407.222 320.046C407.222 320.292 394.194 320.489 378.126 320.489C362.058 320.489 349.023 320.292 349.023 320.046C349.023 319.8 362.052 319.603 378.126 319.603C394.2 319.603 407.222 319.8 407.222 320.046Z" fill="#E0E0E0"/>
<path d="M381.847 334.583H371.996V357.91H381.847V334.583Z" fill="#FAFAFA"/>
<path d="M407.222 367.065C407.222 367.311 394.194 367.508 378.126 367.508C362.058 367.508 349.023 367.311 349.023 367.065C349.023 366.818 362.052 366.614 378.126 366.614C394.2 366.614 407.222 366.818 407.222 367.065Z" fill="#E0E0E0"/>
<path d="M381.847 381.603H371.996V404.93H381.847V381.603Z" fill="#FAFAFA"/>
<path d="M407.222 414.077C407.222 414.323 394.194 414.527 378.126 414.527C362.058 414.527 349.023 414.323 349.023 414.077C349.023 413.831 362.052 413.634 378.126 413.634C394.2 413.634 407.222 413.831 407.222 414.077Z" fill="#E0E0E0"/>
<path d="M381.847 428.615H371.996V451.942H381.847V428.615Z" fill="#FAFAFA"/>
<path d="M407.222 461.097C407.222 461.343 394.194 461.54 378.126 461.54C362.058 461.54 349.023 461.343 349.023 461.097C349.023 460.85 362.052 460.653 378.126 460.653C394.2 460.653 407.222 460.85 407.222 461.097Z" fill="#E0E0E0"/>
<path d="M381.847 475.634H371.996V498.961H381.847V475.634Z" fill="#FAFAFA"/>
<path d="M407.222 508.115C407.222 508.361 394.194 508.558 378.126 508.558C362.058 508.558 349.023 508.361 349.023 508.115C349.023 507.869 362.052 507.672 378.126 507.672C394.2 507.672 407.222 507.869 407.222 508.115Z" fill="#E0E0E0"/>
<path d="M381.847 522.653H371.996V545.98H381.847V522.653Z" fill="#FAFAFA"/>
<path d="M506.486 410.699H442.898V636.979H506.486V410.699Z" fill="#F5F5F5"/>
<path d="M506.48 410.699H474.689V636.36H506.48V410.699Z" fill="#EBEBEB"/>
<path d="M472.608 388.485H450.155V410.7H472.608V388.485Z" fill="#F5F5F5"/>
<path d="M472.608 388.485H467.257V410.7H472.608V388.485Z" fill="#EBEBEB"/>
<path d="M437.596 410.699V409.398H508.347V410.699" fill="#E0E0E0"/>
<path d="M460.834 420.382H455.45V433.126H460.834V420.382Z" fill="#FAFAFA"/>
<path d="M474.689 438.129C474.689 438.263 467.57 438.375 458.797 438.375C450.023 438.375 442.898 438.263 442.898 438.129C442.898 437.995 450.011 437.89 458.797 437.89C467.582 437.89 474.689 437.995 474.689 438.129Z" fill="#E0E0E0"/>
<path d="M492.9 420.382H487.517V433.126H492.9V420.382Z" fill="#E0E0E0"/>
<path d="M506.762 438.129C506.762 438.263 499.643 438.375 490.864 438.375C482.084 438.375 474.965 438.263 474.965 438.129C474.965 437.995 482.084 437.89 490.864 437.89C499.643 437.89 506.762 437.995 506.762 438.129Z" fill="#E0E0E0"/>
<path d="M492.9 445.686H487.517V458.43H492.9V445.686Z" fill="#E0E0E0"/>
<path d="M506.762 463.432C506.762 463.566 499.643 463.671 490.864 463.671C482.084 463.671 474.965 463.566 474.965 463.432C474.965 463.298 482.084 463.186 490.864 463.186C499.643 463.186 506.762 463.298 506.762 463.432Z" fill="#E0E0E0"/>
<path d="M492.9 471.75H487.517V484.493H492.9V471.75Z" fill="#E0E0E0"/>
<path d="M506.762 489.497C506.762 489.63 499.643 489.736 490.864 489.736C482.084 489.736 474.965 489.63 474.965 489.497C474.965 489.363 482.084 489.25 490.864 489.25C499.643 489.25 506.762 489.363 506.762 489.497Z" fill="#E0E0E0"/>
<path d="M492.9 497.814H487.517V510.557H492.9V497.814Z" fill="#E0E0E0"/>
<path d="M506.762 515.561C506.762 515.694 499.643 515.807 490.864 515.807C482.084 515.807 474.965 515.694 474.965 515.561C474.965 515.427 482.084 515.314 490.864 515.314C499.643 515.314 506.762 515.427 506.762 515.561Z" fill="#E0E0E0"/>
<path d="M492.9 523.131H487.517V535.875H492.9V523.131Z" fill="#E0E0E0"/>
<path d="M506.762 540.878C506.762 541.012 499.643 541.125 490.864 541.125C482.084 541.125 474.965 541.012 474.965 540.878C474.965 540.745 482.084 540.639 490.864 540.639C499.643 540.639 506.762 540.745 506.762 540.878Z" fill="#E0E0E0"/>
<path d="M492.9 548.556H487.517V561.299H492.9V548.556Z" fill="#E0E0E0"/>
<path d="M492.9 574.31H487.517V587.054H492.9V574.31Z" fill="#E0E0E0"/>
<path d="M506.762 566.302C506.762 566.436 499.643 566.542 490.864 566.542C482.084 566.542 474.965 566.436 474.965 566.302C474.965 566.169 482.109 566.056 490.882 566.056C499.656 566.056 506.762 566.169 506.762 566.302Z" fill="#E0E0E0"/>
<path d="M460.834 446.073H455.45V458.816H460.834V446.073Z" fill="#FAFAFA"/>
<path d="M474.689 463.819C474.689 463.953 467.57 464.059 458.797 464.059C450.023 464.059 442.898 463.953 442.898 463.819C442.898 463.686 450.011 463.573 458.797 463.573C467.582 463.573 474.689 463.686 474.689 463.819Z" fill="#E0E0E0"/>
<path d="M460.834 471.757H455.45V484.501H460.834V471.757Z" fill="#FAFAFA"/>
<path d="M474.689 489.504C474.689 489.637 467.57 489.75 458.797 489.75C450.023 489.75 442.898 489.637 442.898 489.504C442.898 489.37 450.011 489.264 458.797 489.264C467.582 489.264 474.689 489.37 474.689 489.504Z" fill="#E0E0E0"/>
<path d="M460.834 497.448H455.45V510.191H460.834V497.448Z" fill="#FAFAFA"/>
<path d="M474.689 515.195C474.689 515.328 467.57 515.434 458.797 515.434C450.023 515.434 442.898 515.328 442.898 515.195C442.898 515.061 450.011 514.948 458.797 514.948C467.582 514.948 474.689 515.061 474.689 515.195Z" fill="#E0E0E0"/>
<path d="M460.834 523.131H455.45V535.875H460.834V523.131Z" fill="#FAFAFA"/>
<path d="M474.689 540.878C474.689 541.012 467.57 541.125 458.797 541.125C450.023 541.125 442.898 541.012 442.898 540.878C442.898 540.745 450.011 540.639 458.797 540.639C467.582 540.639 474.689 540.745 474.689 540.878Z" fill="#E0E0E0"/>
<path d="M460.834 548.823H455.45V561.566H460.834V548.823Z" fill="#FAFAFA"/>
<path d="M474.689 566.569C474.689 566.703 467.57 566.809 458.797 566.809C450.023 566.809 442.898 566.703 442.898 566.569C442.898 566.436 450.011 566.323 458.797 566.323C467.582 566.323 474.689 566.429 474.689 566.569Z" fill="#E0E0E0"/>
<path d="M460.834 574.507H455.45V587.25H460.834V574.507Z" fill="#FAFAFA"/>
<path d="M997.832 636.993H1114.22V222.813H997.832V636.993Z" fill="#F5F5F5"/>
<path d="M997.832 635.853H1056.02V222.812H997.832V635.853Z" fill="#EBEBEB"/>
<path d="M1059.83 222.812H1100.93V182.154H1059.83V222.812Z" fill="#F5F5F5"/>
<path d="M1059.83 222.812H1069.62V182.154H1059.83V222.812Z" fill="#EBEBEB"/>
<path d="M1123.92 222.812V220.441H994.424V222.812" fill="#E0E0E0"/>
<path d="M1081.39 263.879H1091.24V240.552H1081.39V263.879Z" fill="#FAFAFA"/>
<path d="M1056.02 273.048C1056.02 273.294 1069.05 273.498 1085.12 273.498C1101.19 273.498 1114.22 273.294 1114.22 273.048C1114.22 272.801 1101.19 272.604 1085.12 272.604C1069.05 272.604 1056.02 272.78 1056.02 273.048Z" fill="#E0E0E0"/>
<path d="M1022.69 263.879H1032.54V240.552H1022.69V263.879Z" fill="#E0E0E0"/>
<path d="M997.325 273.048C997.325 273.294 1010.35 273.498 1026.42 273.498C1042.49 273.498 1055.52 273.294 1055.52 273.048C1055.52 272.801 1042.49 272.604 1026.42 272.604C1010.35 272.604 997.325 272.78 997.325 273.048Z" fill="#E0E0E0"/>
<path d="M1022.69 310.18H1032.54V286.853H1022.69V310.18Z" fill="#E0E0E0"/>
<path d="M997.325 319.335C997.325 319.581 1010.35 319.785 1026.42 319.785C1042.49 319.785 1055.52 319.581 1055.52 319.335C1055.52 319.088 1042.49 318.891 1026.42 318.891C1010.35 318.891 997.325 319.095 997.325 319.335Z" fill="#E0E0E0"/>
<path d="M1022.69 357.889H1032.54V334.562H1022.69V357.889Z" fill="#E0E0E0"/>
<path d="M997.325 367.044C997.325 367.291 1010.35 367.495 1026.42 367.495C1042.49 367.495 1055.52 367.291 1055.52 367.044C1055.52 366.798 1042.49 366.601 1026.42 366.601C1010.35 366.601 997.325 366.798 997.325 367.044Z" fill="#E0E0E0"/>
<path d="M1022.69 405.604H1032.54V382.278H1022.69V405.604Z" fill="#E0E0E0"/>
<path d="M997.325 414.753C997.325 414.999 1010.35 415.196 1026.42 415.196C1042.49 415.196 1055.52 414.999 1055.52 414.753C1055.52 414.506 1042.49 414.309 1026.42 414.309C1010.35 414.309 997.325 414.485 997.325 414.753Z" fill="#E0E0E0"/>
<path d="M1022.69 451.942H1032.54V428.615H1022.69V451.942Z" fill="#E0E0E0"/>
<path d="M997.325 461.097C997.325 461.343 1010.35 461.54 1026.42 461.54C1042.49 461.54 1055.52 461.343 1055.52 461.097C1055.52 460.851 1042.5 460.654 1026.42 460.654C1010.35 460.654 997.325 460.851 997.325 461.097Z" fill="#E0E0E0"/>
<path d="M1022.69 498.468H1032.54V475.141H1022.69V498.468Z" fill="#E0E0E0"/>
<path d="M1022.69 545.614H1032.54V522.287H1022.69V545.614Z" fill="#E0E0E0"/>
<path d="M997.325 507.63C997.325 507.876 1010.35 508.073 1026.42 508.073C1042.49 508.073 1055.52 507.876 1055.52 507.63C1055.52 507.384 1042.5 507.18 1026.42 507.18C1010.35 507.18 997.325 507.37 997.325 507.63Z" fill="#E0E0E0"/>
<path d="M1081.39 310.891H1091.24V287.564H1081.39V310.891Z" fill="#FAFAFA"/>
<path d="M1056.02 320.046C1056.02 320.292 1069.05 320.489 1085.12 320.489C1101.19 320.489 1114.22 320.292 1114.22 320.046C1114.22 319.8 1101.19 319.603 1085.12 319.603C1069.05 319.603 1056.02 319.8 1056.02 320.046Z" fill="#E0E0E0"/>
<path d="M1081.39 357.903H1091.24V334.576H1081.39V357.903Z" fill="#FAFAFA"/>
<path d="M1056.02 367.065C1056.02 367.311 1069.05 367.508 1085.12 367.508C1101.19 367.508 1114.22 367.311 1114.22 367.065C1114.22 366.818 1101.19 366.614 1085.12 366.614C1069.05 366.614 1056.02 366.818 1056.02 367.065Z" fill="#E0E0E0"/>
<path d="M1081.39 404.922H1091.24V381.596H1081.39V404.922Z" fill="#FAFAFA"/>
<path d="M1056.02 414.077C1056.02 414.323 1069.05 414.527 1085.12 414.527C1101.19 414.527 1114.22 414.323 1114.22 414.077C1114.22 413.831 1101.19 413.634 1085.12 413.634C1069.05 413.634 1056.02 413.831 1056.02 414.077Z" fill="#E0E0E0"/>
<path d="M1081.39 451.942H1091.24V428.615H1081.39V451.942Z" fill="#FAFAFA"/>
<path d="M1056.02 461.097C1056.02 461.343 1069.05 461.54 1085.12 461.54C1101.19 461.54 1114.22 461.343 1114.22 461.097C1114.22 460.851 1101.19 460.654 1085.12 460.654C1069.05 460.654 1056.02 460.851 1056.02 461.097Z" fill="#E0E0E0"/>
<path d="M1081.39 498.961H1091.24V475.635H1081.39V498.961Z" fill="#FAFAFA"/>
<path d="M1056.02 508.115C1056.02 508.361 1069.05 508.558 1085.12 508.558C1101.19 508.558 1114.22 508.361 1114.22 508.115C1114.22 507.869 1101.19 507.672 1085.12 507.672C1069.05 507.672 1056.02 507.869 1056.02 508.115Z" fill="#E0E0E0"/>
<path d="M1081.39 545.973H1091.24V522.646H1081.39V545.973Z" fill="#FAFAFA"/>
<path d="M956.754 636.972H1020.34V410.692H956.754V636.972Z" fill="#F5F5F5"/>
<path d="M956.76 636.352H988.551V410.692H956.76V636.352Z" fill="#EBEBEB"/>
<path d="M990.632 410.692H1013.09V388.478H990.632V410.692Z" fill="#F5F5F5"/>
<path d="M990.632 410.692H995.984V388.478H990.632V410.692Z" fill="#EBEBEB"/>
<path d="M1025.64 410.699V409.398H954.899V410.699" fill="#E0E0E0"/>
<path d="M1002.41 433.133H1007.79V420.389H1002.41V433.133Z" fill="#FAFAFA"/>
<path d="M988.551 438.129C988.551 438.263 995.67 438.375 1004.45 438.375C1013.23 438.375 1020.35 438.263 1020.35 438.129C1020.35 437.995 1013.23 437.89 1004.45 437.89C995.67 437.89 988.551 437.995 988.551 438.129Z" fill="#E0E0E0"/>
<path d="M970.34 433.133H975.723V420.389H970.34V433.133Z" fill="#E0E0E0"/>
<path d="M956.497 438.129C956.497 438.263 963.61 438.375 972.389 438.375C981.169 438.375 988.288 438.263 988.288 438.129C988.288 437.995 981.169 437.89 972.389 437.89C963.61 437.89 956.497 437.995 956.497 438.129Z" fill="#E0E0E0"/>
<path d="M970.341 458.429H975.724V445.686H970.341V458.429Z" fill="#E0E0E0"/>
<path d="M956.497 463.432C956.497 463.566 963.61 463.671 972.389 463.671C981.169 463.671 988.288 463.566 988.288 463.432C988.288 463.298 981.169 463.186 972.389 463.186C963.61 463.186 956.497 463.298 956.497 463.432Z" fill="#E0E0E0"/>
<path d="M970.341 484.494H975.724V471.75H970.341V484.494Z" fill="#E0E0E0"/>
<path d="M956.497 489.497C956.497 489.63 963.61 489.736 972.389 489.736C981.169 489.736 988.288 489.63 988.288 489.497C988.288 489.363 981.169 489.25 972.389 489.25C963.61 489.25 956.497 489.363 956.497 489.497Z" fill="#E0E0E0"/>
<path d="M970.341 510.558H975.724V497.814H970.341V510.558Z" fill="#E0E0E0"/>
<path d="M956.497 515.561C956.497 515.694 963.61 515.807 972.389 515.807C981.169 515.807 988.288 515.694 988.288 515.561C988.288 515.427 981.169 515.314 972.389 515.314C963.61 515.314 956.497 515.427 956.497 515.561Z" fill="#E0E0E0"/>
<path d="M970.341 535.882H975.724V523.139H970.341V535.882Z" fill="#E0E0E0"/>
<path d="M956.497 540.878C956.497 541.012 963.61 541.125 972.389 541.125C981.169 541.125 988.288 541.012 988.288 540.878C988.288 540.745 981.169 540.639 972.389 540.639C963.61 540.639 956.497 540.745 956.497 540.878Z" fill="#E0E0E0"/>
<path d="M970.341 561.299H975.724V548.556H970.341V561.299Z" fill="#E0E0E0"/>
<path d="M970.341 587.054H975.724V574.31H970.341V587.054Z" fill="#E0E0E0"/>
<path d="M956.497 566.302C956.497 566.436 963.61 566.542 972.389 566.542C981.169 566.542 988.288 566.436 988.288 566.302C988.288 566.169 981.169 566.056 972.389 566.056C963.61 566.056 956.497 566.169 956.497 566.302Z" fill="#E0E0E0"/>
<path d="M1002.41 458.817H1007.79V446.073H1002.41V458.817Z" fill="#FAFAFA"/>
<path d="M988.551 463.819C988.551 463.953 995.67 464.059 1004.45 464.059C1013.23 464.059 1020.35 463.953 1020.35 463.819C1020.35 463.686 1013.23 463.573 1004.45 463.573C995.67 463.573 988.551 463.686 988.551 463.819Z" fill="#E0E0E0"/>
<path d="M1002.41 484.508H1007.79V471.764H1002.41V484.508Z" fill="#FAFAFA"/>
<path d="M988.551 489.504C988.551 489.637 995.67 489.75 1004.45 489.75C1013.23 489.75 1020.35 489.637 1020.35 489.504C1020.35 489.37 1013.23 489.264 1004.45 489.264C995.67 489.264 988.551 489.37 988.551 489.504Z" fill="#E0E0E0"/>
<path d="M1002.41 510.192H1007.79V497.448H1002.41V510.192Z" fill="#FAFAFA"/>
<path d="M988.551 515.195C988.551 515.329 995.67 515.434 1004.45 515.434C1013.23 515.434 1020.35 515.329 1020.35 515.195C1020.35 515.061 1013.23 514.949 1004.45 514.949C995.67 514.949 988.551 515.061 988.551 515.195Z" fill="#E0E0E0"/>
<path d="M1002.41 535.882H1007.79V523.139H1002.41V535.882Z" fill="#FAFAFA"/>
<path d="M988.551 540.878C988.551 541.012 995.67 541.125 1004.45 541.125C1013.23 541.125 1020.35 541.012 1020.35 540.878C1020.35 540.745 1013.23 540.639 1004.45 540.639C995.67 540.639 988.551 540.745 988.551 540.878Z" fill="#E0E0E0"/>
<path d="M1002.41 561.566H1007.79V548.823H1002.41V561.566Z" fill="#FAFAFA"/>
<path d="M988.551 566.57C988.551 566.703 995.67 566.809 1004.45 566.809C1013.23 566.809 1020.35 566.703 1020.35 566.57C1020.35 566.436 1013.23 566.323 1004.45 566.323C995.67 566.323 988.551 566.429 988.551 566.57Z" fill="#E0E0E0"/>
<path d="M1002.41 587.25H1007.79V574.507H1002.41V587.25Z" fill="#FAFAFA"/>
<path d="M187.593 491.094H119.136V636.979H187.593V491.094Z" fill="#E0E0E0"/>
<path d="M187.593 491.094H155.495V636.979H187.593V491.094Z" fill="#EBEBEB"/>
<path d="M139.647 504.815H133.493V521.605H139.647V504.815Z" fill="#F5F5F5"/>
<path d="M139.647 570.538H133.493V587.328H139.647V570.538Z" fill="#F5F5F5"/>
<path d="M155.496 528.198C155.496 528.345 147.349 528.465 137.322 528.465C127.296 528.465 119.149 528.345 119.149 528.198C119.149 528.05 127.296 527.937 137.322 527.937C147.349 527.937 155.496 528.057 155.496 528.198Z" fill="#F5F5F5"/>
<path d="M139.647 537.93H133.493V554.719H139.647V537.93Z" fill="#F5F5F5"/>
<path d="M155.496 561.313C155.496 561.454 147.349 561.574 137.322 561.574C127.296 561.574 119.149 561.454 119.149 561.313C119.149 561.173 127.296 561.046 137.322 561.046C147.349 561.046 155.496 561.166 155.496 561.313Z" fill="#F5F5F5"/>
<path d="M168.467 504.815H162.313V521.605H168.467V504.815Z" fill="#E0E0E0"/>
<path d="M181.821 504.815H175.667V521.605H181.821V504.815Z" fill="#E0E0E0"/>
<path d="M168.467 536.685H162.313V553.474H168.467V536.685Z" fill="#E0E0E0"/>
<path d="M181.821 536.685H175.667V553.474H181.821V536.685Z" fill="#E0E0E0"/>
<path d="M168.467 568.546H162.313V585.336H168.467V568.546Z" fill="#E0E0E0"/>
<path d="M181.821 568.546H175.667V585.336H181.821V568.546Z" fill="#E0E0E0"/>
<path d="M192.738 487.562H113.991V491.221H192.738V487.562Z" fill="#E0E0E0"/>
<path d="M188.076 491.565C188.076 491.706 172.773 491.825 153.904 491.825C135.035 491.825 119.731 491.706 119.731 491.565C119.731 491.424 135.028 491.298 153.904 491.298C172.779 491.298 188.076 491.417 188.076 491.565Z" fill="#EBEBEB"/>
<path d="M119.919 636.881H9.66882L9.18628 441.225H119.442L119.919 636.881Z" fill="#EBEBEB"/>
<path d="M119.443 441.225H64.3147V636.881H119.443V441.225Z" fill="#E0E0E0"/>
<path d="M60.7108 402.706H21.7759V441.225H60.7108V402.706Z" fill="#EBEBEB"/>
<path d="M60.7114 402.706H51.4304V441.225H60.7114V402.706Z" fill="#E0E0E0"/>
<path d="M122.664 438.974H0V441.218H122.664V438.974Z" fill="#E0E0E0"/>
<path d="M40.282 458.021H30.9509V480.116H40.282V458.021Z" fill="white"/>
<path d="M64.3153 488.786C64.3153 489.025 51.9762 489.208 36.7419 489.208C21.5076 489.208 9.16846 489.025 9.16846 488.786C9.16846 488.547 21.5013 488.371 36.7419 488.371C51.9825 488.371 64.3153 488.554 64.3153 488.786Z" fill="#E0E0E0"/>
<path d="M95.8931 458.021H86.562V480.116H95.8931V458.021Z" fill="#F5F5F5"/>
<path d="M119.894 488.786C119.894 489.025 107.555 489.208 92.3203 489.208C77.0859 489.208 64.7468 489.025 64.7468 488.786C64.7468 488.547 77.0859 488.371 92.3203 488.371C107.555 488.371 119.894 488.554 119.894 488.786Z" fill="#EBEBEB"/>
<path d="M95.8931 501.888H86.562V523.983H95.8931V501.888Z" fill="#F5F5F5"/>
<path d="M119.894 532.66C119.894 532.892 107.555 533.082 92.3203 533.082C77.0859 533.082 64.7468 532.892 64.7468 532.66C64.7468 532.427 77.0859 532.237 92.3203 532.237C107.555 532.237 119.894 532.427 119.894 532.66Z" fill="#EBEBEB"/>
<path d="M95.8931 547.085H86.562V569.18H95.8931V547.085Z" fill="#F5F5F5"/>
<path d="M119.894 577.849C119.894 578.081 107.555 578.271 92.3203 578.271C77.0859 578.271 64.7468 578.081 64.7468 577.849C64.7468 577.617 77.0859 577.427 92.3203 577.427C107.555 577.427 119.894 577.617 119.894 577.849Z" fill="#EBEBEB"/>
<path d="M95.8931 592.275H86.562V614.37H95.8931V592.275Z" fill="#F5F5F5"/>
<path d="M119.894 623.046C119.894 623.278 107.555 623.468 92.3203 623.468C77.0859 623.468 64.7468 623.278 64.7468 623.046C64.7468 622.814 77.0859 622.624 92.3203 622.624C107.555 622.624 119.894 622.814 119.894 623.046Z" fill="#EBEBEB"/>
<path d="M40.282 502.557H30.9509V524.652H40.282V502.557Z" fill="white"/>
<path d="M64.3153 533.328C64.3153 533.56 51.9762 533.75 36.7419 533.75C21.5076 533.75 9.16846 533.56 9.16846 533.328C9.16846 533.095 21.5013 532.905 36.7419 532.905C51.9825 532.905 64.3153 533.095 64.3153 533.328Z" fill="#E0E0E0"/>
<path d="M40.282 547.099H30.9509V569.194H40.282V547.099Z" fill="white"/>
<path d="M64.3153 577.863C64.3153 578.103 51.9762 578.286 36.7419 578.286C21.5076 578.286 9.16846 578.103 9.16846 577.863C9.16846 577.624 21.5013 577.441 36.7419 577.441C51.9825 577.441 64.3153 577.631 64.3153 577.863Z" fill="#E0E0E0"/>
<path d="M40.282 591.635H30.9509V613.73H40.282V591.635Z" fill="white"/>
<path d="M64.3153 622.406C64.3153 622.638 51.9762 622.828 36.7419 622.828C21.5076 622.828 9.16846 622.638 9.16846 622.406C9.16846 622.174 21.5013 621.984 36.7419 621.984C51.9825 621.984 64.3153 622.174 64.3153 622.406Z" fill="#E0E0E0"/>
<path d="M852.332 288.345H771.592V575.675H852.332V288.345Z" fill="#F5F5F5"/>
<path d="M852.332 288.345H811.962V574.887H852.332V288.345Z" fill="#EBEBEB"/>
<path d="M809.324 260.135H780.811V288.345H809.324V260.135Z" fill="#F5F5F5"/>
<path d="M809.324 260.135H802.531V288.345H809.324V260.135Z" fill="#EBEBEB"/>
<path d="M764.862 288.345V286.698H854.701V288.345" fill="#E0E0E0"/>
<path d="M794.371 300.645H787.534V316.829H794.371V300.645Z" fill="#FAFAFA"/>
<path d="M811.962 323.177C811.962 323.345 802.925 323.486 791.777 323.486C780.628 323.486 771.592 323.345 771.592 323.177C771.592 323.008 780.628 322.867 791.777 322.867C802.925 322.867 811.962 323.008 811.962 323.177Z" fill="#E0E0E0"/>
<path d="M835.093 300.645H828.256V316.829H835.093V300.645Z" fill="#E0E0E0"/>
<path d="M852.69 323.177C852.69 323.345 843.647 323.486 832.505 323.486C821.363 323.486 812.314 323.345 812.314 323.177C812.314 323.008 821.35 322.867 832.505 322.867C843.66 322.867 852.69 323.008 852.69 323.177Z" fill="#E0E0E0"/>
<path d="M835.093 332.775H828.256V348.959H835.093V332.775Z" fill="#E0E0E0"/>
<path d="M852.69 355.307C852.69 355.476 843.647 355.616 832.505 355.616C821.363 355.616 812.314 355.476 812.314 355.307C812.314 355.138 821.35 354.997 832.505 354.997C843.66 354.997 852.69 355.138 852.69 355.307Z" fill="#E0E0E0"/>
<path d="M835.093 365.868H828.256V382.053H835.093V365.868Z" fill="#E0E0E0"/>
<path d="M852.69 388.4C852.69 388.576 843.647 388.71 832.505 388.71C821.363 388.71 812.314 388.576 812.314 388.4C812.314 388.224 821.35 388.091 832.505 388.091C843.66 388.091 852.69 388.231 852.69 388.4Z" fill="#E0E0E0"/>
<path d="M835.093 398.969H828.256V415.154H835.093V398.969Z" fill="#E0E0E0"/>
<path d="M852.69 421.521C852.69 421.69 843.647 421.831 832.505 421.831C821.363 421.831 812.314 421.69 812.314 421.521C812.314 421.353 821.35 421.212 832.505 421.212C843.66 421.212 852.69 421.324 852.69 421.521Z" fill="#E0E0E0"/>
<path d="M835.093 431.113H828.256V447.297H835.093V431.113Z" fill="#E0E0E0"/>
<path d="M852.69 453.651C852.69 453.82 843.647 453.961 832.505 453.961C821.363 453.961 812.314 453.82 812.314 453.651C812.314 453.482 821.35 453.342 832.505 453.342C843.66 453.342 852.69 453.475 852.69 453.651Z" fill="#E0E0E0"/>
<path d="M835.093 463.397H828.256V479.582H835.093V463.397Z" fill="#E0E0E0"/>
<path d="M835.093 496.097H828.256V512.282H835.093V496.097Z" fill="#E0E0E0"/>
<path d="M852.69 485.929C852.69 486.098 843.647 486.238 832.505 486.238C821.363 486.238 812.314 486.098 812.314 485.929C812.314 485.76 821.35 485.619 832.505 485.619C843.66 485.619 852.69 485.76 852.69 485.929Z" fill="#E0E0E0"/>
<path d="M794.371 333.26H787.534V349.445H794.371V333.26Z" fill="#FAFAFA"/>
<path d="M811.962 355.799C811.962 355.968 802.925 356.101 791.777 356.101C780.628 356.101 771.592 355.968 771.592 355.799C771.592 355.63 780.628 355.489 791.777 355.489C802.925 355.489 811.962 355.623 811.962 355.799Z" fill="#E0E0E0"/>
<path d="M794.371 365.883H787.534V382.067H794.371V365.883Z" fill="#FAFAFA"/>
<path d="M811.962 388.449C811.962 388.618 802.925 388.759 791.777 388.759C780.628 388.759 771.592 388.618 771.592 388.449C771.592 388.28 780.628 388.14 791.777 388.14C802.925 388.14 811.962 388.245 811.962 388.449Z" fill="#E0E0E0"/>
<path d="M794.371 398.497H787.534V414.682H794.371V398.497Z" fill="#FAFAFA"/>
<path d="M811.962 421.029C811.962 421.205 802.925 421.339 791.777 421.339C780.628 421.339 771.592 421.205 771.592 421.029C771.592 420.853 780.628 420.72 791.777 420.72C802.925 420.72 811.962 420.86 811.962 421.029Z" fill="#E0E0E0"/>
<path d="M794.371 431.113H787.534V447.297H794.371V431.113Z" fill="#FAFAFA"/>
<path d="M811.962 453.651C811.962 453.82 802.926 453.961 791.777 453.961C780.629 453.961 771.592 453.82 771.592 453.651C771.592 453.482 780.629 453.342 791.777 453.342C802.926 453.342 811.962 453.475 811.962 453.651Z" fill="#E0E0E0"/>
<path d="M794.371 463.735H787.534V479.92H794.371V463.735Z" fill="#FAFAFA"/>
<path d="M811.962 486.26C811.962 486.428 802.926 486.569 791.777 486.569C780.629 486.569 771.592 486.428 771.592 486.26C771.592 486.091 780.629 485.95 791.777 485.95C802.926 485.95 811.962 486.098 811.962 486.26Z" fill="#E0E0E0"/>
<path d="M794.371 496.35H787.534V512.535H794.371V496.35Z" fill="#FAFAFA"/>
<path d="M825.448 636.881H715.198L714.716 441.225H824.966L825.448 636.881Z" fill="#EBEBEB"/>
<path d="M824.972 441.225H769.844V636.881H824.972V441.225Z" fill="#E0E0E0"/>
<path d="M766.24 402.706H727.305V441.225H766.24V402.706Z" fill="#EBEBEB"/>
<path d="M766.24 402.706H756.959V441.225H766.24V402.706Z" fill="#E0E0E0"/>
<path d="M828.193 438.973H705.529V441.218H828.193V438.973Z" fill="#E0E0E0"/>
<path d="M745.812 458.021H736.481V480.116H745.812V458.021Z" fill="white"/>
<path d="M769.844 488.786C769.844 489.025 757.499 489.208 742.27 489.208C727.042 489.208 714.697 489.025 714.697 488.786C714.697 488.547 727.036 488.371 742.27 488.371C757.505 488.371 769.844 488.554 769.844 488.786Z" fill="#E0E0E0"/>
<path d="M801.415 458.021H792.084V480.116H801.415V458.021Z" fill="#F5F5F5"/>
<path d="M825.448 488.786C825.448 489.025 813.103 489.208 797.874 489.208C782.646 489.208 770.301 489.025 770.301 488.786C770.301 488.547 782.64 488.371 797.874 488.371C813.109 488.371 825.448 488.554 825.448 488.786Z" fill="#EBEBEB"/>
<path d="M801.415 501.888H792.084V523.983H801.415V501.888Z" fill="#F5F5F5"/>
<path d="M825.448 532.66C825.448 532.892 813.103 533.082 797.874 533.082C782.646 533.082 770.301 532.892 770.301 532.66C770.301 532.428 782.64 532.238 797.874 532.238C813.109 532.238 825.448 532.428 825.448 532.66Z" fill="#EBEBEB"/>
<path d="M801.415 547.085H792.084V569.18H801.415V547.085Z" fill="#F5F5F5"/>
<path d="M825.448 577.849C825.448 578.081 813.103 578.272 797.874 578.272C782.646 578.272 770.301 578.081 770.301 577.849C770.301 577.617 782.64 577.427 797.874 577.427C813.109 577.427 825.448 577.617 825.448 577.849Z" fill="#EBEBEB"/>
<path d="M801.415 592.275H792.084V614.37H801.415V592.275Z" fill="#F5F5F5"/>
<path d="M825.448 623.047C825.448 623.279 813.103 623.469 797.874 623.469C782.646 623.469 770.301 623.279 770.301 623.047C770.301 622.814 782.64 622.624 797.874 622.624C813.109 622.624 825.448 622.814 825.448 623.047Z" fill="#EBEBEB"/>
<path d="M745.812 502.557H736.481V524.652H745.812V502.557Z" fill="white"/>
<path d="M769.844 533.328C769.844 533.56 757.499 533.75 742.27 533.75C727.042 533.75 714.697 533.56 714.697 533.328C714.697 533.096 727.036 532.906 742.27 532.906C757.505 532.906 769.844 533.096 769.844 533.328Z" fill="#E0E0E0"/>
<path d="M745.812 547.099H736.481V569.194H745.812V547.099Z" fill="white"/>
<path d="M769.844 577.863C769.844 578.103 757.499 578.286 742.27 578.286C727.042 578.286 714.697 578.103 714.697 577.863C714.697 577.624 727.036 577.441 742.27 577.441C757.505 577.441 769.844 577.631 769.844 577.863Z" fill="#E0E0E0"/>
<path d="M745.812 591.635H736.481V613.73H745.812V591.635Z" fill="white"/>
<path d="M769.844 622.406C769.844 622.638 757.499 622.828 742.27 622.828C727.042 622.828 714.697 622.638 714.697 622.406C714.697 622.174 727.036 621.984 742.27 621.984C757.505 621.984 769.844 622.174 769.844 622.406Z" fill="#E0E0E0"/>
<path d="M666.969 565.38H578.277V636.979H666.969V565.38Z" fill="#EBEBEB"/>
<path d="M602.065 565.38C602.19 565.38 602.065 580.495 602.065 580.495H595.535V565.38H602.065Z" fill="#F5F5F5"/>
<path d="M622.627 636.979H666.97V565.38H622.627V636.979Z" fill="#E0E0E0"/>
<path d="M592.86 622.962H580.985V632.398H592.86V622.962Z" fill="white"/>
<path d="M600.982 622.962H595.047V632.398H600.982V622.962Z" fill="white"/>
<path d="M658.547 518.762H600.8V565.38H658.547V518.762Z" fill="#EBEBEB"/>
<path d="M616.285 518.762C616.366 518.762 616.285 528.614 616.285 528.614H612.011V518.762H616.285Z" fill="#F5F5F5"/>
<path d="M629.671 565.38H658.548V518.762H629.671V565.38Z" fill="#E0E0E0"/>
<path d="M610.294 556.254H602.561V562.397H610.294V556.254Z" fill="white"/>
<path d="M615.583 556.254H611.717V562.397H615.583V556.254Z" fill="white"/>
<path d="M555.253 72.5379C555.898 67.2844 549.286 62.958 544.325 62.5107C541.956 62.2911 539.494 62.6977 537.249 61.8195C532.389 59.9165 530.448 52.8738 525.704 50.6212C522.163 48.9459 518.078 50.4423 514.645 52.3859C511.212 54.3295 507.808 56.7693 503.97 57.0458C500.631 57.2816 497.002 55.891 494.076 57.7289C491.904 59.0951 490.759 61.9089 488.753 63.5679C486.747 65.2269 484.227 65.5441 481.793 65.6905C479.36 65.8368 476.832 65.8694 474.616 67.0079C472.4 68.1464 470.56 70.7813 470.995 73.4731L555.253 72.5379Z" fill="#F5F5F5"/>
<path d="M596.332 218.839C597.252 211.324 587.808 205.144 580.71 204.501C577.328 204.192 573.815 204.778 570.571 203.517C563.625 200.801 560.851 190.725 554.072 187.513C549.002 185.073 543.172 187.253 538.262 190.026C533.352 192.799 528.492 196.296 523.002 196.694C518.229 197.036 513.044 195.068 508.872 197.67C505.758 199.622 504.128 203.647 501.26 206.022C498.392 208.397 494.793 208.836 491.309 209.047C487.825 209.259 484.226 209.299 481.054 210.934C477.882 212.569 475.26 216.326 475.919 220.172L596.332 218.839Z" fill="#F5F5F5"/>
<path d="M614.961 160.789C615.468 156.634 610.253 153.226 606.335 152.868C604.459 152.697 602.518 153.023 600.751 152.323C596.913 150.827 595.377 145.256 591.64 143.483C588.837 142.158 585.614 143.337 582.906 144.874C580.197 146.411 577.51 148.339 574.475 148.558C571.839 148.745 568.978 147.647 566.668 149.095C564.952 150.168 564.054 152.397 562.467 153.706C560.881 155.015 558.897 155.259 556.97 155.381C555.044 155.503 553.06 155.519 551.307 156.422C549.554 157.325 548.106 159.399 548.468 161.521L614.961 160.789Z" fill="#EBEBEB"/>
<path d="M1157.35 102.224C1157.86 98.0763 1152.64 94.6607 1148.73 94.3029C1146.86 94.1402 1144.91 94.4574 1143.14 93.7661C1139.3 92.2616 1137.78 86.6991 1134.03 84.9262C1131.23 83.6007 1128.01 84.7798 1125.3 86.3087C1122.59 87.8376 1119.9 89.7731 1116.87 89.9927C1114.23 90.1797 1111.37 89.0819 1109.06 90.5294C1107.34 91.611 1106.45 93.8312 1104.86 95.1486C1103.27 96.4661 1101.29 96.7019 1099.36 96.7751C1097.44 96.8483 1095.45 96.9133 1093.7 97.816C1091.95 98.7187 1090.5 100.801 1090.86 102.923L1157.35 102.224Z" fill="#EBEBEB"/>
<path d="M1007.91 72.2444C1009.43 59.7925 993.774 49.538 982.007 48.4637C976.395 47.9754 970.544 48.9276 965.237 46.8523C953.709 42.3354 949.12 25.6352 937.875 20.3126C929.457 16.3328 919.778 19.8731 911.644 24.4632C903.509 29.0533 895.439 34.8642 886.326 35.5234C878.408 36.085 869.817 32.7889 862.879 37.1349C857.724 40.3821 855.026 47.0476 850.263 51.0029C845.5 54.9582 839.54 55.6663 833.754 55.886C827.969 56.1057 822.009 56.3011 816.745 59.0112C811.481 61.7213 807.131 67.9717 808.219 74.3441L1007.91 72.2444Z" fill="#EBEBEB"/>
<path d="M947.953 190.722C948.901 182.947 939.138 176.555 931.795 175.889C928.297 175.571 924.661 176.173 921.344 174.88C914.159 172.066 911.291 161.641 904.281 158.323C899.037 155.883 893.004 158.054 887.92 160.925C882.836 163.796 877.78 167.431 872.146 167.813C867.206 168.171 861.847 166.113 857.523 168.822C854.308 170.838 852.62 175.002 849.651 177.466C846.681 179.93 842.959 180.378 839.359 180.597C835.76 180.817 832.03 180.857 828.749 182.541C825.468 184.224 822.76 188.12 823.44 192.104L885.696 191.413L947.953 190.722Z" fill="#F5F5F5"/>
<path d="M747.989 33.4559C748.938 25.6813 739.175 19.2893 731.832 18.6224C728.333 18.3053 724.698 18.9071 721.381 17.614C714.196 14.8002 711.328 4.37451 704.317 1.05651C699.074 -1.3832 693.041 0.788148 687.957 3.65887C682.873 6.5296 677.817 10.1648 672.183 10.547C667.243 10.9048 661.884 8.84732 657.56 11.5554C654.345 13.5722 652.657 17.736 649.688 20.2001C646.718 22.6642 642.996 23.1115 639.396 23.3311C635.797 23.5507 632.067 23.5913 628.786 25.2747C625.505 26.9581 622.796 30.8535 623.477 34.8384L685.733 34.1471L747.989 33.4559Z" fill="#F5F5F5"/>
<path d="M278.131 628.78C278.461 627.355 277.624 625.917 276.691 624.882C275.758 623.846 274.636 622.92 274.152 621.545C273.361 619.328 274.42 616.433 273.077 614.598C272.286 613.505 270.868 613.141 270.162 611.978C269.842 611.334 269.628 610.63 269.531 609.901C268.783 606.209 267.168 602.81 264.852 600.058C264.692 603.347 265.325 606.624 266.685 609.543C267.254 610.706 267.903 611.844 268.079 613.141C268.375 615.25 267.322 617.43 267.789 619.532C268.313 621.903 270.686 623.488 270.8 625.923C270.897 627.988 269.292 629.797 269.411 631.861C269.508 632.738 269.789 633.577 270.231 634.309C271.648 636.961 273.737 638.783 276.902 638.725L280.789 638.872L278.131 628.78Z" fill="#00DEDE"/>
<g opacity="0.3">
<path opacity="0.3" d="M278.131 628.78C278.461 627.355 277.624 625.917 276.691 624.882C275.758 623.846 274.636 622.92 274.152 621.545C273.361 619.328 274.42 616.433 273.077 614.598C272.286 613.505 270.868 613.141 270.162 611.978C269.842 611.334 269.628 610.63 269.531 609.901C268.783 606.209 267.168 602.81 264.852 600.058C264.692 603.347 265.325 606.624 266.685 609.543C267.254 610.706 267.903 611.844 268.079 613.141C268.375 615.25 267.322 617.43 267.789 619.532C268.313 621.903 270.686 623.488 270.8 625.923C270.897 627.988 269.292 629.797 269.411 631.861C269.508 632.738 269.789 633.577 270.231 634.309C271.648 636.961 273.737 638.783 276.902 638.725L280.789 638.872L278.131 628.78Z" fill="black"/>
</g>
<path d="M281.558 638.968C281.912 639.037 282.274 639.037 282.628 638.968C283.057 638.897 283.478 638.777 283.886 638.61C284.448 638.392 284.974 638.068 285.439 637.651C285.721 637.399 285.942 637.071 286.083 636.699C286.194 636.284 286.256 635.854 286.265 635.421C286.268 634.95 286.298 634.481 286.356 634.015C286.427 633.517 286.588 633.041 286.828 632.615C287.284 631.714 288.041 630.864 288.285 629.637C288.475 628.363 288.44 627.06 288.183 625.802C287.9 624.452 287.932 623.044 288.274 621.712C288.689 620.35 289.537 619.123 289.981 617.589C290.425 616.055 290.203 614.394 290.295 612.732C290.321 611.897 290.493 611.076 290.801 610.316C291.114 609.543 291.547 608.821 291.888 608.009C292.577 606.366 292.696 604.513 292.884 602.691C292.975 601.771 293.066 600.844 293.163 599.911C293.219 598.97 293.362 598.039 293.59 597.131C293.853 596.213 294.162 595.312 294.518 594.434C294.706 593.982 294.856 593.511 294.967 593.028C295.034 592.532 295.076 592.033 295.093 591.532C295.135 590.527 295.101 589.52 294.99 588.522C294.888 587.519 294.723 586.522 294.626 585.518C294.626 585.454 294.626 585.397 294.626 585.346V585.141L294.467 585.231C293.645 585.699 292.932 586.375 292.383 587.205C291.845 588.017 291.412 588.91 291.097 589.858C290.547 591.715 290.144 593.623 289.89 595.559C289.648 597.405 289.11 599.187 288.302 600.819C287.875 601.592 287.363 602.301 286.914 603.056C286.423 603.781 286.081 604.619 285.912 605.51C285.684 607.351 286.583 608.968 286.396 610.623C286.309 611.424 286.068 612.193 285.69 612.879C285.337 613.576 284.927 614.221 284.551 614.867C284.15 615.498 283.802 616.17 283.51 616.873C283.238 617.565 283.077 618.305 283.032 619.059C282.941 620.523 283.123 621.916 283.032 623.233C282.921 624.482 282.596 625.695 282.076 626.805C281.603 627.873 281.085 628.844 280.647 629.784C280.435 630.234 280.245 630.697 280.078 631.171C279.92 631.613 279.806 632.074 279.736 632.545C279.622 633.366 279.613 634.201 279.708 635.024C279.812 636.189 280.206 637.297 280.846 638.22C280.94 638.358 281.045 638.486 281.159 638.604C281.236 638.691 281.32 638.77 281.41 638.84L281.632 639.019C281.358 638.77 281.108 638.489 280.886 638.182C280.285 637.262 279.92 636.174 279.833 635.037C279.744 634.223 279.759 633.399 279.878 632.589C279.953 632.13 280.07 631.68 280.226 631.247C280.391 630.8 280.596 630.346 280.795 629.88C281.239 628.953 281.762 627.962 282.241 626.908C282.782 625.781 283.119 624.545 283.231 623.271C283.333 621.929 283.157 620.529 283.231 619.098C283.274 618.369 283.432 617.655 283.698 616.988C283.986 616.3 284.331 615.643 284.728 615.026C285.121 614.387 285.536 613.748 285.9 613.026C286.292 612.31 286.542 611.508 286.635 610.674C286.822 608.936 285.929 607.312 286.162 605.599C286.309 604.741 286.626 603.93 287.09 603.228C287.534 602.487 288.046 601.777 288.485 600.985C289.313 599.328 289.865 597.515 290.112 595.635C290.361 593.716 290.763 591.825 291.313 589.986C291.621 589.073 292.041 588.212 292.56 587.429C293.086 586.626 293.77 585.97 294.558 585.512L294.381 585.403V585.576C294.478 586.598 294.637 587.595 294.746 588.586C294.853 589.569 294.888 590.561 294.848 591.551C294.848 592.037 294.797 592.548 294.728 593.002C294.617 593.467 294.47 593.92 294.29 594.357C293.935 595.245 293.623 596.154 293.357 597.08C293.127 598.005 292.982 598.953 292.924 599.911C292.833 600.844 292.736 601.777 292.645 602.691C292.463 604.519 292.344 606.347 291.678 607.932C291.353 608.718 290.921 609.447 290.596 610.239C290.278 611.028 290.102 611.879 290.078 612.745C289.993 614.426 290.186 616.068 289.782 617.557C289.378 619.046 288.536 620.267 288.109 621.673C287.761 623.037 287.731 624.479 288.023 625.86C288.281 627.087 288.324 628.359 288.149 629.605C287.927 630.774 287.187 631.618 286.726 632.545C286.48 632.99 286.316 633.485 286.242 634.002C286.191 634.473 286.164 634.946 286.162 635.421C286.16 635.853 286.105 636.284 285.997 636.699C285.866 637.055 285.659 637.369 285.394 637.613C284.94 638.026 284.428 638.352 283.88 638.578C283.476 638.748 283.059 638.874 282.633 638.955C282.374 639.006 282.111 639.034 281.848 639.038L281.558 638.968Z" fill="#263238"/>
<path d="M293.801 587.743C293.782 587.785 293.771 587.83 293.766 587.877L293.681 588.267C293.601 588.612 293.51 589.13 293.368 589.775C293.226 590.421 292.861 591.149 292.56 592.044C292.258 592.939 291.934 593.961 291.638 595.131C291.342 596.301 291.068 597.579 290.807 598.966C290.573 600.44 290.157 601.871 289.572 603.216C289.253 603.925 288.894 604.641 288.61 605.421C288.327 606.224 288.135 607.063 288.04 607.92C287.845 609.689 287.565 611.444 287.204 613.18C286.43 616.746 285.69 620.14 285.012 623.233L283.18 631.433C282.667 633.753 282.252 635.638 281.962 636.968C281.825 637.607 281.723 638.105 281.643 638.476L281.569 638.866C281.569 638.956 281.569 639.007 281.569 639.007C281.591 638.967 281.606 638.924 281.614 638.879C281.643 638.77 281.671 638.649 281.717 638.489C281.804 638.123 281.924 637.624 282.075 636.993C282.388 635.67 282.827 633.798 283.373 631.484C283.92 629.171 284.551 626.371 285.257 623.297C285.963 620.223 286.686 616.81 287.471 613.244C287.836 611.501 288.114 609.736 288.302 607.958C288.4 607.123 288.591 606.305 288.871 605.523C289.145 604.756 289.498 604.047 289.816 603.331C290.404 601.964 290.819 600.512 291.051 599.017C291.313 597.636 291.569 596.352 291.848 595.182C292.127 594.013 292.417 592.99 292.731 592.095C293.044 591.2 293.357 590.465 293.499 589.794C293.641 589.123 293.71 588.625 293.766 588.273C293.766 588.113 293.812 587.979 293.829 587.877C293.826 587.831 293.816 587.786 293.801 587.743Z" fill="#263238"/>
<path d="M282.246 638.98C284.774 637.293 285.502 632.161 284.443 629.08C283.385 626 281.541 623.169 281.256 619.884C281.04 617.327 281.774 614.771 281.256 612.284C280.55 608.948 277.647 606.366 277.682 602.934C277.682 601.017 278.678 599.202 278.598 597.278C278.501 594.919 276.89 593.047 275.894 590.97C274.363 587.774 274.261 584.035 273.743 580.469C273.225 576.903 272.007 573.087 269.189 571.336C268.774 574.359 268.051 576.449 268.284 580.533C268.37 582.003 269.889 584.828 270.1 588.049C270.22 589.966 270.305 591.884 270.413 593.839C270.431 595.726 270.704 597.598 271.221 599.393C271.682 600.735 272.422 601.95 272.764 603.349C273.401 605.963 272.559 608.801 273.077 611.447C273.515 613.697 274.904 615.627 275.183 617.902C275.581 621.098 273.737 624.428 274.682 627.489C275.149 629.004 276.259 630.218 276.572 631.784C276.816 632.998 276.572 634.277 276.771 635.497C277.129 637.459 280.465 638.987 282.246 638.865" fill="#00DEDE"/>
<path d="M269.889 574.321C269.88 574.376 269.88 574.432 269.889 574.487C269.889 574.615 269.923 574.781 269.946 574.986C270.009 575.427 270.071 576.066 270.202 576.903C270.333 577.74 270.726 578.68 271.033 579.811C271.341 580.942 271.676 582.24 271.961 583.703C272.246 585.167 272.49 586.771 272.746 588.51C272.95 590.382 273.386 592.213 274.044 593.948C274.397 594.856 274.795 595.764 275.097 596.735C275.388 597.729 275.567 598.759 275.632 599.803C275.769 602.024 276.016 604.234 276.372 606.424C277.146 610.898 277.886 615.18 278.558 619.066C279.229 622.952 279.901 626.429 280.442 629.369C280.983 632.309 281.421 634.648 281.734 636.303L282.092 638.22C282.138 638.418 282.172 638.585 282.195 638.706C282.203 638.764 282.218 638.82 282.24 638.872V638.7C282.24 638.578 282.195 638.412 282.161 638.208C282.087 637.754 281.979 637.121 281.842 636.29C281.552 634.629 281.142 632.257 280.63 629.33L278.785 619.06C278.12 615.174 277.391 610.904 276.623 606.424C276.27 604.24 276.021 602.036 275.877 599.822C275.807 598.755 275.616 597.702 275.308 596.69C275 595.7 274.596 594.773 274.243 593.885C273.588 592.172 273.149 590.365 272.94 588.516C272.678 586.784 272.422 585.167 272.12 583.703C271.858 582.386 271.535 581.085 271.153 579.805C270.834 578.667 270.441 577.74 270.288 576.922C270.134 576.104 270.06 575.459 269.986 575.005C269.952 574.8 269.929 574.641 269.906 574.513L269.889 574.321Z" fill="#263238"/>
<path d="M979.177 633.759C978.932 632.698 979.552 631.637 980.247 630.87C980.941 630.103 981.772 629.407 982.131 628.391C982.7 626.742 981.931 624.613 982.927 623.239C983.497 622.428 984.567 622.159 985.09 621.322C985.33 620.843 985.488 620.319 985.557 619.775C986.113 617.038 987.312 614.517 989.029 612.477C989.146 614.915 988.677 617.343 987.669 619.507C987.197 620.328 986.847 621.231 986.633 622.178C986.417 623.744 987.202 625.374 986.849 626.895C986.462 628.653 984.703 629.829 984.618 631.637C984.544 633.171 985.756 634.513 985.648 636.047C985.575 636.698 985.366 637.319 985.039 637.862C983.986 639.824 982.438 641.179 980.093 641.141L977.213 641.25L979.177 633.759Z" fill="#00DEDE"/>
<g opacity="0.3">
<path opacity="0.3" d="M979.177 633.759C978.932 632.698 979.552 631.637 980.247 630.87C980.941 630.103 981.772 629.407 982.131 628.391C982.7 626.742 981.931 624.613 982.927 623.239C983.497 622.428 984.567 622.159 985.09 621.322C985.33 620.843 985.488 620.319 985.557 619.775C986.113 617.038 987.312 614.517 989.029 612.477C989.146 614.915 988.677 617.343 987.669 619.507C987.197 620.328 986.847 621.231 986.633 622.178C986.417 623.744 987.202 625.374 986.849 626.895C986.462 628.653 984.703 629.829 984.618 631.637C984.544 633.171 985.756 634.513 985.648 636.047C985.575 636.698 985.366 637.319 985.039 637.862C983.986 639.824 982.438 641.179 980.093 641.141L977.213 641.25L979.177 633.759Z" fill="black"/>
</g>
<path d="M976.609 641.281C976.348 641.336 976.079 641.336 975.818 641.281C975.499 641.232 975.186 641.144 974.884 641.019C974.472 640.856 974.087 640.616 973.746 640.31C973.539 640.121 973.377 639.877 973.274 639.6C973.187 639.288 973.141 638.963 973.137 638.635C973.131 638.287 973.108 637.939 973.069 637.594C973.014 637.224 972.896 636.87 972.721 636.552C972.38 635.913 971.816 635.274 971.634 634.347C971.5 633.406 971.527 632.445 971.714 631.516C971.922 630.516 971.898 629.473 971.646 628.486C971.338 627.476 970.707 626.569 970.393 625.425C970.08 624.281 970.228 623.041 970.16 621.82C970.14 621.2 970.013 620.59 969.784 620.024C969.551 619.455 969.215 618.918 968.976 618.318C968.545 617.053 968.295 615.72 968.236 614.368C968.168 613.69 968.1 613 968.031 612.31C967.989 611.611 967.882 610.92 967.713 610.246C967.52 609.564 967.29 608.895 967.024 608.245C966.887 607.909 966.774 607.56 966.688 607.203C966.637 606.82 966.62 606.468 966.597 606.091C966.567 605.347 966.593 604.6 966.677 603.861C966.751 603.113 966.87 602.372 966.944 601.63C966.944 601.585 966.944 601.541 966.944 601.496V601.349L967.058 601.419C967.669 601.764 968.2 602.265 968.606 602.883C969.006 603.484 969.327 604.147 969.557 604.851C969.969 606.226 970.27 607.64 970.456 609.076C970.635 610.447 971.034 611.77 971.634 612.981C971.953 613.556 972.329 614.08 972.665 614.643C973.023 615.188 973.266 615.817 973.376 616.483C973.547 617.845 972.881 619.04 973.017 620.254C973.084 620.848 973.262 621.419 973.541 621.929C973.803 622.446 974.11 622.926 974.401 623.405C974.697 623.875 974.956 624.373 975.175 624.894C975.375 625.406 975.494 625.953 975.528 626.511C975.596 627.604 975.459 628.633 975.528 629.611C975.61 630.538 975.852 631.439 976.239 632.263C976.586 633.056 976.973 633.772 977.298 634.468C977.463 634.82 977.611 635.158 977.736 635.497C977.85 635.828 977.934 636.17 977.986 636.52C978.063 637.13 978.063 637.75 977.986 638.361C977.91 639.215 977.624 640.029 977.161 640.712C977.092 640.815 977.014 640.909 976.928 640.994C976.871 641.061 976.808 641.121 976.74 641.173L976.575 641.3C976.788 641.116 976.98 640.901 977.144 640.661C977.587 639.977 977.857 639.171 977.924 638.329C977.988 637.725 977.977 637.114 977.89 636.513C977.836 636.172 977.75 635.838 977.634 635.516C977.508 635.184 977.36 634.877 977.195 634.5C976.871 633.81 976.478 633.094 976.125 632.295C975.725 631.457 975.475 630.538 975.391 629.592C975.311 628.601 975.448 627.566 975.391 626.498C975.357 625.96 975.24 625.432 975.044 624.939C974.829 624.427 974.574 623.937 974.281 623.475C973.991 623.002 973.678 622.517 973.41 621.993C973.11 621.464 972.916 620.869 972.841 620.248C972.699 618.97 973.365 617.755 973.194 616.483C973.08 615.848 972.845 615.249 972.505 614.726C972.175 614.176 971.794 613.652 971.469 613.058C970.854 611.828 970.443 610.483 970.257 609.089C970.075 607.664 969.778 606.26 969.369 604.896C969.143 604.212 968.833 603.566 968.447 602.979C968.056 602.386 967.547 601.905 966.961 601.573L967.092 601.49V601.617C967.018 602.372 966.899 603.113 966.825 603.848C966.744 604.579 966.718 605.317 966.745 606.053C966.745 606.411 966.785 606.788 966.836 607.127C966.918 607.473 967.027 607.811 967.161 608.136C967.428 608.793 967.658 609.467 967.849 610.156C968.024 610.84 968.133 611.543 968.174 612.252C968.242 612.949 968.31 613.633 968.379 614.317C968.431 615.647 968.673 616.959 969.096 618.203C969.341 618.784 969.665 619.328 969.904 619.915C970.136 620.502 970.265 621.134 970.285 621.775C970.348 623.054 970.206 624.236 970.507 625.342C970.809 626.447 971.429 627.355 971.748 628.397C972.004 629.411 972.026 630.482 971.811 631.509C971.619 632.418 971.586 633.36 971.714 634.283C971.885 635.152 972.431 635.778 972.773 636.462C972.955 636.792 973.077 637.159 973.131 637.542C973.168 637.893 973.189 638.245 973.194 638.597C973.191 638.915 973.231 639.232 973.313 639.536C973.411 639.802 973.566 640.037 973.763 640.22C974.104 640.527 974.489 640.767 974.901 640.93C975.2 641.057 975.509 641.152 975.824 641.211C976.012 641.247 976.202 641.269 976.393 641.275L976.609 641.281Z" fill="#263238"/>
<path d="M967.526 603.26C967.526 603.26 967.526 603.292 967.526 603.356L967.588 603.643C967.645 603.899 967.713 604.282 967.822 604.762C967.93 605.241 968.197 605.784 968.419 606.449C968.682 607.198 968.91 607.962 969.102 608.737C969.324 609.6 969.518 610.552 969.723 611.581C969.894 612.675 970.203 613.735 970.639 614.732C970.878 615.256 971.14 615.787 971.351 616.368C971.559 616.964 971.698 617.587 971.766 618.222C971.91 619.535 972.117 620.838 972.386 622.127C972.956 624.773 973.525 627.291 974.009 629.585C974.492 631.88 974.982 633.931 975.375 635.67L976.274 639.773C976.376 640.246 976.456 640.616 976.513 640.891L976.57 641.185C976.57 641.249 976.57 641.281 976.57 641.281C976.566 641.249 976.566 641.217 976.57 641.185L976.496 640.904L976.223 639.792C975.995 638.808 975.654 637.414 975.261 635.702C974.868 633.989 974.39 631.912 973.861 629.63C973.331 627.348 972.802 624.817 972.221 622.171C971.953 620.877 971.746 619.567 971.601 618.247C971.537 617.628 971.403 617.02 971.203 616.439C971.003 615.876 970.742 615.346 970.502 614.815C970.068 613.802 969.76 612.727 969.586 611.62C969.393 610.591 969.205 609.638 969.017 608.775C968.829 607.913 968.584 607.152 968.362 606.487C968.14 605.823 967.901 605.279 967.793 604.787C967.685 604.295 967.639 603.912 967.594 603.656C967.594 603.535 967.56 603.439 967.548 603.362C967.538 603.329 967.531 603.295 967.526 603.26Z" fill="#263238"/>
<path d="M976.103 641.294C974.224 640.015 973.684 636.238 974.469 633.95C975.254 631.662 976.626 629.566 976.837 627.124C976.996 625.245 976.45 623.29 976.837 621.487C977.366 619.014 979.518 617.096 979.495 614.553C979.495 613.121 978.755 611.779 978.812 610.354C978.886 608.603 980.081 607.216 980.821 605.675C981.959 603.317 982.028 600.524 982.415 597.884C982.802 595.245 983.701 592.407 985.79 591.103C986.097 593.353 986.621 594.887 986.456 597.929C986.399 599.022 985.266 601.125 985.113 603.509C985.022 604.94 984.959 606.372 984.879 607.804C984.877 609.2 984.685 610.588 984.31 611.92C983.969 612.923 983.422 613.837 983.172 614.86C982.694 616.777 983.32 618.905 982.938 620.867C982.614 622.535 981.584 623.967 981.373 625.654C981.083 628.032 982.449 630.499 981.749 632.761C981.402 633.88 980.576 634.787 980.343 635.957C980.161 636.858 980.343 637.81 980.195 638.711C979.933 640.169 977.457 641.268 976.137 641.21" fill="#00DEDE"/>
<path d="M985.274 593.334C985.276 593.377 985.276 593.419 985.274 593.462L985.234 593.833C985.188 594.152 985.143 594.632 985.046 595.245C984.949 595.859 984.653 596.562 984.425 597.405C984.198 598.249 983.953 599.208 983.737 600.288C983.52 601.368 983.344 602.569 983.168 603.86C983.017 605.249 982.693 606.606 982.206 607.893C981.944 608.564 981.636 609.242 981.426 609.958C981.21 610.697 981.077 611.463 981.027 612.239C980.915 613.886 980.725 615.524 980.458 617.148C979.889 620.478 979.32 623.648 978.836 626.53C978.352 629.412 977.834 631.988 977.436 634.168C977.037 636.347 976.707 638.085 976.48 639.319L976.212 640.712L976.138 641.076C976.131 641.118 976.119 641.159 976.104 641.198C976.104 641.198 976.104 641.153 976.104 641.07C976.104 640.987 976.138 640.859 976.161 640.706L976.4 639.3C976.611 638.066 976.918 636.309 977.299 634.142L978.66 626.472C979.149 623.59 979.696 620.42 980.265 617.097C980.529 615.477 980.719 613.843 980.834 612.201C980.88 611.409 981.017 610.627 981.244 609.875C981.471 609.14 981.773 608.462 982.035 607.797C982.519 606.524 982.844 605.182 983.002 603.809C983.196 602.531 983.384 601.323 983.606 600.237C983.828 599.15 984.073 598.185 984.323 597.348C984.573 596.511 984.858 595.814 984.966 595.213C985.074 594.612 985.137 594.127 985.188 593.807C985.188 593.654 985.234 593.532 985.251 593.436C985.268 593.34 985.268 593.334 985.274 593.334Z" fill="#263238"/>
<path d="M1123.92 638.276H0.55249V652H1123.92V638.276Z" fill="#A39A9A"/>
</svg>
