<svg width="168" height="28" viewBox="0 0 84 34" fill="none" xmlns="http://www.w3.org/2000/svg">
<path d="M61.5774 23.9788L61.0946 25.8727L60.9582 26.4092H13.561V23.9788H61.5774Z" fill="black"/>
<path d="M67.6838 0.000244141L67.6776 0.0236988L67.2213 1.81407L66.5826 4.32371L66.1263 6.11408L65.7267 7.68065L65.585 8.24161L65.2705 9.472L64.5485 12.309L64.3296 13.1671L64.2154 13.6147L64.0922 14.1004L63.3693 16.9374L62.9139 18.7278L62.7465 19.3826L62.7048 19.5477L62.3053 21.1153L61.849 22.9066L61.5762 23.9787L61.0933 25.8726L60.9569 26.4092H58.6694L58.8059 25.8726L59.2887 23.9787L59.5616 22.9066L60.0178 21.1153L60.4174 19.5477L60.6265 18.7278L61.073 16.9736L61.0827 16.9374L61.9279 13.6147L62.0422 13.1671L62.983 9.472L63.2975 8.24161L63.4393 7.68065L63.8388 6.11408L64.2951 4.32371L64.9338 1.81407L65.3901 0.0236988L65.3954 0.000244141H67.6838Z" fill="black"/>
<path d="M7.52234 4.70766C7.07621 4.70295 6.63583 4.81887 6.2397 5.04528C5.84356 5.27169 5.50374 5.6017 5.24993 6.00646L1.28718 12.5092C0.689555 13.482 0.369022 14.6295 0.366699 15.8046L0.366699 23.9082C0.366699 25.207 1.374 26.2644 2.62493 26.2771L5.56001 26.3074L13.5599 26.3905L15.012 26.4051H15.4337C15.8332 26.4051 16.1761 26.3973 16.4702 26.3817L16.984 24.5249L17.1364 23.9756L18.367 19.5232L22.4617 4.70766H7.52234ZM2.63556 15.0844C2.17399 15.1928 1.82228 14.6612 2.08274 14.2527L6.95446 6.6456C7.00533 6.56905 7.07211 6.50709 7.14919 6.46492C7.22627 6.42275 7.31139 6.40159 7.39742 6.40323L15.105 6.46578C15.239 6.46209 15.369 6.51706 15.4664 6.61868C15.5638 6.7203 15.6209 6.86032 15.625 7.00816V11.5779C15.6225 11.7044 15.5806 11.826 15.5064 11.9225C15.4322 12.0189 15.3302 12.0843 15.2175 12.1076L2.63556 15.0844Z" fill="black"/>
<path d="M17.3093 32.9257C20.545 32.9257 23.168 30.0322 23.168 26.463C23.168 22.8937 20.545 20.0002 17.3093 20.0002C14.0737 20.0002 11.4507 22.8937 11.4507 26.463C11.4507 30.0322 14.0737 32.9257 17.3093 32.9257Z" fill="black"/>
<path d="M55.4414 26.5373C55.4414 26.7181 55.4343 26.8959 55.421 27.0738C55.3357 28.2025 54.983 29.2866 54.3982 30.2176C53.8135 31.1486 53.0172 31.8938 52.0892 32.3784C51.1612 32.8631 50.1341 33.0703 49.1106 32.9792C48.0872 32.8881 47.1034 32.502 46.2579 31.8595C45.6304 31.3809 45.0931 30.7725 44.6756 30.0682C44.0532 29.019 43.7225 27.7921 43.7241 26.5382C43.7241 26.4952 43.7241 26.4532 43.7241 26.4102C43.7368 25.5733 43.8982 24.7472 44.199 23.9788H54.963C55.1969 24.582 55.3463 25.2209 55.406 25.8737C55.4219 26.0496 55.4317 26.2284 55.4352 26.4102C55.4414 26.4522 55.4414 26.4943 55.4414 26.5373Z" fill="black"/>
<path d="M74.2153 4.32397V6.11434H63.8394L64.2956 4.32397H74.2153Z" fill="black"/>
<path d="M71.474 7.68091V9.47225H62.9824L63.2969 8.24186L63.4387 7.68091H71.474Z" fill="black"/>
<path d="M77.0059 21.1155V22.9068H59.562L60.0183 21.1155H77.0059Z" fill="black"/>
<path d="M80.196 12.3091V14.1004H62.7529L63.2092 12.3091H80.196Z" fill="black"/>
<path d="M71.4685 16.9373V18.7276H60.6265L61.073 16.9734L61.0827 16.9373H71.4685Z" fill="black"/>
<path d="M65.3903 0.0246582H67.6778H81.5115V1.81503H67.2215H64.9341L65.3903 0.0246582Z" fill="black"/>
<path d="M59.2606 27.0747V28.8651H49.9478L50.1914 27.0747H59.2606Z" fill="black"/>
<path d="M56.7244 30.0674V31.8597H46.258C45.6306 31.3811 45.0932 30.7727 44.6758 30.0684L56.7244 30.0674Z" fill="black"/>
<path d="M62.7464 16.9734V19.5475H62.7048L62.3052 21.1151H62.7464V22.9064H61.849L61.5761 23.9785L61.0933 25.8725H45.0376V23.9785H59.2886L59.5615 22.9064L60.0178 21.1151L60.4173 19.5475L60.6264 18.7276L61.0729 16.9734H62.7464Z" fill="black"/>
<path d="M60.8259 27.0747H59.8613V28.8661H60.8259V27.0747Z" fill="black"/>
<path d="M58.67 30.0674H57.1382V31.8587H58.67V30.0674Z" fill="black"/>
<path d="M78.3954 4.32397H75.0918V6.11532H78.3954V4.32397Z" fill="black"/>
<path d="M73.5201 7.68091H72.2319V9.47225H73.5201V7.68091Z" fill="black"/>
<path d="M83.6645 12.3091H81.0908V14.1004H83.6645V12.3091Z" fill="black"/>
<path d="M74.8055 16.9373H72.2319V18.7286H74.8055V16.9373Z" fill="black"/>
<path d="M79.4901 21.1155H77.6226V22.9068H79.4901V21.1155Z" fill="black"/>
<path d="M84.0009 0.0246582H82.377V1.81601H84.0009V0.0246582Z" fill="black"/>
<path d="M32.0906 19.5801C30.6907 19.5983 29.4742 19.3609 28.441 18.8677C27.4078 18.3744 26.6119 17.6714 26.0533 16.7587C25.4946 15.8459 25.2075 14.7895 25.1918 13.5896C25.1711 12.0031 25.5124 10.5719 26.2158 9.29591C26.9324 8.00644 27.9391 6.98653 29.2361 6.2362C30.5464 5.48569 32.0482 5.09937 33.7413 5.07726C35.1412 5.05897 36.3578 5.29644 37.391 5.78965C38.4242 6.28287 39.2201 6.98586 39.7787 7.89865C40.3373 8.81143 40.6245 9.86777 40.6402 11.0677C40.6609 12.6542 40.313 14.0922 39.5964 15.3817C38.893 16.6576 37.8862 17.6709 36.5759 18.4214C35.2789 19.1717 33.7838 19.5579 32.0906 19.5801ZM32.3345 16.8166C33.3611 16.8032 34.2578 16.5448 35.0247 16.0414C35.7915 15.538 36.3761 14.8703 36.7786 14.0384C37.1811 13.2064 37.3759 12.2904 37.3628 11.2905C37.3489 10.2239 37.0045 9.38167 36.3297 8.76377C35.6547 8.13253 34.7106 7.82483 33.4974 7.84068C32.4708 7.85409 31.5741 8.11249 30.8073 8.61588C30.0405 9.11927 29.4558 9.78697 29.0533 10.619C28.6508 11.451 28.4561 12.3669 28.4692 13.3668C28.4831 14.4334 28.8275 15.2823 29.5025 15.9135C30.1773 16.5315 31.1213 16.8325 32.3345 16.8166ZM44.3186 5.17912L50.1781 5.10259C51.6046 5.08395 52.8343 5.30791 53.8672 5.77446C54.9132 6.22751 55.7152 6.89042 56.2733 7.7632C56.8448 8.63582 57.1383 9.6654 57.1538 10.852C57.175 12.4785 56.8271 13.9165 56.11 15.166C55.3928 16.4021 54.3786 17.3688 53.0676 18.066C51.7698 18.7496 50.2609 19.1027 48.5411 19.1252L41.7017 19.2145L44.3186 5.17912ZM48.6063 16.4641C49.6996 16.4498 50.6432 16.2108 51.4372 15.747C52.2444 15.2698 52.8561 14.6284 53.2722 13.8229C53.6882 13.0041 53.8896 12.088 53.8764 11.0748C53.8626 10.0215 53.512 9.20606 52.8244 8.62832C52.1366 8.03726 51.1461 7.75017 49.8528 7.76706L47.0731 7.80337L45.4466 16.5054L48.6063 16.4641Z" fill="#00DEDE"/>
</svg>
