<svg width="125" height="93" viewBox="0 0 125 93" fill="none" xmlns="http://www.w3.org/2000/svg">
<path d="M79.3541 20.9154H45.672C44.9044 20.9161 44.1686 21.1488 43.6259 21.5625C43.0831 21.9761 42.7778 22.537 42.7769 23.122V80.1792L42.3908 80.2689L34.1281 82.1976C33.7365 82.2886 33.3135 82.2574 32.952 82.111C32.5905 81.9645 32.3201 81.7147 32.2 81.4164L7.62206 20.2254C7.50245 19.9269 7.54322 19.6045 7.7354 19.3289C7.92758 19.0533 8.25545 18.8472 8.64696 18.7558L21.3798 15.7841L58.2929 7.17221L71.0257 4.20056C71.2195 4.1551 71.4231 4.13922 71.625 4.15381C71.8268 4.16841 72.0229 4.2132 72.202 4.28562C72.3811 4.35804 72.5397 4.45667 72.6687 4.57586C72.7977 4.69505 72.8947 4.83247 72.9539 4.98025L79.2364 20.6211L79.3541 20.9154Z" fill="#F2F2F2"/>
<path d="M86.7058 20.6216L79.134 1.7707C79.008 1.45661 78.8021 1.16452 78.528 0.911117C78.2538 0.657714 77.9169 0.447968 77.5363 0.293863C77.1558 0.139757 76.7392 0.044312 76.3102 0.0129848C75.8813 -0.0183424 75.4484 0.0150623 75.0364 0.111287L57.1348 4.28778L20.2237 12.9012L2.32205 17.0791C1.49043 17.2738 0.794112 17.7119 0.385923 18.2975C-0.022265 18.883 -0.10897 19.5681 0.144844 20.2023L26.0236 84.6268C26.2298 85.1388 26.6458 85.5869 27.2106 85.9054C27.7755 86.2239 28.4594 86.396 29.162 86.3966C29.4872 86.3967 29.8105 86.3595 30.1212 86.2862L42.3927 83.4234L42.7788 83.3322V83.0248L42.3927 83.1145L30.0073 86.0052C29.2733 86.1758 28.4804 86.1175 27.8027 85.8431C27.125 85.5686 26.6178 85.1006 26.3923 84.5415L0.515501 20.1155C0.403766 19.8385 0.364824 19.5474 0.400902 19.2589C0.43698 18.9704 0.547368 18.6901 0.725752 18.4342C0.904135 18.1782 1.14701 17.9516 1.44046 17.7673C1.73391 17.583 2.07218 17.4446 2.43589 17.3601L20.3375 13.1821L57.2487 4.57024L75.1504 0.392272C75.4262 0.328102 75.713 0.295383 76.0015 0.295178C76.6205 0.296237 77.2228 0.448344 77.7202 0.729219C78.2175 1.01009 78.5838 1.40498 78.7654 1.85603L86.3024 20.6216L86.4221 20.9158H86.8236L86.7058 20.6216Z" fill="#3F3D56"/>
<path d="M23.6793 18.8039C23.3073 18.8037 22.9452 18.7127 22.6461 18.5441C22.3469 18.3756 22.1266 18.1384 22.0173 17.8673L19.5312 11.6781C19.4644 11.5118 19.4412 11.3372 19.463 11.1641C19.4848 10.991 19.5511 10.8229 19.6581 10.6693C19.7651 10.5158 19.9108 10.3798 20.0867 10.2692C20.2627 10.1585 20.4656 10.0754 20.6837 10.0245L54.6416 2.10055C55.0822 1.99809 55.558 2.03304 55.9648 2.19771C56.3715 2.36239 56.6759 2.64334 56.8112 2.97891L59.2972 9.16822C59.4316 9.50398 59.3857 9.86665 59.1696 10.1767C58.9536 10.4867 58.585 10.7187 58.1448 10.8219L24.1868 18.7458C24.0224 18.7843 23.8513 18.8039 23.6793 18.8039V18.8039Z" fill="#00DEDE"/>
<path d="M36.702 6.61334C38.8339 6.61334 40.5622 5.29606 40.5622 3.67111C40.5622 2.04616 38.8339 0.728882 36.702 0.728882C34.5701 0.728882 32.8418 2.04616 32.8418 3.67111C32.8418 5.29606 34.5701 6.61334 36.702 6.61334Z" fill="#00DEDE"/>
<path d="M36.7022 5.53421C38.0522 5.53421 39.1466 4.70006 39.1466 3.67109C39.1466 2.64213 38.0522 1.80798 36.7022 1.80798C35.3522 1.80798 34.2578 2.64213 34.2578 3.67109C34.2578 4.70006 35.3522 5.53421 36.7022 5.53421Z" fill="white"/>
<path d="M116.315 85.6445H51.0781C50.6431 85.6441 50.2261 85.5122 49.9186 85.2778C49.611 85.0434 49.438 84.7256 49.4375 84.3941V24.8139C49.438 24.4824 49.611 24.1646 49.9186 23.9301C50.2261 23.6957 50.6431 23.5638 51.0781 23.5635H116.315C116.75 23.5639 117.167 23.6957 117.475 23.9301C117.782 24.1646 117.955 24.4824 117.956 24.8139V84.3941C117.955 84.7256 117.782 85.0434 117.475 85.2778C117.167 85.5122 116.75 85.6441 116.315 85.6445V85.6445Z" fill="#E6E6E6"/>
<path d="M86.3023 20.6212H45.6737C44.8039 20.6222 43.97 20.8859 43.355 21.3547C42.7399 21.8236 42.3938 22.4591 42.3926 23.1221V83.1141L42.7786 83.0244V23.1221C42.7795 22.5371 43.0849 21.9762 43.6276 21.5625C44.1703 21.1489 44.9062 20.9162 45.6737 20.9154H86.422L86.3023 20.6212ZM121.72 20.6212H45.6737C44.8039 20.6222 43.97 20.8859 43.355 21.3547C42.7399 21.8236 42.3938 22.4591 42.3926 23.1221V90.4991C42.3938 91.1621 42.7399 91.7977 43.355 92.2665C43.97 92.7353 44.8039 92.9991 45.6737 93H121.72C122.589 92.9991 123.423 92.7353 124.038 92.2665C124.653 91.7977 124.999 91.1621 125.001 90.4991V23.1221C124.999 22.4591 124.653 21.8236 124.038 21.3547C123.423 20.8859 122.589 20.6222 121.72 20.6212V20.6212ZM124.615 90.4991C124.614 91.0842 124.308 91.645 123.766 92.0587C123.223 92.4724 122.487 92.7051 121.72 92.7058H45.6737C44.9062 92.7051 44.1703 92.4724 43.6276 92.0587C43.0849 91.645 42.7795 91.0842 42.7786 90.4991V23.1221C42.7795 22.5371 43.0849 21.9762 43.6276 21.5625C44.1703 21.1489 44.9062 20.9162 45.6737 20.9154H121.72C122.487 20.9162 123.223 21.1489 123.766 21.5625C124.308 21.9762 124.614 22.5371 124.615 23.1221V90.4991Z" fill="#3F3D56"/>
<path d="M101.452 27.0941H65.9383C65.4777 27.0937 65.0362 26.954 64.7105 26.7058C64.3849 26.4576 64.2017 26.1211 64.2012 25.7701V19.2971C64.2017 18.9461 64.3849 18.6096 64.7105 18.3614C65.0362 18.1132 65.4777 17.9735 65.9383 17.9731H101.452C101.913 17.9735 102.354 18.1132 102.68 18.3614C103.005 18.6096 103.189 18.9461 103.189 19.2971V25.7701C103.189 26.1211 103.005 26.4576 102.68 26.7058C102.354 26.954 101.913 27.0937 101.452 27.0941V27.0941Z" fill="#00DEDE"/>
<path d="M83.6961 18.4145C85.8281 18.4145 87.5563 17.0972 87.5563 15.4723C87.5563 13.8473 85.8281 12.53 83.6961 12.53C81.5642 12.53 79.8359 13.8473 79.8359 15.4723C79.8359 17.0972 81.5642 18.4145 83.6961 18.4145Z" fill="#00DEDE"/>
<path d="M83.695 17.2644C84.9935 17.2644 86.0462 16.462 86.0462 15.4723C86.0462 14.4825 84.9935 13.6802 83.695 13.6802C82.3964 13.6802 81.3438 14.4825 81.3438 15.4723C81.3438 16.462 82.3964 17.2644 83.695 17.2644Z" fill="white"/>
</svg>
