<svg width="80" height="80" viewBox="0 0 80 80" fill="none" xmlns="http://www.w3.org/2000/svg">
<g clip-path="url(#clip0_81_1837)">
<path d="M65.8787 58.6668H8.56C4.47969 58.6668 1.17188 55.359 1.17188 51.2787V13.3271C1.17188 9.24678 4.47969 5.93896 8.56 5.93896H65.8787C69.9591 5.93896 73.2669 9.24678 73.2669 13.3271V51.2787C73.267 55.359 69.9592 58.6668 65.8787 58.6668Z" fill="#E7ECF6"/>
<path d="M14.4594 58.671H8.55984C4.47922 58.671 1.17188 55.3637 1.17188 51.283V13.3308C1.17188 9.25037 4.47922 5.94287 8.55984 5.94287H14.4594C10.3803 5.94287 7.07141 9.25037 7.07141 13.3308V51.283C7.07141 55.3637 10.3803 58.671 14.4594 58.671Z" fill="#D8E2F1"/>
<path d="M29.1578 36.0853L29.5425 36.3073L29.1578 36.5293C27.3222 37.5892 26.6933 39.9364 27.7531 41.772C28.813 43.6076 31.1602 44.2365 32.9958 43.1767L33.3805 42.9547V43.3989C33.3805 45.5184 35.0988 47.2367 37.2183 47.2367C39.3379 47.2367 41.0563 45.5184 41.0563 43.3989V42.9547L41.441 43.1767C43.2766 44.2365 45.6238 43.6076 46.6837 41.772C47.7435 39.9364 47.1144 37.5892 45.2788 36.5293L44.8941 36.3073L45.2788 36.0853C47.1144 35.0254 47.7433 32.6782 46.6837 30.8426C45.6238 29.007 43.2766 28.3781 41.441 29.4379L41.0563 29.66V29.2157C41.0563 27.0962 39.338 25.3779 37.2183 25.3779C35.0988 25.3779 33.3805 27.0962 33.3805 29.2157V29.66L32.9958 29.4379C31.1602 28.3781 28.813 29.007 27.7531 30.8426C26.6933 32.6782 27.3222 35.0254 29.1578 36.0853Z" fill="#00DEDE"/>
<path d="M30.4225 30.842C30.0744 31.4469 29.9075 32.107 29.9075 32.7583C29.9075 34.0842 30.5966 35.3737 31.8281 36.0845L32.2125 36.3079L31.8281 36.5298C29.9917 37.5887 29.3636 39.9359 30.4225 41.7723C30.8881 42.5773 31.6033 43.1518 32.4127 43.4522C31.9775 43.6132 31.5278 43.6915 31.0809 43.6915C29.7552 43.6915 28.4641 43.0025 27.7533 41.7723C26.6944 39.9358 27.3225 37.5887 29.1589 36.5298L29.5433 36.3079L29.1589 36.0845C27.9273 35.3737 27.2383 34.0842 27.2383 32.7583C27.2383 32.107 27.4052 31.4469 27.7533 30.842C28.7034 29.197 30.6894 28.5211 32.4127 29.1622C31.6033 29.4625 30.8881 30.037 30.4225 30.842Z" fill="#00DEDE"/>
<path d="M38.5533 46.9979C38.1384 47.1531 37.6887 47.2373 37.2187 47.2373C35.1922 47.2373 33.5328 45.6662 33.3906 43.676C33.5095 43.6862 33.63 43.692 33.7505 43.692C34.4017 43.692 35.0603 43.5265 35.6653 43.177L36.0497 42.9551V43.399C36.0495 45.0482 37.0911 46.4552 38.5533 46.9979Z" fill="#00DEDE"/>
<path d="M37.2187 25.3779C37.6887 25.3779 38.1384 25.462 38.5533 25.6173C38.0297 25.8103 37.5611 26.1148 37.1737 26.5021C36.4789 27.197 36.0495 28.1559 36.0495 29.2162V29.6601L35.6652 29.4381C34.9486 29.0246 34.155 28.8679 33.3906 28.939C33.4573 27.9889 33.8708 27.1359 34.5047 26.502C35.1994 25.8073 36.1597 25.3779 37.2187 25.3779Z" fill="#00DEDE"/>
<path d="M33.3796 43.3985C33.3796 43.4913 33.3824 43.5841 33.3898 43.6755C33.0562 43.6436 32.7268 43.5682 32.4121 43.4521C32.6095 43.3782 32.8052 43.2868 32.9952 43.1765L33.3796 42.9546V43.3985Z" fill="#00DEDE"/>
<path d="M32.4121 29.1624C32.727 29.0463 33.0562 28.971 33.3898 28.939C33.3826 29.0304 33.3796 29.1232 33.3796 29.216V29.6599L32.9952 29.4379C32.8052 29.3279 32.6095 29.2365 32.4121 29.1624Z" fill="#00DEDE"/>
<path d="M37.2189 40.4056C39.4821 40.4056 41.3167 38.571 41.3167 36.3078C41.3167 34.0446 39.4821 32.21 37.2189 32.21C34.9557 32.21 33.1211 34.0446 33.1211 36.3078C33.1211 38.571 34.9557 40.4056 37.2189 40.4056Z" fill="#00DEDE"/>
<path d="M61.1573 74.0598C59.4606 74.0598 57.8489 73.277 56.8001 71.9242L47.5802 60.0314C45.7145 57.6247 46.1529 54.1611 48.5596 52.2953C50.9667 50.4295 54.4301 50.868 56.2959 53.2747L60.4348 58.6136L68.5115 44.3122C70.0092 41.6606 73.3723 40.725 76.0243 42.2225C78.6759 43.72 79.6115 47.0836 78.114 49.7351L65.9592 71.2575C65.0515 72.865 63.3995 73.9114 61.5584 74.0454C61.4243 74.0549 61.2904 74.0598 61.1573 74.0598Z" fill="#0CEB6C"/>
<path d="M77.9737 44.0773C77.8965 44.0259 77.8155 43.9781 77.7348 43.9322C75.0826 42.4342 71.719 43.3697 70.221 46.022L62.1449 60.3234L60.4355 58.614L68.5116 44.3126C70.0096 41.6605 73.3732 40.7248 76.0254 42.2228C76.8488 42.6878 77.5051 43.3312 77.9737 44.0773Z" fill="#0CEB6C"/>
<path d="M65.1091 72.3907C64.181 73.3484 62.9219 73.9475 61.5581 74.0468C61.4239 74.056 61.2899 74.0615 61.1575 74.0615C59.4592 74.0615 57.8491 73.2786 56.7997 71.9257L47.5803 60.0321C45.7149 57.6262 46.1522 54.1634 48.56 52.2961C49.2713 51.7428 50.0781 51.3936 50.9072 51.2373C49.0177 53.1745 48.7972 56.2587 50.5028 58.4587L59.7222 70.3523C60.7717 71.7051 62.3836 72.4881 64.08 72.4881C64.2124 72.4881 64.3466 72.4826 64.4806 72.4734C64.6938 72.4587 64.9033 72.4312 65.1091 72.3907Z" fill="#0CEB6C"/>
<path d="M37.2187 41.5776C40.1243 41.5776 42.4882 39.2137 42.4882 36.3081C42.4882 33.4025 40.1243 31.0386 37.2187 31.0386C34.3131 31.0386 31.9492 33.4025 31.9492 36.3081C31.9492 39.2137 34.313 41.5776 37.2187 41.5776ZM37.2187 33.3825C38.832 33.3825 40.1445 34.695 40.1445 36.3083C40.1445 37.9215 38.832 39.234 37.2187 39.234C35.6054 39.234 34.293 37.9215 34.293 36.3083C34.293 34.695 35.6054 33.3825 37.2187 33.3825Z" fill="#323232"/>
<path d="M79.7526 45.2326C79.2742 43.5119 78.1541 42.0809 76.5994 41.2032C75.9172 40.8177 75.187 40.559 74.4372 40.4304V13.3274C74.4372 9.62244 72.0747 6.3551 68.5586 5.19744C67.9433 4.99447 67.2812 5.32932 67.0791 5.944C66.8767 6.55869 67.2109 7.22119 67.8256 7.42353C70.2055 8.20713 71.8567 10.3226 72.0695 12.7857L48.2948 31.9062C48.1973 31.3407 48.0014 30.7829 47.6981 30.2576C46.5403 28.2524 44.1964 27.3496 42.0589 27.924C41.4875 25.786 39.5337 24.2071 37.2183 24.2071C34.9028 24.2071 32.9491 25.7862 32.3777 27.924C30.2411 27.3501 27.8961 28.2524 26.7384 30.2576C26.4353 30.7826 26.2394 31.3402 26.1419 31.9055L2.36875 12.7862C2.64406 9.6115 5.31453 7.11181 8.55922 7.11181H63.5342C64.1814 7.11181 64.7061 6.58713 64.7061 5.93994C64.7061 5.29275 64.1816 4.76807 63.5342 4.76807H8.55922C3.83969 4.76822 0 8.60775 0 13.3274V51.278C0 55.9985 3.83969 59.8388 8.55922 59.8388H46.0605C46.2311 60.1535 46.428 60.4588 46.6541 60.7507L47.3994 61.7116C47.7959 62.223 48.5323 62.316 49.0434 61.9194C49.5548 61.5227 49.6478 60.7866 49.2511 60.2752L48.5062 59.3149C47.0398 57.4222 47.3853 54.6885 49.2759 53.2216C51.1687 51.7551 53.9026 52.1008 55.3692 53.9929L59.5083 59.3318C59.7487 59.6418 60.1278 59.8119 60.5195 59.7826C60.9108 59.7541 61.2619 59.5318 61.4547 59.1901L69.5312 44.8885C70.1012 43.8788 71.0305 43.1515 72.1478 42.8407C73.2655 42.5298 74.4369 42.673 75.447 43.244C76.4569 43.814 77.1841 44.7432 77.4948 45.8607C77.8055 46.9782 77.6623 48.1496 77.0917 49.1596L64.9372 70.6808C64.2205 71.9504 62.9256 72.7708 61.4631 72.8764C61.3667 72.8843 61.2634 72.8883 61.1562 72.8883C59.805 72.8883 58.5541 72.275 57.7247 71.2063L52.1203 63.9754C51.7241 63.4638 50.988 63.3707 50.4762 63.7671C49.9648 64.1635 49.8714 64.8996 50.268 65.4111L55.8728 72.6427C57.1498 74.2882 59.0755 75.2321 61.1562 75.2321C61.3264 75.2321 61.4933 75.2255 61.6422 75.2133C63.8795 75.0519 65.8742 73.7883 66.9778 71.8333L79.132 50.3124C80.0108 48.7573 80.2311 46.9534 79.7526 45.2326ZM28.7683 31.4295C29.5033 30.1563 31.1372 29.7185 32.4102 30.4537L32.7947 30.6757C33.1572 30.8851 33.6041 30.8851 33.9666 30.6757C34.3291 30.4663 34.5525 30.0796 34.5525 29.6609V29.2168C34.5525 27.7468 35.7484 26.5509 37.2184 26.5509C38.6884 26.5509 39.8844 27.7468 39.8844 29.2168V29.6609C39.8844 30.0795 40.1078 30.4663 40.4702 30.6757C40.833 30.8851 41.2795 30.8849 41.642 30.6757L42.0269 30.4537C43.3005 29.7188 44.9336 30.1565 45.6686 31.4295C46.4036 32.7026 45.9658 34.3362 44.6928 35.0712L44.3081 35.2932C43.9456 35.5026 43.7222 35.8893 43.7222 36.308C43.7222 36.7268 43.9456 37.1135 44.3081 37.3229L44.6928 37.5449C45.9658 38.2799 46.4036 39.9135 45.6686 41.1866C44.9336 42.4598 43.2998 42.8973 42.0267 42.1623L41.642 41.9402C41.2795 41.7309 40.833 41.731 40.4702 41.9402C40.1078 42.1496 39.8844 42.5365 39.8844 42.9551V43.3991C39.8844 44.8691 38.6884 46.0651 37.2184 46.0651C35.7484 46.0651 34.5525 44.8691 34.5525 43.3991V42.9551C34.5525 42.5363 34.3291 42.1496 33.9666 41.9402C33.6041 41.7309 33.1572 41.7309 32.7947 41.9402L32.4102 42.1623C31.1373 42.8971 29.5036 42.4596 28.7683 41.1865C28.0334 39.9135 28.4712 38.2798 29.7444 37.5448L30.1289 37.3227C30.4914 37.1134 30.7147 36.7266 30.7147 36.308C30.7147 35.8895 30.4914 35.5026 30.1289 35.2934L29.7444 35.0713C28.4714 34.3362 28.0334 32.7026 28.7683 31.4295ZM22.8966 32.303L2.34375 48.8324V15.7737L22.8966 32.303ZM60.2806 56.5027L57.2214 52.5566C54.9628 49.6435 50.7544 49.1105 47.8397 51.3691C45.9073 52.8685 45.0245 55.2265 45.3084 57.4947H8.55922C5.31469 57.4947 2.64437 54.9948 2.36875 51.8196L24.7662 33.8065L26.8941 35.5177C27.0792 35.7998 27.2941 36.0649 27.5373 36.3079C25.9716 37.8716 25.5809 40.353 26.7386 42.3583C27.8964 44.3637 30.2408 45.266 32.3778 44.6919C32.9492 46.8299 34.903 48.4088 37.2184 48.4088C39.5339 48.4088 41.4877 46.8298 42.0591 44.6919C44.1961 45.2657 46.5406 44.3633 47.6983 42.3583C48.8559 40.353 48.4653 37.8716 46.8997 36.3079C47.1425 36.0654 47.3569 35.8007 47.5419 35.5193L49.6716 33.8065L65.7811 46.763L60.2806 56.5027ZM67.4903 43.7362L66.9489 44.6949L51.5411 32.3029L72.0933 15.7738V40.451C71.9014 40.4868 71.71 40.5298 71.5197 40.5827C69.7991 41.0613 68.368 42.1813 67.4903 43.7362Z" fill="#323232"/>
</g>
<defs>
<clipPath id="clip0_81_1837">
<rect width="80" height="80" fill="white"/>
</clipPath>
</defs>
</svg>
